G04 #@! TF.GenerationSoftware,KiCad,Pcbnew,7.0.10-7.0.10~ubuntu22.04.1*
G04 #@! TF.CreationDate,2024-01-28T10:53:56+00:00*
G04 #@! TF.ProjectId,lewycustom,6c657779-6375-4737-946f-6d2e6b696361,rev?*
G04 #@! TF.SameCoordinates,Original*
G04 #@! TF.FileFunction,Legend,Bot*
G04 #@! TF.FilePolarity,Positive*
%FSLAX46Y46*%
G04 Gerber Fmt 4.6, Leading zero omitted, Abs format (unit mm)*
G04 Created by KiCad (PCBNEW 7.0.10-7.0.10~ubuntu22.04.1) date 2024-01-28 10:53:56*
%MOMM*%
%LPD*%
G01*
G04 APERTURE LIST*
%ADD10C,0.200000*%
G04 APERTURE END LIST*
D10*
G04 #@! TO.C,M4*
X68700000Y78499999D02*
X59600000Y78499999D01*
X68700000Y81600002D02*
X68700000Y80600000D01*
X68700000Y81600002D02*
X59600000Y81600002D01*
G04 #@! TO.C,M6*
X64399990Y71350000D02*
X98200000Y71350000D01*
X64399990Y35550010D02*
X64399990Y71350000D01*
X64399990Y35550010D02*
X98200000Y35550010D01*
X98200000Y35550010D02*
X98200000Y71350000D01*
G04 #@! TO.C,M2*
X26600000Y78500000D02*
X54100000Y78500000D01*
X54100000Y78500000D02*
X54100000Y92400000D01*
X54100000Y92400000D02*
X26600000Y92400000D01*
X26600000Y92400000D02*
X26600000Y78500000D01*
G04 #@! TO.C,M1*
X132950000Y92275000D02*
X105450000Y92275000D01*
X105450000Y92275000D02*
X105450000Y78375000D01*
X105450000Y78375000D02*
X132950000Y78375000D01*
X132950000Y78375000D02*
X132950000Y92275000D01*
G04 #@! TO.C,M5*
X37724999Y67824999D02*
X37724999Y71025002D01*
X37724999Y55724999D02*
X37724999Y66125001D01*
X37724999Y53824999D02*
X37724999Y54124999D01*
X37724999Y53824999D02*
X53124999Y53824999D01*
X39224999Y74424997D02*
X54524998Y74424999D01*
X54524996Y67725001D02*
X54524996Y72525001D01*
X54524996Y61524999D02*
X54524996Y64224999D01*
X54524996Y58825001D02*
X54524996Y59925004D01*
X54524996Y55274999D02*
X54525001Y56824999D01*
X54524998Y74125001D02*
X54524998Y74424999D01*
G04 #@! TO.C,M3*
X92500000Y82100001D02*
X101600000Y82100001D01*
X92500000Y78999998D02*
X92500000Y80000000D01*
X92500000Y78999998D02*
X101600000Y78999998D01*
G04 #@! TD*
M02*
