G04 #@! TF.GenerationSoftware,KiCad,Pcbnew,7.0.10-7.0.10~ubuntu22.04.1*
G04 #@! TF.CreationDate,2024-01-28T10:53:56+00:00*
G04 #@! TF.ProjectId,lewycustom,6c657779-6375-4737-946f-6d2e6b696361,rev?*
G04 #@! TF.SameCoordinates,Original*
G04 #@! TF.FileFunction,Paste,Top*
G04 #@! TF.FilePolarity,Positive*
%FSLAX46Y46*%
G04 Gerber Fmt 4.6, Leading zero omitted, Abs format (unit mm)*
G04 Created by KiCad (PCBNEW 7.0.10-7.0.10~ubuntu22.04.1) date 2024-01-28 10:53:56*
%MOMM*%
%LPD*%
G01*
G04 APERTURE LIST*
%ADD10R,1.500000X2.000000*%
%ADD11R,3.800000X2.000000*%
%ADD12R,0.300000X0.700000*%
%ADD13R,1.160000X1.950000*%
%ADD14R,0.650000X2.000000*%
%ADD15R,2.000000X1.500000*%
%ADD16R,2.000000X3.800000*%
G04 APERTURE END LIST*
D10*
G04 #@! TO.C,Q1*
X25500000Y32400000D03*
X23200000Y32400000D03*
X20900000Y32400000D03*
D11*
X23200000Y26100000D03*
G04 #@! TD*
G04 #@! TO.C,C8*
G36*
G01*
X114500000Y39625000D02*
X114500000Y38575000D01*
G75*
G02*
X114400000Y38475000I-100000J0D01*
G01*
X113600000Y38475000D01*
G75*
G02*
X113500000Y38575000I0J100000D01*
G01*
X113500000Y39625000D01*
G75*
G02*
X113600000Y39725000I100000J0D01*
G01*
X114400000Y39725000D01*
G75*
G02*
X114500000Y39625000I0J-100000D01*
G01*
G37*
G36*
G01*
X112500000Y39625000D02*
X112500000Y38575000D01*
G75*
G02*
X112400000Y38475000I-100000J0D01*
G01*
X111600000Y38475000D01*
G75*
G02*
X111500000Y38575000I0J100000D01*
G01*
X111500000Y39625000D01*
G75*
G02*
X111600000Y39725000I100000J0D01*
G01*
X112400000Y39725000D01*
G75*
G02*
X112500000Y39625000I0J-100000D01*
G01*
G37*
G04 #@! TD*
G04 #@! TO.C,D5*
G36*
G01*
X50000000Y29925000D02*
X49700000Y29925000D01*
G75*
G02*
X49550000Y30075000I0J150000D01*
G01*
X49550000Y31250000D01*
G75*
G02*
X49700000Y31400000I150000J0D01*
G01*
X50000000Y31400000D01*
G75*
G02*
X50150000Y31250000I0J-150000D01*
G01*
X50150000Y30075000D01*
G75*
G02*
X50000000Y29925000I-150000J0D01*
G01*
G37*
G36*
G01*
X50950000Y31800000D02*
X50650000Y31800000D01*
G75*
G02*
X50500000Y31950000I0J150000D01*
G01*
X50500000Y33125000D01*
G75*
G02*
X50650000Y33275000I150000J0D01*
G01*
X50950000Y33275000D01*
G75*
G02*
X51100000Y33125000I0J-150000D01*
G01*
X51100000Y31950000D01*
G75*
G02*
X50950000Y31800000I-150000J0D01*
G01*
G37*
G36*
G01*
X51900000Y29925000D02*
X51600000Y29925000D01*
G75*
G02*
X51450000Y30075000I0J150000D01*
G01*
X51450000Y31250000D01*
G75*
G02*
X51600000Y31400000I150000J0D01*
G01*
X51900000Y31400000D01*
G75*
G02*
X52050000Y31250000I0J-150000D01*
G01*
X52050000Y30075000D01*
G75*
G02*
X51900000Y29925000I-150000J0D01*
G01*
G37*
G04 #@! TD*
G04 #@! TO.C,R22*
G36*
G01*
X14575000Y34625000D02*
X14575000Y31775000D01*
G75*
G02*
X14325000Y31525000I-250000J0D01*
G01*
X13600000Y31525000D01*
G75*
G02*
X13350000Y31775000I0J250000D01*
G01*
X13350000Y34625000D01*
G75*
G02*
X13600000Y34875000I250000J0D01*
G01*
X14325000Y34875000D01*
G75*
G02*
X14575000Y34625000I0J-250000D01*
G01*
G37*
G36*
G01*
X8650000Y34625000D02*
X8650000Y31775000D01*
G75*
G02*
X8400000Y31525000I-250000J0D01*
G01*
X7675000Y31525000D01*
G75*
G02*
X7425000Y31775000I0J250000D01*
G01*
X7425000Y34625000D01*
G75*
G02*
X7675000Y34875000I250000J0D01*
G01*
X8400000Y34875000D01*
G75*
G02*
X8650000Y34625000I0J-250000D01*
G01*
G37*
G04 #@! TD*
G04 #@! TO.C,R5*
G36*
G01*
X107850000Y61210000D02*
X107850000Y61990000D01*
G75*
G02*
X107920000Y62060000I70000J0D01*
G01*
X108480000Y62060000D01*
G75*
G02*
X108550000Y61990000I0J-70000D01*
G01*
X108550000Y61210000D01*
G75*
G02*
X108480000Y61140000I-70000J0D01*
G01*
X107920000Y61140000D01*
G75*
G02*
X107850000Y61210000I0J70000D01*
G01*
G37*
G36*
G01*
X109450000Y61210000D02*
X109450000Y61990000D01*
G75*
G02*
X109520000Y62060000I70000J0D01*
G01*
X110080000Y62060000D01*
G75*
G02*
X110150000Y61990000I0J-70000D01*
G01*
X110150000Y61210000D01*
G75*
G02*
X110080000Y61140000I-70000J0D01*
G01*
X109520000Y61140000D01*
G75*
G02*
X109450000Y61210000I0J70000D01*
G01*
G37*
G04 #@! TD*
G04 #@! TO.C,D6*
G36*
G01*
X44450000Y30062500D02*
X44150000Y30062500D01*
G75*
G02*
X44000000Y30212500I0J150000D01*
G01*
X44000000Y31387500D01*
G75*
G02*
X44150000Y31537500I150000J0D01*
G01*
X44450000Y31537500D01*
G75*
G02*
X44600000Y31387500I0J-150000D01*
G01*
X44600000Y30212500D01*
G75*
G02*
X44450000Y30062500I-150000J0D01*
G01*
G37*
G36*
G01*
X45400000Y31937500D02*
X45100000Y31937500D01*
G75*
G02*
X44950000Y32087500I0J150000D01*
G01*
X44950000Y33262500D01*
G75*
G02*
X45100000Y33412500I150000J0D01*
G01*
X45400000Y33412500D01*
G75*
G02*
X45550000Y33262500I0J-150000D01*
G01*
X45550000Y32087500D01*
G75*
G02*
X45400000Y31937500I-150000J0D01*
G01*
G37*
G36*
G01*
X46350000Y30062500D02*
X46050000Y30062500D01*
G75*
G02*
X45900000Y30212500I0J150000D01*
G01*
X45900000Y31387500D01*
G75*
G02*
X46050000Y31537500I150000J0D01*
G01*
X46350000Y31537500D01*
G75*
G02*
X46500000Y31387500I0J-150000D01*
G01*
X46500000Y30212500D01*
G75*
G02*
X46350000Y30062500I-150000J0D01*
G01*
G37*
G04 #@! TD*
G04 #@! TO.C,R4*
G36*
G01*
X78615000Y81625000D02*
X79165000Y81625000D01*
G75*
G02*
X79365000Y81425000I0J-200000D01*
G01*
X79365000Y81025000D01*
G75*
G02*
X79165000Y80825000I-200000J0D01*
G01*
X78615000Y80825000D01*
G75*
G02*
X78415000Y81025000I0J200000D01*
G01*
X78415000Y81425000D01*
G75*
G02*
X78615000Y81625000I200000J0D01*
G01*
G37*
G36*
G01*
X78615000Y79975000D02*
X79165000Y79975000D01*
G75*
G02*
X79365000Y79775000I0J-200000D01*
G01*
X79365000Y79375000D01*
G75*
G02*
X79165000Y79175000I-200000J0D01*
G01*
X78615000Y79175000D01*
G75*
G02*
X78415000Y79375000I0J200000D01*
G01*
X78415000Y79775000D01*
G75*
G02*
X78615000Y79975000I200000J0D01*
G01*
G37*
G04 #@! TD*
G04 #@! TO.C,D7*
G36*
G01*
X76200000Y78850000D02*
X76200000Y77950000D01*
G75*
G02*
X76100000Y77850000I-100000J0D01*
G01*
X75300000Y77850000D01*
G75*
G02*
X75200000Y77950000I0J100000D01*
G01*
X75200000Y78850000D01*
G75*
G02*
X75300000Y78950000I100000J0D01*
G01*
X76100000Y78950000D01*
G75*
G02*
X76200000Y78850000I0J-100000D01*
G01*
G37*
G36*
G01*
X74500000Y78850000D02*
X74500000Y77950000D01*
G75*
G02*
X74400000Y77850000I-100000J0D01*
G01*
X73600000Y77850000D01*
G75*
G02*
X73500000Y77950000I0J100000D01*
G01*
X73500000Y78850000D01*
G75*
G02*
X73600000Y78950000I100000J0D01*
G01*
X74400000Y78950000D01*
G75*
G02*
X74500000Y78850000I0J-100000D01*
G01*
G37*
G04 #@! TD*
G04 #@! TO.C,C1*
G36*
G01*
X114500000Y48375000D02*
X114500000Y47325000D01*
G75*
G02*
X114400000Y47225000I-100000J0D01*
G01*
X113600000Y47225000D01*
G75*
G02*
X113500000Y47325000I0J100000D01*
G01*
X113500000Y48375000D01*
G75*
G02*
X113600000Y48475000I100000J0D01*
G01*
X114400000Y48475000D01*
G75*
G02*
X114500000Y48375000I0J-100000D01*
G01*
G37*
G36*
G01*
X112500000Y48375000D02*
X112500000Y47325000D01*
G75*
G02*
X112400000Y47225000I-100000J0D01*
G01*
X111600000Y47225000D01*
G75*
G02*
X111500000Y47325000I0J100000D01*
G01*
X111500000Y48375000D01*
G75*
G02*
X111600000Y48475000I100000J0D01*
G01*
X112400000Y48475000D01*
G75*
G02*
X112500000Y48375000I0J-100000D01*
G01*
G37*
G04 #@! TD*
G04 #@! TO.C,C5*
G36*
G01*
X114500000Y57375000D02*
X114500000Y56325000D01*
G75*
G02*
X114400000Y56225000I-100000J0D01*
G01*
X113600000Y56225000D01*
G75*
G02*
X113500000Y56325000I0J100000D01*
G01*
X113500000Y57375000D01*
G75*
G02*
X113600000Y57475000I100000J0D01*
G01*
X114400000Y57475000D01*
G75*
G02*
X114500000Y57375000I0J-100000D01*
G01*
G37*
G36*
G01*
X112500000Y57375000D02*
X112500000Y56325000D01*
G75*
G02*
X112400000Y56225000I-100000J0D01*
G01*
X111600000Y56225000D01*
G75*
G02*
X111500000Y56325000I0J100000D01*
G01*
X111500000Y57375000D01*
G75*
G02*
X111600000Y57475000I100000J0D01*
G01*
X112400000Y57475000D01*
G75*
G02*
X112500000Y57375000I0J-100000D01*
G01*
G37*
G04 #@! TD*
G04 #@! TO.C,R19*
G36*
G01*
X15210000Y36350000D02*
X15990000Y36350000D01*
G75*
G02*
X16060000Y36280000I0J-70000D01*
G01*
X16060000Y35720000D01*
G75*
G02*
X15990000Y35650000I-70000J0D01*
G01*
X15210000Y35650000D01*
G75*
G02*
X15140000Y35720000I0J70000D01*
G01*
X15140000Y36280000D01*
G75*
G02*
X15210000Y36350000I70000J0D01*
G01*
G37*
G36*
G01*
X15210000Y34750000D02*
X15990000Y34750000D01*
G75*
G02*
X16060000Y34680000I0J-70000D01*
G01*
X16060000Y34120000D01*
G75*
G02*
X15990000Y34050000I-70000J0D01*
G01*
X15210000Y34050000D01*
G75*
G02*
X15140000Y34120000I0J70000D01*
G01*
X15140000Y34680000D01*
G75*
G02*
X15210000Y34750000I70000J0D01*
G01*
G37*
G04 #@! TD*
G04 #@! TO.C,R17*
G36*
G01*
X14575000Y57025000D02*
X14575000Y54175000D01*
G75*
G02*
X14325000Y53925000I-250000J0D01*
G01*
X13600000Y53925000D01*
G75*
G02*
X13350000Y54175000I0J250000D01*
G01*
X13350000Y57025000D01*
G75*
G02*
X13600000Y57275000I250000J0D01*
G01*
X14325000Y57275000D01*
G75*
G02*
X14575000Y57025000I0J-250000D01*
G01*
G37*
G36*
G01*
X8650000Y57025000D02*
X8650000Y54175000D01*
G75*
G02*
X8400000Y53925000I-250000J0D01*
G01*
X7675000Y53925000D01*
G75*
G02*
X7425000Y54175000I0J250000D01*
G01*
X7425000Y57025000D01*
G75*
G02*
X7675000Y57275000I250000J0D01*
G01*
X8400000Y57275000D01*
G75*
G02*
X8650000Y57025000I0J-250000D01*
G01*
G37*
G04 #@! TD*
G04 #@! TO.C,R8*
G36*
G01*
X31650000Y34010000D02*
X31650000Y34790000D01*
G75*
G02*
X31720000Y34860000I70000J0D01*
G01*
X32280000Y34860000D01*
G75*
G02*
X32350000Y34790000I0J-70000D01*
G01*
X32350000Y34010000D01*
G75*
G02*
X32280000Y33940000I-70000J0D01*
G01*
X31720000Y33940000D01*
G75*
G02*
X31650000Y34010000I0J70000D01*
G01*
G37*
G36*
G01*
X33250000Y34010000D02*
X33250000Y34790000D01*
G75*
G02*
X33320000Y34860000I70000J0D01*
G01*
X33880000Y34860000D01*
G75*
G02*
X33950000Y34790000I0J-70000D01*
G01*
X33950000Y34010000D01*
G75*
G02*
X33880000Y33940000I-70000J0D01*
G01*
X33320000Y33940000D01*
G75*
G02*
X33250000Y34010000I0J70000D01*
G01*
G37*
G04 #@! TD*
G04 #@! TO.C,C11*
G36*
G01*
X114500000Y46375000D02*
X114500000Y45325000D01*
G75*
G02*
X114400000Y45225000I-100000J0D01*
G01*
X113600000Y45225000D01*
G75*
G02*
X113500000Y45325000I0J100000D01*
G01*
X113500000Y46375000D01*
G75*
G02*
X113600000Y46475000I100000J0D01*
G01*
X114400000Y46475000D01*
G75*
G02*
X114500000Y46375000I0J-100000D01*
G01*
G37*
G36*
G01*
X112500000Y46375000D02*
X112500000Y45325000D01*
G75*
G02*
X112400000Y45225000I-100000J0D01*
G01*
X111600000Y45225000D01*
G75*
G02*
X111500000Y45325000I0J100000D01*
G01*
X111500000Y46375000D01*
G75*
G02*
X111600000Y46475000I100000J0D01*
G01*
X112400000Y46475000D01*
G75*
G02*
X112500000Y46375000I0J-100000D01*
G01*
G37*
G04 #@! TD*
G04 #@! TO.C,R23*
G36*
G01*
X14375000Y23425000D02*
X14375000Y20575000D01*
G75*
G02*
X14125000Y20325000I-250000J0D01*
G01*
X13400000Y20325000D01*
G75*
G02*
X13150000Y20575000I0J250000D01*
G01*
X13150000Y23425000D01*
G75*
G02*
X13400000Y23675000I250000J0D01*
G01*
X14125000Y23675000D01*
G75*
G02*
X14375000Y23425000I0J-250000D01*
G01*
G37*
G36*
G01*
X8450000Y23425000D02*
X8450000Y20575000D01*
G75*
G02*
X8200000Y20325000I-250000J0D01*
G01*
X7475000Y20325000D01*
G75*
G02*
X7225000Y20575000I0J250000D01*
G01*
X7225000Y23425000D01*
G75*
G02*
X7475000Y23675000I250000J0D01*
G01*
X8200000Y23675000D01*
G75*
G02*
X8450000Y23425000I0J-250000D01*
G01*
G37*
G04 #@! TD*
G04 #@! TO.C,R16*
G36*
G01*
X14575000Y68225000D02*
X14575000Y65375000D01*
G75*
G02*
X14325000Y65125000I-250000J0D01*
G01*
X13600000Y65125000D01*
G75*
G02*
X13350000Y65375000I0J250000D01*
G01*
X13350000Y68225000D01*
G75*
G02*
X13600000Y68475000I250000J0D01*
G01*
X14325000Y68475000D01*
G75*
G02*
X14575000Y68225000I0J-250000D01*
G01*
G37*
G36*
G01*
X8650000Y68225000D02*
X8650000Y65375000D01*
G75*
G02*
X8400000Y65125000I-250000J0D01*
G01*
X7675000Y65125000D01*
G75*
G02*
X7425000Y65375000I0J250000D01*
G01*
X7425000Y68225000D01*
G75*
G02*
X7675000Y68475000I250000J0D01*
G01*
X8400000Y68475000D01*
G75*
G02*
X8650000Y68225000I0J-250000D01*
G01*
G37*
G04 #@! TD*
D10*
G04 #@! TO.C,Q4*
X28300000Y37850000D03*
X30600000Y37850000D03*
X32900000Y37850000D03*
D11*
X30600000Y44150000D03*
G04 #@! TD*
G04 #@! TO.C,C3*
G36*
G01*
X114500000Y52875000D02*
X114500000Y51825000D01*
G75*
G02*
X114400000Y51725000I-100000J0D01*
G01*
X113600000Y51725000D01*
G75*
G02*
X113500000Y51825000I0J100000D01*
G01*
X113500000Y52875000D01*
G75*
G02*
X113600000Y52975000I100000J0D01*
G01*
X114400000Y52975000D01*
G75*
G02*
X114500000Y52875000I0J-100000D01*
G01*
G37*
G36*
G01*
X112500000Y52875000D02*
X112500000Y51825000D01*
G75*
G02*
X112400000Y51725000I-100000J0D01*
G01*
X111600000Y51725000D01*
G75*
G02*
X111500000Y51825000I0J100000D01*
G01*
X111500000Y52875000D01*
G75*
G02*
X111600000Y52975000I100000J0D01*
G01*
X112400000Y52975000D01*
G75*
G02*
X112500000Y52875000I0J-100000D01*
G01*
G37*
G04 #@! TD*
D10*
G04 #@! TO.C,Q5*
X40300000Y32350000D03*
X38000000Y32350000D03*
X35700000Y32350000D03*
D11*
X38000000Y26050000D03*
G04 #@! TD*
G04 #@! TO.C,C2*
G36*
G01*
X114500000Y50625000D02*
X114500000Y49575000D01*
G75*
G02*
X114400000Y49475000I-100000J0D01*
G01*
X113600000Y49475000D01*
G75*
G02*
X113500000Y49575000I0J100000D01*
G01*
X113500000Y50625000D01*
G75*
G02*
X113600000Y50725000I100000J0D01*
G01*
X114400000Y50725000D01*
G75*
G02*
X114500000Y50625000I0J-100000D01*
G01*
G37*
G36*
G01*
X112500000Y50625000D02*
X112500000Y49575000D01*
G75*
G02*
X112400000Y49475000I-100000J0D01*
G01*
X111600000Y49475000D01*
G75*
G02*
X111500000Y49575000I0J100000D01*
G01*
X111500000Y50625000D01*
G75*
G02*
X111600000Y50725000I100000J0D01*
G01*
X112400000Y50725000D01*
G75*
G02*
X112500000Y50625000I0J-100000D01*
G01*
G37*
G04 #@! TD*
G04 #@! TO.C,R12*
G36*
G01*
X15410000Y81350000D02*
X16190000Y81350000D01*
G75*
G02*
X16260000Y81280000I0J-70000D01*
G01*
X16260000Y80720000D01*
G75*
G02*
X16190000Y80650000I-70000J0D01*
G01*
X15410000Y80650000D01*
G75*
G02*
X15340000Y80720000I0J70000D01*
G01*
X15340000Y81280000D01*
G75*
G02*
X15410000Y81350000I70000J0D01*
G01*
G37*
G36*
G01*
X15410000Y79750000D02*
X16190000Y79750000D01*
G75*
G02*
X16260000Y79680000I0J-70000D01*
G01*
X16260000Y79120000D01*
G75*
G02*
X16190000Y79050000I-70000J0D01*
G01*
X15410000Y79050000D01*
G75*
G02*
X15340000Y79120000I0J70000D01*
G01*
X15340000Y79680000D01*
G75*
G02*
X15410000Y79750000I70000J0D01*
G01*
G37*
G04 #@! TD*
D10*
G04 #@! TO.C,Q6*
X35700000Y37850000D03*
X38000000Y37850000D03*
X40300000Y37850000D03*
D11*
X38000000Y44150000D03*
G04 #@! TD*
G04 #@! TO.C,Q18*
G36*
G01*
X44400000Y25525000D02*
X44100000Y25525000D01*
G75*
G02*
X43950000Y25675000I0J150000D01*
G01*
X43950000Y26850000D01*
G75*
G02*
X44100000Y27000000I150000J0D01*
G01*
X44400000Y27000000D01*
G75*
G02*
X44550000Y26850000I0J-150000D01*
G01*
X44550000Y25675000D01*
G75*
G02*
X44400000Y25525000I-150000J0D01*
G01*
G37*
G36*
G01*
X45350000Y27400000D02*
X45050000Y27400000D01*
G75*
G02*
X44900000Y27550000I0J150000D01*
G01*
X44900000Y28725000D01*
G75*
G02*
X45050000Y28875000I150000J0D01*
G01*
X45350000Y28875000D01*
G75*
G02*
X45500000Y28725000I0J-150000D01*
G01*
X45500000Y27550000D01*
G75*
G02*
X45350000Y27400000I-150000J0D01*
G01*
G37*
G36*
G01*
X46300000Y25525000D02*
X46000000Y25525000D01*
G75*
G02*
X45850000Y25675000I0J150000D01*
G01*
X45850000Y26850000D01*
G75*
G02*
X46000000Y27000000I150000J0D01*
G01*
X46300000Y27000000D01*
G75*
G02*
X46450000Y26850000I0J-150000D01*
G01*
X46450000Y25675000D01*
G75*
G02*
X46300000Y25525000I-150000J0D01*
G01*
G37*
G04 #@! TD*
G04 #@! TO.C,Q9*
G36*
G01*
X14600000Y59270000D02*
X14600000Y58570000D01*
G75*
G02*
X14350000Y58320000I-250000J0D01*
G01*
X12650000Y58320000D01*
G75*
G02*
X12400000Y58570000I0J250000D01*
G01*
X12400000Y59270000D01*
G75*
G02*
X12650000Y59520000I250000J0D01*
G01*
X14350000Y59520000D01*
G75*
G02*
X14600000Y59270000I0J-250000D01*
G01*
G37*
G36*
G01*
X10400000Y60800000D02*
X10400000Y58550000D01*
G75*
G02*
X10150000Y58300000I-250000J0D01*
G01*
X7600000Y58300000D01*
G75*
G02*
X7350000Y58550000I0J250000D01*
G01*
X7350000Y60800000D01*
G75*
G02*
X7600000Y61050000I250000J0D01*
G01*
X10150000Y61050000D01*
G75*
G02*
X10400000Y60800000I0J-250000D01*
G01*
G37*
G36*
G01*
X10400000Y63850000D02*
X10400000Y61600000D01*
G75*
G02*
X10150000Y61350000I-250000J0D01*
G01*
X7600000Y61350000D01*
G75*
G02*
X7350000Y61600000I0J250000D01*
G01*
X7350000Y63850000D01*
G75*
G02*
X7600000Y64100000I250000J0D01*
G01*
X10150000Y64100000D01*
G75*
G02*
X10400000Y63850000I0J-250000D01*
G01*
G37*
G36*
G01*
X7050000Y60800000D02*
X7050000Y58550000D01*
G75*
G02*
X6800000Y58300000I-250000J0D01*
G01*
X4250000Y58300000D01*
G75*
G02*
X4000000Y58550000I0J250000D01*
G01*
X4000000Y60800000D01*
G75*
G02*
X4250000Y61050000I250000J0D01*
G01*
X6800000Y61050000D01*
G75*
G02*
X7050000Y60800000I0J-250000D01*
G01*
G37*
G36*
G01*
X7050000Y63850000D02*
X7050000Y61600000D01*
G75*
G02*
X6800000Y61350000I-250000J0D01*
G01*
X4250000Y61350000D01*
G75*
G02*
X4000000Y61600000I0J250000D01*
G01*
X4000000Y63850000D01*
G75*
G02*
X4250000Y64100000I250000J0D01*
G01*
X6800000Y64100000D01*
G75*
G02*
X7050000Y63850000I0J-250000D01*
G01*
G37*
G36*
G01*
X14600000Y63830000D02*
X14600000Y63130000D01*
G75*
G02*
X14350000Y62880000I-250000J0D01*
G01*
X12650000Y62880000D01*
G75*
G02*
X12400000Y63130000I0J250000D01*
G01*
X12400000Y63830000D01*
G75*
G02*
X12650000Y64080000I250000J0D01*
G01*
X14350000Y64080000D01*
G75*
G02*
X14600000Y63830000I0J-250000D01*
G01*
G37*
G04 #@! TD*
D12*
G04 #@! TO.C,J3*
X83950000Y83980000D03*
X83450000Y83980000D03*
X82950000Y83980000D03*
X82450000Y83980000D03*
X81950000Y83980000D03*
X81450000Y83980000D03*
X80950000Y83980000D03*
X80450000Y83980000D03*
X79950000Y83980000D03*
X79450000Y83980000D03*
X78950000Y83980000D03*
X78450000Y83980000D03*
X78700000Y85680000D03*
X79200000Y85680000D03*
X79700000Y85680000D03*
X80200000Y85680000D03*
X80700000Y85680000D03*
X81200000Y85680000D03*
X81700000Y85680000D03*
X82200000Y85680000D03*
X82700000Y85680000D03*
X83200000Y85680000D03*
X83700000Y85680000D03*
X84200000Y85680000D03*
G04 #@! TD*
G04 #@! TO.C,R26*
G36*
G01*
X128410000Y61950000D02*
X129190000Y61950000D01*
G75*
G02*
X129260000Y61880000I0J-70000D01*
G01*
X129260000Y61320000D01*
G75*
G02*
X129190000Y61250000I-70000J0D01*
G01*
X128410000Y61250000D01*
G75*
G02*
X128340000Y61320000I0J70000D01*
G01*
X128340000Y61880000D01*
G75*
G02*
X128410000Y61950000I70000J0D01*
G01*
G37*
G36*
G01*
X128410000Y60350000D02*
X129190000Y60350000D01*
G75*
G02*
X129260000Y60280000I0J-70000D01*
G01*
X129260000Y59720000D01*
G75*
G02*
X129190000Y59650000I-70000J0D01*
G01*
X128410000Y59650000D01*
G75*
G02*
X128340000Y59720000I0J70000D01*
G01*
X128340000Y60280000D01*
G75*
G02*
X128410000Y60350000I70000J0D01*
G01*
G37*
G04 #@! TD*
G04 #@! TO.C,R13*
G36*
G01*
X15410000Y69950000D02*
X16190000Y69950000D01*
G75*
G02*
X16260000Y69880000I0J-70000D01*
G01*
X16260000Y69320000D01*
G75*
G02*
X16190000Y69250000I-70000J0D01*
G01*
X15410000Y69250000D01*
G75*
G02*
X15340000Y69320000I0J70000D01*
G01*
X15340000Y69880000D01*
G75*
G02*
X15410000Y69950000I70000J0D01*
G01*
G37*
G36*
G01*
X15410000Y68350000D02*
X16190000Y68350000D01*
G75*
G02*
X16260000Y68280000I0J-70000D01*
G01*
X16260000Y67720000D01*
G75*
G02*
X16190000Y67650000I-70000J0D01*
G01*
X15410000Y67650000D01*
G75*
G02*
X15340000Y67720000I0J70000D01*
G01*
X15340000Y68280000D01*
G75*
G02*
X15410000Y68350000I70000J0D01*
G01*
G37*
G04 #@! TD*
G04 #@! TO.C,D4*
G36*
G01*
X128300000Y71090000D02*
X128300000Y72110000D01*
G75*
G02*
X128390000Y72200000I90000J0D01*
G01*
X129110000Y72200000D01*
G75*
G02*
X129200000Y72110000I0J-90000D01*
G01*
X129200000Y71090000D01*
G75*
G02*
X129110000Y71000000I-90000J0D01*
G01*
X128390000Y71000000D01*
G75*
G02*
X128300000Y71090000I0J90000D01*
G01*
G37*
G36*
G01*
X131600000Y71090000D02*
X131600000Y72110000D01*
G75*
G02*
X131690000Y72200000I90000J0D01*
G01*
X132410000Y72200000D01*
G75*
G02*
X132500000Y72110000I0J-90000D01*
G01*
X132500000Y71090000D01*
G75*
G02*
X132410000Y71000000I-90000J0D01*
G01*
X131690000Y71000000D01*
G75*
G02*
X131600000Y71090000I0J90000D01*
G01*
G37*
G04 #@! TD*
G04 #@! TO.C,Q7*
G36*
G01*
X14725000Y81745000D02*
X14725000Y81045000D01*
G75*
G02*
X14475000Y80795000I-250000J0D01*
G01*
X12775000Y80795000D01*
G75*
G02*
X12525000Y81045000I0J250000D01*
G01*
X12525000Y81745000D01*
G75*
G02*
X12775000Y81995000I250000J0D01*
G01*
X14475000Y81995000D01*
G75*
G02*
X14725000Y81745000I0J-250000D01*
G01*
G37*
G36*
G01*
X10525000Y83275000D02*
X10525000Y81025000D01*
G75*
G02*
X10275000Y80775000I-250000J0D01*
G01*
X7725000Y80775000D01*
G75*
G02*
X7475000Y81025000I0J250000D01*
G01*
X7475000Y83275000D01*
G75*
G02*
X7725000Y83525000I250000J0D01*
G01*
X10275000Y83525000D01*
G75*
G02*
X10525000Y83275000I0J-250000D01*
G01*
G37*
G36*
G01*
X10525000Y86325000D02*
X10525000Y84075000D01*
G75*
G02*
X10275000Y83825000I-250000J0D01*
G01*
X7725000Y83825000D01*
G75*
G02*
X7475000Y84075000I0J250000D01*
G01*
X7475000Y86325000D01*
G75*
G02*
X7725000Y86575000I250000J0D01*
G01*
X10275000Y86575000D01*
G75*
G02*
X10525000Y86325000I0J-250000D01*
G01*
G37*
G36*
G01*
X7175000Y83275000D02*
X7175000Y81025000D01*
G75*
G02*
X6925000Y80775000I-250000J0D01*
G01*
X4375000Y80775000D01*
G75*
G02*
X4125000Y81025000I0J250000D01*
G01*
X4125000Y83275000D01*
G75*
G02*
X4375000Y83525000I250000J0D01*
G01*
X6925000Y83525000D01*
G75*
G02*
X7175000Y83275000I0J-250000D01*
G01*
G37*
G36*
G01*
X7175000Y86325000D02*
X7175000Y84075000D01*
G75*
G02*
X6925000Y83825000I-250000J0D01*
G01*
X4375000Y83825000D01*
G75*
G02*
X4125000Y84075000I0J250000D01*
G01*
X4125000Y86325000D01*
G75*
G02*
X4375000Y86575000I250000J0D01*
G01*
X6925000Y86575000D01*
G75*
G02*
X7175000Y86325000I0J-250000D01*
G01*
G37*
G36*
G01*
X14725000Y86305000D02*
X14725000Y85605000D01*
G75*
G02*
X14475000Y85355000I-250000J0D01*
G01*
X12775000Y85355000D01*
G75*
G02*
X12525000Y85605000I0J250000D01*
G01*
X12525000Y86305000D01*
G75*
G02*
X12775000Y86555000I250000J0D01*
G01*
X14475000Y86555000D01*
G75*
G02*
X14725000Y86305000I0J-250000D01*
G01*
G37*
G04 #@! TD*
G04 #@! TO.C,R25*
G36*
G01*
X128410000Y53750000D02*
X129190000Y53750000D01*
G75*
G02*
X129260000Y53680000I0J-70000D01*
G01*
X129260000Y53120000D01*
G75*
G02*
X129190000Y53050000I-70000J0D01*
G01*
X128410000Y53050000D01*
G75*
G02*
X128340000Y53120000I0J70000D01*
G01*
X128340000Y53680000D01*
G75*
G02*
X128410000Y53750000I70000J0D01*
G01*
G37*
G36*
G01*
X128410000Y52150000D02*
X129190000Y52150000D01*
G75*
G02*
X129260000Y52080000I0J-70000D01*
G01*
X129260000Y51520000D01*
G75*
G02*
X129190000Y51450000I-70000J0D01*
G01*
X128410000Y51450000D01*
G75*
G02*
X128340000Y51520000I0J70000D01*
G01*
X128340000Y52080000D01*
G75*
G02*
X128410000Y52150000I70000J0D01*
G01*
G37*
G04 #@! TD*
G04 #@! TO.C,R30*
G36*
G01*
X72650001Y78840002D02*
X72650001Y78060002D01*
G75*
G02*
X72580001Y77990002I-70000J0D01*
G01*
X72020001Y77990002D01*
G75*
G02*
X71950001Y78060002I0J70000D01*
G01*
X71950001Y78840002D01*
G75*
G02*
X72020001Y78910002I70000J0D01*
G01*
X72580001Y78910002D01*
G75*
G02*
X72650001Y78840002I0J-70000D01*
G01*
G37*
G36*
G01*
X71050001Y78840002D02*
X71050001Y78060002D01*
G75*
G02*
X70980001Y77990002I-70000J0D01*
G01*
X70420001Y77990002D01*
G75*
G02*
X70350001Y78060002I0J70000D01*
G01*
X70350001Y78840002D01*
G75*
G02*
X70420001Y78910002I70000J0D01*
G01*
X70980001Y78910002D01*
G75*
G02*
X71050001Y78840002I0J-70000D01*
G01*
G37*
G04 #@! TD*
D13*
G04 #@! TO.C,U2*
X108360000Y67950000D03*
X109820000Y67950000D03*
X111280000Y67950000D03*
X112740000Y67950000D03*
X114200000Y67950000D03*
X108360000Y70200000D03*
X109820000Y70200000D03*
X111280000Y70200000D03*
X112740000Y70200000D03*
X114200000Y70200000D03*
D14*
X108780000Y64275000D03*
X109780000Y64275000D03*
X110780000Y64275000D03*
X111780000Y64275000D03*
X112780000Y64275000D03*
X113780000Y64275000D03*
X113780000Y73875000D03*
X112780000Y73875000D03*
X111780000Y73875000D03*
X110780000Y73875000D03*
X109780000Y73875000D03*
X108780000Y73875000D03*
G04 #@! TD*
G04 #@! TO.C,R6*
G36*
G01*
X24050000Y34010000D02*
X24050000Y34790000D01*
G75*
G02*
X24120000Y34860000I70000J0D01*
G01*
X24680000Y34860000D01*
G75*
G02*
X24750000Y34790000I0J-70000D01*
G01*
X24750000Y34010000D01*
G75*
G02*
X24680000Y33940000I-70000J0D01*
G01*
X24120000Y33940000D01*
G75*
G02*
X24050000Y34010000I0J70000D01*
G01*
G37*
G36*
G01*
X25650000Y34010000D02*
X25650000Y34790000D01*
G75*
G02*
X25720000Y34860000I70000J0D01*
G01*
X26280000Y34860000D01*
G75*
G02*
X26350000Y34790000I0J-70000D01*
G01*
X26350000Y34010000D01*
G75*
G02*
X26280000Y33940000I-70000J0D01*
G01*
X25720000Y33940000D01*
G75*
G02*
X25650000Y34010000I0J70000D01*
G01*
G37*
G04 #@! TD*
G04 #@! TO.C,Q11*
G36*
G01*
X14525000Y36870000D02*
X14525000Y36170000D01*
G75*
G02*
X14275000Y35920000I-250000J0D01*
G01*
X12575000Y35920000D01*
G75*
G02*
X12325000Y36170000I0J250000D01*
G01*
X12325000Y36870000D01*
G75*
G02*
X12575000Y37120000I250000J0D01*
G01*
X14275000Y37120000D01*
G75*
G02*
X14525000Y36870000I0J-250000D01*
G01*
G37*
G36*
G01*
X10325000Y38400000D02*
X10325000Y36150000D01*
G75*
G02*
X10075000Y35900000I-250000J0D01*
G01*
X7525000Y35900000D01*
G75*
G02*
X7275000Y36150000I0J250000D01*
G01*
X7275000Y38400000D01*
G75*
G02*
X7525000Y38650000I250000J0D01*
G01*
X10075000Y38650000D01*
G75*
G02*
X10325000Y38400000I0J-250000D01*
G01*
G37*
G36*
G01*
X10325000Y41450000D02*
X10325000Y39200000D01*
G75*
G02*
X10075000Y38950000I-250000J0D01*
G01*
X7525000Y38950000D01*
G75*
G02*
X7275000Y39200000I0J250000D01*
G01*
X7275000Y41450000D01*
G75*
G02*
X7525000Y41700000I250000J0D01*
G01*
X10075000Y41700000D01*
G75*
G02*
X10325000Y41450000I0J-250000D01*
G01*
G37*
G36*
G01*
X6975000Y38400000D02*
X6975000Y36150000D01*
G75*
G02*
X6725000Y35900000I-250000J0D01*
G01*
X4175000Y35900000D01*
G75*
G02*
X3925000Y36150000I0J250000D01*
G01*
X3925000Y38400000D01*
G75*
G02*
X4175000Y38650000I250000J0D01*
G01*
X6725000Y38650000D01*
G75*
G02*
X6975000Y38400000I0J-250000D01*
G01*
G37*
G36*
G01*
X6975000Y41450000D02*
X6975000Y39200000D01*
G75*
G02*
X6725000Y38950000I-250000J0D01*
G01*
X4175000Y38950000D01*
G75*
G02*
X3925000Y39200000I0J250000D01*
G01*
X3925000Y41450000D01*
G75*
G02*
X4175000Y41700000I250000J0D01*
G01*
X6725000Y41700000D01*
G75*
G02*
X6975000Y41450000I0J-250000D01*
G01*
G37*
G36*
G01*
X14525000Y41430000D02*
X14525000Y40730000D01*
G75*
G02*
X14275000Y40480000I-250000J0D01*
G01*
X12575000Y40480000D01*
G75*
G02*
X12325000Y40730000I0J250000D01*
G01*
X12325000Y41430000D01*
G75*
G02*
X12575000Y41680000I250000J0D01*
G01*
X14275000Y41680000D01*
G75*
G02*
X14525000Y41430000I0J-250000D01*
G01*
G37*
G04 #@! TD*
D10*
G04 #@! TO.C,Q2*
X20900000Y37850000D03*
X23200000Y37850000D03*
X25500000Y37850000D03*
D11*
X23200000Y44150000D03*
G04 #@! TD*
G04 #@! TO.C,R24*
G36*
G01*
X128610000Y45350000D02*
X129390000Y45350000D01*
G75*
G02*
X129460000Y45280000I0J-70000D01*
G01*
X129460000Y44720000D01*
G75*
G02*
X129390000Y44650000I-70000J0D01*
G01*
X128610000Y44650000D01*
G75*
G02*
X128540000Y44720000I0J70000D01*
G01*
X128540000Y45280000D01*
G75*
G02*
X128610000Y45350000I70000J0D01*
G01*
G37*
G36*
G01*
X128610000Y43750000D02*
X129390000Y43750000D01*
G75*
G02*
X129460000Y43680000I0J-70000D01*
G01*
X129460000Y43120000D01*
G75*
G02*
X129390000Y43050000I-70000J0D01*
G01*
X128610000Y43050000D01*
G75*
G02*
X128540000Y43120000I0J70000D01*
G01*
X128540000Y43680000D01*
G75*
G02*
X128610000Y43750000I70000J0D01*
G01*
G37*
G04 #@! TD*
G04 #@! TO.C,R1*
G36*
G01*
X83635000Y81625000D02*
X84185000Y81625000D01*
G75*
G02*
X84385000Y81425000I0J-200000D01*
G01*
X84385000Y81025000D01*
G75*
G02*
X84185000Y80825000I-200000J0D01*
G01*
X83635000Y80825000D01*
G75*
G02*
X83435000Y81025000I0J200000D01*
G01*
X83435000Y81425000D01*
G75*
G02*
X83635000Y81625000I200000J0D01*
G01*
G37*
G36*
G01*
X83635000Y79975000D02*
X84185000Y79975000D01*
G75*
G02*
X84385000Y79775000I0J-200000D01*
G01*
X84385000Y79375000D01*
G75*
G02*
X84185000Y79175000I-200000J0D01*
G01*
X83635000Y79175000D01*
G75*
G02*
X83435000Y79375000I0J200000D01*
G01*
X83435000Y79775000D01*
G75*
G02*
X83635000Y79975000I200000J0D01*
G01*
G37*
G04 #@! TD*
G04 #@! TO.C,C10*
G36*
G01*
X114500000Y44125000D02*
X114500000Y43075000D01*
G75*
G02*
X114400000Y42975000I-100000J0D01*
G01*
X113600000Y42975000D01*
G75*
G02*
X113500000Y43075000I0J100000D01*
G01*
X113500000Y44125000D01*
G75*
G02*
X113600000Y44225000I100000J0D01*
G01*
X114400000Y44225000D01*
G75*
G02*
X114500000Y44125000I0J-100000D01*
G01*
G37*
G36*
G01*
X112500000Y44125000D02*
X112500000Y43075000D01*
G75*
G02*
X112400000Y42975000I-100000J0D01*
G01*
X111600000Y42975000D01*
G75*
G02*
X111500000Y43075000I0J100000D01*
G01*
X111500000Y44125000D01*
G75*
G02*
X111600000Y44225000I100000J0D01*
G01*
X112400000Y44225000D01*
G75*
G02*
X112500000Y44125000I0J-100000D01*
G01*
G37*
G04 #@! TD*
G04 #@! TO.C,Q17*
G36*
G01*
X49800000Y25587500D02*
X49500000Y25587500D01*
G75*
G02*
X49350000Y25737500I0J150000D01*
G01*
X49350000Y26912500D01*
G75*
G02*
X49500000Y27062500I150000J0D01*
G01*
X49800000Y27062500D01*
G75*
G02*
X49950000Y26912500I0J-150000D01*
G01*
X49950000Y25737500D01*
G75*
G02*
X49800000Y25587500I-150000J0D01*
G01*
G37*
G36*
G01*
X50750000Y27462500D02*
X50450000Y27462500D01*
G75*
G02*
X50300000Y27612500I0J150000D01*
G01*
X50300000Y28787500D01*
G75*
G02*
X50450000Y28937500I150000J0D01*
G01*
X50750000Y28937500D01*
G75*
G02*
X50900000Y28787500I0J-150000D01*
G01*
X50900000Y27612500D01*
G75*
G02*
X50750000Y27462500I-150000J0D01*
G01*
G37*
G36*
G01*
X51700000Y25587500D02*
X51400000Y25587500D01*
G75*
G02*
X51250000Y25737500I0J150000D01*
G01*
X51250000Y26912500D01*
G75*
G02*
X51400000Y27062500I150000J0D01*
G01*
X51700000Y27062500D01*
G75*
G02*
X51850000Y26912500I0J-150000D01*
G01*
X51850000Y25737500D01*
G75*
G02*
X51700000Y25587500I-150000J0D01*
G01*
G37*
G04 #@! TD*
G04 #@! TO.C,R20*
G36*
G01*
X15010000Y25150000D02*
X15790000Y25150000D01*
G75*
G02*
X15860000Y25080000I0J-70000D01*
G01*
X15860000Y24520000D01*
G75*
G02*
X15790000Y24450000I-70000J0D01*
G01*
X15010000Y24450000D01*
G75*
G02*
X14940000Y24520000I0J70000D01*
G01*
X14940000Y25080000D01*
G75*
G02*
X15010000Y25150000I70000J0D01*
G01*
G37*
G36*
G01*
X15010000Y23550000D02*
X15790000Y23550000D01*
G75*
G02*
X15860000Y23480000I0J-70000D01*
G01*
X15860000Y22920000D01*
G75*
G02*
X15790000Y22850000I-70000J0D01*
G01*
X15010000Y22850000D01*
G75*
G02*
X14940000Y22920000I0J70000D01*
G01*
X14940000Y23480000D01*
G75*
G02*
X15010000Y23550000I70000J0D01*
G01*
G37*
G04 #@! TD*
G04 #@! TO.C,D1*
G36*
G01*
X128500000Y46290000D02*
X128500000Y47310000D01*
G75*
G02*
X128590000Y47400000I90000J0D01*
G01*
X129310000Y47400000D01*
G75*
G02*
X129400000Y47310000I0J-90000D01*
G01*
X129400000Y46290000D01*
G75*
G02*
X129310000Y46200000I-90000J0D01*
G01*
X128590000Y46200000D01*
G75*
G02*
X128500000Y46290000I0J90000D01*
G01*
G37*
G36*
G01*
X131800000Y46290000D02*
X131800000Y47310000D01*
G75*
G02*
X131890000Y47400000I90000J0D01*
G01*
X132610000Y47400000D01*
G75*
G02*
X132700000Y47310000I0J-90000D01*
G01*
X132700000Y46290000D01*
G75*
G02*
X132610000Y46200000I-90000J0D01*
G01*
X131890000Y46200000D01*
G75*
G02*
X131800000Y46290000I0J90000D01*
G01*
G37*
G04 #@! TD*
G04 #@! TO.C,R21*
G36*
G01*
X14575000Y45825000D02*
X14575000Y42975000D01*
G75*
G02*
X14325000Y42725000I-250000J0D01*
G01*
X13600000Y42725000D01*
G75*
G02*
X13350000Y42975000I0J250000D01*
G01*
X13350000Y45825000D01*
G75*
G02*
X13600000Y46075000I250000J0D01*
G01*
X14325000Y46075000D01*
G75*
G02*
X14575000Y45825000I0J-250000D01*
G01*
G37*
G36*
G01*
X8650000Y45825000D02*
X8650000Y42975000D01*
G75*
G02*
X8400000Y42725000I-250000J0D01*
G01*
X7675000Y42725000D01*
G75*
G02*
X7425000Y42975000I0J250000D01*
G01*
X7425000Y45825000D01*
G75*
G02*
X7675000Y46075000I250000J0D01*
G01*
X8400000Y46075000D01*
G75*
G02*
X8650000Y45825000I0J-250000D01*
G01*
G37*
G04 #@! TD*
G04 #@! TO.C,R3*
G36*
G01*
X81125000Y81625000D02*
X81675000Y81625000D01*
G75*
G02*
X81875000Y81425000I0J-200000D01*
G01*
X81875000Y81025000D01*
G75*
G02*
X81675000Y80825000I-200000J0D01*
G01*
X81125000Y80825000D01*
G75*
G02*
X80925000Y81025000I0J200000D01*
G01*
X80925000Y81425000D01*
G75*
G02*
X81125000Y81625000I200000J0D01*
G01*
G37*
G36*
G01*
X81125000Y79975000D02*
X81675000Y79975000D01*
G75*
G02*
X81875000Y79775000I0J-200000D01*
G01*
X81875000Y79375000D01*
G75*
G02*
X81675000Y79175000I-200000J0D01*
G01*
X81125000Y79175000D01*
G75*
G02*
X80925000Y79375000I0J200000D01*
G01*
X80925000Y79775000D01*
G75*
G02*
X81125000Y79975000I200000J0D01*
G01*
G37*
G04 #@! TD*
G04 #@! TO.C,Q12*
G36*
G01*
X14700000Y25670000D02*
X14700000Y24970000D01*
G75*
G02*
X14450000Y24720000I-250000J0D01*
G01*
X12750000Y24720000D01*
G75*
G02*
X12500000Y24970000I0J250000D01*
G01*
X12500000Y25670000D01*
G75*
G02*
X12750000Y25920000I250000J0D01*
G01*
X14450000Y25920000D01*
G75*
G02*
X14700000Y25670000I0J-250000D01*
G01*
G37*
G36*
G01*
X10500000Y27200000D02*
X10500000Y24950000D01*
G75*
G02*
X10250000Y24700000I-250000J0D01*
G01*
X7700000Y24700000D01*
G75*
G02*
X7450000Y24950000I0J250000D01*
G01*
X7450000Y27200000D01*
G75*
G02*
X7700000Y27450000I250000J0D01*
G01*
X10250000Y27450000D01*
G75*
G02*
X10500000Y27200000I0J-250000D01*
G01*
G37*
G36*
G01*
X10500000Y30250000D02*
X10500000Y28000000D01*
G75*
G02*
X10250000Y27750000I-250000J0D01*
G01*
X7700000Y27750000D01*
G75*
G02*
X7450000Y28000000I0J250000D01*
G01*
X7450000Y30250000D01*
G75*
G02*
X7700000Y30500000I250000J0D01*
G01*
X10250000Y30500000D01*
G75*
G02*
X10500000Y30250000I0J-250000D01*
G01*
G37*
G36*
G01*
X7150000Y27200000D02*
X7150000Y24950000D01*
G75*
G02*
X6900000Y24700000I-250000J0D01*
G01*
X4350000Y24700000D01*
G75*
G02*
X4100000Y24950000I0J250000D01*
G01*
X4100000Y27200000D01*
G75*
G02*
X4350000Y27450000I250000J0D01*
G01*
X6900000Y27450000D01*
G75*
G02*
X7150000Y27200000I0J-250000D01*
G01*
G37*
G36*
G01*
X7150000Y30250000D02*
X7150000Y28000000D01*
G75*
G02*
X6900000Y27750000I-250000J0D01*
G01*
X4350000Y27750000D01*
G75*
G02*
X4100000Y28000000I0J250000D01*
G01*
X4100000Y30250000D01*
G75*
G02*
X4350000Y30500000I250000J0D01*
G01*
X6900000Y30500000D01*
G75*
G02*
X7150000Y30250000I0J-250000D01*
G01*
G37*
G36*
G01*
X14700000Y30230000D02*
X14700000Y29530000D01*
G75*
G02*
X14450000Y29280000I-250000J0D01*
G01*
X12750000Y29280000D01*
G75*
G02*
X12500000Y29530000I0J250000D01*
G01*
X12500000Y30230000D01*
G75*
G02*
X12750000Y30480000I250000J0D01*
G01*
X14450000Y30480000D01*
G75*
G02*
X14700000Y30230000I0J-250000D01*
G01*
G37*
G04 #@! TD*
D15*
G04 #@! TO.C,Q16*
X126600000Y68650000D03*
X126600000Y70950000D03*
X126600000Y73250000D03*
D16*
X120300000Y70950000D03*
G04 #@! TD*
D15*
G04 #@! TO.C,Q15*
X126600000Y60400000D03*
X126600000Y62700000D03*
X126600000Y65000000D03*
D16*
X120300000Y62700000D03*
G04 #@! TD*
G04 #@! TO.C,C9*
G36*
G01*
X114500000Y41875000D02*
X114500000Y40825000D01*
G75*
G02*
X114400000Y40725000I-100000J0D01*
G01*
X113600000Y40725000D01*
G75*
G02*
X113500000Y40825000I0J100000D01*
G01*
X113500000Y41875000D01*
G75*
G02*
X113600000Y41975000I100000J0D01*
G01*
X114400000Y41975000D01*
G75*
G02*
X114500000Y41875000I0J-100000D01*
G01*
G37*
G36*
G01*
X112500000Y41875000D02*
X112500000Y40825000D01*
G75*
G02*
X112400000Y40725000I-100000J0D01*
G01*
X111600000Y40725000D01*
G75*
G02*
X111500000Y40825000I0J100000D01*
G01*
X111500000Y41875000D01*
G75*
G02*
X111600000Y41975000I100000J0D01*
G01*
X112400000Y41975000D01*
G75*
G02*
X112500000Y41875000I0J-100000D01*
G01*
G37*
G04 #@! TD*
G04 #@! TO.C,R18*
G36*
G01*
X15210000Y47550000D02*
X15990000Y47550000D01*
G75*
G02*
X16060000Y47480000I0J-70000D01*
G01*
X16060000Y46920000D01*
G75*
G02*
X15990000Y46850000I-70000J0D01*
G01*
X15210000Y46850000D01*
G75*
G02*
X15140000Y46920000I0J70000D01*
G01*
X15140000Y47480000D01*
G75*
G02*
X15210000Y47550000I70000J0D01*
G01*
G37*
G36*
G01*
X15210000Y45950000D02*
X15990000Y45950000D01*
G75*
G02*
X16060000Y45880000I0J-70000D01*
G01*
X16060000Y45320000D01*
G75*
G02*
X15990000Y45250000I-70000J0D01*
G01*
X15210000Y45250000D01*
G75*
G02*
X15140000Y45320000I0J70000D01*
G01*
X15140000Y45880000D01*
G75*
G02*
X15210000Y45950000I70000J0D01*
G01*
G37*
G04 #@! TD*
G04 #@! TO.C,F3*
G36*
G01*
X85775000Y80775000D02*
X85775000Y82025000D01*
G75*
G02*
X86025000Y82275000I250000J0D01*
G01*
X86775000Y82275000D01*
G75*
G02*
X87025000Y82025000I0J-250000D01*
G01*
X87025000Y80775000D01*
G75*
G02*
X86775000Y80525000I-250000J0D01*
G01*
X86025000Y80525000D01*
G75*
G02*
X85775000Y80775000I0J250000D01*
G01*
G37*
G36*
G01*
X88575000Y80775000D02*
X88575000Y82025000D01*
G75*
G02*
X88825000Y82275000I250000J0D01*
G01*
X89575000Y82275000D01*
G75*
G02*
X89825000Y82025000I0J-250000D01*
G01*
X89825000Y80775000D01*
G75*
G02*
X89575000Y80525000I-250000J0D01*
G01*
X88825000Y80525000D01*
G75*
G02*
X88575000Y80775000I0J250000D01*
G01*
G37*
G04 #@! TD*
G04 #@! TO.C,R14*
G36*
G01*
X15210000Y58750000D02*
X15990000Y58750000D01*
G75*
G02*
X16060000Y58680000I0J-70000D01*
G01*
X16060000Y58120000D01*
G75*
G02*
X15990000Y58050000I-70000J0D01*
G01*
X15210000Y58050000D01*
G75*
G02*
X15140000Y58120000I0J70000D01*
G01*
X15140000Y58680000D01*
G75*
G02*
X15210000Y58750000I70000J0D01*
G01*
G37*
G36*
G01*
X15210000Y57150000D02*
X15990000Y57150000D01*
G75*
G02*
X16060000Y57080000I0J-70000D01*
G01*
X16060000Y56520000D01*
G75*
G02*
X15990000Y56450000I-70000J0D01*
G01*
X15210000Y56450000D01*
G75*
G02*
X15140000Y56520000I0J70000D01*
G01*
X15140000Y57080000D01*
G75*
G02*
X15210000Y57150000I70000J0D01*
G01*
G37*
G04 #@! TD*
D10*
G04 #@! TO.C,Q3*
X32900000Y32350000D03*
X30600000Y32350000D03*
X28300000Y32350000D03*
D11*
X30600000Y26050000D03*
G04 #@! TD*
G04 #@! TO.C,R2*
G36*
G01*
X84350000Y78390000D02*
X84350000Y77610000D01*
G75*
G02*
X84280000Y77540000I-70000J0D01*
G01*
X83720000Y77540000D01*
G75*
G02*
X83650000Y77610000I0J70000D01*
G01*
X83650000Y78390000D01*
G75*
G02*
X83720000Y78460000I70000J0D01*
G01*
X84280000Y78460000D01*
G75*
G02*
X84350000Y78390000I0J-70000D01*
G01*
G37*
G36*
G01*
X82750000Y78390000D02*
X82750000Y77610000D01*
G75*
G02*
X82680000Y77540000I-70000J0D01*
G01*
X82120000Y77540000D01*
G75*
G02*
X82050000Y77610000I0J70000D01*
G01*
X82050000Y78390000D01*
G75*
G02*
X82120000Y78460000I70000J0D01*
G01*
X82680000Y78460000D01*
G75*
G02*
X82750000Y78390000I0J-70000D01*
G01*
G37*
G04 #@! TD*
G04 #@! TO.C,C13*
G36*
G01*
X112384999Y75860000D02*
X112384999Y76540000D01*
G75*
G02*
X112469999Y76625000I85000J0D01*
G01*
X113149999Y76625000D01*
G75*
G02*
X113234999Y76540000I0J-85000D01*
G01*
X113234999Y75860000D01*
G75*
G02*
X113149999Y75775000I-85000J0D01*
G01*
X112469999Y75775000D01*
G75*
G02*
X112384999Y75860000I0J85000D01*
G01*
G37*
G36*
G01*
X113965001Y75860000D02*
X113965001Y76540000D01*
G75*
G02*
X114050001Y76625000I85000J0D01*
G01*
X114730001Y76625000D01*
G75*
G02*
X114815001Y76540000I0J-85000D01*
G01*
X114815001Y75860000D01*
G75*
G02*
X114730001Y75775000I-85000J0D01*
G01*
X114050001Y75775000D01*
G75*
G02*
X113965001Y75860000I0J85000D01*
G01*
G37*
G04 #@! TD*
G04 #@! TO.C,R10*
G36*
G01*
X39050000Y34010000D02*
X39050000Y34790000D01*
G75*
G02*
X39120000Y34860000I70000J0D01*
G01*
X39680000Y34860000D01*
G75*
G02*
X39750000Y34790000I0J-70000D01*
G01*
X39750000Y34010000D01*
G75*
G02*
X39680000Y33940000I-70000J0D01*
G01*
X39120000Y33940000D01*
G75*
G02*
X39050000Y34010000I0J70000D01*
G01*
G37*
G36*
G01*
X40650000Y34010000D02*
X40650000Y34790000D01*
G75*
G02*
X40720000Y34860000I70000J0D01*
G01*
X41280000Y34860000D01*
G75*
G02*
X41350000Y34790000I0J-70000D01*
G01*
X41350000Y34010000D01*
G75*
G02*
X41280000Y33940000I-70000J0D01*
G01*
X40720000Y33940000D01*
G75*
G02*
X40650000Y34010000I0J70000D01*
G01*
G37*
G04 #@! TD*
G04 #@! TO.C,R9*
G36*
G01*
X29950000Y36190000D02*
X29950000Y35410000D01*
G75*
G02*
X29880000Y35340000I-70000J0D01*
G01*
X29320000Y35340000D01*
G75*
G02*
X29250000Y35410000I0J70000D01*
G01*
X29250000Y36190000D01*
G75*
G02*
X29320000Y36260000I70000J0D01*
G01*
X29880000Y36260000D01*
G75*
G02*
X29950000Y36190000I0J-70000D01*
G01*
G37*
G36*
G01*
X28350000Y36190000D02*
X28350000Y35410000D01*
G75*
G02*
X28280000Y35340000I-70000J0D01*
G01*
X27720000Y35340000D01*
G75*
G02*
X27650000Y35410000I0J70000D01*
G01*
X27650000Y36190000D01*
G75*
G02*
X27720000Y36260000I70000J0D01*
G01*
X28280000Y36260000D01*
G75*
G02*
X28350000Y36190000I0J-70000D01*
G01*
G37*
G04 #@! TD*
G04 #@! TO.C,C12*
G36*
G01*
X115005002Y61540000D02*
X115005002Y60860000D01*
G75*
G02*
X114920002Y60775000I-85000J0D01*
G01*
X114240002Y60775000D01*
G75*
G02*
X114155002Y60860000I0J85000D01*
G01*
X114155002Y61540000D01*
G75*
G02*
X114240002Y61625000I85000J0D01*
G01*
X114920002Y61625000D01*
G75*
G02*
X115005002Y61540000I0J-85000D01*
G01*
G37*
G36*
G01*
X113425000Y61540000D02*
X113425000Y60860000D01*
G75*
G02*
X113340000Y60775000I-85000J0D01*
G01*
X112660000Y60775000D01*
G75*
G02*
X112575000Y60860000I0J85000D01*
G01*
X112575000Y61540000D01*
G75*
G02*
X112660000Y61625000I85000J0D01*
G01*
X113340000Y61625000D01*
G75*
G02*
X113425000Y61540000I0J-85000D01*
G01*
G37*
G04 #@! TD*
G04 #@! TO.C,D3*
G36*
G01*
X128300000Y62890000D02*
X128300000Y63910000D01*
G75*
G02*
X128390000Y64000000I90000J0D01*
G01*
X129110000Y64000000D01*
G75*
G02*
X129200000Y63910000I0J-90000D01*
G01*
X129200000Y62890000D01*
G75*
G02*
X129110000Y62800000I-90000J0D01*
G01*
X128390000Y62800000D01*
G75*
G02*
X128300000Y62890000I0J90000D01*
G01*
G37*
G36*
G01*
X131600000Y62890000D02*
X131600000Y63910000D01*
G75*
G02*
X131690000Y64000000I90000J0D01*
G01*
X132410000Y64000000D01*
G75*
G02*
X132500000Y63910000I0J-90000D01*
G01*
X132500000Y62890000D01*
G75*
G02*
X132410000Y62800000I-90000J0D01*
G01*
X131690000Y62800000D01*
G75*
G02*
X131600000Y62890000I0J90000D01*
G01*
G37*
G04 #@! TD*
G04 #@! TO.C,F2*
G36*
G01*
X89825000Y78425000D02*
X89825000Y77175000D01*
G75*
G02*
X89575000Y76925000I-250000J0D01*
G01*
X88825000Y76925000D01*
G75*
G02*
X88575000Y77175000I0J250000D01*
G01*
X88575000Y78425000D01*
G75*
G02*
X88825000Y78675000I250000J0D01*
G01*
X89575000Y78675000D01*
G75*
G02*
X89825000Y78425000I0J-250000D01*
G01*
G37*
G36*
G01*
X87025000Y78425000D02*
X87025000Y77175000D01*
G75*
G02*
X86775000Y76925000I-250000J0D01*
G01*
X86025000Y76925000D01*
G75*
G02*
X85775000Y77175000I0J250000D01*
G01*
X85775000Y78425000D01*
G75*
G02*
X86025000Y78675000I250000J0D01*
G01*
X86775000Y78675000D01*
G75*
G02*
X87025000Y78425000I0J-250000D01*
G01*
G37*
G04 #@! TD*
G04 #@! TO.C,F1*
G36*
G01*
X31375000Y71375000D02*
X31375000Y72625000D01*
G75*
G02*
X31625000Y72875000I250000J0D01*
G01*
X32375000Y72875000D01*
G75*
G02*
X32625000Y72625000I0J-250000D01*
G01*
X32625000Y71375000D01*
G75*
G02*
X32375000Y71125000I-250000J0D01*
G01*
X31625000Y71125000D01*
G75*
G02*
X31375000Y71375000I0J250000D01*
G01*
G37*
G36*
G01*
X34175000Y71375000D02*
X34175000Y72625000D01*
G75*
G02*
X34425000Y72875000I250000J0D01*
G01*
X35175000Y72875000D01*
G75*
G02*
X35425000Y72625000I0J-250000D01*
G01*
X35425000Y71375000D01*
G75*
G02*
X35175000Y71125000I-250000J0D01*
G01*
X34425000Y71125000D01*
G75*
G02*
X34175000Y71375000I0J250000D01*
G01*
G37*
G04 #@! TD*
G04 #@! TO.C,R15*
G36*
G01*
X14775000Y79425000D02*
X14775000Y76575000D01*
G75*
G02*
X14525000Y76325000I-250000J0D01*
G01*
X13800000Y76325000D01*
G75*
G02*
X13550000Y76575000I0J250000D01*
G01*
X13550000Y79425000D01*
G75*
G02*
X13800000Y79675000I250000J0D01*
G01*
X14525000Y79675000D01*
G75*
G02*
X14775000Y79425000I0J-250000D01*
G01*
G37*
G36*
G01*
X8850000Y79425000D02*
X8850000Y76575000D01*
G75*
G02*
X8600000Y76325000I-250000J0D01*
G01*
X7875000Y76325000D01*
G75*
G02*
X7625000Y76575000I0J250000D01*
G01*
X7625000Y79425000D01*
G75*
G02*
X7875000Y79675000I250000J0D01*
G01*
X8600000Y79675000D01*
G75*
G02*
X8850000Y79425000I0J-250000D01*
G01*
G37*
G04 #@! TD*
G04 #@! TO.C,Q8*
G36*
G01*
X14725000Y70470000D02*
X14725000Y69770000D01*
G75*
G02*
X14475000Y69520000I-250000J0D01*
G01*
X12775000Y69520000D01*
G75*
G02*
X12525000Y69770000I0J250000D01*
G01*
X12525000Y70470000D01*
G75*
G02*
X12775000Y70720000I250000J0D01*
G01*
X14475000Y70720000D01*
G75*
G02*
X14725000Y70470000I0J-250000D01*
G01*
G37*
G36*
G01*
X10525000Y72000000D02*
X10525000Y69750000D01*
G75*
G02*
X10275000Y69500000I-250000J0D01*
G01*
X7725000Y69500000D01*
G75*
G02*
X7475000Y69750000I0J250000D01*
G01*
X7475000Y72000000D01*
G75*
G02*
X7725000Y72250000I250000J0D01*
G01*
X10275000Y72250000D01*
G75*
G02*
X10525000Y72000000I0J-250000D01*
G01*
G37*
G36*
G01*
X10525000Y75050000D02*
X10525000Y72800000D01*
G75*
G02*
X10275000Y72550000I-250000J0D01*
G01*
X7725000Y72550000D01*
G75*
G02*
X7475000Y72800000I0J250000D01*
G01*
X7475000Y75050000D01*
G75*
G02*
X7725000Y75300000I250000J0D01*
G01*
X10275000Y75300000D01*
G75*
G02*
X10525000Y75050000I0J-250000D01*
G01*
G37*
G36*
G01*
X7175000Y72000000D02*
X7175000Y69750000D01*
G75*
G02*
X6925000Y69500000I-250000J0D01*
G01*
X4375000Y69500000D01*
G75*
G02*
X4125000Y69750000I0J250000D01*
G01*
X4125000Y72000000D01*
G75*
G02*
X4375000Y72250000I250000J0D01*
G01*
X6925000Y72250000D01*
G75*
G02*
X7175000Y72000000I0J-250000D01*
G01*
G37*
G36*
G01*
X7175000Y75050000D02*
X7175000Y72800000D01*
G75*
G02*
X6925000Y72550000I-250000J0D01*
G01*
X4375000Y72550000D01*
G75*
G02*
X4125000Y72800000I0J250000D01*
G01*
X4125000Y75050000D01*
G75*
G02*
X4375000Y75300000I250000J0D01*
G01*
X6925000Y75300000D01*
G75*
G02*
X7175000Y75050000I0J-250000D01*
G01*
G37*
G36*
G01*
X14725000Y75030000D02*
X14725000Y74330000D01*
G75*
G02*
X14475000Y74080000I-250000J0D01*
G01*
X12775000Y74080000D01*
G75*
G02*
X12525000Y74330000I0J250000D01*
G01*
X12525000Y75030000D01*
G75*
G02*
X12775000Y75280000I250000J0D01*
G01*
X14475000Y75280000D01*
G75*
G02*
X14725000Y75030000I0J-250000D01*
G01*
G37*
G04 #@! TD*
G04 #@! TO.C,D8*
G36*
G01*
X76200000Y81650000D02*
X76200000Y80750000D01*
G75*
G02*
X76100000Y80650000I-100000J0D01*
G01*
X75300000Y80650000D01*
G75*
G02*
X75200000Y80750000I0J100000D01*
G01*
X75200000Y81650000D01*
G75*
G02*
X75300000Y81750000I100000J0D01*
G01*
X76100000Y81750000D01*
G75*
G02*
X76200000Y81650000I0J-100000D01*
G01*
G37*
G36*
G01*
X74500000Y81650000D02*
X74500000Y80750000D01*
G75*
G02*
X74400000Y80650000I-100000J0D01*
G01*
X73600000Y80650000D01*
G75*
G02*
X73500000Y80750000I0J100000D01*
G01*
X73500000Y81650000D01*
G75*
G02*
X73600000Y81750000I100000J0D01*
G01*
X74400000Y81750000D01*
G75*
G02*
X74500000Y81650000I0J-100000D01*
G01*
G37*
G04 #@! TD*
G04 #@! TO.C,C6*
G36*
G01*
X114500000Y59625000D02*
X114500000Y58575000D01*
G75*
G02*
X114400000Y58475000I-100000J0D01*
G01*
X113600000Y58475000D01*
G75*
G02*
X113500000Y58575000I0J100000D01*
G01*
X113500000Y59625000D01*
G75*
G02*
X113600000Y59725000I100000J0D01*
G01*
X114400000Y59725000D01*
G75*
G02*
X114500000Y59625000I0J-100000D01*
G01*
G37*
G36*
G01*
X112500000Y59625000D02*
X112500000Y58575000D01*
G75*
G02*
X112400000Y58475000I-100000J0D01*
G01*
X111600000Y58475000D01*
G75*
G02*
X111500000Y58575000I0J100000D01*
G01*
X111500000Y59625000D01*
G75*
G02*
X111600000Y59725000I100000J0D01*
G01*
X112400000Y59725000D01*
G75*
G02*
X112500000Y59625000I0J-100000D01*
G01*
G37*
G04 #@! TD*
G04 #@! TO.C,C7*
G36*
G01*
X114500000Y37375000D02*
X114500000Y36325000D01*
G75*
G02*
X114400000Y36225000I-100000J0D01*
G01*
X113600000Y36225000D01*
G75*
G02*
X113500000Y36325000I0J100000D01*
G01*
X113500000Y37375000D01*
G75*
G02*
X113600000Y37475000I100000J0D01*
G01*
X114400000Y37475000D01*
G75*
G02*
X114500000Y37375000I0J-100000D01*
G01*
G37*
G36*
G01*
X112500000Y37375000D02*
X112500000Y36325000D01*
G75*
G02*
X112400000Y36225000I-100000J0D01*
G01*
X111600000Y36225000D01*
G75*
G02*
X111500000Y36325000I0J100000D01*
G01*
X111500000Y37375000D01*
G75*
G02*
X111600000Y37475000I100000J0D01*
G01*
X112400000Y37475000D01*
G75*
G02*
X112500000Y37375000I0J-100000D01*
G01*
G37*
G04 #@! TD*
G04 #@! TO.C,R31*
G36*
G01*
X72650001Y81440002D02*
X72650001Y80660002D01*
G75*
G02*
X72580001Y80590002I-70000J0D01*
G01*
X72020001Y80590002D01*
G75*
G02*
X71950001Y80660002I0J70000D01*
G01*
X71950001Y81440002D01*
G75*
G02*
X72020001Y81510002I70000J0D01*
G01*
X72580001Y81510002D01*
G75*
G02*
X72650001Y81440002I0J-70000D01*
G01*
G37*
G36*
G01*
X71050001Y81440002D02*
X71050001Y80660002D01*
G75*
G02*
X70980001Y80590002I-70000J0D01*
G01*
X70420001Y80590002D01*
G75*
G02*
X70350001Y80660002I0J70000D01*
G01*
X70350001Y81440002D01*
G75*
G02*
X70420001Y81510002I70000J0D01*
G01*
X70980001Y81510002D01*
G75*
G02*
X71050001Y81440002I0J-70000D01*
G01*
G37*
G04 #@! TD*
G04 #@! TO.C,Q10*
G36*
G01*
X14600000Y48070000D02*
X14600000Y47370000D01*
G75*
G02*
X14350000Y47120000I-250000J0D01*
G01*
X12650000Y47120000D01*
G75*
G02*
X12400000Y47370000I0J250000D01*
G01*
X12400000Y48070000D01*
G75*
G02*
X12650000Y48320000I250000J0D01*
G01*
X14350000Y48320000D01*
G75*
G02*
X14600000Y48070000I0J-250000D01*
G01*
G37*
G36*
G01*
X10400000Y49600000D02*
X10400000Y47350000D01*
G75*
G02*
X10150000Y47100000I-250000J0D01*
G01*
X7600000Y47100000D01*
G75*
G02*
X7350000Y47350000I0J250000D01*
G01*
X7350000Y49600000D01*
G75*
G02*
X7600000Y49850000I250000J0D01*
G01*
X10150000Y49850000D01*
G75*
G02*
X10400000Y49600000I0J-250000D01*
G01*
G37*
G36*
G01*
X10400000Y52650000D02*
X10400000Y50400000D01*
G75*
G02*
X10150000Y50150000I-250000J0D01*
G01*
X7600000Y50150000D01*
G75*
G02*
X7350000Y50400000I0J250000D01*
G01*
X7350000Y52650000D01*
G75*
G02*
X7600000Y52900000I250000J0D01*
G01*
X10150000Y52900000D01*
G75*
G02*
X10400000Y52650000I0J-250000D01*
G01*
G37*
G36*
G01*
X7050000Y49600000D02*
X7050000Y47350000D01*
G75*
G02*
X6800000Y47100000I-250000J0D01*
G01*
X4250000Y47100000D01*
G75*
G02*
X4000000Y47350000I0J250000D01*
G01*
X4000000Y49600000D01*
G75*
G02*
X4250000Y49850000I250000J0D01*
G01*
X6800000Y49850000D01*
G75*
G02*
X7050000Y49600000I0J-250000D01*
G01*
G37*
G36*
G01*
X7050000Y52650000D02*
X7050000Y50400000D01*
G75*
G02*
X6800000Y50150000I-250000J0D01*
G01*
X4250000Y50150000D01*
G75*
G02*
X4000000Y50400000I0J250000D01*
G01*
X4000000Y52650000D01*
G75*
G02*
X4250000Y52900000I250000J0D01*
G01*
X6800000Y52900000D01*
G75*
G02*
X7050000Y52650000I0J-250000D01*
G01*
G37*
G36*
G01*
X14600000Y52630000D02*
X14600000Y51930000D01*
G75*
G02*
X14350000Y51680000I-250000J0D01*
G01*
X12650000Y51680000D01*
G75*
G02*
X12400000Y51930000I0J250000D01*
G01*
X12400000Y52630000D01*
G75*
G02*
X12650000Y52880000I250000J0D01*
G01*
X14350000Y52880000D01*
G75*
G02*
X14600000Y52630000I0J-250000D01*
G01*
G37*
G04 #@! TD*
D15*
G04 #@! TO.C,Q13*
X126600000Y43900000D03*
X126600000Y46200000D03*
X126600000Y48500000D03*
D16*
X120300000Y46200000D03*
G04 #@! TD*
D15*
G04 #@! TO.C,Q14*
X126600000Y52150000D03*
X126600000Y54450000D03*
X126600000Y56750000D03*
D16*
X120300000Y54450000D03*
G04 #@! TD*
G04 #@! TO.C,C4*
G36*
G01*
X114500000Y55125000D02*
X114500000Y54075000D01*
G75*
G02*
X114400000Y53975000I-100000J0D01*
G01*
X113600000Y53975000D01*
G75*
G02*
X113500000Y54075000I0J100000D01*
G01*
X113500000Y55125000D01*
G75*
G02*
X113600000Y55225000I100000J0D01*
G01*
X114400000Y55225000D01*
G75*
G02*
X114500000Y55125000I0J-100000D01*
G01*
G37*
G36*
G01*
X112500000Y55125000D02*
X112500000Y54075000D01*
G75*
G02*
X112400000Y53975000I-100000J0D01*
G01*
X111600000Y53975000D01*
G75*
G02*
X111500000Y54075000I0J100000D01*
G01*
X111500000Y55125000D01*
G75*
G02*
X111600000Y55225000I100000J0D01*
G01*
X112400000Y55225000D01*
G75*
G02*
X112500000Y55125000I0J-100000D01*
G01*
G37*
G04 #@! TD*
G04 #@! TO.C,R11*
G36*
G01*
X37350000Y36190000D02*
X37350000Y35410000D01*
G75*
G02*
X37280000Y35340000I-70000J0D01*
G01*
X36720000Y35340000D01*
G75*
G02*
X36650000Y35410000I0J70000D01*
G01*
X36650000Y36190000D01*
G75*
G02*
X36720000Y36260000I70000J0D01*
G01*
X37280000Y36260000D01*
G75*
G02*
X37350000Y36190000I0J-70000D01*
G01*
G37*
G36*
G01*
X35750000Y36190000D02*
X35750000Y35410000D01*
G75*
G02*
X35680000Y35340000I-70000J0D01*
G01*
X35120000Y35340000D01*
G75*
G02*
X35050000Y35410000I0J70000D01*
G01*
X35050000Y36190000D01*
G75*
G02*
X35120000Y36260000I70000J0D01*
G01*
X35680000Y36260000D01*
G75*
G02*
X35750000Y36190000I0J-70000D01*
G01*
G37*
G04 #@! TD*
G04 #@! TO.C,R7*
G36*
G01*
X22550000Y36190000D02*
X22550000Y35410000D01*
G75*
G02*
X22480000Y35340000I-70000J0D01*
G01*
X21920000Y35340000D01*
G75*
G02*
X21850000Y35410000I0J70000D01*
G01*
X21850000Y36190000D01*
G75*
G02*
X21920000Y36260000I70000J0D01*
G01*
X22480000Y36260000D01*
G75*
G02*
X22550000Y36190000I0J-70000D01*
G01*
G37*
G36*
G01*
X20950000Y36190000D02*
X20950000Y35410000D01*
G75*
G02*
X20880000Y35340000I-70000J0D01*
G01*
X20320000Y35340000D01*
G75*
G02*
X20250000Y35410000I0J70000D01*
G01*
X20250000Y36190000D01*
G75*
G02*
X20320000Y36260000I70000J0D01*
G01*
X20880000Y36260000D01*
G75*
G02*
X20950000Y36190000I0J-70000D01*
G01*
G37*
G04 #@! TD*
G04 #@! TO.C,R28*
G36*
G01*
X49450000Y24210000D02*
X49450000Y24990000D01*
G75*
G02*
X49520000Y25060000I70000J0D01*
G01*
X50080000Y25060000D01*
G75*
G02*
X50150000Y24990000I0J-70000D01*
G01*
X50150000Y24210000D01*
G75*
G02*
X50080000Y24140000I-70000J0D01*
G01*
X49520000Y24140000D01*
G75*
G02*
X49450000Y24210000I0J70000D01*
G01*
G37*
G36*
G01*
X51050000Y24210000D02*
X51050000Y24990000D01*
G75*
G02*
X51120000Y25060000I70000J0D01*
G01*
X51680000Y25060000D01*
G75*
G02*
X51750000Y24990000I0J-70000D01*
G01*
X51750000Y24210000D01*
G75*
G02*
X51680000Y24140000I-70000J0D01*
G01*
X51120000Y24140000D01*
G75*
G02*
X51050000Y24210000I0J70000D01*
G01*
G37*
G04 #@! TD*
G04 #@! TO.C,D2*
G36*
G01*
X128300000Y54690000D02*
X128300000Y55710000D01*
G75*
G02*
X128390000Y55800000I90000J0D01*
G01*
X129110000Y55800000D01*
G75*
G02*
X129200000Y55710000I0J-90000D01*
G01*
X129200000Y54690000D01*
G75*
G02*
X129110000Y54600000I-90000J0D01*
G01*
X128390000Y54600000D01*
G75*
G02*
X128300000Y54690000I0J90000D01*
G01*
G37*
G36*
G01*
X131600000Y54690000D02*
X131600000Y55710000D01*
G75*
G02*
X131690000Y55800000I90000J0D01*
G01*
X132410000Y55800000D01*
G75*
G02*
X132500000Y55710000I0J-90000D01*
G01*
X132500000Y54690000D01*
G75*
G02*
X132410000Y54600000I-90000J0D01*
G01*
X131690000Y54600000D01*
G75*
G02*
X131600000Y54690000I0J90000D01*
G01*
G37*
G04 #@! TD*
G04 #@! TO.C,R27*
G36*
G01*
X128410000Y70150000D02*
X129190000Y70150000D01*
G75*
G02*
X129260000Y70080000I0J-70000D01*
G01*
X129260000Y69520000D01*
G75*
G02*
X129190000Y69450000I-70000J0D01*
G01*
X128410000Y69450000D01*
G75*
G02*
X128340000Y69520000I0J70000D01*
G01*
X128340000Y70080000D01*
G75*
G02*
X128410000Y70150000I70000J0D01*
G01*
G37*
G36*
G01*
X128410000Y68550000D02*
X129190000Y68550000D01*
G75*
G02*
X129260000Y68480000I0J-70000D01*
G01*
X129260000Y67920000D01*
G75*
G02*
X129190000Y67850000I-70000J0D01*
G01*
X128410000Y67850000D01*
G75*
G02*
X128340000Y67920000I0J70000D01*
G01*
X128340000Y68480000D01*
G75*
G02*
X128410000Y68550000I70000J0D01*
G01*
G37*
G04 #@! TD*
G04 #@! TO.C,R29*
G36*
G01*
X44050000Y24010000D02*
X44050000Y24790000D01*
G75*
G02*
X44120000Y24860000I70000J0D01*
G01*
X44680000Y24860000D01*
G75*
G02*
X44750000Y24790000I0J-70000D01*
G01*
X44750000Y24010000D01*
G75*
G02*
X44680000Y23940000I-70000J0D01*
G01*
X44120000Y23940000D01*
G75*
G02*
X44050000Y24010000I0J70000D01*
G01*
G37*
G36*
G01*
X45650000Y24010000D02*
X45650000Y24790000D01*
G75*
G02*
X45720000Y24860000I70000J0D01*
G01*
X46280000Y24860000D01*
G75*
G02*
X46350000Y24790000I0J-70000D01*
G01*
X46350000Y24010000D01*
G75*
G02*
X46280000Y23940000I-70000J0D01*
G01*
X45720000Y23940000D01*
G75*
G02*
X45650000Y24010000I0J70000D01*
G01*
G37*
G04 #@! TD*
M02*
