M48
; DRILL file {KiCad 7.0.10-7.0.10~ubuntu22.04.1} date Sat Jan 27 12:39:01 2024
; FORMAT={2:4/ absolute / inch / suppress leading zeros}
; #@! TF.CreationDate,2024-01-27T12:39:01+00:00
; #@! TF.GenerationSoftware,Kicad,Pcbnew,7.0.10-7.0.10~ubuntu22.04.1
; #@! TF.FileFunction,MixedPlating,1,2
FMAT,2
INCH,TZ
; #@! TA.AperFunction,Plated,PTH,ComponentDrill
T1C0.0118
; #@! TA.AperFunction,Plated,PTH,ComponentDrill
T2C0.0197
; #@! TA.AperFunction,Plated,PTH,ComponentDrill
T3C0.0300
; #@! TA.AperFunction,Plated,PTH,ComponentDrill
T4C0.0394
; #@! TA.AperFunction,NonPlated,NPTH,ComponentDrill
T5C0.0256
%
G90
G05
T1
X10650Y35768
X10650Y35374
X10650Y34980
X10650Y34587
X21119Y33660
X21119Y33260
X21119Y32362
X21119Y31969
X21119Y31575
X21388Y22963
X21388Y22569
X23543Y31890
X23543Y31516
X23543Y31142
X25433Y28012
X25433Y26161
X25433Y25610
X25433Y23760
X25433Y23445
X25433Y22421
X25433Y22028
X25433Y21634
X25433Y21240
X25433Y20846
X25433Y20453
X25433Y20059
X25433Y19665
X25433Y15453
X25433Y15059
X25591Y14075
X26535Y14075
X26969Y31496
X26969Y31142
X27008Y14075
X27480Y14075
X27953Y14075
X28346Y28012
X28425Y14075
X28740Y28012
X28898Y14075
X29370Y14075
X29803Y28012
X29843Y14075
X30315Y14075
X30787Y14075
X31260Y14075
X31496Y28012
X31732Y14075
X31811Y28012
X32126Y28012
X32205Y14075
X32441Y28012
X32677Y14075
X32756Y28012
X33071Y28012
X33150Y14075
X33386Y28012
X33622Y14075
X33701Y28012
X34016Y28012
X34094Y14075
X34567Y14075
X34961Y28012
X35039Y14075
X35276Y28012
X35512Y14075
X35591Y28012
X35906Y28012
X35984Y14075
X36220Y28012
X36496Y32087
X36496Y31732
X36535Y28012
X36850Y28012
X37165Y28012
X37480Y28012
X37795Y28012
X38110Y28012
X38425Y28012
X38583Y22736
X38583Y16634
X38583Y25177
X38583Y24862
X38583Y24547
X38583Y24232
X38583Y23917
X38583Y23602
X38583Y23051
X38583Y22421
X38583Y22106
X38583Y21791
X38583Y21476
X38583Y21161
X38583Y20846
X38583Y20532
X38583Y20217
X38583Y19902
X38583Y19587
X38583Y19272
X38583Y18957
X38583Y18642
X38583Y18327
X39921Y32087
X39921Y31713
X39921Y31339
X41696Y35659
X41696Y35266
X41696Y34872
X41696Y33974
X41696Y33574
X52165Y32648
X52165Y32254
X52165Y31860
X52165Y31467
T3
X8102Y7852
X8102Y5490
X8102Y3128
X9413Y7852
X9413Y5490
X9413Y3128
X10724Y7852
X10724Y5490
X10724Y3128
X12035Y7852
X12035Y5490
X12035Y3128
X13346Y7852
X13346Y5490
X13346Y3128
X14657Y7852
X14657Y5490
X14657Y3128
X15969Y7852
X15969Y5490
X15969Y3128
X17280Y7852
X17280Y5490
X17280Y3128
X18591Y7852
X18591Y5490
X18591Y3128
X19902Y7852
X19902Y5490
X19906Y3128
X21213Y7852
X21213Y5490
X21213Y3128
X22524Y7852
X22524Y5490
X22524Y3128
X23835Y7852
X23835Y5490
X23835Y3128
X25146Y7852
X25146Y5490
X25146Y3128
X26457Y7852
X26457Y5490
X26457Y3128
X33543Y7852
X33543Y5490
X33543Y3128
X34854Y7852
X34854Y5490
X34854Y3128
X36165Y7852
X36165Y5490
X36165Y3128
X37476Y7852
X37476Y5490
X37476Y3128
X38787Y7852
X38787Y5490
X38787Y3128
X40098Y7852
X40098Y5490
X40098Y3128
X41409Y7852
X41409Y5490
X41409Y3128
X42720Y7852
X42720Y5490
X42720Y3128
X44031Y7852
X44031Y5490
X44031Y3128
X45343Y7852
X45343Y5490
X45343Y3128
X46654Y7852
X46654Y5490
X46654Y3128
X47965Y7852
X47965Y5490
X47965Y3128
X49276Y7852
X49276Y5490
X49276Y3128
X50587Y7852
X50587Y5490
X50587Y3128
X51898Y7852
X51898Y5490
X51898Y3128
T4
X15108Y29045
X15108Y28317
X15108Y26368
X15108Y21624
X21211Y28868
X21211Y26348
X21211Y25600
X21211Y23907
X21211Y21447
X23622Y36142
X24622Y36142
X25622Y36142
X26622Y36142
X27622Y36142
X35955Y35827
X36955Y35827
X37955Y35827
X38955Y35827
X39955Y35827
T5
X33386Y33323
T2
X30201Y36039G85X30201Y36276
G05
X30343Y33697G85X30343Y33933
G05
X33594Y33697G85X33594Y33933
G05
X33736Y36039G85X33736Y36276
G05
T5
X30610Y33323G85X30492Y33323
G05
M30
