G04 #@! TF.GenerationSoftware,KiCad,Pcbnew,7.0.10-7.0.10~ubuntu22.04.1*
G04 #@! TF.CreationDate,2024-02-03T13:28:10+00:00*
G04 #@! TF.ProjectId,lewycustom,6c657779-6375-4737-946f-6d2e6b696361,rev?*
G04 #@! TF.SameCoordinates,Original*
G04 #@! TF.FileFunction,Soldermask,Top*
G04 #@! TF.FilePolarity,Negative*
%FSLAX46Y46*%
G04 Gerber Fmt 4.6, Leading zero omitted, Abs format (unit mm)*
G04 Created by KiCad (PCBNEW 7.0.10-7.0.10~ubuntu22.04.1) date 2024-02-03 13:28:10*
%MOMM*%
%LPD*%
G01*
G04 APERTURE LIST*
%ADD10C,0.600000*%
%ADD11R,1.500000X2.000000*%
%ADD12R,3.800000X2.000000*%
%ADD13C,0.650000*%
%ADD14O,0.950000X0.650000*%
%ADD15R,0.300000X0.700000*%
%ADD16O,0.800000X1.400000*%
%ADD17R,0.650000X2.000000*%
%ADD18R,8.100000X4.500000*%
%ADD19R,1.700000X1.700000*%
%ADD20O,1.700000X1.700000*%
%ADD21C,1.524000*%
%ADD22R,2.000000X1.500000*%
%ADD23R,2.000000X3.800000*%
%ADD24C,1.500000*%
G04 APERTURE END LIST*
D10*
G04 #@! TO.C,M4*
X33600000Y52950000D03*
X34550000Y52950000D03*
X35499998Y52950000D03*
X34500000Y44250000D03*
X33600000Y44250000D03*
G04 #@! TD*
D11*
G04 #@! TO.C,Q1*
X29300000Y33600000D03*
X27000000Y33600000D03*
X24700000Y33600000D03*
D12*
X27000000Y27300000D03*
G04 #@! TD*
G04 #@! TO.C,C8*
G36*
G01*
X115320000Y60725000D02*
X115320000Y59675000D01*
G75*
G02*
X115220000Y59575000I-100000J0D01*
G01*
X114420000Y59575000D01*
G75*
G02*
X114320000Y59675000I0J100000D01*
G01*
X114320000Y60725000D01*
G75*
G02*
X114420000Y60825000I100000J0D01*
G01*
X115220000Y60825000D01*
G75*
G02*
X115320000Y60725000I0J-100000D01*
G01*
G37*
G36*
G01*
X113320000Y60725000D02*
X113320000Y59675000D01*
G75*
G02*
X113220000Y59575000I-100000J0D01*
G01*
X112420000Y59575000D01*
G75*
G02*
X112320000Y59675000I0J100000D01*
G01*
X112320000Y60725000D01*
G75*
G02*
X112420000Y60825000I100000J0D01*
G01*
X113220000Y60825000D01*
G75*
G02*
X113320000Y60725000I0J-100000D01*
G01*
G37*
G04 #@! TD*
G04 #@! TO.C,D5*
G36*
G01*
X64400000Y29725000D02*
X64100000Y29725000D01*
G75*
G02*
X63950000Y29875000I0J150000D01*
G01*
X63950000Y31050000D01*
G75*
G02*
X64100000Y31200000I150000J0D01*
G01*
X64400000Y31200000D01*
G75*
G02*
X64550000Y31050000I0J-150000D01*
G01*
X64550000Y29875000D01*
G75*
G02*
X64400000Y29725000I-150000J0D01*
G01*
G37*
G36*
G01*
X65350000Y31600000D02*
X65050000Y31600000D01*
G75*
G02*
X64900000Y31750000I0J150000D01*
G01*
X64900000Y32925000D01*
G75*
G02*
X65050000Y33075000I150000J0D01*
G01*
X65350000Y33075000D01*
G75*
G02*
X65500000Y32925000I0J-150000D01*
G01*
X65500000Y31750000D01*
G75*
G02*
X65350000Y31600000I-150000J0D01*
G01*
G37*
G36*
G01*
X66300000Y29725000D02*
X66000000Y29725000D01*
G75*
G02*
X65850000Y29875000I0J150000D01*
G01*
X65850000Y31050000D01*
G75*
G02*
X66000000Y31200000I150000J0D01*
G01*
X66300000Y31200000D01*
G75*
G02*
X66450000Y31050000I0J-150000D01*
G01*
X66450000Y29875000D01*
G75*
G02*
X66300000Y29725000I-150000J0D01*
G01*
G37*
G04 #@! TD*
G04 #@! TO.C,R22*
G36*
G01*
X16375000Y37025000D02*
X16375000Y34175000D01*
G75*
G02*
X16125000Y33925000I-250000J0D01*
G01*
X15400000Y33925000D01*
G75*
G02*
X15150000Y34175000I0J250000D01*
G01*
X15150000Y37025000D01*
G75*
G02*
X15400000Y37275000I250000J0D01*
G01*
X16125000Y37275000D01*
G75*
G02*
X16375000Y37025000I0J-250000D01*
G01*
G37*
G36*
G01*
X10450000Y37025000D02*
X10450000Y34175000D01*
G75*
G02*
X10200000Y33925000I-250000J0D01*
G01*
X9475000Y33925000D01*
G75*
G02*
X9225000Y34175000I0J250000D01*
G01*
X9225000Y37025000D01*
G75*
G02*
X9475000Y37275000I250000J0D01*
G01*
X10200000Y37275000D01*
G75*
G02*
X10450000Y37025000I0J-250000D01*
G01*
G37*
G04 #@! TD*
G04 #@! TO.C,R5*
G36*
G01*
X115370000Y55740000D02*
X115370000Y54960000D01*
G75*
G02*
X115300000Y54890000I-70000J0D01*
G01*
X114740000Y54890000D01*
G75*
G02*
X114670000Y54960000I0J70000D01*
G01*
X114670000Y55740000D01*
G75*
G02*
X114740000Y55810000I70000J0D01*
G01*
X115300000Y55810000D01*
G75*
G02*
X115370000Y55740000I0J-70000D01*
G01*
G37*
G36*
G01*
X113770000Y55740000D02*
X113770000Y54960000D01*
G75*
G02*
X113700000Y54890000I-70000J0D01*
G01*
X113140000Y54890000D01*
G75*
G02*
X113070000Y54960000I0J70000D01*
G01*
X113070000Y55740000D01*
G75*
G02*
X113140000Y55810000I70000J0D01*
G01*
X113700000Y55810000D01*
G75*
G02*
X113770000Y55740000I0J-70000D01*
G01*
G37*
G04 #@! TD*
G04 #@! TO.C,D6*
G36*
G01*
X58850000Y29862500D02*
X58550000Y29862500D01*
G75*
G02*
X58400000Y30012500I0J150000D01*
G01*
X58400000Y31187500D01*
G75*
G02*
X58550000Y31337500I150000J0D01*
G01*
X58850000Y31337500D01*
G75*
G02*
X59000000Y31187500I0J-150000D01*
G01*
X59000000Y30012500D01*
G75*
G02*
X58850000Y29862500I-150000J0D01*
G01*
G37*
G36*
G01*
X59800000Y31737500D02*
X59500000Y31737500D01*
G75*
G02*
X59350000Y31887500I0J150000D01*
G01*
X59350000Y33062500D01*
G75*
G02*
X59500000Y33212500I150000J0D01*
G01*
X59800000Y33212500D01*
G75*
G02*
X59950000Y33062500I0J-150000D01*
G01*
X59950000Y31887500D01*
G75*
G02*
X59800000Y31737500I-150000J0D01*
G01*
G37*
G36*
G01*
X60750000Y29862500D02*
X60450000Y29862500D01*
G75*
G02*
X60300000Y30012500I0J150000D01*
G01*
X60300000Y31187500D01*
G75*
G02*
X60450000Y31337500I150000J0D01*
G01*
X60750000Y31337500D01*
G75*
G02*
X60900000Y31187500I0J-150000D01*
G01*
X60900000Y30012500D01*
G75*
G02*
X60750000Y29862500I-150000J0D01*
G01*
G37*
G04 #@! TD*
G04 #@! TO.C,R4*
G36*
G01*
X80675000Y79375000D02*
X80125000Y79375000D01*
G75*
G02*
X79925000Y79575000I0J200000D01*
G01*
X79925000Y79975000D01*
G75*
G02*
X80125000Y80175000I200000J0D01*
G01*
X80675000Y80175000D01*
G75*
G02*
X80875000Y79975000I0J-200000D01*
G01*
X80875000Y79575000D01*
G75*
G02*
X80675000Y79375000I-200000J0D01*
G01*
G37*
G36*
G01*
X80675000Y81025000D02*
X80125000Y81025000D01*
G75*
G02*
X79925000Y81225000I0J200000D01*
G01*
X79925000Y81625000D01*
G75*
G02*
X80125000Y81825000I200000J0D01*
G01*
X80675000Y81825000D01*
G75*
G02*
X80875000Y81625000I0J-200000D01*
G01*
X80875000Y81225000D01*
G75*
G02*
X80675000Y81025000I-200000J0D01*
G01*
G37*
G04 #@! TD*
G04 #@! TO.C,D7*
G36*
G01*
X76199999Y78849998D02*
X76199999Y77949998D01*
G75*
G02*
X76099999Y77849998I-100000J0D01*
G01*
X75299999Y77849998D01*
G75*
G02*
X75199999Y77949998I0J100000D01*
G01*
X75199999Y78849998D01*
G75*
G02*
X75299999Y78949998I100000J0D01*
G01*
X76099999Y78949998D01*
G75*
G02*
X76199999Y78849998I0J-100000D01*
G01*
G37*
G36*
G01*
X74499999Y78849998D02*
X74499999Y77949998D01*
G75*
G02*
X74399999Y77849998I-100000J0D01*
G01*
X73599999Y77849998D01*
G75*
G02*
X73499999Y77949998I0J100000D01*
G01*
X73499999Y78849998D01*
G75*
G02*
X73599999Y78949998I100000J0D01*
G01*
X74399999Y78949998D01*
G75*
G02*
X74499999Y78849998I0J-100000D01*
G01*
G37*
G04 #@! TD*
G04 #@! TO.C,C1*
G36*
G01*
X108720000Y68575000D02*
X108720000Y69625000D01*
G75*
G02*
X108820000Y69725000I100000J0D01*
G01*
X109620000Y69725000D01*
G75*
G02*
X109720000Y69625000I0J-100000D01*
G01*
X109720000Y68575000D01*
G75*
G02*
X109620000Y68475000I-100000J0D01*
G01*
X108820000Y68475000D01*
G75*
G02*
X108720000Y68575000I0J100000D01*
G01*
G37*
G36*
G01*
X110720000Y68575000D02*
X110720000Y69625000D01*
G75*
G02*
X110820000Y69725000I100000J0D01*
G01*
X111620000Y69725000D01*
G75*
G02*
X111720000Y69625000I0J-100000D01*
G01*
X111720000Y68575000D01*
G75*
G02*
X111620000Y68475000I-100000J0D01*
G01*
X110820000Y68475000D01*
G75*
G02*
X110720000Y68575000I0J100000D01*
G01*
G37*
G04 #@! TD*
G04 #@! TO.C,C5*
G36*
G01*
X108720000Y59575000D02*
X108720000Y60625000D01*
G75*
G02*
X108820000Y60725000I100000J0D01*
G01*
X109620000Y60725000D01*
G75*
G02*
X109720000Y60625000I0J-100000D01*
G01*
X109720000Y59575000D01*
G75*
G02*
X109620000Y59475000I-100000J0D01*
G01*
X108820000Y59475000D01*
G75*
G02*
X108720000Y59575000I0J100000D01*
G01*
G37*
G36*
G01*
X110720000Y59575000D02*
X110720000Y60625000D01*
G75*
G02*
X110820000Y60725000I100000J0D01*
G01*
X111620000Y60725000D01*
G75*
G02*
X111720000Y60625000I0J-100000D01*
G01*
X111720000Y59575000D01*
G75*
G02*
X111620000Y59475000I-100000J0D01*
G01*
X110820000Y59475000D01*
G75*
G02*
X110720000Y59575000I0J100000D01*
G01*
G37*
G04 #@! TD*
G04 #@! TO.C,R19*
G36*
G01*
X17010000Y38750000D02*
X17790000Y38750000D01*
G75*
G02*
X17860000Y38680000I0J-70000D01*
G01*
X17860000Y38120000D01*
G75*
G02*
X17790000Y38050000I-70000J0D01*
G01*
X17010000Y38050000D01*
G75*
G02*
X16940000Y38120000I0J70000D01*
G01*
X16940000Y38680000D01*
G75*
G02*
X17010000Y38750000I70000J0D01*
G01*
G37*
G36*
G01*
X17010000Y37150000D02*
X17790000Y37150000D01*
G75*
G02*
X17860000Y37080000I0J-70000D01*
G01*
X17860000Y36520000D01*
G75*
G02*
X17790000Y36450000I-70000J0D01*
G01*
X17010000Y36450000D01*
G75*
G02*
X16940000Y36520000I0J70000D01*
G01*
X16940000Y37080000D01*
G75*
G02*
X17010000Y37150000I70000J0D01*
G01*
G37*
G04 #@! TD*
G04 #@! TO.C,R17*
G36*
G01*
X135925000Y51495000D02*
X135925000Y54345000D01*
G75*
G02*
X136175000Y54595000I250000J0D01*
G01*
X136900000Y54595000D01*
G75*
G02*
X137150000Y54345000I0J-250000D01*
G01*
X137150000Y51495000D01*
G75*
G02*
X136900000Y51245000I-250000J0D01*
G01*
X136175000Y51245000D01*
G75*
G02*
X135925000Y51495000I0J250000D01*
G01*
G37*
G36*
G01*
X141850000Y51495000D02*
X141850000Y54345000D01*
G75*
G02*
X142100000Y54595000I250000J0D01*
G01*
X142825000Y54595000D01*
G75*
G02*
X143075000Y54345000I0J-250000D01*
G01*
X143075000Y51495000D01*
G75*
G02*
X142825000Y51245000I-250000J0D01*
G01*
X142100000Y51245000D01*
G75*
G02*
X141850000Y51495000I0J250000D01*
G01*
G37*
G04 #@! TD*
G04 #@! TO.C,R8*
G36*
G01*
X37850000Y35210000D02*
X37850000Y35990000D01*
G75*
G02*
X37920000Y36060000I70000J0D01*
G01*
X38480000Y36060000D01*
G75*
G02*
X38550000Y35990000I0J-70000D01*
G01*
X38550000Y35210000D01*
G75*
G02*
X38480000Y35140000I-70000J0D01*
G01*
X37920000Y35140000D01*
G75*
G02*
X37850000Y35210000I0J70000D01*
G01*
G37*
G36*
G01*
X39450000Y35210000D02*
X39450000Y35990000D01*
G75*
G02*
X39520000Y36060000I70000J0D01*
G01*
X40080000Y36060000D01*
G75*
G02*
X40150000Y35990000I0J-70000D01*
G01*
X40150000Y35210000D01*
G75*
G02*
X40080000Y35140000I-70000J0D01*
G01*
X39520000Y35140000D01*
G75*
G02*
X39450000Y35210000I0J70000D01*
G01*
G37*
G04 #@! TD*
G04 #@! TO.C,C11*
G36*
G01*
X115320000Y67475000D02*
X115320000Y66425000D01*
G75*
G02*
X115220000Y66325000I-100000J0D01*
G01*
X114420000Y66325000D01*
G75*
G02*
X114320000Y66425000I0J100000D01*
G01*
X114320000Y67475000D01*
G75*
G02*
X114420000Y67575000I100000J0D01*
G01*
X115220000Y67575000D01*
G75*
G02*
X115320000Y67475000I0J-100000D01*
G01*
G37*
G36*
G01*
X113320000Y67475000D02*
X113320000Y66425000D01*
G75*
G02*
X113220000Y66325000I-100000J0D01*
G01*
X112420000Y66325000D01*
G75*
G02*
X112320000Y66425000I0J100000D01*
G01*
X112320000Y67475000D01*
G75*
G02*
X112420000Y67575000I100000J0D01*
G01*
X113220000Y67575000D01*
G75*
G02*
X113320000Y67475000I0J-100000D01*
G01*
G37*
G04 #@! TD*
G04 #@! TO.C,R23*
G36*
G01*
X16175000Y25825000D02*
X16175000Y22975000D01*
G75*
G02*
X15925000Y22725000I-250000J0D01*
G01*
X15200000Y22725000D01*
G75*
G02*
X14950000Y22975000I0J250000D01*
G01*
X14950000Y25825000D01*
G75*
G02*
X15200000Y26075000I250000J0D01*
G01*
X15925000Y26075000D01*
G75*
G02*
X16175000Y25825000I0J-250000D01*
G01*
G37*
G36*
G01*
X10250000Y25825000D02*
X10250000Y22975000D01*
G75*
G02*
X10000000Y22725000I-250000J0D01*
G01*
X9275000Y22725000D01*
G75*
G02*
X9025000Y22975000I0J250000D01*
G01*
X9025000Y25825000D01*
G75*
G02*
X9275000Y26075000I250000J0D01*
G01*
X10000000Y26075000D01*
G75*
G02*
X10250000Y25825000I0J-250000D01*
G01*
G37*
G04 #@! TD*
G04 #@! TO.C,R16*
G36*
G01*
X135925000Y40295000D02*
X135925000Y43145000D01*
G75*
G02*
X136175000Y43395000I250000J0D01*
G01*
X136900000Y43395000D01*
G75*
G02*
X137150000Y43145000I0J-250000D01*
G01*
X137150000Y40295000D01*
G75*
G02*
X136900000Y40045000I-250000J0D01*
G01*
X136175000Y40045000D01*
G75*
G02*
X135925000Y40295000I0J250000D01*
G01*
G37*
G36*
G01*
X141850000Y40295000D02*
X141850000Y43145000D01*
G75*
G02*
X142100000Y43395000I250000J0D01*
G01*
X142825000Y43395000D01*
G75*
G02*
X143075000Y43145000I0J-250000D01*
G01*
X143075000Y40295000D01*
G75*
G02*
X142825000Y40045000I-250000J0D01*
G01*
X142100000Y40045000D01*
G75*
G02*
X141850000Y40295000I0J250000D01*
G01*
G37*
G04 #@! TD*
D11*
G04 #@! TO.C,Q4*
X118000000Y35350000D03*
X115700000Y35350000D03*
X113400000Y35350000D03*
D12*
X115700000Y29050000D03*
G04 #@! TD*
G04 #@! TO.C,C3*
G36*
G01*
X108720000Y64075000D02*
X108720000Y65125000D01*
G75*
G02*
X108820000Y65225000I100000J0D01*
G01*
X109620000Y65225000D01*
G75*
G02*
X109720000Y65125000I0J-100000D01*
G01*
X109720000Y64075000D01*
G75*
G02*
X109620000Y63975000I-100000J0D01*
G01*
X108820000Y63975000D01*
G75*
G02*
X108720000Y64075000I0J100000D01*
G01*
G37*
G36*
G01*
X110720000Y64075000D02*
X110720000Y65125000D01*
G75*
G02*
X110820000Y65225000I100000J0D01*
G01*
X111620000Y65225000D01*
G75*
G02*
X111720000Y65125000I0J-100000D01*
G01*
X111720000Y64075000D01*
G75*
G02*
X111620000Y63975000I-100000J0D01*
G01*
X110820000Y63975000D01*
G75*
G02*
X110720000Y64075000I0J100000D01*
G01*
G37*
G04 #@! TD*
D11*
G04 #@! TO.C,Q5*
X48900000Y33550000D03*
X46600000Y33550000D03*
X44300000Y33550000D03*
D12*
X46600000Y27250000D03*
G04 #@! TD*
G04 #@! TO.C,C2*
G36*
G01*
X108720000Y66325000D02*
X108720000Y67375000D01*
G75*
G02*
X108820000Y67475000I100000J0D01*
G01*
X109620000Y67475000D01*
G75*
G02*
X109720000Y67375000I0J-100000D01*
G01*
X109720000Y66325000D01*
G75*
G02*
X109620000Y66225000I-100000J0D01*
G01*
X108820000Y66225000D01*
G75*
G02*
X108720000Y66325000I0J100000D01*
G01*
G37*
G36*
G01*
X110720000Y66325000D02*
X110720000Y67375000D01*
G75*
G02*
X110820000Y67475000I100000J0D01*
G01*
X111620000Y67475000D01*
G75*
G02*
X111720000Y67375000I0J-100000D01*
G01*
X111720000Y66325000D01*
G75*
G02*
X111620000Y66225000I-100000J0D01*
G01*
X110820000Y66225000D01*
G75*
G02*
X110720000Y66325000I0J100000D01*
G01*
G37*
G04 #@! TD*
G04 #@! TO.C,R12*
G36*
G01*
X135090000Y27170000D02*
X134310000Y27170000D01*
G75*
G02*
X134240000Y27240000I0J70000D01*
G01*
X134240000Y27800000D01*
G75*
G02*
X134310000Y27870000I70000J0D01*
G01*
X135090000Y27870000D01*
G75*
G02*
X135160000Y27800000I0J-70000D01*
G01*
X135160000Y27240000D01*
G75*
G02*
X135090000Y27170000I-70000J0D01*
G01*
G37*
G36*
G01*
X135090000Y28770000D02*
X134310000Y28770000D01*
G75*
G02*
X134240000Y28840000I0J70000D01*
G01*
X134240000Y29400000D01*
G75*
G02*
X134310000Y29470000I70000J0D01*
G01*
X135090000Y29470000D01*
G75*
G02*
X135160000Y29400000I0J-70000D01*
G01*
X135160000Y28840000D01*
G75*
G02*
X135090000Y28770000I-70000J0D01*
G01*
G37*
G04 #@! TD*
D11*
G04 #@! TO.C,Q6*
X110600000Y35350000D03*
X108300000Y35350000D03*
X106000000Y35350000D03*
D12*
X108300000Y29050000D03*
G04 #@! TD*
G04 #@! TO.C,Q18*
G36*
G01*
X58800000Y25325000D02*
X58500000Y25325000D01*
G75*
G02*
X58350000Y25475000I0J150000D01*
G01*
X58350000Y26650000D01*
G75*
G02*
X58500000Y26800000I150000J0D01*
G01*
X58800000Y26800000D01*
G75*
G02*
X58950000Y26650000I0J-150000D01*
G01*
X58950000Y25475000D01*
G75*
G02*
X58800000Y25325000I-150000J0D01*
G01*
G37*
G36*
G01*
X59750000Y27200000D02*
X59450000Y27200000D01*
G75*
G02*
X59300000Y27350000I0J150000D01*
G01*
X59300000Y28525000D01*
G75*
G02*
X59450000Y28675000I150000J0D01*
G01*
X59750000Y28675000D01*
G75*
G02*
X59900000Y28525000I0J-150000D01*
G01*
X59900000Y27350000D01*
G75*
G02*
X59750000Y27200000I-150000J0D01*
G01*
G37*
G36*
G01*
X60700000Y25325000D02*
X60400000Y25325000D01*
G75*
G02*
X60250000Y25475000I0J150000D01*
G01*
X60250000Y26650000D01*
G75*
G02*
X60400000Y26800000I150000J0D01*
G01*
X60700000Y26800000D01*
G75*
G02*
X60850000Y26650000I0J-150000D01*
G01*
X60850000Y25475000D01*
G75*
G02*
X60700000Y25325000I-150000J0D01*
G01*
G37*
G04 #@! TD*
G04 #@! TO.C,Q9*
G36*
G01*
X135900000Y49250000D02*
X135900000Y49950000D01*
G75*
G02*
X136150000Y50200000I250000J0D01*
G01*
X137850000Y50200000D01*
G75*
G02*
X138100000Y49950000I0J-250000D01*
G01*
X138100000Y49250000D01*
G75*
G02*
X137850000Y49000000I-250000J0D01*
G01*
X136150000Y49000000D01*
G75*
G02*
X135900000Y49250000I0J250000D01*
G01*
G37*
G36*
G01*
X140100000Y44669997D02*
X140100000Y49970003D01*
G75*
G02*
X140349997Y50220000I249997J0D01*
G01*
X146250003Y50220000D01*
G75*
G02*
X146500000Y49970003I0J-249997D01*
G01*
X146500000Y44669997D01*
G75*
G02*
X146250003Y44420000I-249997J0D01*
G01*
X140349997Y44420000D01*
G75*
G02*
X140100000Y44669997I0J249997D01*
G01*
G37*
G36*
G01*
X135900000Y44690000D02*
X135900000Y45390000D01*
G75*
G02*
X136150000Y45640000I250000J0D01*
G01*
X137850000Y45640000D01*
G75*
G02*
X138100000Y45390000I0J-250000D01*
G01*
X138100000Y44690000D01*
G75*
G02*
X137850000Y44440000I-250000J0D01*
G01*
X136150000Y44440000D01*
G75*
G02*
X135900000Y44690000I0J250000D01*
G01*
G37*
G04 #@! TD*
D13*
G04 #@! TO.C,J3*
X84800000Y84640000D03*
D14*
X77600000Y84640000D03*
D15*
X83950000Y83980000D03*
X83450000Y83980000D03*
X82950000Y83980000D03*
X82450000Y83980000D03*
X81950000Y83980000D03*
X81450000Y83980000D03*
X80950000Y83980000D03*
X80450000Y83980000D03*
X79950000Y83980000D03*
X79450000Y83980000D03*
X78950000Y83980000D03*
X78450000Y83980000D03*
X78700000Y85680000D03*
X79200000Y85680000D03*
X79700000Y85680000D03*
X80200000Y85680000D03*
X80700000Y85680000D03*
X81200000Y85680000D03*
X81700000Y85680000D03*
X82200000Y85680000D03*
X82700000Y85680000D03*
X83200000Y85680000D03*
X83700000Y85680000D03*
X84200000Y85680000D03*
D16*
X85690000Y91840000D03*
X85330000Y85890000D03*
X77070000Y85890000D03*
X76710000Y91840000D03*
G04 #@! TD*
G04 #@! TO.C,R26*
G36*
G01*
X128360000Y62450000D02*
X129140000Y62450000D01*
G75*
G02*
X129210000Y62380000I0J-70000D01*
G01*
X129210000Y61820000D01*
G75*
G02*
X129140000Y61750000I-70000J0D01*
G01*
X128360000Y61750000D01*
G75*
G02*
X128290000Y61820000I0J70000D01*
G01*
X128290000Y62380000D01*
G75*
G02*
X128360000Y62450000I70000J0D01*
G01*
G37*
G36*
G01*
X128360000Y60850000D02*
X129140000Y60850000D01*
G75*
G02*
X129210000Y60780000I0J-70000D01*
G01*
X129210000Y60220000D01*
G75*
G02*
X129140000Y60150000I-70000J0D01*
G01*
X128360000Y60150000D01*
G75*
G02*
X128290000Y60220000I0J70000D01*
G01*
X128290000Y60780000D01*
G75*
G02*
X128360000Y60850000I70000J0D01*
G01*
G37*
G04 #@! TD*
G04 #@! TO.C,R13*
G36*
G01*
X135090000Y38570000D02*
X134310000Y38570000D01*
G75*
G02*
X134240000Y38640000I0J70000D01*
G01*
X134240000Y39200000D01*
G75*
G02*
X134310000Y39270000I70000J0D01*
G01*
X135090000Y39270000D01*
G75*
G02*
X135160000Y39200000I0J-70000D01*
G01*
X135160000Y38640000D01*
G75*
G02*
X135090000Y38570000I-70000J0D01*
G01*
G37*
G36*
G01*
X135090000Y40170000D02*
X134310000Y40170000D01*
G75*
G02*
X134240000Y40240000I0J70000D01*
G01*
X134240000Y40800000D01*
G75*
G02*
X134310000Y40870000I70000J0D01*
G01*
X135090000Y40870000D01*
G75*
G02*
X135160000Y40800000I0J-70000D01*
G01*
X135160000Y40240000D01*
G75*
G02*
X135090000Y40170000I-70000J0D01*
G01*
G37*
G04 #@! TD*
G04 #@! TO.C,D4*
G36*
G01*
X128250000Y71590000D02*
X128250000Y72610000D01*
G75*
G02*
X128340000Y72700000I90000J0D01*
G01*
X129060000Y72700000D01*
G75*
G02*
X129150000Y72610000I0J-90000D01*
G01*
X129150000Y71590000D01*
G75*
G02*
X129060000Y71500000I-90000J0D01*
G01*
X128340000Y71500000D01*
G75*
G02*
X128250000Y71590000I0J90000D01*
G01*
G37*
G36*
G01*
X131550000Y71590000D02*
X131550000Y72610000D01*
G75*
G02*
X131640000Y72700000I90000J0D01*
G01*
X132360000Y72700000D01*
G75*
G02*
X132450000Y72610000I0J-90000D01*
G01*
X132450000Y71590000D01*
G75*
G02*
X132360000Y71500000I-90000J0D01*
G01*
X131640000Y71500000D01*
G75*
G02*
X131550000Y71590000I0J90000D01*
G01*
G37*
G04 #@! TD*
G04 #@! TO.C,Q7*
G36*
G01*
X135775000Y26775000D02*
X135775000Y27475000D01*
G75*
G02*
X136025000Y27725000I250000J0D01*
G01*
X137725000Y27725000D01*
G75*
G02*
X137975000Y27475000I0J-250000D01*
G01*
X137975000Y26775000D01*
G75*
G02*
X137725000Y26525000I-250000J0D01*
G01*
X136025000Y26525000D01*
G75*
G02*
X135775000Y26775000I0J250000D01*
G01*
G37*
G36*
G01*
X139975000Y22194997D02*
X139975000Y27495003D01*
G75*
G02*
X140224997Y27745000I249997J0D01*
G01*
X146125003Y27745000D01*
G75*
G02*
X146375000Y27495003I0J-249997D01*
G01*
X146375000Y22194997D01*
G75*
G02*
X146125003Y21945000I-249997J0D01*
G01*
X140224997Y21945000D01*
G75*
G02*
X139975000Y22194997I0J249997D01*
G01*
G37*
G36*
G01*
X135775000Y22215000D02*
X135775000Y22915000D01*
G75*
G02*
X136025000Y23165000I250000J0D01*
G01*
X137725000Y23165000D01*
G75*
G02*
X137975000Y22915000I0J-250000D01*
G01*
X137975000Y22215000D01*
G75*
G02*
X137725000Y21965000I-250000J0D01*
G01*
X136025000Y21965000D01*
G75*
G02*
X135775000Y22215000I0J250000D01*
G01*
G37*
G04 #@! TD*
G04 #@! TO.C,R25*
G36*
G01*
X99550000Y27040000D02*
X99550000Y26260000D01*
G75*
G02*
X99480000Y26190000I-70000J0D01*
G01*
X98920000Y26190000D01*
G75*
G02*
X98850000Y26260000I0J70000D01*
G01*
X98850000Y27040000D01*
G75*
G02*
X98920000Y27110000I70000J0D01*
G01*
X99480000Y27110000D01*
G75*
G02*
X99550000Y27040000I0J-70000D01*
G01*
G37*
G36*
G01*
X97950000Y27040000D02*
X97950000Y26260000D01*
G75*
G02*
X97880000Y26190000I-70000J0D01*
G01*
X97320000Y26190000D01*
G75*
G02*
X97250000Y26260000I0J70000D01*
G01*
X97250000Y27040000D01*
G75*
G02*
X97320000Y27110000I70000J0D01*
G01*
X97880000Y27110000D01*
G75*
G02*
X97950000Y27040000I0J-70000D01*
G01*
G37*
G04 #@! TD*
G04 #@! TO.C,R30*
G36*
G01*
X72650000Y78840000D02*
X72650000Y78060000D01*
G75*
G02*
X72580000Y77990000I-70000J0D01*
G01*
X72020000Y77990000D01*
G75*
G02*
X71950000Y78060000I0J70000D01*
G01*
X71950000Y78840000D01*
G75*
G02*
X72020000Y78910000I70000J0D01*
G01*
X72580000Y78910000D01*
G75*
G02*
X72650000Y78840000I0J-70000D01*
G01*
G37*
G36*
G01*
X71050000Y78840000D02*
X71050000Y78060000D01*
G75*
G02*
X70980000Y77990000I-70000J0D01*
G01*
X70420000Y77990000D01*
G75*
G02*
X70350000Y78060000I0J70000D01*
G01*
X70350000Y78840000D01*
G75*
G02*
X70420000Y78910000I70000J0D01*
G01*
X70980000Y78910000D01*
G75*
G02*
X71050000Y78840000I0J-70000D01*
G01*
G37*
G04 #@! TD*
D17*
G04 #@! TO.C,U2*
X114440000Y52675000D03*
X113440000Y52675000D03*
X112440000Y52675000D03*
X111440000Y52675000D03*
X110440000Y52675000D03*
X109440000Y52675000D03*
X109440000Y43075000D03*
X110440000Y43075000D03*
X111440000Y43075000D03*
X112440000Y43075000D03*
X113440000Y43075000D03*
X114440000Y43075000D03*
D18*
X111940000Y47875000D03*
G04 #@! TD*
G04 #@! TO.C,R6*
G36*
G01*
X27850000Y35210000D02*
X27850000Y35990000D01*
G75*
G02*
X27920000Y36060000I70000J0D01*
G01*
X28480000Y36060000D01*
G75*
G02*
X28550000Y35990000I0J-70000D01*
G01*
X28550000Y35210000D01*
G75*
G02*
X28480000Y35140000I-70000J0D01*
G01*
X27920000Y35140000D01*
G75*
G02*
X27850000Y35210000I0J70000D01*
G01*
G37*
G36*
G01*
X29450000Y35210000D02*
X29450000Y35990000D01*
G75*
G02*
X29520000Y36060000I70000J0D01*
G01*
X30080000Y36060000D01*
G75*
G02*
X30150000Y35990000I0J-70000D01*
G01*
X30150000Y35210000D01*
G75*
G02*
X30080000Y35140000I-70000J0D01*
G01*
X29520000Y35140000D01*
G75*
G02*
X29450000Y35210000I0J70000D01*
G01*
G37*
G04 #@! TD*
G04 #@! TO.C,Q11*
G36*
G01*
X16325000Y39270000D02*
X16325000Y38570000D01*
G75*
G02*
X16075000Y38320000I-250000J0D01*
G01*
X14375000Y38320000D01*
G75*
G02*
X14125000Y38570000I0J250000D01*
G01*
X14125000Y39270000D01*
G75*
G02*
X14375000Y39520000I250000J0D01*
G01*
X16075000Y39520000D01*
G75*
G02*
X16325000Y39270000I0J-250000D01*
G01*
G37*
G36*
G01*
X12125000Y43850003D02*
X12125000Y38549997D01*
G75*
G02*
X11875003Y38300000I-249997J0D01*
G01*
X5974997Y38300000D01*
G75*
G02*
X5725000Y38549997I0J249997D01*
G01*
X5725000Y43850003D01*
G75*
G02*
X5974997Y44100000I249997J0D01*
G01*
X11875003Y44100000D01*
G75*
G02*
X12125000Y43850003I0J-249997D01*
G01*
G37*
G36*
G01*
X16325000Y43830000D02*
X16325000Y43130000D01*
G75*
G02*
X16075000Y42880000I-250000J0D01*
G01*
X14375000Y42880000D01*
G75*
G02*
X14125000Y43130000I0J250000D01*
G01*
X14125000Y43830000D01*
G75*
G02*
X14375000Y44080000I250000J0D01*
G01*
X16075000Y44080000D01*
G75*
G02*
X16325000Y43830000I0J-250000D01*
G01*
G37*
G04 #@! TD*
D11*
G04 #@! TO.C,Q2*
X125400000Y35350000D03*
X123100000Y35350000D03*
X120800000Y35350000D03*
D12*
X123100000Y29050000D03*
G04 #@! TD*
D19*
G04 #@! TO.C,J2*
X15980000Y92600000D03*
D20*
X18520000Y92600000D03*
X21060000Y92600000D03*
X23600000Y92600000D03*
X26140000Y92600000D03*
G04 #@! TD*
G04 #@! TO.C,R24*
G36*
G01*
X91150000Y26840000D02*
X91150000Y26060000D01*
G75*
G02*
X91080000Y25990000I-70000J0D01*
G01*
X90520000Y25990000D01*
G75*
G02*
X90450000Y26060000I0J70000D01*
G01*
X90450000Y26840000D01*
G75*
G02*
X90520000Y26910000I70000J0D01*
G01*
X91080000Y26910000D01*
G75*
G02*
X91150000Y26840000I0J-70000D01*
G01*
G37*
G36*
G01*
X89550000Y26840000D02*
X89550000Y26060000D01*
G75*
G02*
X89480000Y25990000I-70000J0D01*
G01*
X88920000Y25990000D01*
G75*
G02*
X88850000Y26060000I0J70000D01*
G01*
X88850000Y26840000D01*
G75*
G02*
X88920000Y26910000I70000J0D01*
G01*
X89480000Y26910000D01*
G75*
G02*
X89550000Y26840000I0J-70000D01*
G01*
G37*
G04 #@! TD*
G04 #@! TO.C,R1*
G36*
G01*
X55325000Y34450000D02*
X55875000Y34450000D01*
G75*
G02*
X56075000Y34250000I0J-200000D01*
G01*
X56075000Y33850000D01*
G75*
G02*
X55875000Y33650000I-200000J0D01*
G01*
X55325000Y33650000D01*
G75*
G02*
X55125000Y33850000I0J200000D01*
G01*
X55125000Y34250000D01*
G75*
G02*
X55325000Y34450000I200000J0D01*
G01*
G37*
G36*
G01*
X55325000Y32800000D02*
X55875000Y32800000D01*
G75*
G02*
X56075000Y32600000I0J-200000D01*
G01*
X56075000Y32200000D01*
G75*
G02*
X55875000Y32000000I-200000J0D01*
G01*
X55325000Y32000000D01*
G75*
G02*
X55125000Y32200000I0J200000D01*
G01*
X55125000Y32600000D01*
G75*
G02*
X55325000Y32800000I200000J0D01*
G01*
G37*
G04 #@! TD*
G04 #@! TO.C,C10*
G36*
G01*
X115320000Y65225000D02*
X115320000Y64175000D01*
G75*
G02*
X115220000Y64075000I-100000J0D01*
G01*
X114420000Y64075000D01*
G75*
G02*
X114320000Y64175000I0J100000D01*
G01*
X114320000Y65225000D01*
G75*
G02*
X114420000Y65325000I100000J0D01*
G01*
X115220000Y65325000D01*
G75*
G02*
X115320000Y65225000I0J-100000D01*
G01*
G37*
G36*
G01*
X113320000Y65225000D02*
X113320000Y64175000D01*
G75*
G02*
X113220000Y64075000I-100000J0D01*
G01*
X112420000Y64075000D01*
G75*
G02*
X112320000Y64175000I0J100000D01*
G01*
X112320000Y65225000D01*
G75*
G02*
X112420000Y65325000I100000J0D01*
G01*
X113220000Y65325000D01*
G75*
G02*
X113320000Y65225000I0J-100000D01*
G01*
G37*
G04 #@! TD*
G04 #@! TO.C,Q17*
G36*
G01*
X64200000Y25387500D02*
X63900000Y25387500D01*
G75*
G02*
X63750000Y25537500I0J150000D01*
G01*
X63750000Y26712500D01*
G75*
G02*
X63900000Y26862500I150000J0D01*
G01*
X64200000Y26862500D01*
G75*
G02*
X64350000Y26712500I0J-150000D01*
G01*
X64350000Y25537500D01*
G75*
G02*
X64200000Y25387500I-150000J0D01*
G01*
G37*
G36*
G01*
X65150000Y27262500D02*
X64850000Y27262500D01*
G75*
G02*
X64700000Y27412500I0J150000D01*
G01*
X64700000Y28587500D01*
G75*
G02*
X64850000Y28737500I150000J0D01*
G01*
X65150000Y28737500D01*
G75*
G02*
X65300000Y28587500I0J-150000D01*
G01*
X65300000Y27412500D01*
G75*
G02*
X65150000Y27262500I-150000J0D01*
G01*
G37*
G36*
G01*
X66100000Y25387500D02*
X65800000Y25387500D01*
G75*
G02*
X65650000Y25537500I0J150000D01*
G01*
X65650000Y26712500D01*
G75*
G02*
X65800000Y26862500I150000J0D01*
G01*
X66100000Y26862500D01*
G75*
G02*
X66250000Y26712500I0J-150000D01*
G01*
X66250000Y25537500D01*
G75*
G02*
X66100000Y25387500I-150000J0D01*
G01*
G37*
G04 #@! TD*
G04 #@! TO.C,R20*
G36*
G01*
X16810000Y27550000D02*
X17590000Y27550000D01*
G75*
G02*
X17660000Y27480000I0J-70000D01*
G01*
X17660000Y26920000D01*
G75*
G02*
X17590000Y26850000I-70000J0D01*
G01*
X16810000Y26850000D01*
G75*
G02*
X16740000Y26920000I0J70000D01*
G01*
X16740000Y27480000D01*
G75*
G02*
X16810000Y27550000I70000J0D01*
G01*
G37*
G36*
G01*
X16810000Y25950000D02*
X17590000Y25950000D01*
G75*
G02*
X17660000Y25880000I0J-70000D01*
G01*
X17660000Y25320000D01*
G75*
G02*
X17590000Y25250000I-70000J0D01*
G01*
X16810000Y25250000D01*
G75*
G02*
X16740000Y25320000I0J70000D01*
G01*
X16740000Y25880000D01*
G75*
G02*
X16810000Y25950000I70000J0D01*
G01*
G37*
G04 #@! TD*
G04 #@! TO.C,D1*
G36*
G01*
X92090000Y26950000D02*
X93110000Y26950000D01*
G75*
G02*
X93200000Y26860000I0J-90000D01*
G01*
X93200000Y26140000D01*
G75*
G02*
X93110000Y26050000I-90000J0D01*
G01*
X92090000Y26050000D01*
G75*
G02*
X92000000Y26140000I0J90000D01*
G01*
X92000000Y26860000D01*
G75*
G02*
X92090000Y26950000I90000J0D01*
G01*
G37*
G36*
G01*
X92090000Y23650000D02*
X93110000Y23650000D01*
G75*
G02*
X93200000Y23560000I0J-90000D01*
G01*
X93200000Y22840000D01*
G75*
G02*
X93110000Y22750000I-90000J0D01*
G01*
X92090000Y22750000D01*
G75*
G02*
X92000000Y22840000I0J90000D01*
G01*
X92000000Y23560000D01*
G75*
G02*
X92090000Y23650000I90000J0D01*
G01*
G37*
G04 #@! TD*
G04 #@! TO.C,R21*
G36*
G01*
X16375000Y48225000D02*
X16375000Y45375000D01*
G75*
G02*
X16125000Y45125000I-250000J0D01*
G01*
X15400000Y45125000D01*
G75*
G02*
X15150000Y45375000I0J250000D01*
G01*
X15150000Y48225000D01*
G75*
G02*
X15400000Y48475000I250000J0D01*
G01*
X16125000Y48475000D01*
G75*
G02*
X16375000Y48225000I0J-250000D01*
G01*
G37*
G36*
G01*
X10450000Y48225000D02*
X10450000Y45375000D01*
G75*
G02*
X10200000Y45125000I-250000J0D01*
G01*
X9475000Y45125000D01*
G75*
G02*
X9225000Y45375000I0J250000D01*
G01*
X9225000Y48225000D01*
G75*
G02*
X9475000Y48475000I250000J0D01*
G01*
X10200000Y48475000D01*
G75*
G02*
X10450000Y48225000I0J-250000D01*
G01*
G37*
G04 #@! TD*
G04 #@! TO.C,R3*
G36*
G01*
X82275000Y79375000D02*
X81725000Y79375000D01*
G75*
G02*
X81525000Y79575000I0J200000D01*
G01*
X81525000Y79975000D01*
G75*
G02*
X81725000Y80175000I200000J0D01*
G01*
X82275000Y80175000D01*
G75*
G02*
X82475000Y79975000I0J-200000D01*
G01*
X82475000Y79575000D01*
G75*
G02*
X82275000Y79375000I-200000J0D01*
G01*
G37*
G36*
G01*
X82275000Y81025000D02*
X81725000Y81025000D01*
G75*
G02*
X81525000Y81225000I0J200000D01*
G01*
X81525000Y81625000D01*
G75*
G02*
X81725000Y81825000I200000J0D01*
G01*
X82275000Y81825000D01*
G75*
G02*
X82475000Y81625000I0J-200000D01*
G01*
X82475000Y81225000D01*
G75*
G02*
X82275000Y81025000I-200000J0D01*
G01*
G37*
G04 #@! TD*
D21*
G04 #@! TO.C,U1*
X20580000Y7944000D03*
X23910000Y7944000D03*
X27240000Y7944000D03*
X30570000Y7944000D03*
X33900000Y7944000D03*
X37230000Y7944000D03*
X40560000Y7944000D03*
X43890000Y7944000D03*
X47220000Y7944000D03*
X50560000Y7944000D03*
X53880000Y7944000D03*
X57210000Y7944000D03*
X60540000Y7944000D03*
X63870000Y7944000D03*
X67200000Y7944000D03*
X20580000Y13944000D03*
X23910000Y13944000D03*
X27240000Y13944000D03*
X30570000Y13944000D03*
X33900000Y13944000D03*
X37230000Y13944000D03*
X40560000Y13944000D03*
X43890000Y13944000D03*
X47220000Y13944000D03*
X50550000Y13944000D03*
X53880000Y13944000D03*
X57210000Y13944000D03*
X60540000Y13944000D03*
X63870000Y13944000D03*
X67200000Y13944000D03*
X20580000Y19944000D03*
X23910000Y19944000D03*
X27240000Y19944000D03*
X30570000Y19944000D03*
X33900000Y19944000D03*
X37230000Y19944000D03*
X40560000Y19944000D03*
X43890000Y19944000D03*
X47220000Y19944000D03*
X50550000Y19944000D03*
X53880000Y19944000D03*
X57210000Y19944000D03*
X60540000Y19944000D03*
X63870000Y19944000D03*
X67200000Y19944000D03*
X85200000Y7944000D03*
X88530000Y7944000D03*
X91860000Y7944000D03*
X95190000Y7944000D03*
X98520000Y7944000D03*
X101850000Y7944000D03*
X105180000Y7944000D03*
X108510000Y7944000D03*
X111840000Y7944000D03*
X115170000Y7944000D03*
X118500000Y7944000D03*
X121830000Y7944000D03*
X125160000Y7944000D03*
X128490000Y7944000D03*
X131820000Y7944000D03*
X85200000Y13944000D03*
X88530000Y13944000D03*
X91860000Y13944000D03*
X95190000Y13944000D03*
X98520000Y13944000D03*
X101850000Y13944000D03*
X105180000Y13944000D03*
X108510000Y13944000D03*
X111840000Y13944000D03*
X115170000Y13944000D03*
X118500000Y13944000D03*
X121830000Y13944000D03*
X125160000Y13944000D03*
X128490000Y13944000D03*
X131820000Y13944000D03*
X85200000Y19944000D03*
X88530000Y19944000D03*
X91860000Y19944000D03*
X95190000Y19944000D03*
X98520000Y19944000D03*
X101850000Y19944000D03*
X105180000Y19944000D03*
X108510000Y19944000D03*
X111840000Y19944000D03*
X115170000Y19944000D03*
X118500000Y19944000D03*
X121830000Y19944000D03*
X125160000Y19944000D03*
X128490000Y19944000D03*
X131820000Y19944000D03*
G04 #@! TD*
D19*
G04 #@! TO.C,J1*
X91520000Y92400000D03*
D20*
X94060000Y92400000D03*
X96600000Y92400000D03*
X99140000Y92400000D03*
X101680000Y92400000D03*
G04 #@! TD*
G04 #@! TO.C,Q12*
G36*
G01*
X16500000Y28070000D02*
X16500000Y27370000D01*
G75*
G02*
X16250000Y27120000I-250000J0D01*
G01*
X14550000Y27120000D01*
G75*
G02*
X14300000Y27370000I0J250000D01*
G01*
X14300000Y28070000D01*
G75*
G02*
X14550000Y28320000I250000J0D01*
G01*
X16250000Y28320000D01*
G75*
G02*
X16500000Y28070000I0J-250000D01*
G01*
G37*
G36*
G01*
X12300000Y32650003D02*
X12300000Y27349997D01*
G75*
G02*
X12050003Y27100000I-249997J0D01*
G01*
X6149997Y27100000D01*
G75*
G02*
X5900000Y27349997I0J249997D01*
G01*
X5900000Y32650003D01*
G75*
G02*
X6149997Y32900000I249997J0D01*
G01*
X12050003Y32900000D01*
G75*
G02*
X12300000Y32650003I0J-249997D01*
G01*
G37*
G36*
G01*
X16500000Y32630000D02*
X16500000Y31930000D01*
G75*
G02*
X16250000Y31680000I-250000J0D01*
G01*
X14550000Y31680000D01*
G75*
G02*
X14300000Y31930000I0J250000D01*
G01*
X14300000Y32630000D01*
G75*
G02*
X14550000Y32880000I250000J0D01*
G01*
X16250000Y32880000D01*
G75*
G02*
X16500000Y32630000I0J-250000D01*
G01*
G37*
G04 #@! TD*
D22*
G04 #@! TO.C,Q16*
X126550000Y69150000D03*
X126550000Y71450000D03*
X126550000Y73750000D03*
D23*
X120250000Y71450000D03*
G04 #@! TD*
D22*
G04 #@! TO.C,Q15*
X126550000Y60900000D03*
X126550000Y63200000D03*
X126550000Y65500000D03*
D23*
X120250000Y63200000D03*
G04 #@! TD*
G04 #@! TO.C,C9*
G36*
G01*
X115320000Y62975000D02*
X115320000Y61925000D01*
G75*
G02*
X115220000Y61825000I-100000J0D01*
G01*
X114420000Y61825000D01*
G75*
G02*
X114320000Y61925000I0J100000D01*
G01*
X114320000Y62975000D01*
G75*
G02*
X114420000Y63075000I100000J0D01*
G01*
X115220000Y63075000D01*
G75*
G02*
X115320000Y62975000I0J-100000D01*
G01*
G37*
G36*
G01*
X113320000Y62975000D02*
X113320000Y61925000D01*
G75*
G02*
X113220000Y61825000I-100000J0D01*
G01*
X112420000Y61825000D01*
G75*
G02*
X112320000Y61925000I0J100000D01*
G01*
X112320000Y62975000D01*
G75*
G02*
X112420000Y63075000I100000J0D01*
G01*
X113220000Y63075000D01*
G75*
G02*
X113320000Y62975000I0J-100000D01*
G01*
G37*
G04 #@! TD*
G04 #@! TO.C,R18*
G36*
G01*
X17010000Y49950000D02*
X17790000Y49950000D01*
G75*
G02*
X17860000Y49880000I0J-70000D01*
G01*
X17860000Y49320000D01*
G75*
G02*
X17790000Y49250000I-70000J0D01*
G01*
X17010000Y49250000D01*
G75*
G02*
X16940000Y49320000I0J70000D01*
G01*
X16940000Y49880000D01*
G75*
G02*
X17010000Y49950000I70000J0D01*
G01*
G37*
G36*
G01*
X17010000Y48350000D02*
X17790000Y48350000D01*
G75*
G02*
X17860000Y48280000I0J-70000D01*
G01*
X17860000Y47720000D01*
G75*
G02*
X17790000Y47650000I-70000J0D01*
G01*
X17010000Y47650000D01*
G75*
G02*
X16940000Y47720000I0J70000D01*
G01*
X16940000Y48280000D01*
G75*
G02*
X17010000Y48350000I70000J0D01*
G01*
G37*
G04 #@! TD*
G04 #@! TO.C,F3*
G36*
G01*
X112575000Y72625000D02*
X113825000Y72625000D01*
G75*
G02*
X114075000Y72375000I0J-250000D01*
G01*
X114075000Y71625000D01*
G75*
G02*
X113825000Y71375000I-250000J0D01*
G01*
X112575000Y71375000D01*
G75*
G02*
X112325000Y71625000I0J250000D01*
G01*
X112325000Y72375000D01*
G75*
G02*
X112575000Y72625000I250000J0D01*
G01*
G37*
G36*
G01*
X112575000Y69825000D02*
X113825000Y69825000D01*
G75*
G02*
X114075000Y69575000I0J-250000D01*
G01*
X114075000Y68825000D01*
G75*
G02*
X113825000Y68575000I-250000J0D01*
G01*
X112575000Y68575000D01*
G75*
G02*
X112325000Y68825000I0J250000D01*
G01*
X112325000Y69575000D01*
G75*
G02*
X112575000Y69825000I250000J0D01*
G01*
G37*
G04 #@! TD*
D24*
G04 #@! TO.C,M5*
X55074996Y63725000D03*
X55074996Y57325003D03*
X55074996Y55425000D03*
X55074996Y51125000D03*
D10*
X55524995Y48725003D03*
X55524995Y47725002D03*
D24*
X55074996Y44875000D03*
X39574999Y64175002D03*
X39574999Y62325003D03*
X39574999Y57375000D03*
X39574999Y45325002D03*
G04 #@! TD*
G04 #@! TO.C,R14*
G36*
G01*
X135290000Y49770000D02*
X134510000Y49770000D01*
G75*
G02*
X134440000Y49840000I0J70000D01*
G01*
X134440000Y50400000D01*
G75*
G02*
X134510000Y50470000I70000J0D01*
G01*
X135290000Y50470000D01*
G75*
G02*
X135360000Y50400000I0J-70000D01*
G01*
X135360000Y49840000D01*
G75*
G02*
X135290000Y49770000I-70000J0D01*
G01*
G37*
G36*
G01*
X135290000Y51370000D02*
X134510000Y51370000D01*
G75*
G02*
X134440000Y51440000I0J70000D01*
G01*
X134440000Y52000000D01*
G75*
G02*
X134510000Y52070000I70000J0D01*
G01*
X135290000Y52070000D01*
G75*
G02*
X135360000Y52000000I0J-70000D01*
G01*
X135360000Y51440000D01*
G75*
G02*
X135290000Y51370000I-70000J0D01*
G01*
G37*
G04 #@! TD*
D11*
G04 #@! TO.C,Q3*
X39100000Y33550000D03*
X36800000Y33550000D03*
X34500000Y33550000D03*
D12*
X36800000Y27250000D03*
G04 #@! TD*
G04 #@! TO.C,R2*
G36*
G01*
X56040000Y31215000D02*
X56040000Y30435000D01*
G75*
G02*
X55970000Y30365000I-70000J0D01*
G01*
X55410000Y30365000D01*
G75*
G02*
X55340000Y30435000I0J70000D01*
G01*
X55340000Y31215000D01*
G75*
G02*
X55410000Y31285000I70000J0D01*
G01*
X55970000Y31285000D01*
G75*
G02*
X56040000Y31215000I0J-70000D01*
G01*
G37*
G36*
G01*
X54440000Y31215000D02*
X54440000Y30435000D01*
G75*
G02*
X54370000Y30365000I-70000J0D01*
G01*
X53810000Y30365000D01*
G75*
G02*
X53740000Y30435000I0J70000D01*
G01*
X53740000Y31215000D01*
G75*
G02*
X53810000Y31285000I70000J0D01*
G01*
X54370000Y31285000D01*
G75*
G02*
X54440000Y31215000I0J-70000D01*
G01*
G37*
G04 #@! TD*
G04 #@! TO.C,C13*
G36*
G01*
X112384999Y75860000D02*
X112384999Y76540000D01*
G75*
G02*
X112469999Y76625000I85000J0D01*
G01*
X113149999Y76625000D01*
G75*
G02*
X113234999Y76540000I0J-85000D01*
G01*
X113234999Y75860000D01*
G75*
G02*
X113149999Y75775000I-85000J0D01*
G01*
X112469999Y75775000D01*
G75*
G02*
X112384999Y75860000I0J85000D01*
G01*
G37*
G36*
G01*
X113965001Y75860000D02*
X113965001Y76540000D01*
G75*
G02*
X114050001Y76625000I85000J0D01*
G01*
X114730001Y76625000D01*
G75*
G02*
X114815001Y76540000I0J-85000D01*
G01*
X114815001Y75860000D01*
G75*
G02*
X114730001Y75775000I-85000J0D01*
G01*
X114050001Y75775000D01*
G75*
G02*
X113965001Y75860000I0J85000D01*
G01*
G37*
G04 #@! TD*
G04 #@! TO.C,R10*
G36*
G01*
X47650000Y35210000D02*
X47650000Y35990000D01*
G75*
G02*
X47720000Y36060000I70000J0D01*
G01*
X48280000Y36060000D01*
G75*
G02*
X48350000Y35990000I0J-70000D01*
G01*
X48350000Y35210000D01*
G75*
G02*
X48280000Y35140000I-70000J0D01*
G01*
X47720000Y35140000D01*
G75*
G02*
X47650000Y35210000I0J70000D01*
G01*
G37*
G36*
G01*
X49250000Y35210000D02*
X49250000Y35990000D01*
G75*
G02*
X49320000Y36060000I70000J0D01*
G01*
X49880000Y36060000D01*
G75*
G02*
X49950000Y35990000I0J-70000D01*
G01*
X49950000Y35210000D01*
G75*
G02*
X49880000Y35140000I-70000J0D01*
G01*
X49320000Y35140000D01*
G75*
G02*
X49250000Y35210000I0J70000D01*
G01*
G37*
G04 #@! TD*
G04 #@! TO.C,R9*
G36*
G01*
X116350000Y37010000D02*
X116350000Y37790000D01*
G75*
G02*
X116420000Y37860000I70000J0D01*
G01*
X116980000Y37860000D01*
G75*
G02*
X117050000Y37790000I0J-70000D01*
G01*
X117050000Y37010000D01*
G75*
G02*
X116980000Y36940000I-70000J0D01*
G01*
X116420000Y36940000D01*
G75*
G02*
X116350000Y37010000I0J70000D01*
G01*
G37*
G36*
G01*
X117950000Y37010000D02*
X117950000Y37790000D01*
G75*
G02*
X118020000Y37860000I70000J0D01*
G01*
X118580000Y37860000D01*
G75*
G02*
X118650000Y37790000I0J-70000D01*
G01*
X118650000Y37010000D01*
G75*
G02*
X118580000Y36940000I-70000J0D01*
G01*
X118020000Y36940000D01*
G75*
G02*
X117950000Y37010000I0J70000D01*
G01*
G37*
G04 #@! TD*
G04 #@! TO.C,C12*
G36*
G01*
X108214999Y55410000D02*
X108214999Y56090000D01*
G75*
G02*
X108299999Y56175000I85000J0D01*
G01*
X108979999Y56175000D01*
G75*
G02*
X109064999Y56090000I0J-85000D01*
G01*
X109064999Y55410000D01*
G75*
G02*
X108979999Y55325000I-85000J0D01*
G01*
X108299999Y55325000D01*
G75*
G02*
X108214999Y55410000I0J85000D01*
G01*
G37*
G36*
G01*
X109795001Y55410000D02*
X109795001Y56090000D01*
G75*
G02*
X109880001Y56175000I85000J0D01*
G01*
X110560001Y56175000D01*
G75*
G02*
X110645001Y56090000I0J-85000D01*
G01*
X110645001Y55410000D01*
G75*
G02*
X110560001Y55325000I-85000J0D01*
G01*
X109880001Y55325000D01*
G75*
G02*
X109795001Y55410000I0J85000D01*
G01*
G37*
G04 #@! TD*
G04 #@! TO.C,D3*
G36*
G01*
X128250000Y63390000D02*
X128250000Y64410000D01*
G75*
G02*
X128340000Y64500000I90000J0D01*
G01*
X129060000Y64500000D01*
G75*
G02*
X129150000Y64410000I0J-90000D01*
G01*
X129150000Y63390000D01*
G75*
G02*
X129060000Y63300000I-90000J0D01*
G01*
X128340000Y63300000D01*
G75*
G02*
X128250000Y63390000I0J90000D01*
G01*
G37*
G36*
G01*
X131550000Y63390000D02*
X131550000Y64410000D01*
G75*
G02*
X131640000Y64500000I90000J0D01*
G01*
X132360000Y64500000D01*
G75*
G02*
X132450000Y64410000I0J-90000D01*
G01*
X132450000Y63390000D01*
G75*
G02*
X132360000Y63300000I-90000J0D01*
G01*
X131640000Y63300000D01*
G75*
G02*
X131550000Y63390000I0J90000D01*
G01*
G37*
G04 #@! TD*
G04 #@! TO.C,F2*
G36*
G01*
X55625000Y24175000D02*
X54375000Y24175000D01*
G75*
G02*
X54125000Y24425000I0J250000D01*
G01*
X54125000Y25175000D01*
G75*
G02*
X54375000Y25425000I250000J0D01*
G01*
X55625000Y25425000D01*
G75*
G02*
X55875000Y25175000I0J-250000D01*
G01*
X55875000Y24425000D01*
G75*
G02*
X55625000Y24175000I-250000J0D01*
G01*
G37*
G36*
G01*
X55625000Y26975000D02*
X54375000Y26975000D01*
G75*
G02*
X54125000Y27225000I0J250000D01*
G01*
X54125000Y27975000D01*
G75*
G02*
X54375000Y28225000I250000J0D01*
G01*
X55625000Y28225000D01*
G75*
G02*
X55875000Y27975000I0J-250000D01*
G01*
X55875000Y27225000D01*
G75*
G02*
X55625000Y26975000I-250000J0D01*
G01*
G37*
G04 #@! TD*
G04 #@! TO.C,F1*
G36*
G01*
X36225000Y58775000D02*
X34975000Y58775000D01*
G75*
G02*
X34725000Y59025000I0J250000D01*
G01*
X34725000Y59775000D01*
G75*
G02*
X34975000Y60025000I250000J0D01*
G01*
X36225000Y60025000D01*
G75*
G02*
X36475000Y59775000I0J-250000D01*
G01*
X36475000Y59025000D01*
G75*
G02*
X36225000Y58775000I-250000J0D01*
G01*
G37*
G36*
G01*
X36225000Y61575000D02*
X34975000Y61575000D01*
G75*
G02*
X34725000Y61825000I0J250000D01*
G01*
X34725000Y62575000D01*
G75*
G02*
X34975000Y62825000I250000J0D01*
G01*
X36225000Y62825000D01*
G75*
G02*
X36475000Y62575000I0J-250000D01*
G01*
X36475000Y61825000D01*
G75*
G02*
X36225000Y61575000I-250000J0D01*
G01*
G37*
G04 #@! TD*
G04 #@! TO.C,R15*
G36*
G01*
X135725000Y29095000D02*
X135725000Y31945000D01*
G75*
G02*
X135975000Y32195000I250000J0D01*
G01*
X136700000Y32195000D01*
G75*
G02*
X136950000Y31945000I0J-250000D01*
G01*
X136950000Y29095000D01*
G75*
G02*
X136700000Y28845000I-250000J0D01*
G01*
X135975000Y28845000D01*
G75*
G02*
X135725000Y29095000I0J250000D01*
G01*
G37*
G36*
G01*
X141650000Y29095000D02*
X141650000Y31945000D01*
G75*
G02*
X141900000Y32195000I250000J0D01*
G01*
X142625000Y32195000D01*
G75*
G02*
X142875000Y31945000I0J-250000D01*
G01*
X142875000Y29095000D01*
G75*
G02*
X142625000Y28845000I-250000J0D01*
G01*
X141900000Y28845000D01*
G75*
G02*
X141650000Y29095000I0J250000D01*
G01*
G37*
G04 #@! TD*
G04 #@! TO.C,Q8*
G36*
G01*
X135775000Y38050000D02*
X135775000Y38750000D01*
G75*
G02*
X136025000Y39000000I250000J0D01*
G01*
X137725000Y39000000D01*
G75*
G02*
X137975000Y38750000I0J-250000D01*
G01*
X137975000Y38050000D01*
G75*
G02*
X137725000Y37800000I-250000J0D01*
G01*
X136025000Y37800000D01*
G75*
G02*
X135775000Y38050000I0J250000D01*
G01*
G37*
G36*
G01*
X139975000Y33469997D02*
X139975000Y38770003D01*
G75*
G02*
X140224997Y39020000I249997J0D01*
G01*
X146125003Y39020000D01*
G75*
G02*
X146375000Y38770003I0J-249997D01*
G01*
X146375000Y33469997D01*
G75*
G02*
X146125003Y33220000I-249997J0D01*
G01*
X140224997Y33220000D01*
G75*
G02*
X139975000Y33469997I0J249997D01*
G01*
G37*
G36*
G01*
X135775000Y33490000D02*
X135775000Y34190000D01*
G75*
G02*
X136025000Y34440000I250000J0D01*
G01*
X137725000Y34440000D01*
G75*
G02*
X137975000Y34190000I0J-250000D01*
G01*
X137975000Y33490000D01*
G75*
G02*
X137725000Y33240000I-250000J0D01*
G01*
X136025000Y33240000D01*
G75*
G02*
X135775000Y33490000I0J250000D01*
G01*
G37*
G04 #@! TD*
G04 #@! TO.C,D8*
G36*
G01*
X76199999Y81649998D02*
X76199999Y80749998D01*
G75*
G02*
X76099999Y80649998I-100000J0D01*
G01*
X75299999Y80649998D01*
G75*
G02*
X75199999Y80749998I0J100000D01*
G01*
X75199999Y81649998D01*
G75*
G02*
X75299999Y81749998I100000J0D01*
G01*
X76099999Y81749998D01*
G75*
G02*
X76199999Y81649998I0J-100000D01*
G01*
G37*
G36*
G01*
X74499999Y81649998D02*
X74499999Y80749998D01*
G75*
G02*
X74399999Y80649998I-100000J0D01*
G01*
X73599999Y80649998D01*
G75*
G02*
X73499999Y80749998I0J100000D01*
G01*
X73499999Y81649998D01*
G75*
G02*
X73599999Y81749998I100000J0D01*
G01*
X74399999Y81749998D01*
G75*
G02*
X74499999Y81649998I0J-100000D01*
G01*
G37*
G04 #@! TD*
G04 #@! TO.C,C6*
G36*
G01*
X108720000Y57325000D02*
X108720000Y58375000D01*
G75*
G02*
X108820000Y58475000I100000J0D01*
G01*
X109620000Y58475000D01*
G75*
G02*
X109720000Y58375000I0J-100000D01*
G01*
X109720000Y57325000D01*
G75*
G02*
X109620000Y57225000I-100000J0D01*
G01*
X108820000Y57225000D01*
G75*
G02*
X108720000Y57325000I0J100000D01*
G01*
G37*
G36*
G01*
X110720000Y57325000D02*
X110720000Y58375000D01*
G75*
G02*
X110820000Y58475000I100000J0D01*
G01*
X111620000Y58475000D01*
G75*
G02*
X111720000Y58375000I0J-100000D01*
G01*
X111720000Y57325000D01*
G75*
G02*
X111620000Y57225000I-100000J0D01*
G01*
X110820000Y57225000D01*
G75*
G02*
X110720000Y57325000I0J100000D01*
G01*
G37*
G04 #@! TD*
G04 #@! TO.C,C7*
G36*
G01*
X115320000Y58475000D02*
X115320000Y57425000D01*
G75*
G02*
X115220000Y57325000I-100000J0D01*
G01*
X114420000Y57325000D01*
G75*
G02*
X114320000Y57425000I0J100000D01*
G01*
X114320000Y58475000D01*
G75*
G02*
X114420000Y58575000I100000J0D01*
G01*
X115220000Y58575000D01*
G75*
G02*
X115320000Y58475000I0J-100000D01*
G01*
G37*
G36*
G01*
X113320000Y58475000D02*
X113320000Y57425000D01*
G75*
G02*
X113220000Y57325000I-100000J0D01*
G01*
X112420000Y57325000D01*
G75*
G02*
X112320000Y57425000I0J100000D01*
G01*
X112320000Y58475000D01*
G75*
G02*
X112420000Y58575000I100000J0D01*
G01*
X113220000Y58575000D01*
G75*
G02*
X113320000Y58475000I0J-100000D01*
G01*
G37*
G04 #@! TD*
G04 #@! TO.C,R31*
G36*
G01*
X72650000Y81440000D02*
X72650000Y80660000D01*
G75*
G02*
X72580000Y80590000I-70000J0D01*
G01*
X72020000Y80590000D01*
G75*
G02*
X71950000Y80660000I0J70000D01*
G01*
X71950000Y81440000D01*
G75*
G02*
X72020000Y81510000I70000J0D01*
G01*
X72580000Y81510000D01*
G75*
G02*
X72650000Y81440000I0J-70000D01*
G01*
G37*
G36*
G01*
X71050000Y81440000D02*
X71050000Y80660000D01*
G75*
G02*
X70980000Y80590000I-70000J0D01*
G01*
X70420000Y80590000D01*
G75*
G02*
X70350000Y80660000I0J70000D01*
G01*
X70350000Y81440000D01*
G75*
G02*
X70420000Y81510000I70000J0D01*
G01*
X70980000Y81510000D01*
G75*
G02*
X71050000Y81440000I0J-70000D01*
G01*
G37*
G04 #@! TD*
G04 #@! TO.C,Q10*
G36*
G01*
X16400000Y50470000D02*
X16400000Y49770000D01*
G75*
G02*
X16150000Y49520000I-250000J0D01*
G01*
X14450000Y49520000D01*
G75*
G02*
X14200000Y49770000I0J250000D01*
G01*
X14200000Y50470000D01*
G75*
G02*
X14450000Y50720000I250000J0D01*
G01*
X16150000Y50720000D01*
G75*
G02*
X16400000Y50470000I0J-250000D01*
G01*
G37*
G36*
G01*
X12200000Y55050003D02*
X12200000Y49749997D01*
G75*
G02*
X11950003Y49500000I-249997J0D01*
G01*
X6049997Y49500000D01*
G75*
G02*
X5800000Y49749997I0J249997D01*
G01*
X5800000Y55050003D01*
G75*
G02*
X6049997Y55300000I249997J0D01*
G01*
X11950003Y55300000D01*
G75*
G02*
X12200000Y55050003I0J-249997D01*
G01*
G37*
G36*
G01*
X16400000Y55030000D02*
X16400000Y54330000D01*
G75*
G02*
X16150000Y54080000I-250000J0D01*
G01*
X14450000Y54080000D01*
G75*
G02*
X14200000Y54330000I0J250000D01*
G01*
X14200000Y55030000D01*
G75*
G02*
X14450000Y55280000I250000J0D01*
G01*
X16150000Y55280000D01*
G75*
G02*
X16400000Y55030000I0J-250000D01*
G01*
G37*
G04 #@! TD*
D11*
G04 #@! TO.C,Q13*
X89700000Y28850000D03*
X92000000Y28850000D03*
X94300000Y28850000D03*
D12*
X92000000Y35150000D03*
G04 #@! TD*
D11*
G04 #@! TO.C,Q14*
X97950000Y28850000D03*
X100250000Y28850000D03*
X102550000Y28850000D03*
D12*
X100250000Y35150000D03*
G04 #@! TD*
G04 #@! TO.C,C4*
G36*
G01*
X108720000Y61825000D02*
X108720000Y62875000D01*
G75*
G02*
X108820000Y62975000I100000J0D01*
G01*
X109620000Y62975000D01*
G75*
G02*
X109720000Y62875000I0J-100000D01*
G01*
X109720000Y61825000D01*
G75*
G02*
X109620000Y61725000I-100000J0D01*
G01*
X108820000Y61725000D01*
G75*
G02*
X108720000Y61825000I0J100000D01*
G01*
G37*
G36*
G01*
X110720000Y61825000D02*
X110720000Y62875000D01*
G75*
G02*
X110820000Y62975000I100000J0D01*
G01*
X111620000Y62975000D01*
G75*
G02*
X111720000Y62875000I0J-100000D01*
G01*
X111720000Y61825000D01*
G75*
G02*
X111620000Y61725000I-100000J0D01*
G01*
X110820000Y61725000D01*
G75*
G02*
X110720000Y61825000I0J100000D01*
G01*
G37*
G04 #@! TD*
G04 #@! TO.C,R11*
G36*
G01*
X108950000Y37010000D02*
X108950000Y37790000D01*
G75*
G02*
X109020000Y37860000I70000J0D01*
G01*
X109580000Y37860000D01*
G75*
G02*
X109650000Y37790000I0J-70000D01*
G01*
X109650000Y37010000D01*
G75*
G02*
X109580000Y36940000I-70000J0D01*
G01*
X109020000Y36940000D01*
G75*
G02*
X108950000Y37010000I0J70000D01*
G01*
G37*
G36*
G01*
X110550000Y37010000D02*
X110550000Y37790000D01*
G75*
G02*
X110620000Y37860000I70000J0D01*
G01*
X111180000Y37860000D01*
G75*
G02*
X111250000Y37790000I0J-70000D01*
G01*
X111250000Y37010000D01*
G75*
G02*
X111180000Y36940000I-70000J0D01*
G01*
X110620000Y36940000D01*
G75*
G02*
X110550000Y37010000I0J70000D01*
G01*
G37*
G04 #@! TD*
G04 #@! TO.C,R7*
G36*
G01*
X123750000Y37010000D02*
X123750000Y37790000D01*
G75*
G02*
X123820000Y37860000I70000J0D01*
G01*
X124380000Y37860000D01*
G75*
G02*
X124450000Y37790000I0J-70000D01*
G01*
X124450000Y37010000D01*
G75*
G02*
X124380000Y36940000I-70000J0D01*
G01*
X123820000Y36940000D01*
G75*
G02*
X123750000Y37010000I0J70000D01*
G01*
G37*
G36*
G01*
X125350000Y37010000D02*
X125350000Y37790000D01*
G75*
G02*
X125420000Y37860000I70000J0D01*
G01*
X125980000Y37860000D01*
G75*
G02*
X126050000Y37790000I0J-70000D01*
G01*
X126050000Y37010000D01*
G75*
G02*
X125980000Y36940000I-70000J0D01*
G01*
X125420000Y36940000D01*
G75*
G02*
X125350000Y37010000I0J70000D01*
G01*
G37*
G04 #@! TD*
G04 #@! TO.C,R28*
G36*
G01*
X63850000Y24010000D02*
X63850000Y24790000D01*
G75*
G02*
X63920000Y24860000I70000J0D01*
G01*
X64480000Y24860000D01*
G75*
G02*
X64550000Y24790000I0J-70000D01*
G01*
X64550000Y24010000D01*
G75*
G02*
X64480000Y23940000I-70000J0D01*
G01*
X63920000Y23940000D01*
G75*
G02*
X63850000Y24010000I0J70000D01*
G01*
G37*
G36*
G01*
X65450000Y24010000D02*
X65450000Y24790000D01*
G75*
G02*
X65520000Y24860000I70000J0D01*
G01*
X66080000Y24860000D01*
G75*
G02*
X66150000Y24790000I0J-70000D01*
G01*
X66150000Y24010000D01*
G75*
G02*
X66080000Y23940000I-70000J0D01*
G01*
X65520000Y23940000D01*
G75*
G02*
X65450000Y24010000I0J70000D01*
G01*
G37*
G04 #@! TD*
G04 #@! TO.C,D2*
G36*
G01*
X100490000Y27150000D02*
X101510000Y27150000D01*
G75*
G02*
X101600000Y27060000I0J-90000D01*
G01*
X101600000Y26340000D01*
G75*
G02*
X101510000Y26250000I-90000J0D01*
G01*
X100490000Y26250000D01*
G75*
G02*
X100400000Y26340000I0J90000D01*
G01*
X100400000Y27060000D01*
G75*
G02*
X100490000Y27150000I90000J0D01*
G01*
G37*
G36*
G01*
X100490000Y23850000D02*
X101510000Y23850000D01*
G75*
G02*
X101600000Y23760000I0J-90000D01*
G01*
X101600000Y23040000D01*
G75*
G02*
X101510000Y22950000I-90000J0D01*
G01*
X100490000Y22950000D01*
G75*
G02*
X100400000Y23040000I0J90000D01*
G01*
X100400000Y23760000D01*
G75*
G02*
X100490000Y23850000I90000J0D01*
G01*
G37*
G04 #@! TD*
G04 #@! TO.C,R27*
G36*
G01*
X128360000Y70650000D02*
X129140000Y70650000D01*
G75*
G02*
X129210000Y70580000I0J-70000D01*
G01*
X129210000Y70020000D01*
G75*
G02*
X129140000Y69950000I-70000J0D01*
G01*
X128360000Y69950000D01*
G75*
G02*
X128290000Y70020000I0J70000D01*
G01*
X128290000Y70580000D01*
G75*
G02*
X128360000Y70650000I70000J0D01*
G01*
G37*
G36*
G01*
X128360000Y69050000D02*
X129140000Y69050000D01*
G75*
G02*
X129210000Y68980000I0J-70000D01*
G01*
X129210000Y68420000D01*
G75*
G02*
X129140000Y68350000I-70000J0D01*
G01*
X128360000Y68350000D01*
G75*
G02*
X128290000Y68420000I0J70000D01*
G01*
X128290000Y68980000D01*
G75*
G02*
X128360000Y69050000I70000J0D01*
G01*
G37*
G04 #@! TD*
D10*
G04 #@! TO.C,M3*
X28400000Y52950000D03*
X29350000Y52950000D03*
X30299998Y52950000D03*
X29300000Y44250000D03*
X28400000Y44250000D03*
G04 #@! TD*
G04 #@! TO.C,R29*
G36*
G01*
X58450000Y23810000D02*
X58450000Y24590000D01*
G75*
G02*
X58520000Y24660000I70000J0D01*
G01*
X59080000Y24660000D01*
G75*
G02*
X59150000Y24590000I0J-70000D01*
G01*
X59150000Y23810000D01*
G75*
G02*
X59080000Y23740000I-70000J0D01*
G01*
X58520000Y23740000D01*
G75*
G02*
X58450000Y23810000I0J70000D01*
G01*
G37*
G36*
G01*
X60050000Y23810000D02*
X60050000Y24590000D01*
G75*
G02*
X60120000Y24660000I70000J0D01*
G01*
X60680000Y24660000D01*
G75*
G02*
X60750000Y24590000I0J-70000D01*
G01*
X60750000Y23810000D01*
G75*
G02*
X60680000Y23740000I-70000J0D01*
G01*
X60120000Y23740000D01*
G75*
G02*
X60050000Y23810000I0J70000D01*
G01*
G37*
G04 #@! TD*
M02*
