G04 #@! TF.GenerationSoftware,KiCad,Pcbnew,7.0.10-7.0.10~ubuntu22.04.1*
G04 #@! TF.CreationDate,2024-02-03T13:19:02+00:00*
G04 #@! TF.ProjectId,lewycustom,6c657779-6375-4737-946f-6d2e6b696361,rev?*
G04 #@! TF.SameCoordinates,Original*
G04 #@! TF.FileFunction,Legend,Top*
G04 #@! TF.FilePolarity,Positive*
%FSLAX46Y46*%
G04 Gerber Fmt 4.6, Leading zero omitted, Abs format (unit mm)*
G04 Created by KiCad (PCBNEW 7.0.10-7.0.10~ubuntu22.04.1) date 2024-02-03 13:19:02*
%MOMM*%
%LPD*%
G01*
G04 APERTURE LIST*
%ADD10C,0.150000*%
%ADD11C,0.170000*%
%ADD12C,0.100000*%
%ADD13C,0.200000*%
%ADD14C,0.120000*%
%ADD15C,0.203200*%
G04 APERTURE END LIST*
D10*
X36405702Y44908459D02*
X37205702Y44908459D01*
X37205702Y44908459D02*
X36634274Y44708459D01*
X36634274Y44708459D02*
X37205702Y44508459D01*
X37205702Y44508459D02*
X36405702Y44508459D01*
X36939036Y43965602D02*
X36405702Y43965602D01*
X37243798Y44108460D02*
X36672369Y44251317D01*
X36672369Y44251317D02*
X36672369Y43879888D01*
D11*
X116595651Y59487287D02*
X116556603Y59448239D01*
X116556603Y59448239D02*
X116439461Y59409192D01*
X116439461Y59409192D02*
X116361365Y59409192D01*
X116361365Y59409192D02*
X116244222Y59448239D01*
X116244222Y59448239D02*
X116166127Y59526335D01*
X116166127Y59526335D02*
X116127080Y59604430D01*
X116127080Y59604430D02*
X116088032Y59760620D01*
X116088032Y59760620D02*
X116088032Y59877763D01*
X116088032Y59877763D02*
X116127080Y60033954D01*
X116127080Y60033954D02*
X116166127Y60112049D01*
X116166127Y60112049D02*
X116244222Y60190144D01*
X116244222Y60190144D02*
X116361365Y60229192D01*
X116361365Y60229192D02*
X116439461Y60229192D01*
X116439461Y60229192D02*
X116556603Y60190144D01*
X116556603Y60190144D02*
X116595651Y60151097D01*
X117064222Y59877763D02*
X116986127Y59916811D01*
X116986127Y59916811D02*
X116947080Y59955859D01*
X116947080Y59955859D02*
X116908032Y60033954D01*
X116908032Y60033954D02*
X116908032Y60073001D01*
X116908032Y60073001D02*
X116947080Y60151097D01*
X116947080Y60151097D02*
X116986127Y60190144D01*
X116986127Y60190144D02*
X117064222Y60229192D01*
X117064222Y60229192D02*
X117220413Y60229192D01*
X117220413Y60229192D02*
X117298508Y60190144D01*
X117298508Y60190144D02*
X117337556Y60151097D01*
X117337556Y60151097D02*
X117376603Y60073001D01*
X117376603Y60073001D02*
X117376603Y60033954D01*
X117376603Y60033954D02*
X117337556Y59955859D01*
X117337556Y59955859D02*
X117298508Y59916811D01*
X117298508Y59916811D02*
X117220413Y59877763D01*
X117220413Y59877763D02*
X117064222Y59877763D01*
X117064222Y59877763D02*
X116986127Y59838716D01*
X116986127Y59838716D02*
X116947080Y59799668D01*
X116947080Y59799668D02*
X116908032Y59721573D01*
X116908032Y59721573D02*
X116908032Y59565382D01*
X116908032Y59565382D02*
X116947080Y59487287D01*
X116947080Y59487287D02*
X116986127Y59448239D01*
X116986127Y59448239D02*
X117064222Y59409192D01*
X117064222Y59409192D02*
X117220413Y59409192D01*
X117220413Y59409192D02*
X117298508Y59448239D01*
X117298508Y59448239D02*
X117337556Y59487287D01*
X117337556Y59487287D02*
X117376603Y59565382D01*
X117376603Y59565382D02*
X117376603Y59721573D01*
X117376603Y59721573D02*
X117337556Y59799668D01*
X117337556Y59799668D02*
X117298508Y59838716D01*
X117298508Y59838716D02*
X117220413Y59877763D01*
D10*
X63254819Y30661906D02*
X62254819Y30661906D01*
X62254819Y30661906D02*
X62254819Y30900001D01*
X62254819Y30900001D02*
X62302438Y31042858D01*
X62302438Y31042858D02*
X62397676Y31138096D01*
X62397676Y31138096D02*
X62492914Y31185715D01*
X62492914Y31185715D02*
X62683390Y31233334D01*
X62683390Y31233334D02*
X62826247Y31233334D01*
X62826247Y31233334D02*
X63016723Y31185715D01*
X63016723Y31185715D02*
X63111961Y31138096D01*
X63111961Y31138096D02*
X63207200Y31042858D01*
X63207200Y31042858D02*
X63254819Y30900001D01*
X63254819Y30900001D02*
X63254819Y30661906D01*
X62254819Y32138096D02*
X62254819Y31661906D01*
X62254819Y31661906D02*
X62731009Y31614287D01*
X62731009Y31614287D02*
X62683390Y31661906D01*
X62683390Y31661906D02*
X62635771Y31757144D01*
X62635771Y31757144D02*
X62635771Y31995239D01*
X62635771Y31995239D02*
X62683390Y32090477D01*
X62683390Y32090477D02*
X62731009Y32138096D01*
X62731009Y32138096D02*
X62826247Y32185715D01*
X62826247Y32185715D02*
X63064342Y32185715D01*
X63064342Y32185715D02*
X63159580Y32138096D01*
X63159580Y32138096D02*
X63207200Y32090477D01*
X63207200Y32090477D02*
X63254819Y31995239D01*
X63254819Y31995239D02*
X63254819Y31757144D01*
X63254819Y31757144D02*
X63207200Y31661906D01*
X63207200Y31661906D02*
X63159580Y31614287D01*
D11*
X116444348Y55840809D02*
X116717681Y55450333D01*
X116912919Y55840809D02*
X116912919Y55020809D01*
X116912919Y55020809D02*
X116600538Y55020809D01*
X116600538Y55020809D02*
X116522443Y55059857D01*
X116522443Y55059857D02*
X116483396Y55098904D01*
X116483396Y55098904D02*
X116444348Y55177000D01*
X116444348Y55177000D02*
X116444348Y55294142D01*
X116444348Y55294142D02*
X116483396Y55372238D01*
X116483396Y55372238D02*
X116522443Y55411285D01*
X116522443Y55411285D02*
X116600538Y55450333D01*
X116600538Y55450333D02*
X116912919Y55450333D01*
X115702443Y55020809D02*
X116092919Y55020809D01*
X116092919Y55020809D02*
X116131967Y55411285D01*
X116131967Y55411285D02*
X116092919Y55372238D01*
X116092919Y55372238D02*
X116014824Y55333190D01*
X116014824Y55333190D02*
X115819586Y55333190D01*
X115819586Y55333190D02*
X115741491Y55372238D01*
X115741491Y55372238D02*
X115702443Y55411285D01*
X115702443Y55411285D02*
X115663396Y55489381D01*
X115663396Y55489381D02*
X115663396Y55684619D01*
X115663396Y55684619D02*
X115702443Y55762714D01*
X115702443Y55762714D02*
X115741491Y55801761D01*
X115741491Y55801761D02*
X115819586Y55840809D01*
X115819586Y55840809D02*
X116014824Y55840809D01*
X116014824Y55840809D02*
X116092919Y55801761D01*
X116092919Y55801761D02*
X116131967Y55762714D01*
D10*
X57704819Y30799406D02*
X56704819Y30799406D01*
X56704819Y30799406D02*
X56704819Y31037501D01*
X56704819Y31037501D02*
X56752438Y31180358D01*
X56752438Y31180358D02*
X56847676Y31275596D01*
X56847676Y31275596D02*
X56942914Y31323215D01*
X56942914Y31323215D02*
X57133390Y31370834D01*
X57133390Y31370834D02*
X57276247Y31370834D01*
X57276247Y31370834D02*
X57466723Y31323215D01*
X57466723Y31323215D02*
X57561961Y31275596D01*
X57561961Y31275596D02*
X57657200Y31180358D01*
X57657200Y31180358D02*
X57704819Y31037501D01*
X57704819Y31037501D02*
X57704819Y30799406D01*
X56704819Y32227977D02*
X56704819Y32037501D01*
X56704819Y32037501D02*
X56752438Y31942263D01*
X56752438Y31942263D02*
X56800057Y31894644D01*
X56800057Y31894644D02*
X56942914Y31799406D01*
X56942914Y31799406D02*
X57133390Y31751787D01*
X57133390Y31751787D02*
X57514342Y31751787D01*
X57514342Y31751787D02*
X57609580Y31799406D01*
X57609580Y31799406D02*
X57657200Y31847025D01*
X57657200Y31847025D02*
X57704819Y31942263D01*
X57704819Y31942263D02*
X57704819Y32132739D01*
X57704819Y32132739D02*
X57657200Y32227977D01*
X57657200Y32227977D02*
X57609580Y32275596D01*
X57609580Y32275596D02*
X57514342Y32323215D01*
X57514342Y32323215D02*
X57276247Y32323215D01*
X57276247Y32323215D02*
X57181009Y32275596D01*
X57181009Y32275596D02*
X57133390Y32227977D01*
X57133390Y32227977D02*
X57085771Y32132739D01*
X57085771Y32132739D02*
X57085771Y31942263D01*
X57085771Y31942263D02*
X57133390Y31847025D01*
X57133390Y31847025D02*
X57181009Y31799406D01*
X57181009Y31799406D02*
X57276247Y31751787D01*
D11*
X74160994Y76731875D02*
X74160994Y77531876D01*
X74160994Y77531876D02*
X74351470Y77531876D01*
X74351470Y77531876D02*
X74465756Y77493781D01*
X74465756Y77493781D02*
X74541947Y77417590D01*
X74541947Y77417590D02*
X74580042Y77341400D01*
X74580042Y77341400D02*
X74618137Y77189019D01*
X74618137Y77189019D02*
X74618137Y77074733D01*
X74618137Y77074733D02*
X74580042Y76922352D01*
X74580042Y76922352D02*
X74541947Y76846161D01*
X74541947Y76846161D02*
X74465756Y76769970D01*
X74465756Y76769970D02*
X74351470Y76731875D01*
X74351470Y76731875D02*
X74160994Y76731875D01*
X74884804Y77531876D02*
X75418138Y77531876D01*
X75418138Y77531876D02*
X75075281Y76731875D01*
X107444348Y69562714D02*
X107483396Y69601761D01*
X107483396Y69601761D02*
X107600538Y69640809D01*
X107600538Y69640809D02*
X107678634Y69640809D01*
X107678634Y69640809D02*
X107795777Y69601761D01*
X107795777Y69601761D02*
X107873872Y69523666D01*
X107873872Y69523666D02*
X107912919Y69445571D01*
X107912919Y69445571D02*
X107951967Y69289381D01*
X107951967Y69289381D02*
X107951967Y69172238D01*
X107951967Y69172238D02*
X107912919Y69016047D01*
X107912919Y69016047D02*
X107873872Y68937952D01*
X107873872Y68937952D02*
X107795777Y68859857D01*
X107795777Y68859857D02*
X107678634Y68820809D01*
X107678634Y68820809D02*
X107600538Y68820809D01*
X107600538Y68820809D02*
X107483396Y68859857D01*
X107483396Y68859857D02*
X107444348Y68898904D01*
X106663396Y69640809D02*
X107131967Y69640809D01*
X106897681Y69640809D02*
X106897681Y68820809D01*
X106897681Y68820809D02*
X106975777Y68937952D01*
X106975777Y68937952D02*
X107053872Y69016047D01*
X107053872Y69016047D02*
X107131967Y69055095D01*
X107444348Y60562714D02*
X107483396Y60601761D01*
X107483396Y60601761D02*
X107600538Y60640809D01*
X107600538Y60640809D02*
X107678634Y60640809D01*
X107678634Y60640809D02*
X107795777Y60601761D01*
X107795777Y60601761D02*
X107873872Y60523666D01*
X107873872Y60523666D02*
X107912919Y60445571D01*
X107912919Y60445571D02*
X107951967Y60289381D01*
X107951967Y60289381D02*
X107951967Y60172238D01*
X107951967Y60172238D02*
X107912919Y60016047D01*
X107912919Y60016047D02*
X107873872Y59937952D01*
X107873872Y59937952D02*
X107795777Y59859857D01*
X107795777Y59859857D02*
X107678634Y59820809D01*
X107678634Y59820809D02*
X107600538Y59820809D01*
X107600538Y59820809D02*
X107483396Y59859857D01*
X107483396Y59859857D02*
X107444348Y59898904D01*
X106702443Y59820809D02*
X107092919Y59820809D01*
X107092919Y59820809D02*
X107131967Y60211285D01*
X107131967Y60211285D02*
X107092919Y60172238D01*
X107092919Y60172238D02*
X107014824Y60133190D01*
X107014824Y60133190D02*
X106819586Y60133190D01*
X106819586Y60133190D02*
X106741491Y60172238D01*
X106741491Y60172238D02*
X106702443Y60211285D01*
X106702443Y60211285D02*
X106663396Y60289381D01*
X106663396Y60289381D02*
X106663396Y60484619D01*
X106663396Y60484619D02*
X106702443Y60562714D01*
X106702443Y60562714D02*
X106741491Y60601761D01*
X106741491Y60601761D02*
X106819586Y60640809D01*
X106819586Y60640809D02*
X107014824Y60640809D01*
X107014824Y60640809D02*
X107092919Y60601761D01*
X107092919Y60601761D02*
X107131967Y60562714D01*
X18163014Y38059908D02*
X18553490Y38333241D01*
X18163014Y38528479D02*
X18983014Y38528479D01*
X18983014Y38528479D02*
X18983014Y38216098D01*
X18983014Y38216098D02*
X18943966Y38138003D01*
X18943966Y38138003D02*
X18904919Y38098956D01*
X18904919Y38098956D02*
X18826823Y38059908D01*
X18826823Y38059908D02*
X18709681Y38059908D01*
X18709681Y38059908D02*
X18631585Y38098956D01*
X18631585Y38098956D02*
X18592538Y38138003D01*
X18592538Y38138003D02*
X18553490Y38216098D01*
X18553490Y38216098D02*
X18553490Y38528479D01*
X18163014Y37278956D02*
X18163014Y37747527D01*
X18163014Y37513241D02*
X18983014Y37513241D01*
X18983014Y37513241D02*
X18865871Y37591337D01*
X18865871Y37591337D02*
X18787776Y37669432D01*
X18787776Y37669432D02*
X18748728Y37747527D01*
X18163014Y36888480D02*
X18163014Y36732289D01*
X18163014Y36732289D02*
X18202062Y36654194D01*
X18202062Y36654194D02*
X18241109Y36615146D01*
X18241109Y36615146D02*
X18358252Y36537051D01*
X18358252Y36537051D02*
X18514442Y36498004D01*
X18514442Y36498004D02*
X18826823Y36498004D01*
X18826823Y36498004D02*
X18904919Y36537051D01*
X18904919Y36537051D02*
X18943966Y36576099D01*
X18943966Y36576099D02*
X18983014Y36654194D01*
X18983014Y36654194D02*
X18983014Y36810385D01*
X18983014Y36810385D02*
X18943966Y36888480D01*
X18943966Y36888480D02*
X18904919Y36927527D01*
X18904919Y36927527D02*
X18826823Y36966575D01*
X18826823Y36966575D02*
X18631585Y36966575D01*
X18631585Y36966575D02*
X18553490Y36927527D01*
X18553490Y36927527D02*
X18514442Y36888480D01*
X18514442Y36888480D02*
X18475395Y36810385D01*
X18475395Y36810385D02*
X18475395Y36654194D01*
X18475395Y36654194D02*
X18514442Y36576099D01*
X18514442Y36576099D02*
X18553490Y36537051D01*
X18553490Y36537051D02*
X18631585Y36498004D01*
X38975651Y36509192D02*
X38702318Y36899668D01*
X38507080Y36509192D02*
X38507080Y37329192D01*
X38507080Y37329192D02*
X38819461Y37329192D01*
X38819461Y37329192D02*
X38897556Y37290144D01*
X38897556Y37290144D02*
X38936603Y37251097D01*
X38936603Y37251097D02*
X38975651Y37173001D01*
X38975651Y37173001D02*
X38975651Y37055859D01*
X38975651Y37055859D02*
X38936603Y36977763D01*
X38936603Y36977763D02*
X38897556Y36938716D01*
X38897556Y36938716D02*
X38819461Y36899668D01*
X38819461Y36899668D02*
X38507080Y36899668D01*
X39444222Y36977763D02*
X39366127Y37016811D01*
X39366127Y37016811D02*
X39327080Y37055859D01*
X39327080Y37055859D02*
X39288032Y37133954D01*
X39288032Y37133954D02*
X39288032Y37173001D01*
X39288032Y37173001D02*
X39327080Y37251097D01*
X39327080Y37251097D02*
X39366127Y37290144D01*
X39366127Y37290144D02*
X39444222Y37329192D01*
X39444222Y37329192D02*
X39600413Y37329192D01*
X39600413Y37329192D02*
X39678508Y37290144D01*
X39678508Y37290144D02*
X39717556Y37251097D01*
X39717556Y37251097D02*
X39756603Y37173001D01*
X39756603Y37173001D02*
X39756603Y37133954D01*
X39756603Y37133954D02*
X39717556Y37055859D01*
X39717556Y37055859D02*
X39678508Y37016811D01*
X39678508Y37016811D02*
X39600413Y36977763D01*
X39600413Y36977763D02*
X39444222Y36977763D01*
X39444222Y36977763D02*
X39366127Y36938716D01*
X39366127Y36938716D02*
X39327080Y36899668D01*
X39327080Y36899668D02*
X39288032Y36821573D01*
X39288032Y36821573D02*
X39288032Y36665382D01*
X39288032Y36665382D02*
X39327080Y36587287D01*
X39327080Y36587287D02*
X39366127Y36548239D01*
X39366127Y36548239D02*
X39444222Y36509192D01*
X39444222Y36509192D02*
X39600413Y36509192D01*
X39600413Y36509192D02*
X39678508Y36548239D01*
X39678508Y36548239D02*
X39717556Y36587287D01*
X39717556Y36587287D02*
X39756603Y36665382D01*
X39756603Y36665382D02*
X39756603Y36821573D01*
X39756603Y36821573D02*
X39717556Y36899668D01*
X39717556Y36899668D02*
X39678508Y36938716D01*
X39678508Y36938716D02*
X39600413Y36977763D01*
X116545651Y66787287D02*
X116506603Y66748239D01*
X116506603Y66748239D02*
X116389461Y66709192D01*
X116389461Y66709192D02*
X116311365Y66709192D01*
X116311365Y66709192D02*
X116194222Y66748239D01*
X116194222Y66748239D02*
X116116127Y66826335D01*
X116116127Y66826335D02*
X116077080Y66904430D01*
X116077080Y66904430D02*
X116038032Y67060620D01*
X116038032Y67060620D02*
X116038032Y67177763D01*
X116038032Y67177763D02*
X116077080Y67333954D01*
X116077080Y67333954D02*
X116116127Y67412049D01*
X116116127Y67412049D02*
X116194222Y67490144D01*
X116194222Y67490144D02*
X116311365Y67529192D01*
X116311365Y67529192D02*
X116389461Y67529192D01*
X116389461Y67529192D02*
X116506603Y67490144D01*
X116506603Y67490144D02*
X116545651Y67451097D01*
X117326603Y66709192D02*
X116858032Y66709192D01*
X117092318Y66709192D02*
X117092318Y67529192D01*
X117092318Y67529192D02*
X117014222Y67412049D01*
X117014222Y67412049D02*
X116936127Y67333954D01*
X116936127Y67333954D02*
X116858032Y67294906D01*
X118107555Y66709192D02*
X117638984Y66709192D01*
X117873270Y66709192D02*
X117873270Y67529192D01*
X117873270Y67529192D02*
X117795174Y67412049D01*
X117795174Y67412049D02*
X117717079Y67333954D01*
X117717079Y67333954D02*
X117638984Y67294906D01*
X107444348Y65162714D02*
X107483396Y65201761D01*
X107483396Y65201761D02*
X107600538Y65240809D01*
X107600538Y65240809D02*
X107678634Y65240809D01*
X107678634Y65240809D02*
X107795777Y65201761D01*
X107795777Y65201761D02*
X107873872Y65123666D01*
X107873872Y65123666D02*
X107912919Y65045571D01*
X107912919Y65045571D02*
X107951967Y64889381D01*
X107951967Y64889381D02*
X107951967Y64772238D01*
X107951967Y64772238D02*
X107912919Y64616047D01*
X107912919Y64616047D02*
X107873872Y64537952D01*
X107873872Y64537952D02*
X107795777Y64459857D01*
X107795777Y64459857D02*
X107678634Y64420809D01*
X107678634Y64420809D02*
X107600538Y64420809D01*
X107600538Y64420809D02*
X107483396Y64459857D01*
X107483396Y64459857D02*
X107444348Y64498904D01*
X107171015Y64420809D02*
X106663396Y64420809D01*
X106663396Y64420809D02*
X106936729Y64733190D01*
X106936729Y64733190D02*
X106819586Y64733190D01*
X106819586Y64733190D02*
X106741491Y64772238D01*
X106741491Y64772238D02*
X106702443Y64811285D01*
X106702443Y64811285D02*
X106663396Y64889381D01*
X106663396Y64889381D02*
X106663396Y65084619D01*
X106663396Y65084619D02*
X106702443Y65162714D01*
X106702443Y65162714D02*
X106741491Y65201761D01*
X106741491Y65201761D02*
X106819586Y65240809D01*
X106819586Y65240809D02*
X107053872Y65240809D01*
X107053872Y65240809D02*
X107131967Y65201761D01*
X107131967Y65201761D02*
X107171015Y65162714D01*
X107444348Y67562714D02*
X107483396Y67601761D01*
X107483396Y67601761D02*
X107600538Y67640809D01*
X107600538Y67640809D02*
X107678634Y67640809D01*
X107678634Y67640809D02*
X107795777Y67601761D01*
X107795777Y67601761D02*
X107873872Y67523666D01*
X107873872Y67523666D02*
X107912919Y67445571D01*
X107912919Y67445571D02*
X107951967Y67289381D01*
X107951967Y67289381D02*
X107951967Y67172238D01*
X107951967Y67172238D02*
X107912919Y67016047D01*
X107912919Y67016047D02*
X107873872Y66937952D01*
X107873872Y66937952D02*
X107795777Y66859857D01*
X107795777Y66859857D02*
X107678634Y66820809D01*
X107678634Y66820809D02*
X107600538Y66820809D01*
X107600538Y66820809D02*
X107483396Y66859857D01*
X107483396Y66859857D02*
X107444348Y66898904D01*
X107131967Y66898904D02*
X107092919Y66859857D01*
X107092919Y66859857D02*
X107014824Y66820809D01*
X107014824Y66820809D02*
X106819586Y66820809D01*
X106819586Y66820809D02*
X106741491Y66859857D01*
X106741491Y66859857D02*
X106702443Y66898904D01*
X106702443Y66898904D02*
X106663396Y66977000D01*
X106663396Y66977000D02*
X106663396Y67055095D01*
X106663396Y67055095D02*
X106702443Y67172238D01*
X106702443Y67172238D02*
X107171015Y67640809D01*
X107171015Y67640809D02*
X106663396Y67640809D01*
X133936985Y27860093D02*
X133546509Y27586760D01*
X133936985Y27391522D02*
X133116985Y27391522D01*
X133116985Y27391522D02*
X133116985Y27703903D01*
X133116985Y27703903D02*
X133156033Y27781998D01*
X133156033Y27781998D02*
X133195080Y27821045D01*
X133195080Y27821045D02*
X133273176Y27860093D01*
X133273176Y27860093D02*
X133390318Y27860093D01*
X133390318Y27860093D02*
X133468414Y27821045D01*
X133468414Y27821045D02*
X133507461Y27781998D01*
X133507461Y27781998D02*
X133546509Y27703903D01*
X133546509Y27703903D02*
X133546509Y27391522D01*
X133936985Y28641045D02*
X133936985Y28172474D01*
X133936985Y28406760D02*
X133116985Y28406760D01*
X133116985Y28406760D02*
X133234128Y28328664D01*
X133234128Y28328664D02*
X133312223Y28250569D01*
X133312223Y28250569D02*
X133351271Y28172474D01*
X133195080Y28953426D02*
X133156033Y28992474D01*
X133156033Y28992474D02*
X133116985Y29070569D01*
X133116985Y29070569D02*
X133116985Y29265807D01*
X133116985Y29265807D02*
X133156033Y29343902D01*
X133156033Y29343902D02*
X133195080Y29382950D01*
X133195080Y29382950D02*
X133273176Y29421997D01*
X133273176Y29421997D02*
X133351271Y29421997D01*
X133351271Y29421997D02*
X133468414Y29382950D01*
X133468414Y29382950D02*
X133936985Y28914378D01*
X133936985Y28914378D02*
X133936985Y29421997D01*
D10*
X138450057Y47224762D02*
X138402438Y47129524D01*
X138402438Y47129524D02*
X138307200Y47034286D01*
X138307200Y47034286D02*
X138164342Y46891429D01*
X138164342Y46891429D02*
X138116723Y46796191D01*
X138116723Y46796191D02*
X138116723Y46700953D01*
X138354819Y46748572D02*
X138307200Y46653334D01*
X138307200Y46653334D02*
X138211961Y46558096D01*
X138211961Y46558096D02*
X138021485Y46510477D01*
X138021485Y46510477D02*
X137688152Y46510477D01*
X137688152Y46510477D02*
X137497676Y46558096D01*
X137497676Y46558096D02*
X137402438Y46653334D01*
X137402438Y46653334D02*
X137354819Y46748572D01*
X137354819Y46748572D02*
X137354819Y46939048D01*
X137354819Y46939048D02*
X137402438Y47034286D01*
X137402438Y47034286D02*
X137497676Y47129524D01*
X137497676Y47129524D02*
X137688152Y47177143D01*
X137688152Y47177143D02*
X138021485Y47177143D01*
X138021485Y47177143D02*
X138211961Y47129524D01*
X138211961Y47129524D02*
X138307200Y47034286D01*
X138307200Y47034286D02*
X138354819Y46939048D01*
X138354819Y46939048D02*
X138354819Y46748572D01*
X138354819Y47653334D02*
X138354819Y47843810D01*
X138354819Y47843810D02*
X138307200Y47939048D01*
X138307200Y47939048D02*
X138259580Y47986667D01*
X138259580Y47986667D02*
X138116723Y48081905D01*
X138116723Y48081905D02*
X137926247Y48129524D01*
X137926247Y48129524D02*
X137545295Y48129524D01*
X137545295Y48129524D02*
X137450057Y48081905D01*
X137450057Y48081905D02*
X137402438Y48034286D01*
X137402438Y48034286D02*
X137354819Y47939048D01*
X137354819Y47939048D02*
X137354819Y47748572D01*
X137354819Y47748572D02*
X137402438Y47653334D01*
X137402438Y47653334D02*
X137450057Y47605715D01*
X137450057Y47605715D02*
X137545295Y47558096D01*
X137545295Y47558096D02*
X137783390Y47558096D01*
X137783390Y47558096D02*
X137878628Y47605715D01*
X137878628Y47605715D02*
X137926247Y47653334D01*
X137926247Y47653334D02*
X137973866Y47748572D01*
X137973866Y47748572D02*
X137973866Y47939048D01*
X137973866Y47939048D02*
X137926247Y48034286D01*
X137926247Y48034286D02*
X137878628Y48081905D01*
X137878628Y48081905D02*
X137783390Y48129524D01*
X80866666Y83185181D02*
X80866666Y82470896D01*
X80866666Y82470896D02*
X80819047Y82328039D01*
X80819047Y82328039D02*
X80723809Y82232800D01*
X80723809Y82232800D02*
X80580952Y82185181D01*
X80580952Y82185181D02*
X80485714Y82185181D01*
X81247619Y83185181D02*
X81866666Y83185181D01*
X81866666Y83185181D02*
X81533333Y82804229D01*
X81533333Y82804229D02*
X81676190Y82804229D01*
X81676190Y82804229D02*
X81771428Y82756610D01*
X81771428Y82756610D02*
X81819047Y82708991D01*
X81819047Y82708991D02*
X81866666Y82613753D01*
X81866666Y82613753D02*
X81866666Y82375658D01*
X81866666Y82375658D02*
X81819047Y82280420D01*
X81819047Y82280420D02*
X81771428Y82232800D01*
X81771428Y82232800D02*
X81676190Y82185181D01*
X81676190Y82185181D02*
X81390476Y82185181D01*
X81390476Y82185181D02*
X81295238Y82232800D01*
X81295238Y82232800D02*
X81247619Y82280420D01*
D11*
X129513014Y61759908D02*
X129903490Y62033241D01*
X129513014Y62228479D02*
X130333014Y62228479D01*
X130333014Y62228479D02*
X130333014Y61916098D01*
X130333014Y61916098D02*
X130293966Y61838003D01*
X130293966Y61838003D02*
X130254919Y61798956D01*
X130254919Y61798956D02*
X130176823Y61759908D01*
X130176823Y61759908D02*
X130059681Y61759908D01*
X130059681Y61759908D02*
X129981585Y61798956D01*
X129981585Y61798956D02*
X129942538Y61838003D01*
X129942538Y61838003D02*
X129903490Y61916098D01*
X129903490Y61916098D02*
X129903490Y62228479D01*
X130254919Y61447527D02*
X130293966Y61408479D01*
X130293966Y61408479D02*
X130333014Y61330384D01*
X130333014Y61330384D02*
X130333014Y61135146D01*
X130333014Y61135146D02*
X130293966Y61057051D01*
X130293966Y61057051D02*
X130254919Y61018003D01*
X130254919Y61018003D02*
X130176823Y60978956D01*
X130176823Y60978956D02*
X130098728Y60978956D01*
X130098728Y60978956D02*
X129981585Y61018003D01*
X129981585Y61018003D02*
X129513014Y61486575D01*
X129513014Y61486575D02*
X129513014Y60978956D01*
X130333014Y60276099D02*
X130333014Y60432289D01*
X130333014Y60432289D02*
X130293966Y60510385D01*
X130293966Y60510385D02*
X130254919Y60549432D01*
X130254919Y60549432D02*
X130137776Y60627527D01*
X130137776Y60627527D02*
X129981585Y60666575D01*
X129981585Y60666575D02*
X129669204Y60666575D01*
X129669204Y60666575D02*
X129591109Y60627527D01*
X129591109Y60627527D02*
X129552062Y60588480D01*
X129552062Y60588480D02*
X129513014Y60510385D01*
X129513014Y60510385D02*
X129513014Y60354194D01*
X129513014Y60354194D02*
X129552062Y60276099D01*
X129552062Y60276099D02*
X129591109Y60237051D01*
X129591109Y60237051D02*
X129669204Y60198004D01*
X129669204Y60198004D02*
X129864442Y60198004D01*
X129864442Y60198004D02*
X129942538Y60237051D01*
X129942538Y60237051D02*
X129981585Y60276099D01*
X129981585Y60276099D02*
X130020633Y60354194D01*
X130020633Y60354194D02*
X130020633Y60510385D01*
X130020633Y60510385D02*
X129981585Y60588480D01*
X129981585Y60588480D02*
X129942538Y60627527D01*
X129942538Y60627527D02*
X129864442Y60666575D01*
X133936985Y39260093D02*
X133546509Y38986760D01*
X133936985Y38791522D02*
X133116985Y38791522D01*
X133116985Y38791522D02*
X133116985Y39103903D01*
X133116985Y39103903D02*
X133156033Y39181998D01*
X133156033Y39181998D02*
X133195080Y39221045D01*
X133195080Y39221045D02*
X133273176Y39260093D01*
X133273176Y39260093D02*
X133390318Y39260093D01*
X133390318Y39260093D02*
X133468414Y39221045D01*
X133468414Y39221045D02*
X133507461Y39181998D01*
X133507461Y39181998D02*
X133546509Y39103903D01*
X133546509Y39103903D02*
X133546509Y38791522D01*
X133936985Y40041045D02*
X133936985Y39572474D01*
X133936985Y39806760D02*
X133116985Y39806760D01*
X133116985Y39806760D02*
X133234128Y39728664D01*
X133234128Y39728664D02*
X133312223Y39650569D01*
X133312223Y39650569D02*
X133351271Y39572474D01*
X133116985Y40314378D02*
X133116985Y40821997D01*
X133116985Y40821997D02*
X133429366Y40548664D01*
X133429366Y40548664D02*
X133429366Y40665807D01*
X133429366Y40665807D02*
X133468414Y40743902D01*
X133468414Y40743902D02*
X133507461Y40782950D01*
X133507461Y40782950D02*
X133585557Y40821997D01*
X133585557Y40821997D02*
X133780795Y40821997D01*
X133780795Y40821997D02*
X133858890Y40782950D01*
X133858890Y40782950D02*
X133897938Y40743902D01*
X133897938Y40743902D02*
X133936985Y40665807D01*
X133936985Y40665807D02*
X133936985Y40431521D01*
X133936985Y40431521D02*
X133897938Y40353426D01*
X133897938Y40353426D02*
X133858890Y40314378D01*
X129744762Y73729492D02*
X129744762Y74549492D01*
X129744762Y74549492D02*
X129940000Y74549492D01*
X129940000Y74549492D02*
X130057143Y74510444D01*
X130057143Y74510444D02*
X130135238Y74432349D01*
X130135238Y74432349D02*
X130174285Y74354254D01*
X130174285Y74354254D02*
X130213333Y74198063D01*
X130213333Y74198063D02*
X130213333Y74080920D01*
X130213333Y74080920D02*
X130174285Y73924730D01*
X130174285Y73924730D02*
X130135238Y73846635D01*
X130135238Y73846635D02*
X130057143Y73768539D01*
X130057143Y73768539D02*
X129940000Y73729492D01*
X129940000Y73729492D02*
X129744762Y73729492D01*
X130916190Y74276159D02*
X130916190Y73729492D01*
X130720952Y74588539D02*
X130525714Y74002825D01*
X130525714Y74002825D02*
X131033333Y74002825D01*
D10*
X138325057Y24749762D02*
X138277438Y24654524D01*
X138277438Y24654524D02*
X138182200Y24559286D01*
X138182200Y24559286D02*
X138039342Y24416429D01*
X138039342Y24416429D02*
X137991723Y24321191D01*
X137991723Y24321191D02*
X137991723Y24225953D01*
X138229819Y24273572D02*
X138182200Y24178334D01*
X138182200Y24178334D02*
X138086961Y24083096D01*
X138086961Y24083096D02*
X137896485Y24035477D01*
X137896485Y24035477D02*
X137563152Y24035477D01*
X137563152Y24035477D02*
X137372676Y24083096D01*
X137372676Y24083096D02*
X137277438Y24178334D01*
X137277438Y24178334D02*
X137229819Y24273572D01*
X137229819Y24273572D02*
X137229819Y24464048D01*
X137229819Y24464048D02*
X137277438Y24559286D01*
X137277438Y24559286D02*
X137372676Y24654524D01*
X137372676Y24654524D02*
X137563152Y24702143D01*
X137563152Y24702143D02*
X137896485Y24702143D01*
X137896485Y24702143D02*
X138086961Y24654524D01*
X138086961Y24654524D02*
X138182200Y24559286D01*
X138182200Y24559286D02*
X138229819Y24464048D01*
X138229819Y24464048D02*
X138229819Y24273572D01*
X137229819Y25035477D02*
X137229819Y25702143D01*
X137229819Y25702143D02*
X138229819Y25273572D01*
D11*
X98859907Y25886986D02*
X99133240Y25496510D01*
X99328478Y25886986D02*
X99328478Y25066986D01*
X99328478Y25066986D02*
X99016097Y25066986D01*
X99016097Y25066986D02*
X98938002Y25106034D01*
X98938002Y25106034D02*
X98898955Y25145081D01*
X98898955Y25145081D02*
X98859907Y25223177D01*
X98859907Y25223177D02*
X98859907Y25340319D01*
X98859907Y25340319D02*
X98898955Y25418415D01*
X98898955Y25418415D02*
X98938002Y25457462D01*
X98938002Y25457462D02*
X99016097Y25496510D01*
X99016097Y25496510D02*
X99328478Y25496510D01*
X98547526Y25145081D02*
X98508478Y25106034D01*
X98508478Y25106034D02*
X98430383Y25066986D01*
X98430383Y25066986D02*
X98235145Y25066986D01*
X98235145Y25066986D02*
X98157050Y25106034D01*
X98157050Y25106034D02*
X98118002Y25145081D01*
X98118002Y25145081D02*
X98078955Y25223177D01*
X98078955Y25223177D02*
X98078955Y25301272D01*
X98078955Y25301272D02*
X98118002Y25418415D01*
X98118002Y25418415D02*
X98586574Y25886986D01*
X98586574Y25886986D02*
X98078955Y25886986D01*
X97337050Y25066986D02*
X97727526Y25066986D01*
X97727526Y25066986D02*
X97766574Y25457462D01*
X97766574Y25457462D02*
X97727526Y25418415D01*
X97727526Y25418415D02*
X97649431Y25379367D01*
X97649431Y25379367D02*
X97454193Y25379367D01*
X97454193Y25379367D02*
X97376098Y25418415D01*
X97376098Y25418415D02*
X97337050Y25457462D01*
X97337050Y25457462D02*
X97298003Y25535558D01*
X97298003Y25535558D02*
X97298003Y25730796D01*
X97298003Y25730796D02*
X97337050Y25808891D01*
X97337050Y25808891D02*
X97376098Y25847938D01*
X97376098Y25847938D02*
X97454193Y25886986D01*
X97454193Y25886986D02*
X97649431Y25886986D01*
X97649431Y25886986D02*
X97727526Y25847938D01*
X97727526Y25847938D02*
X97766574Y25808891D01*
X71959907Y77686986D02*
X72233240Y77296510D01*
X72428478Y77686986D02*
X72428478Y76866986D01*
X72428478Y76866986D02*
X72116097Y76866986D01*
X72116097Y76866986D02*
X72038002Y76906034D01*
X72038002Y76906034D02*
X71998955Y76945081D01*
X71998955Y76945081D02*
X71959907Y77023177D01*
X71959907Y77023177D02*
X71959907Y77140319D01*
X71959907Y77140319D02*
X71998955Y77218415D01*
X71998955Y77218415D02*
X72038002Y77257462D01*
X72038002Y77257462D02*
X72116097Y77296510D01*
X72116097Y77296510D02*
X72428478Y77296510D01*
X71686574Y76866986D02*
X71178955Y76866986D01*
X71178955Y76866986D02*
X71452288Y77179367D01*
X71452288Y77179367D02*
X71335145Y77179367D01*
X71335145Y77179367D02*
X71257050Y77218415D01*
X71257050Y77218415D02*
X71218002Y77257462D01*
X71218002Y77257462D02*
X71178955Y77335558D01*
X71178955Y77335558D02*
X71178955Y77530796D01*
X71178955Y77530796D02*
X71218002Y77608891D01*
X71218002Y77608891D02*
X71257050Y77647938D01*
X71257050Y77647938D02*
X71335145Y77686986D01*
X71335145Y77686986D02*
X71569431Y77686986D01*
X71569431Y77686986D02*
X71647526Y77647938D01*
X71647526Y77647938D02*
X71686574Y77608891D01*
X70671336Y76866986D02*
X70593241Y76866986D01*
X70593241Y76866986D02*
X70515145Y76906034D01*
X70515145Y76906034D02*
X70476098Y76945081D01*
X70476098Y76945081D02*
X70437050Y77023177D01*
X70437050Y77023177D02*
X70398003Y77179367D01*
X70398003Y77179367D02*
X70398003Y77374605D01*
X70398003Y77374605D02*
X70437050Y77530796D01*
X70437050Y77530796D02*
X70476098Y77608891D01*
X70476098Y77608891D02*
X70515145Y77647938D01*
X70515145Y77647938D02*
X70593241Y77686986D01*
X70593241Y77686986D02*
X70671336Y77686986D01*
X70671336Y77686986D02*
X70749431Y77647938D01*
X70749431Y77647938D02*
X70788479Y77608891D01*
X70788479Y77608891D02*
X70827526Y77530796D01*
X70827526Y77530796D02*
X70866574Y77374605D01*
X70866574Y77374605D02*
X70866574Y77179367D01*
X70866574Y77179367D02*
X70827526Y77023177D01*
X70827526Y77023177D02*
X70788479Y76945081D01*
X70788479Y76945081D02*
X70749431Y76906034D01*
X70749431Y76906034D02*
X70671336Y76866986D01*
D10*
X116794819Y47113096D02*
X117604342Y47113096D01*
X117604342Y47113096D02*
X117699580Y47160715D01*
X117699580Y47160715D02*
X117747200Y47208334D01*
X117747200Y47208334D02*
X117794819Y47303572D01*
X117794819Y47303572D02*
X117794819Y47494048D01*
X117794819Y47494048D02*
X117747200Y47589286D01*
X117747200Y47589286D02*
X117699580Y47636905D01*
X117699580Y47636905D02*
X117604342Y47684524D01*
X117604342Y47684524D02*
X116794819Y47684524D01*
X116890057Y48113096D02*
X116842438Y48160715D01*
X116842438Y48160715D02*
X116794819Y48255953D01*
X116794819Y48255953D02*
X116794819Y48494048D01*
X116794819Y48494048D02*
X116842438Y48589286D01*
X116842438Y48589286D02*
X116890057Y48636905D01*
X116890057Y48636905D02*
X116985295Y48684524D01*
X116985295Y48684524D02*
X117080533Y48684524D01*
X117080533Y48684524D02*
X117223390Y48636905D01*
X117223390Y48636905D02*
X117794819Y48065477D01*
X117794819Y48065477D02*
X117794819Y48684524D01*
D11*
X28975651Y36509192D02*
X28702318Y36899668D01*
X28507080Y36509192D02*
X28507080Y37329192D01*
X28507080Y37329192D02*
X28819461Y37329192D01*
X28819461Y37329192D02*
X28897556Y37290144D01*
X28897556Y37290144D02*
X28936603Y37251097D01*
X28936603Y37251097D02*
X28975651Y37173001D01*
X28975651Y37173001D02*
X28975651Y37055859D01*
X28975651Y37055859D02*
X28936603Y36977763D01*
X28936603Y36977763D02*
X28897556Y36938716D01*
X28897556Y36938716D02*
X28819461Y36899668D01*
X28819461Y36899668D02*
X28507080Y36899668D01*
X29678508Y37329192D02*
X29522318Y37329192D01*
X29522318Y37329192D02*
X29444222Y37290144D01*
X29444222Y37290144D02*
X29405175Y37251097D01*
X29405175Y37251097D02*
X29327080Y37133954D01*
X29327080Y37133954D02*
X29288032Y36977763D01*
X29288032Y36977763D02*
X29288032Y36665382D01*
X29288032Y36665382D02*
X29327080Y36587287D01*
X29327080Y36587287D02*
X29366127Y36548239D01*
X29366127Y36548239D02*
X29444222Y36509192D01*
X29444222Y36509192D02*
X29600413Y36509192D01*
X29600413Y36509192D02*
X29678508Y36548239D01*
X29678508Y36548239D02*
X29717556Y36587287D01*
X29717556Y36587287D02*
X29756603Y36665382D01*
X29756603Y36665382D02*
X29756603Y36860620D01*
X29756603Y36860620D02*
X29717556Y36938716D01*
X29717556Y36938716D02*
X29678508Y36977763D01*
X29678508Y36977763D02*
X29600413Y37016811D01*
X29600413Y37016811D02*
X29444222Y37016811D01*
X29444222Y37016811D02*
X29366127Y36977763D01*
X29366127Y36977763D02*
X29327080Y36938716D01*
X29327080Y36938716D02*
X29288032Y36860620D01*
D10*
X14675057Y40628572D02*
X14627438Y40533334D01*
X14627438Y40533334D02*
X14532200Y40438096D01*
X14532200Y40438096D02*
X14389342Y40295239D01*
X14389342Y40295239D02*
X14341723Y40200001D01*
X14341723Y40200001D02*
X14341723Y40104763D01*
X14579819Y40152382D02*
X14532200Y40057144D01*
X14532200Y40057144D02*
X14436961Y39961906D01*
X14436961Y39961906D02*
X14246485Y39914287D01*
X14246485Y39914287D02*
X13913152Y39914287D01*
X13913152Y39914287D02*
X13722676Y39961906D01*
X13722676Y39961906D02*
X13627438Y40057144D01*
X13627438Y40057144D02*
X13579819Y40152382D01*
X13579819Y40152382D02*
X13579819Y40342858D01*
X13579819Y40342858D02*
X13627438Y40438096D01*
X13627438Y40438096D02*
X13722676Y40533334D01*
X13722676Y40533334D02*
X13913152Y40580953D01*
X13913152Y40580953D02*
X14246485Y40580953D01*
X14246485Y40580953D02*
X14436961Y40533334D01*
X14436961Y40533334D02*
X14532200Y40438096D01*
X14532200Y40438096D02*
X14579819Y40342858D01*
X14579819Y40342858D02*
X14579819Y40152382D01*
X14579819Y41533334D02*
X14579819Y40961906D01*
X14579819Y41247620D02*
X13579819Y41247620D01*
X13579819Y41247620D02*
X13722676Y41152382D01*
X13722676Y41152382D02*
X13817914Y41057144D01*
X13817914Y41057144D02*
X13865533Y40961906D01*
X14579819Y42485715D02*
X14579819Y41914287D01*
X14579819Y42200001D02*
X13579819Y42200001D01*
X13579819Y42200001D02*
X13722676Y42104763D01*
X13722676Y42104763D02*
X13817914Y42009525D01*
X13817914Y42009525D02*
X13865533Y41914287D01*
X13104819Y92266667D02*
X13819104Y92266667D01*
X13819104Y92266667D02*
X13961961Y92219048D01*
X13961961Y92219048D02*
X14057200Y92123810D01*
X14057200Y92123810D02*
X14104819Y91980953D01*
X14104819Y91980953D02*
X14104819Y91885715D01*
X13200057Y92695239D02*
X13152438Y92742858D01*
X13152438Y92742858D02*
X13104819Y92838096D01*
X13104819Y92838096D02*
X13104819Y93076191D01*
X13104819Y93076191D02*
X13152438Y93171429D01*
X13152438Y93171429D02*
X13200057Y93219048D01*
X13200057Y93219048D02*
X13295295Y93266667D01*
X13295295Y93266667D02*
X13390533Y93266667D01*
X13390533Y93266667D02*
X13533390Y93219048D01*
X13533390Y93219048D02*
X14104819Y92647620D01*
X14104819Y92647620D02*
X14104819Y93266667D01*
D11*
X90459907Y25686986D02*
X90733240Y25296510D01*
X90928478Y25686986D02*
X90928478Y24866986D01*
X90928478Y24866986D02*
X90616097Y24866986D01*
X90616097Y24866986D02*
X90538002Y24906034D01*
X90538002Y24906034D02*
X90498955Y24945081D01*
X90498955Y24945081D02*
X90459907Y25023177D01*
X90459907Y25023177D02*
X90459907Y25140319D01*
X90459907Y25140319D02*
X90498955Y25218415D01*
X90498955Y25218415D02*
X90538002Y25257462D01*
X90538002Y25257462D02*
X90616097Y25296510D01*
X90616097Y25296510D02*
X90928478Y25296510D01*
X90147526Y24945081D02*
X90108478Y24906034D01*
X90108478Y24906034D02*
X90030383Y24866986D01*
X90030383Y24866986D02*
X89835145Y24866986D01*
X89835145Y24866986D02*
X89757050Y24906034D01*
X89757050Y24906034D02*
X89718002Y24945081D01*
X89718002Y24945081D02*
X89678955Y25023177D01*
X89678955Y25023177D02*
X89678955Y25101272D01*
X89678955Y25101272D02*
X89718002Y25218415D01*
X89718002Y25218415D02*
X90186574Y25686986D01*
X90186574Y25686986D02*
X89678955Y25686986D01*
X88976098Y25140319D02*
X88976098Y25686986D01*
X89171336Y24827938D02*
X89366574Y25413653D01*
X89366574Y25413653D02*
X88858955Y25413653D01*
X116545651Y64587287D02*
X116506603Y64548239D01*
X116506603Y64548239D02*
X116389461Y64509192D01*
X116389461Y64509192D02*
X116311365Y64509192D01*
X116311365Y64509192D02*
X116194222Y64548239D01*
X116194222Y64548239D02*
X116116127Y64626335D01*
X116116127Y64626335D02*
X116077080Y64704430D01*
X116077080Y64704430D02*
X116038032Y64860620D01*
X116038032Y64860620D02*
X116038032Y64977763D01*
X116038032Y64977763D02*
X116077080Y65133954D01*
X116077080Y65133954D02*
X116116127Y65212049D01*
X116116127Y65212049D02*
X116194222Y65290144D01*
X116194222Y65290144D02*
X116311365Y65329192D01*
X116311365Y65329192D02*
X116389461Y65329192D01*
X116389461Y65329192D02*
X116506603Y65290144D01*
X116506603Y65290144D02*
X116545651Y65251097D01*
X117326603Y64509192D02*
X116858032Y64509192D01*
X117092318Y64509192D02*
X117092318Y65329192D01*
X117092318Y65329192D02*
X117014222Y65212049D01*
X117014222Y65212049D02*
X116936127Y65133954D01*
X116936127Y65133954D02*
X116858032Y65094906D01*
X117834222Y65329192D02*
X117912317Y65329192D01*
X117912317Y65329192D02*
X117990413Y65290144D01*
X117990413Y65290144D02*
X118029460Y65251097D01*
X118029460Y65251097D02*
X118068508Y65173001D01*
X118068508Y65173001D02*
X118107555Y65016811D01*
X118107555Y65016811D02*
X118107555Y64821573D01*
X118107555Y64821573D02*
X118068508Y64665382D01*
X118068508Y64665382D02*
X118029460Y64587287D01*
X118029460Y64587287D02*
X117990413Y64548239D01*
X117990413Y64548239D02*
X117912317Y64509192D01*
X117912317Y64509192D02*
X117834222Y64509192D01*
X117834222Y64509192D02*
X117756127Y64548239D01*
X117756127Y64548239D02*
X117717079Y64587287D01*
X117717079Y64587287D02*
X117678032Y64665382D01*
X117678032Y64665382D02*
X117638984Y64821573D01*
X117638984Y64821573D02*
X117638984Y65016811D01*
X117638984Y65016811D02*
X117678032Y65173001D01*
X117678032Y65173001D02*
X117717079Y65251097D01*
X117717079Y65251097D02*
X117756127Y65290144D01*
X117756127Y65290144D02*
X117834222Y65329192D01*
X17963014Y26859908D02*
X18353490Y27133241D01*
X17963014Y27328479D02*
X18783014Y27328479D01*
X18783014Y27328479D02*
X18783014Y27016098D01*
X18783014Y27016098D02*
X18743966Y26938003D01*
X18743966Y26938003D02*
X18704919Y26898956D01*
X18704919Y26898956D02*
X18626823Y26859908D01*
X18626823Y26859908D02*
X18509681Y26859908D01*
X18509681Y26859908D02*
X18431585Y26898956D01*
X18431585Y26898956D02*
X18392538Y26938003D01*
X18392538Y26938003D02*
X18353490Y27016098D01*
X18353490Y27016098D02*
X18353490Y27328479D01*
X18704919Y26547527D02*
X18743966Y26508479D01*
X18743966Y26508479D02*
X18783014Y26430384D01*
X18783014Y26430384D02*
X18783014Y26235146D01*
X18783014Y26235146D02*
X18743966Y26157051D01*
X18743966Y26157051D02*
X18704919Y26118003D01*
X18704919Y26118003D02*
X18626823Y26078956D01*
X18626823Y26078956D02*
X18548728Y26078956D01*
X18548728Y26078956D02*
X18431585Y26118003D01*
X18431585Y26118003D02*
X17963014Y26586575D01*
X17963014Y26586575D02*
X17963014Y26078956D01*
X18783014Y25571337D02*
X18783014Y25493242D01*
X18783014Y25493242D02*
X18743966Y25415146D01*
X18743966Y25415146D02*
X18704919Y25376099D01*
X18704919Y25376099D02*
X18626823Y25337051D01*
X18626823Y25337051D02*
X18470633Y25298004D01*
X18470633Y25298004D02*
X18275395Y25298004D01*
X18275395Y25298004D02*
X18119204Y25337051D01*
X18119204Y25337051D02*
X18041109Y25376099D01*
X18041109Y25376099D02*
X18002062Y25415146D01*
X18002062Y25415146D02*
X17963014Y25493242D01*
X17963014Y25493242D02*
X17963014Y25571337D01*
X17963014Y25571337D02*
X18002062Y25649432D01*
X18002062Y25649432D02*
X18041109Y25688480D01*
X18041109Y25688480D02*
X18119204Y25727527D01*
X18119204Y25727527D02*
X18275395Y25766575D01*
X18275395Y25766575D02*
X18470633Y25766575D01*
X18470633Y25766575D02*
X18626823Y25727527D01*
X18626823Y25727527D02*
X18704919Y25688480D01*
X18704919Y25688480D02*
X18743966Y25649432D01*
X18743966Y25649432D02*
X18783014Y25571337D01*
X94970508Y24244763D02*
X94150508Y24244763D01*
X94150508Y24244763D02*
X94150508Y24440001D01*
X94150508Y24440001D02*
X94189556Y24557144D01*
X94189556Y24557144D02*
X94267651Y24635239D01*
X94267651Y24635239D02*
X94345746Y24674286D01*
X94345746Y24674286D02*
X94501937Y24713334D01*
X94501937Y24713334D02*
X94619080Y24713334D01*
X94619080Y24713334D02*
X94775270Y24674286D01*
X94775270Y24674286D02*
X94853365Y24635239D01*
X94853365Y24635239D02*
X94931461Y24557144D01*
X94931461Y24557144D02*
X94970508Y24440001D01*
X94970508Y24440001D02*
X94970508Y24244763D01*
X94970508Y25494286D02*
X94970508Y25025715D01*
X94970508Y25260001D02*
X94150508Y25260001D01*
X94150508Y25260001D02*
X94267651Y25181905D01*
X94267651Y25181905D02*
X94345746Y25103810D01*
X94345746Y25103810D02*
X94384794Y25025715D01*
D12*
X75197419Y-19137904D02*
X76006942Y-19137904D01*
X76006942Y-19137904D02*
X76102180Y-19090285D01*
X76102180Y-19090285D02*
X76149800Y-19042666D01*
X76149800Y-19042666D02*
X76197419Y-18947428D01*
X76197419Y-18947428D02*
X76197419Y-18756952D01*
X76197419Y-18756952D02*
X76149800Y-18661714D01*
X76149800Y-18661714D02*
X76102180Y-18614095D01*
X76102180Y-18614095D02*
X76006942Y-18566476D01*
X76006942Y-18566476D02*
X75197419Y-18566476D01*
X76197419Y-17566476D02*
X76197419Y-18137904D01*
X76197419Y-17852190D02*
X75197419Y-17852190D01*
X75197419Y-17852190D02*
X75340276Y-17947428D01*
X75340276Y-17947428D02*
X75435514Y-18042666D01*
X75435514Y-18042666D02*
X75483133Y-18137904D01*
D10*
X88644819Y92066667D02*
X89359104Y92066667D01*
X89359104Y92066667D02*
X89501961Y92019048D01*
X89501961Y92019048D02*
X89597200Y91923810D01*
X89597200Y91923810D02*
X89644819Y91780953D01*
X89644819Y91780953D02*
X89644819Y91685715D01*
X89644819Y93066667D02*
X89644819Y92495239D01*
X89644819Y92780953D02*
X88644819Y92780953D01*
X88644819Y92780953D02*
X88787676Y92685715D01*
X88787676Y92685715D02*
X88882914Y92590477D01*
X88882914Y92590477D02*
X88930533Y92495239D01*
X14975057Y29353572D02*
X14927438Y29258334D01*
X14927438Y29258334D02*
X14832200Y29163096D01*
X14832200Y29163096D02*
X14689342Y29020239D01*
X14689342Y29020239D02*
X14641723Y28925001D01*
X14641723Y28925001D02*
X14641723Y28829763D01*
X14879819Y28877382D02*
X14832200Y28782144D01*
X14832200Y28782144D02*
X14736961Y28686906D01*
X14736961Y28686906D02*
X14546485Y28639287D01*
X14546485Y28639287D02*
X14213152Y28639287D01*
X14213152Y28639287D02*
X14022676Y28686906D01*
X14022676Y28686906D02*
X13927438Y28782144D01*
X13927438Y28782144D02*
X13879819Y28877382D01*
X13879819Y28877382D02*
X13879819Y29067858D01*
X13879819Y29067858D02*
X13927438Y29163096D01*
X13927438Y29163096D02*
X14022676Y29258334D01*
X14022676Y29258334D02*
X14213152Y29305953D01*
X14213152Y29305953D02*
X14546485Y29305953D01*
X14546485Y29305953D02*
X14736961Y29258334D01*
X14736961Y29258334D02*
X14832200Y29163096D01*
X14832200Y29163096D02*
X14879819Y29067858D01*
X14879819Y29067858D02*
X14879819Y28877382D01*
X14879819Y30258334D02*
X14879819Y29686906D01*
X14879819Y29972620D02*
X13879819Y29972620D01*
X13879819Y29972620D02*
X14022676Y29877382D01*
X14022676Y29877382D02*
X14117914Y29782144D01*
X14117914Y29782144D02*
X14165533Y29686906D01*
X13975057Y30639287D02*
X13927438Y30686906D01*
X13927438Y30686906D02*
X13879819Y30782144D01*
X13879819Y30782144D02*
X13879819Y31020239D01*
X13879819Y31020239D02*
X13927438Y31115477D01*
X13927438Y31115477D02*
X13975057Y31163096D01*
X13975057Y31163096D02*
X14070295Y31210715D01*
X14070295Y31210715D02*
X14165533Y31210715D01*
X14165533Y31210715D02*
X14308390Y31163096D01*
X14308390Y31163096D02*
X14879819Y30591668D01*
X14879819Y30591668D02*
X14879819Y31210715D01*
D11*
X116595651Y61887287D02*
X116556603Y61848239D01*
X116556603Y61848239D02*
X116439461Y61809192D01*
X116439461Y61809192D02*
X116361365Y61809192D01*
X116361365Y61809192D02*
X116244222Y61848239D01*
X116244222Y61848239D02*
X116166127Y61926335D01*
X116166127Y61926335D02*
X116127080Y62004430D01*
X116127080Y62004430D02*
X116088032Y62160620D01*
X116088032Y62160620D02*
X116088032Y62277763D01*
X116088032Y62277763D02*
X116127080Y62433954D01*
X116127080Y62433954D02*
X116166127Y62512049D01*
X116166127Y62512049D02*
X116244222Y62590144D01*
X116244222Y62590144D02*
X116361365Y62629192D01*
X116361365Y62629192D02*
X116439461Y62629192D01*
X116439461Y62629192D02*
X116556603Y62590144D01*
X116556603Y62590144D02*
X116595651Y62551097D01*
X116986127Y61809192D02*
X117142318Y61809192D01*
X117142318Y61809192D02*
X117220413Y61848239D01*
X117220413Y61848239D02*
X117259461Y61887287D01*
X117259461Y61887287D02*
X117337556Y62004430D01*
X117337556Y62004430D02*
X117376603Y62160620D01*
X117376603Y62160620D02*
X117376603Y62473001D01*
X117376603Y62473001D02*
X117337556Y62551097D01*
X117337556Y62551097D02*
X117298508Y62590144D01*
X117298508Y62590144D02*
X117220413Y62629192D01*
X117220413Y62629192D02*
X117064222Y62629192D01*
X117064222Y62629192D02*
X116986127Y62590144D01*
X116986127Y62590144D02*
X116947080Y62551097D01*
X116947080Y62551097D02*
X116908032Y62473001D01*
X116908032Y62473001D02*
X116908032Y62277763D01*
X116908032Y62277763D02*
X116947080Y62199668D01*
X116947080Y62199668D02*
X116986127Y62160620D01*
X116986127Y62160620D02*
X117064222Y62121573D01*
X117064222Y62121573D02*
X117220413Y62121573D01*
X117220413Y62121573D02*
X117298508Y62160620D01*
X117298508Y62160620D02*
X117337556Y62199668D01*
X117337556Y62199668D02*
X117376603Y62277763D01*
X18163014Y49259908D02*
X18553490Y49533241D01*
X18163014Y49728479D02*
X18983014Y49728479D01*
X18983014Y49728479D02*
X18983014Y49416098D01*
X18983014Y49416098D02*
X18943966Y49338003D01*
X18943966Y49338003D02*
X18904919Y49298956D01*
X18904919Y49298956D02*
X18826823Y49259908D01*
X18826823Y49259908D02*
X18709681Y49259908D01*
X18709681Y49259908D02*
X18631585Y49298956D01*
X18631585Y49298956D02*
X18592538Y49338003D01*
X18592538Y49338003D02*
X18553490Y49416098D01*
X18553490Y49416098D02*
X18553490Y49728479D01*
X18163014Y48478956D02*
X18163014Y48947527D01*
X18163014Y48713241D02*
X18983014Y48713241D01*
X18983014Y48713241D02*
X18865871Y48791337D01*
X18865871Y48791337D02*
X18787776Y48869432D01*
X18787776Y48869432D02*
X18748728Y48947527D01*
X18631585Y48010385D02*
X18670633Y48088480D01*
X18670633Y48088480D02*
X18709681Y48127527D01*
X18709681Y48127527D02*
X18787776Y48166575D01*
X18787776Y48166575D02*
X18826823Y48166575D01*
X18826823Y48166575D02*
X18904919Y48127527D01*
X18904919Y48127527D02*
X18943966Y48088480D01*
X18943966Y48088480D02*
X18983014Y48010385D01*
X18983014Y48010385D02*
X18983014Y47854194D01*
X18983014Y47854194D02*
X18943966Y47776099D01*
X18943966Y47776099D02*
X18904919Y47737051D01*
X18904919Y47737051D02*
X18826823Y47698004D01*
X18826823Y47698004D02*
X18787776Y47698004D01*
X18787776Y47698004D02*
X18709681Y47737051D01*
X18709681Y47737051D02*
X18670633Y47776099D01*
X18670633Y47776099D02*
X18631585Y47854194D01*
X18631585Y47854194D02*
X18631585Y48010385D01*
X18631585Y48010385D02*
X18592538Y48088480D01*
X18592538Y48088480D02*
X18553490Y48127527D01*
X18553490Y48127527D02*
X18475395Y48166575D01*
X18475395Y48166575D02*
X18319204Y48166575D01*
X18319204Y48166575D02*
X18241109Y48127527D01*
X18241109Y48127527D02*
X18202062Y48088480D01*
X18202062Y48088480D02*
X18163014Y48010385D01*
X18163014Y48010385D02*
X18163014Y47854194D01*
X18163014Y47854194D02*
X18202062Y47776099D01*
X18202062Y47776099D02*
X18241109Y47737051D01*
X18241109Y47737051D02*
X18319204Y47698004D01*
X18319204Y47698004D02*
X18475395Y47698004D01*
X18475395Y47698004D02*
X18553490Y47737051D01*
X18553490Y47737051D02*
X18592538Y47776099D01*
X18592538Y47776099D02*
X18631585Y47854194D01*
X134136985Y50460093D02*
X133746509Y50186760D01*
X134136985Y49991522D02*
X133316985Y49991522D01*
X133316985Y49991522D02*
X133316985Y50303903D01*
X133316985Y50303903D02*
X133356033Y50381998D01*
X133356033Y50381998D02*
X133395080Y50421045D01*
X133395080Y50421045D02*
X133473176Y50460093D01*
X133473176Y50460093D02*
X133590318Y50460093D01*
X133590318Y50460093D02*
X133668414Y50421045D01*
X133668414Y50421045D02*
X133707461Y50381998D01*
X133707461Y50381998D02*
X133746509Y50303903D01*
X133746509Y50303903D02*
X133746509Y49991522D01*
X134136985Y51241045D02*
X134136985Y50772474D01*
X134136985Y51006760D02*
X133316985Y51006760D01*
X133316985Y51006760D02*
X133434128Y50928664D01*
X133434128Y50928664D02*
X133512223Y50850569D01*
X133512223Y50850569D02*
X133551271Y50772474D01*
X133590318Y51943902D02*
X134136985Y51943902D01*
X133277938Y51748664D02*
X133863652Y51553426D01*
X133863652Y51553426D02*
X133863652Y52061045D01*
X55349907Y30061986D02*
X55623240Y29671510D01*
X55818478Y30061986D02*
X55818478Y29241986D01*
X55818478Y29241986D02*
X55506097Y29241986D01*
X55506097Y29241986D02*
X55428002Y29281034D01*
X55428002Y29281034D02*
X55388955Y29320081D01*
X55388955Y29320081D02*
X55349907Y29398177D01*
X55349907Y29398177D02*
X55349907Y29515319D01*
X55349907Y29515319D02*
X55388955Y29593415D01*
X55388955Y29593415D02*
X55428002Y29632462D01*
X55428002Y29632462D02*
X55506097Y29671510D01*
X55506097Y29671510D02*
X55818478Y29671510D01*
X55037526Y29320081D02*
X54998478Y29281034D01*
X54998478Y29281034D02*
X54920383Y29241986D01*
X54920383Y29241986D02*
X54725145Y29241986D01*
X54725145Y29241986D02*
X54647050Y29281034D01*
X54647050Y29281034D02*
X54608002Y29320081D01*
X54608002Y29320081D02*
X54568955Y29398177D01*
X54568955Y29398177D02*
X54568955Y29476272D01*
X54568955Y29476272D02*
X54608002Y29593415D01*
X54608002Y29593415D02*
X55076574Y30061986D01*
X55076574Y30061986D02*
X54568955Y30061986D01*
X113667533Y77127418D02*
X113628485Y77088370D01*
X113628485Y77088370D02*
X113511342Y77049323D01*
X113511342Y77049323D02*
X113433247Y77049323D01*
X113433247Y77049323D02*
X113316104Y77088370D01*
X113316104Y77088370D02*
X113238009Y77166466D01*
X113238009Y77166466D02*
X113198961Y77244561D01*
X113198961Y77244561D02*
X113159913Y77400752D01*
X113159913Y77400752D02*
X113159913Y77517895D01*
X113159913Y77517895D02*
X113198961Y77674085D01*
X113198961Y77674085D02*
X113238009Y77752181D01*
X113238009Y77752181D02*
X113316104Y77830276D01*
X113316104Y77830276D02*
X113433247Y77869324D01*
X113433247Y77869324D02*
X113511342Y77869324D01*
X113511342Y77869324D02*
X113628485Y77830276D01*
X113628485Y77830276D02*
X113667533Y77791228D01*
X114448486Y77049323D02*
X113979914Y77049323D01*
X114214200Y77049323D02*
X114214200Y77869324D01*
X114214200Y77869324D02*
X114136105Y77752181D01*
X114136105Y77752181D02*
X114058010Y77674085D01*
X114058010Y77674085D02*
X113979914Y77635038D01*
X114721820Y77869324D02*
X115229439Y77869324D01*
X115229439Y77869324D02*
X114956106Y77556942D01*
X114956106Y77556942D02*
X115073249Y77556942D01*
X115073249Y77556942D02*
X115151344Y77517895D01*
X115151344Y77517895D02*
X115190392Y77478847D01*
X115190392Y77478847D02*
X115229439Y77400752D01*
X115229439Y77400752D02*
X115229439Y77205513D01*
X115229439Y77205513D02*
X115190392Y77127418D01*
X115190392Y77127418D02*
X115151344Y77088370D01*
X115151344Y77088370D02*
X115073249Y77049323D01*
X115073249Y77049323D02*
X114838963Y77049323D01*
X114838963Y77049323D02*
X114760867Y77088370D01*
X114760867Y77088370D02*
X114721820Y77127418D01*
X48575651Y36509192D02*
X48302318Y36899668D01*
X48107080Y36509192D02*
X48107080Y37329192D01*
X48107080Y37329192D02*
X48419461Y37329192D01*
X48419461Y37329192D02*
X48497556Y37290144D01*
X48497556Y37290144D02*
X48536603Y37251097D01*
X48536603Y37251097D02*
X48575651Y37173001D01*
X48575651Y37173001D02*
X48575651Y37055859D01*
X48575651Y37055859D02*
X48536603Y36977763D01*
X48536603Y36977763D02*
X48497556Y36938716D01*
X48497556Y36938716D02*
X48419461Y36899668D01*
X48419461Y36899668D02*
X48107080Y36899668D01*
X49356603Y36509192D02*
X48888032Y36509192D01*
X49122318Y36509192D02*
X49122318Y37329192D01*
X49122318Y37329192D02*
X49044222Y37212049D01*
X49044222Y37212049D02*
X48966127Y37133954D01*
X48966127Y37133954D02*
X48888032Y37094906D01*
X49864222Y37329192D02*
X49942317Y37329192D01*
X49942317Y37329192D02*
X50020413Y37290144D01*
X50020413Y37290144D02*
X50059460Y37251097D01*
X50059460Y37251097D02*
X50098508Y37173001D01*
X50098508Y37173001D02*
X50137555Y37016811D01*
X50137555Y37016811D02*
X50137555Y36821573D01*
X50137555Y36821573D02*
X50098508Y36665382D01*
X50098508Y36665382D02*
X50059460Y36587287D01*
X50059460Y36587287D02*
X50020413Y36548239D01*
X50020413Y36548239D02*
X49942317Y36509192D01*
X49942317Y36509192D02*
X49864222Y36509192D01*
X49864222Y36509192D02*
X49786127Y36548239D01*
X49786127Y36548239D02*
X49747079Y36587287D01*
X49747079Y36587287D02*
X49708032Y36665382D01*
X49708032Y36665382D02*
X49668984Y36821573D01*
X49668984Y36821573D02*
X49668984Y37016811D01*
X49668984Y37016811D02*
X49708032Y37173001D01*
X49708032Y37173001D02*
X49747079Y37251097D01*
X49747079Y37251097D02*
X49786127Y37290144D01*
X49786127Y37290144D02*
X49864222Y37329192D01*
X117040092Y38163015D02*
X116766759Y38553491D01*
X116571521Y38163015D02*
X116571521Y38983015D01*
X116571521Y38983015D02*
X116883902Y38983015D01*
X116883902Y38983015D02*
X116961997Y38943967D01*
X116961997Y38943967D02*
X117001044Y38904920D01*
X117001044Y38904920D02*
X117040092Y38826824D01*
X117040092Y38826824D02*
X117040092Y38709682D01*
X117040092Y38709682D02*
X117001044Y38631586D01*
X117001044Y38631586D02*
X116961997Y38592539D01*
X116961997Y38592539D02*
X116883902Y38553491D01*
X116883902Y38553491D02*
X116571521Y38553491D01*
X117430568Y38163015D02*
X117586759Y38163015D01*
X117586759Y38163015D02*
X117664854Y38202062D01*
X117664854Y38202062D02*
X117703902Y38241110D01*
X117703902Y38241110D02*
X117781997Y38358253D01*
X117781997Y38358253D02*
X117821044Y38514443D01*
X117821044Y38514443D02*
X117821044Y38826824D01*
X117821044Y38826824D02*
X117781997Y38904920D01*
X117781997Y38904920D02*
X117742949Y38943967D01*
X117742949Y38943967D02*
X117664854Y38983015D01*
X117664854Y38983015D02*
X117508663Y38983015D01*
X117508663Y38983015D02*
X117430568Y38943967D01*
X117430568Y38943967D02*
X117391521Y38904920D01*
X117391521Y38904920D02*
X117352473Y38826824D01*
X117352473Y38826824D02*
X117352473Y38631586D01*
X117352473Y38631586D02*
X117391521Y38553491D01*
X117391521Y38553491D02*
X117430568Y38514443D01*
X117430568Y38514443D02*
X117508663Y38475396D01*
X117508663Y38475396D02*
X117664854Y38475396D01*
X117664854Y38475396D02*
X117742949Y38514443D01*
X117742949Y38514443D02*
X117781997Y38553491D01*
X117781997Y38553491D02*
X117821044Y38631586D01*
X107244348Y56162713D02*
X107283396Y56201760D01*
X107283396Y56201760D02*
X107400539Y56240808D01*
X107400539Y56240808D02*
X107478634Y56240808D01*
X107478634Y56240808D02*
X107595777Y56201760D01*
X107595777Y56201760D02*
X107673873Y56123665D01*
X107673873Y56123665D02*
X107712920Y56045570D01*
X107712920Y56045570D02*
X107751968Y55889379D01*
X107751968Y55889379D02*
X107751968Y55772236D01*
X107751968Y55772236D02*
X107712920Y55616045D01*
X107712920Y55616045D02*
X107673873Y55537950D01*
X107673873Y55537950D02*
X107595777Y55459855D01*
X107595777Y55459855D02*
X107478634Y55420807D01*
X107478634Y55420807D02*
X107400539Y55420807D01*
X107400539Y55420807D02*
X107283396Y55459855D01*
X107283396Y55459855D02*
X107244348Y55498902D01*
X106463395Y56240808D02*
X106931967Y56240808D01*
X106697681Y56240808D02*
X106697681Y55420807D01*
X106697681Y55420807D02*
X106775776Y55537950D01*
X106775776Y55537950D02*
X106853872Y55616045D01*
X106853872Y55616045D02*
X106931967Y55655093D01*
X106151014Y55498902D02*
X106111966Y55459855D01*
X106111966Y55459855D02*
X106033871Y55420807D01*
X106033871Y55420807D02*
X105838633Y55420807D01*
X105838633Y55420807D02*
X105760537Y55459855D01*
X105760537Y55459855D02*
X105721490Y55498902D01*
X105721490Y55498902D02*
X105682442Y55576998D01*
X105682442Y55576998D02*
X105682442Y55655093D01*
X105682442Y55655093D02*
X105721490Y55772236D01*
X105721490Y55772236D02*
X106190062Y56240808D01*
X106190062Y56240808D02*
X105682442Y56240808D01*
X129744762Y65529492D02*
X129744762Y66349492D01*
X129744762Y66349492D02*
X129940000Y66349492D01*
X129940000Y66349492D02*
X130057143Y66310444D01*
X130057143Y66310444D02*
X130135238Y66232349D01*
X130135238Y66232349D02*
X130174285Y66154254D01*
X130174285Y66154254D02*
X130213333Y65998063D01*
X130213333Y65998063D02*
X130213333Y65880920D01*
X130213333Y65880920D02*
X130174285Y65724730D01*
X130174285Y65724730D02*
X130135238Y65646635D01*
X130135238Y65646635D02*
X130057143Y65568539D01*
X130057143Y65568539D02*
X129940000Y65529492D01*
X129940000Y65529492D02*
X129744762Y65529492D01*
X130486666Y66349492D02*
X130994285Y66349492D01*
X130994285Y66349492D02*
X130720952Y66037111D01*
X130720952Y66037111D02*
X130838095Y66037111D01*
X130838095Y66037111D02*
X130916190Y65998063D01*
X130916190Y65998063D02*
X130955238Y65959016D01*
X130955238Y65959016D02*
X130994285Y65880920D01*
X130994285Y65880920D02*
X130994285Y65685682D01*
X130994285Y65685682D02*
X130955238Y65607587D01*
X130955238Y65607587D02*
X130916190Y65568539D01*
X130916190Y65568539D02*
X130838095Y65529492D01*
X130838095Y65529492D02*
X130603809Y65529492D01*
X130603809Y65529492D02*
X130525714Y65568539D01*
X130525714Y65568539D02*
X130486666Y65607587D01*
D10*
X138325057Y36024762D02*
X138277438Y35929524D01*
X138277438Y35929524D02*
X138182200Y35834286D01*
X138182200Y35834286D02*
X138039342Y35691429D01*
X138039342Y35691429D02*
X137991723Y35596191D01*
X137991723Y35596191D02*
X137991723Y35500953D01*
X138229819Y35548572D02*
X138182200Y35453334D01*
X138182200Y35453334D02*
X138086961Y35358096D01*
X138086961Y35358096D02*
X137896485Y35310477D01*
X137896485Y35310477D02*
X137563152Y35310477D01*
X137563152Y35310477D02*
X137372676Y35358096D01*
X137372676Y35358096D02*
X137277438Y35453334D01*
X137277438Y35453334D02*
X137229819Y35548572D01*
X137229819Y35548572D02*
X137229819Y35739048D01*
X137229819Y35739048D02*
X137277438Y35834286D01*
X137277438Y35834286D02*
X137372676Y35929524D01*
X137372676Y35929524D02*
X137563152Y35977143D01*
X137563152Y35977143D02*
X137896485Y35977143D01*
X137896485Y35977143D02*
X138086961Y35929524D01*
X138086961Y35929524D02*
X138182200Y35834286D01*
X138182200Y35834286D02*
X138229819Y35739048D01*
X138229819Y35739048D02*
X138229819Y35548572D01*
X137658390Y36548572D02*
X137610771Y36453334D01*
X137610771Y36453334D02*
X137563152Y36405715D01*
X137563152Y36405715D02*
X137467914Y36358096D01*
X137467914Y36358096D02*
X137420295Y36358096D01*
X137420295Y36358096D02*
X137325057Y36405715D01*
X137325057Y36405715D02*
X137277438Y36453334D01*
X137277438Y36453334D02*
X137229819Y36548572D01*
X137229819Y36548572D02*
X137229819Y36739048D01*
X137229819Y36739048D02*
X137277438Y36834286D01*
X137277438Y36834286D02*
X137325057Y36881905D01*
X137325057Y36881905D02*
X137420295Y36929524D01*
X137420295Y36929524D02*
X137467914Y36929524D01*
X137467914Y36929524D02*
X137563152Y36881905D01*
X137563152Y36881905D02*
X137610771Y36834286D01*
X137610771Y36834286D02*
X137658390Y36739048D01*
X137658390Y36739048D02*
X137658390Y36548572D01*
X137658390Y36548572D02*
X137706009Y36453334D01*
X137706009Y36453334D02*
X137753628Y36405715D01*
X137753628Y36405715D02*
X137848866Y36358096D01*
X137848866Y36358096D02*
X138039342Y36358096D01*
X138039342Y36358096D02*
X138134580Y36405715D01*
X138134580Y36405715D02*
X138182200Y36453334D01*
X138182200Y36453334D02*
X138229819Y36548572D01*
X138229819Y36548572D02*
X138229819Y36739048D01*
X138229819Y36739048D02*
X138182200Y36834286D01*
X138182200Y36834286D02*
X138134580Y36881905D01*
X138134580Y36881905D02*
X138039342Y36929524D01*
X138039342Y36929524D02*
X137848866Y36929524D01*
X137848866Y36929524D02*
X137753628Y36881905D01*
X137753628Y36881905D02*
X137706009Y36834286D01*
X137706009Y36834286D02*
X137658390Y36739048D01*
D11*
X74160994Y79531875D02*
X74160994Y80331876D01*
X74160994Y80331876D02*
X74351470Y80331876D01*
X74351470Y80331876D02*
X74465756Y80293781D01*
X74465756Y80293781D02*
X74541947Y80217590D01*
X74541947Y80217590D02*
X74580042Y80141400D01*
X74580042Y80141400D02*
X74618137Y79989019D01*
X74618137Y79989019D02*
X74618137Y79874733D01*
X74618137Y79874733D02*
X74580042Y79722352D01*
X74580042Y79722352D02*
X74541947Y79646161D01*
X74541947Y79646161D02*
X74465756Y79569970D01*
X74465756Y79569970D02*
X74351470Y79531875D01*
X74351470Y79531875D02*
X74160994Y79531875D01*
X75075281Y79989019D02*
X74999090Y80027114D01*
X74999090Y80027114D02*
X74960995Y80065209D01*
X74960995Y80065209D02*
X74922900Y80141400D01*
X74922900Y80141400D02*
X74922900Y80179495D01*
X74922900Y80179495D02*
X74960995Y80255686D01*
X74960995Y80255686D02*
X74999090Y80293781D01*
X74999090Y80293781D02*
X75075281Y80331876D01*
X75075281Y80331876D02*
X75227662Y80331876D01*
X75227662Y80331876D02*
X75303853Y80293781D01*
X75303853Y80293781D02*
X75341948Y80255686D01*
X75341948Y80255686D02*
X75380043Y80179495D01*
X75380043Y80179495D02*
X75380043Y80141400D01*
X75380043Y80141400D02*
X75341948Y80065209D01*
X75341948Y80065209D02*
X75303853Y80027114D01*
X75303853Y80027114D02*
X75227662Y79989019D01*
X75227662Y79989019D02*
X75075281Y79989019D01*
X75075281Y79989019D02*
X74999090Y79950923D01*
X74999090Y79950923D02*
X74960995Y79912828D01*
X74960995Y79912828D02*
X74922900Y79836637D01*
X74922900Y79836637D02*
X74922900Y79684256D01*
X74922900Y79684256D02*
X74960995Y79608066D01*
X74960995Y79608066D02*
X74999090Y79569970D01*
X74999090Y79569970D02*
X75075281Y79531875D01*
X75075281Y79531875D02*
X75227662Y79531875D01*
X75227662Y79531875D02*
X75303853Y79569970D01*
X75303853Y79569970D02*
X75341948Y79608066D01*
X75341948Y79608066D02*
X75380043Y79684256D01*
X75380043Y79684256D02*
X75380043Y79836637D01*
X75380043Y79836637D02*
X75341948Y79912828D01*
X75341948Y79912828D02*
X75303853Y79950923D01*
X75303853Y79950923D02*
X75227662Y79989019D01*
X107444348Y58362714D02*
X107483396Y58401761D01*
X107483396Y58401761D02*
X107600538Y58440809D01*
X107600538Y58440809D02*
X107678634Y58440809D01*
X107678634Y58440809D02*
X107795777Y58401761D01*
X107795777Y58401761D02*
X107873872Y58323666D01*
X107873872Y58323666D02*
X107912919Y58245571D01*
X107912919Y58245571D02*
X107951967Y58089381D01*
X107951967Y58089381D02*
X107951967Y57972238D01*
X107951967Y57972238D02*
X107912919Y57816047D01*
X107912919Y57816047D02*
X107873872Y57737952D01*
X107873872Y57737952D02*
X107795777Y57659857D01*
X107795777Y57659857D02*
X107678634Y57620809D01*
X107678634Y57620809D02*
X107600538Y57620809D01*
X107600538Y57620809D02*
X107483396Y57659857D01*
X107483396Y57659857D02*
X107444348Y57698904D01*
X106741491Y57620809D02*
X106897681Y57620809D01*
X106897681Y57620809D02*
X106975777Y57659857D01*
X106975777Y57659857D02*
X107014824Y57698904D01*
X107014824Y57698904D02*
X107092919Y57816047D01*
X107092919Y57816047D02*
X107131967Y57972238D01*
X107131967Y57972238D02*
X107131967Y58284619D01*
X107131967Y58284619D02*
X107092919Y58362714D01*
X107092919Y58362714D02*
X107053872Y58401761D01*
X107053872Y58401761D02*
X106975777Y58440809D01*
X106975777Y58440809D02*
X106819586Y58440809D01*
X106819586Y58440809D02*
X106741491Y58401761D01*
X106741491Y58401761D02*
X106702443Y58362714D01*
X106702443Y58362714D02*
X106663396Y58284619D01*
X106663396Y58284619D02*
X106663396Y58089381D01*
X106663396Y58089381D02*
X106702443Y58011285D01*
X106702443Y58011285D02*
X106741491Y57972238D01*
X106741491Y57972238D02*
X106819586Y57933190D01*
X106819586Y57933190D02*
X106975777Y57933190D01*
X106975777Y57933190D02*
X107053872Y57972238D01*
X107053872Y57972238D02*
X107092919Y58011285D01*
X107092919Y58011285D02*
X107131967Y58089381D01*
X116595651Y57487287D02*
X116556603Y57448239D01*
X116556603Y57448239D02*
X116439461Y57409192D01*
X116439461Y57409192D02*
X116361365Y57409192D01*
X116361365Y57409192D02*
X116244222Y57448239D01*
X116244222Y57448239D02*
X116166127Y57526335D01*
X116166127Y57526335D02*
X116127080Y57604430D01*
X116127080Y57604430D02*
X116088032Y57760620D01*
X116088032Y57760620D02*
X116088032Y57877763D01*
X116088032Y57877763D02*
X116127080Y58033954D01*
X116127080Y58033954D02*
X116166127Y58112049D01*
X116166127Y58112049D02*
X116244222Y58190144D01*
X116244222Y58190144D02*
X116361365Y58229192D01*
X116361365Y58229192D02*
X116439461Y58229192D01*
X116439461Y58229192D02*
X116556603Y58190144D01*
X116556603Y58190144D02*
X116595651Y58151097D01*
X116868984Y58229192D02*
X117415651Y58229192D01*
X117415651Y58229192D02*
X117064222Y57409192D01*
X71959907Y80286986D02*
X72233240Y79896510D01*
X72428478Y80286986D02*
X72428478Y79466986D01*
X72428478Y79466986D02*
X72116097Y79466986D01*
X72116097Y79466986D02*
X72038002Y79506034D01*
X72038002Y79506034D02*
X71998955Y79545081D01*
X71998955Y79545081D02*
X71959907Y79623177D01*
X71959907Y79623177D02*
X71959907Y79740319D01*
X71959907Y79740319D02*
X71998955Y79818415D01*
X71998955Y79818415D02*
X72038002Y79857462D01*
X72038002Y79857462D02*
X72116097Y79896510D01*
X72116097Y79896510D02*
X72428478Y79896510D01*
X71686574Y79466986D02*
X71178955Y79466986D01*
X71178955Y79466986D02*
X71452288Y79779367D01*
X71452288Y79779367D02*
X71335145Y79779367D01*
X71335145Y79779367D02*
X71257050Y79818415D01*
X71257050Y79818415D02*
X71218002Y79857462D01*
X71218002Y79857462D02*
X71178955Y79935558D01*
X71178955Y79935558D02*
X71178955Y80130796D01*
X71178955Y80130796D02*
X71218002Y80208891D01*
X71218002Y80208891D02*
X71257050Y80247938D01*
X71257050Y80247938D02*
X71335145Y80286986D01*
X71335145Y80286986D02*
X71569431Y80286986D01*
X71569431Y80286986D02*
X71647526Y80247938D01*
X71647526Y80247938D02*
X71686574Y80208891D01*
X70398003Y80286986D02*
X70866574Y80286986D01*
X70632288Y80286986D02*
X70632288Y79466986D01*
X70632288Y79466986D02*
X70710384Y79584129D01*
X70710384Y79584129D02*
X70788479Y79662224D01*
X70788479Y79662224D02*
X70866574Y79701272D01*
D10*
X14950057Y51828572D02*
X14902438Y51733334D01*
X14902438Y51733334D02*
X14807200Y51638096D01*
X14807200Y51638096D02*
X14664342Y51495239D01*
X14664342Y51495239D02*
X14616723Y51400001D01*
X14616723Y51400001D02*
X14616723Y51304763D01*
X14854819Y51352382D02*
X14807200Y51257144D01*
X14807200Y51257144D02*
X14711961Y51161906D01*
X14711961Y51161906D02*
X14521485Y51114287D01*
X14521485Y51114287D02*
X14188152Y51114287D01*
X14188152Y51114287D02*
X13997676Y51161906D01*
X13997676Y51161906D02*
X13902438Y51257144D01*
X13902438Y51257144D02*
X13854819Y51352382D01*
X13854819Y51352382D02*
X13854819Y51542858D01*
X13854819Y51542858D02*
X13902438Y51638096D01*
X13902438Y51638096D02*
X13997676Y51733334D01*
X13997676Y51733334D02*
X14188152Y51780953D01*
X14188152Y51780953D02*
X14521485Y51780953D01*
X14521485Y51780953D02*
X14711961Y51733334D01*
X14711961Y51733334D02*
X14807200Y51638096D01*
X14807200Y51638096D02*
X14854819Y51542858D01*
X14854819Y51542858D02*
X14854819Y51352382D01*
X14854819Y52733334D02*
X14854819Y52161906D01*
X14854819Y52447620D02*
X13854819Y52447620D01*
X13854819Y52447620D02*
X13997676Y52352382D01*
X13997676Y52352382D02*
X14092914Y52257144D01*
X14092914Y52257144D02*
X14140533Y52161906D01*
X13854819Y53352382D02*
X13854819Y53447620D01*
X13854819Y53447620D02*
X13902438Y53542858D01*
X13902438Y53542858D02*
X13950057Y53590477D01*
X13950057Y53590477D02*
X14045295Y53638096D01*
X14045295Y53638096D02*
X14235771Y53685715D01*
X14235771Y53685715D02*
X14473866Y53685715D01*
X14473866Y53685715D02*
X14664342Y53638096D01*
X14664342Y53638096D02*
X14759580Y53590477D01*
X14759580Y53590477D02*
X14807200Y53542858D01*
X14807200Y53542858D02*
X14854819Y53447620D01*
X14854819Y53447620D02*
X14854819Y53352382D01*
X14854819Y53352382D02*
X14807200Y53257144D01*
X14807200Y53257144D02*
X14759580Y53209525D01*
X14759580Y53209525D02*
X14664342Y53161906D01*
X14664342Y53161906D02*
X14473866Y53114287D01*
X14473866Y53114287D02*
X14235771Y53114287D01*
X14235771Y53114287D02*
X14045295Y53161906D01*
X14045295Y53161906D02*
X13950057Y53209525D01*
X13950057Y53209525D02*
X13902438Y53257144D01*
X13902438Y53257144D02*
X13854819Y53352382D01*
X88050057Y31428572D02*
X88002438Y31333334D01*
X88002438Y31333334D02*
X87907200Y31238096D01*
X87907200Y31238096D02*
X87764342Y31095239D01*
X87764342Y31095239D02*
X87716723Y31000001D01*
X87716723Y31000001D02*
X87716723Y30904763D01*
X87954819Y30952382D02*
X87907200Y30857144D01*
X87907200Y30857144D02*
X87811961Y30761906D01*
X87811961Y30761906D02*
X87621485Y30714287D01*
X87621485Y30714287D02*
X87288152Y30714287D01*
X87288152Y30714287D02*
X87097676Y30761906D01*
X87097676Y30761906D02*
X87002438Y30857144D01*
X87002438Y30857144D02*
X86954819Y30952382D01*
X86954819Y30952382D02*
X86954819Y31142858D01*
X86954819Y31142858D02*
X87002438Y31238096D01*
X87002438Y31238096D02*
X87097676Y31333334D01*
X87097676Y31333334D02*
X87288152Y31380953D01*
X87288152Y31380953D02*
X87621485Y31380953D01*
X87621485Y31380953D02*
X87811961Y31333334D01*
X87811961Y31333334D02*
X87907200Y31238096D01*
X87907200Y31238096D02*
X87954819Y31142858D01*
X87954819Y31142858D02*
X87954819Y30952382D01*
X87954819Y32333334D02*
X87954819Y31761906D01*
X87954819Y32047620D02*
X86954819Y32047620D01*
X86954819Y32047620D02*
X87097676Y31952382D01*
X87097676Y31952382D02*
X87192914Y31857144D01*
X87192914Y31857144D02*
X87240533Y31761906D01*
X86954819Y32666668D02*
X86954819Y33285715D01*
X86954819Y33285715D02*
X87335771Y32952382D01*
X87335771Y32952382D02*
X87335771Y33095239D01*
X87335771Y33095239D02*
X87383390Y33190477D01*
X87383390Y33190477D02*
X87431009Y33238096D01*
X87431009Y33238096D02*
X87526247Y33285715D01*
X87526247Y33285715D02*
X87764342Y33285715D01*
X87764342Y33285715D02*
X87859580Y33238096D01*
X87859580Y33238096D02*
X87907200Y33190477D01*
X87907200Y33190477D02*
X87954819Y33095239D01*
X87954819Y33095239D02*
X87954819Y32809525D01*
X87954819Y32809525D02*
X87907200Y32714287D01*
X87907200Y32714287D02*
X87859580Y32666668D01*
D11*
X107444348Y62962714D02*
X107483396Y63001761D01*
X107483396Y63001761D02*
X107600538Y63040809D01*
X107600538Y63040809D02*
X107678634Y63040809D01*
X107678634Y63040809D02*
X107795777Y63001761D01*
X107795777Y63001761D02*
X107873872Y62923666D01*
X107873872Y62923666D02*
X107912919Y62845571D01*
X107912919Y62845571D02*
X107951967Y62689381D01*
X107951967Y62689381D02*
X107951967Y62572238D01*
X107951967Y62572238D02*
X107912919Y62416047D01*
X107912919Y62416047D02*
X107873872Y62337952D01*
X107873872Y62337952D02*
X107795777Y62259857D01*
X107795777Y62259857D02*
X107678634Y62220809D01*
X107678634Y62220809D02*
X107600538Y62220809D01*
X107600538Y62220809D02*
X107483396Y62259857D01*
X107483396Y62259857D02*
X107444348Y62298904D01*
X106741491Y62494142D02*
X106741491Y63040809D01*
X106936729Y62181761D02*
X107131967Y62767476D01*
X107131967Y62767476D02*
X106624348Y62767476D01*
X109640092Y38163015D02*
X109366759Y38553491D01*
X109171521Y38163015D02*
X109171521Y38983015D01*
X109171521Y38983015D02*
X109483902Y38983015D01*
X109483902Y38983015D02*
X109561997Y38943967D01*
X109561997Y38943967D02*
X109601044Y38904920D01*
X109601044Y38904920D02*
X109640092Y38826824D01*
X109640092Y38826824D02*
X109640092Y38709682D01*
X109640092Y38709682D02*
X109601044Y38631586D01*
X109601044Y38631586D02*
X109561997Y38592539D01*
X109561997Y38592539D02*
X109483902Y38553491D01*
X109483902Y38553491D02*
X109171521Y38553491D01*
X110421044Y38163015D02*
X109952473Y38163015D01*
X110186759Y38163015D02*
X110186759Y38983015D01*
X110186759Y38983015D02*
X110108663Y38865872D01*
X110108663Y38865872D02*
X110030568Y38787777D01*
X110030568Y38787777D02*
X109952473Y38748729D01*
X111201996Y38163015D02*
X110733425Y38163015D01*
X110967711Y38163015D02*
X110967711Y38983015D01*
X110967711Y38983015D02*
X110889615Y38865872D01*
X110889615Y38865872D02*
X110811520Y38787777D01*
X110811520Y38787777D02*
X110733425Y38748729D01*
X124440092Y38163015D02*
X124166759Y38553491D01*
X123971521Y38163015D02*
X123971521Y38983015D01*
X123971521Y38983015D02*
X124283902Y38983015D01*
X124283902Y38983015D02*
X124361997Y38943967D01*
X124361997Y38943967D02*
X124401044Y38904920D01*
X124401044Y38904920D02*
X124440092Y38826824D01*
X124440092Y38826824D02*
X124440092Y38709682D01*
X124440092Y38709682D02*
X124401044Y38631586D01*
X124401044Y38631586D02*
X124361997Y38592539D01*
X124361997Y38592539D02*
X124283902Y38553491D01*
X124283902Y38553491D02*
X123971521Y38553491D01*
X124713425Y38983015D02*
X125260092Y38983015D01*
X125260092Y38983015D02*
X124908663Y38163015D01*
X64540092Y25163015D02*
X64266759Y25553491D01*
X64071521Y25163015D02*
X64071521Y25983015D01*
X64071521Y25983015D02*
X64383902Y25983015D01*
X64383902Y25983015D02*
X64461997Y25943967D01*
X64461997Y25943967D02*
X64501044Y25904920D01*
X64501044Y25904920D02*
X64540092Y25826824D01*
X64540092Y25826824D02*
X64540092Y25709682D01*
X64540092Y25709682D02*
X64501044Y25631586D01*
X64501044Y25631586D02*
X64461997Y25592539D01*
X64461997Y25592539D02*
X64383902Y25553491D01*
X64383902Y25553491D02*
X64071521Y25553491D01*
X64852473Y25904920D02*
X64891521Y25943967D01*
X64891521Y25943967D02*
X64969616Y25983015D01*
X64969616Y25983015D02*
X65164854Y25983015D01*
X65164854Y25983015D02*
X65242949Y25943967D01*
X65242949Y25943967D02*
X65281997Y25904920D01*
X65281997Y25904920D02*
X65321044Y25826824D01*
X65321044Y25826824D02*
X65321044Y25748729D01*
X65321044Y25748729D02*
X65281997Y25631586D01*
X65281997Y25631586D02*
X64813425Y25163015D01*
X64813425Y25163015D02*
X65321044Y25163015D01*
X65789615Y25631586D02*
X65711520Y25670634D01*
X65711520Y25670634D02*
X65672473Y25709682D01*
X65672473Y25709682D02*
X65633425Y25787777D01*
X65633425Y25787777D02*
X65633425Y25826824D01*
X65633425Y25826824D02*
X65672473Y25904920D01*
X65672473Y25904920D02*
X65711520Y25943967D01*
X65711520Y25943967D02*
X65789615Y25983015D01*
X65789615Y25983015D02*
X65945806Y25983015D01*
X65945806Y25983015D02*
X66023901Y25943967D01*
X66023901Y25943967D02*
X66062949Y25904920D01*
X66062949Y25904920D02*
X66101996Y25826824D01*
X66101996Y25826824D02*
X66101996Y25787777D01*
X66101996Y25787777D02*
X66062949Y25709682D01*
X66062949Y25709682D02*
X66023901Y25670634D01*
X66023901Y25670634D02*
X65945806Y25631586D01*
X65945806Y25631586D02*
X65789615Y25631586D01*
X65789615Y25631586D02*
X65711520Y25592539D01*
X65711520Y25592539D02*
X65672473Y25553491D01*
X65672473Y25553491D02*
X65633425Y25475396D01*
X65633425Y25475396D02*
X65633425Y25319205D01*
X65633425Y25319205D02*
X65672473Y25241110D01*
X65672473Y25241110D02*
X65711520Y25202062D01*
X65711520Y25202062D02*
X65789615Y25163015D01*
X65789615Y25163015D02*
X65945806Y25163015D01*
X65945806Y25163015D02*
X66023901Y25202062D01*
X66023901Y25202062D02*
X66062949Y25241110D01*
X66062949Y25241110D02*
X66101996Y25319205D01*
X66101996Y25319205D02*
X66101996Y25475396D01*
X66101996Y25475396D02*
X66062949Y25553491D01*
X66062949Y25553491D02*
X66023901Y25592539D01*
X66023901Y25592539D02*
X65945806Y25631586D01*
X103370508Y24444763D02*
X102550508Y24444763D01*
X102550508Y24444763D02*
X102550508Y24640001D01*
X102550508Y24640001D02*
X102589556Y24757144D01*
X102589556Y24757144D02*
X102667651Y24835239D01*
X102667651Y24835239D02*
X102745746Y24874286D01*
X102745746Y24874286D02*
X102901937Y24913334D01*
X102901937Y24913334D02*
X103019080Y24913334D01*
X103019080Y24913334D02*
X103175270Y24874286D01*
X103175270Y24874286D02*
X103253365Y24835239D01*
X103253365Y24835239D02*
X103331461Y24757144D01*
X103331461Y24757144D02*
X103370508Y24640001D01*
X103370508Y24640001D02*
X103370508Y24444763D01*
X102628603Y25225715D02*
X102589556Y25264763D01*
X102589556Y25264763D02*
X102550508Y25342858D01*
X102550508Y25342858D02*
X102550508Y25538096D01*
X102550508Y25538096D02*
X102589556Y25616191D01*
X102589556Y25616191D02*
X102628603Y25655239D01*
X102628603Y25655239D02*
X102706699Y25694286D01*
X102706699Y25694286D02*
X102784794Y25694286D01*
X102784794Y25694286D02*
X102901937Y25655239D01*
X102901937Y25655239D02*
X103370508Y25186667D01*
X103370508Y25186667D02*
X103370508Y25694286D01*
X129513014Y69959908D02*
X129903490Y70233241D01*
X129513014Y70428479D02*
X130333014Y70428479D01*
X130333014Y70428479D02*
X130333014Y70116098D01*
X130333014Y70116098D02*
X130293966Y70038003D01*
X130293966Y70038003D02*
X130254919Y69998956D01*
X130254919Y69998956D02*
X130176823Y69959908D01*
X130176823Y69959908D02*
X130059681Y69959908D01*
X130059681Y69959908D02*
X129981585Y69998956D01*
X129981585Y69998956D02*
X129942538Y70038003D01*
X129942538Y70038003D02*
X129903490Y70116098D01*
X129903490Y70116098D02*
X129903490Y70428479D01*
X130254919Y69647527D02*
X130293966Y69608479D01*
X130293966Y69608479D02*
X130333014Y69530384D01*
X130333014Y69530384D02*
X130333014Y69335146D01*
X130333014Y69335146D02*
X130293966Y69257051D01*
X130293966Y69257051D02*
X130254919Y69218003D01*
X130254919Y69218003D02*
X130176823Y69178956D01*
X130176823Y69178956D02*
X130098728Y69178956D01*
X130098728Y69178956D02*
X129981585Y69218003D01*
X129981585Y69218003D02*
X129513014Y69686575D01*
X129513014Y69686575D02*
X129513014Y69178956D01*
X130333014Y68905623D02*
X130333014Y68358956D01*
X130333014Y68358956D02*
X129513014Y68710385D01*
D10*
X31994293Y44191542D02*
X31194293Y44191542D01*
X31194293Y44191542D02*
X31765721Y44391542D01*
X31765721Y44391542D02*
X31194293Y44591542D01*
X31194293Y44591542D02*
X31994293Y44591542D01*
X31194293Y44820113D02*
X31194293Y45191541D01*
X31194293Y45191541D02*
X31499055Y44991541D01*
X31499055Y44991541D02*
X31499055Y45077256D01*
X31499055Y45077256D02*
X31537150Y45134398D01*
X31537150Y45134398D02*
X31575245Y45162970D01*
X31575245Y45162970D02*
X31651436Y45191541D01*
X31651436Y45191541D02*
X31841912Y45191541D01*
X31841912Y45191541D02*
X31918102Y45162970D01*
X31918102Y45162970D02*
X31956198Y45134398D01*
X31956198Y45134398D02*
X31994293Y45077256D01*
X31994293Y45077256D02*
X31994293Y44905827D01*
X31994293Y44905827D02*
X31956198Y44848684D01*
X31956198Y44848684D02*
X31918102Y44820113D01*
D11*
X59140092Y24963015D02*
X58866759Y25353491D01*
X58671521Y24963015D02*
X58671521Y25783015D01*
X58671521Y25783015D02*
X58983902Y25783015D01*
X58983902Y25783015D02*
X59061997Y25743967D01*
X59061997Y25743967D02*
X59101044Y25704920D01*
X59101044Y25704920D02*
X59140092Y25626824D01*
X59140092Y25626824D02*
X59140092Y25509682D01*
X59140092Y25509682D02*
X59101044Y25431586D01*
X59101044Y25431586D02*
X59061997Y25392539D01*
X59061997Y25392539D02*
X58983902Y25353491D01*
X58983902Y25353491D02*
X58671521Y25353491D01*
X59452473Y25704920D02*
X59491521Y25743967D01*
X59491521Y25743967D02*
X59569616Y25783015D01*
X59569616Y25783015D02*
X59764854Y25783015D01*
X59764854Y25783015D02*
X59842949Y25743967D01*
X59842949Y25743967D02*
X59881997Y25704920D01*
X59881997Y25704920D02*
X59921044Y25626824D01*
X59921044Y25626824D02*
X59921044Y25548729D01*
X59921044Y25548729D02*
X59881997Y25431586D01*
X59881997Y25431586D02*
X59413425Y24963015D01*
X59413425Y24963015D02*
X59921044Y24963015D01*
X60311520Y24963015D02*
X60467711Y24963015D01*
X60467711Y24963015D02*
X60545806Y25002062D01*
X60545806Y25002062D02*
X60584854Y25041110D01*
X60584854Y25041110D02*
X60662949Y25158253D01*
X60662949Y25158253D02*
X60701996Y25314443D01*
X60701996Y25314443D02*
X60701996Y25626824D01*
X60701996Y25626824D02*
X60662949Y25704920D01*
X60662949Y25704920D02*
X60623901Y25743967D01*
X60623901Y25743967D02*
X60545806Y25783015D01*
X60545806Y25783015D02*
X60389615Y25783015D01*
X60389615Y25783015D02*
X60311520Y25743967D01*
X60311520Y25743967D02*
X60272473Y25704920D01*
X60272473Y25704920D02*
X60233425Y25626824D01*
X60233425Y25626824D02*
X60233425Y25431586D01*
X60233425Y25431586D02*
X60272473Y25353491D01*
X60272473Y25353491D02*
X60311520Y25314443D01*
X60311520Y25314443D02*
X60389615Y25275396D01*
X60389615Y25275396D02*
X60545806Y25275396D01*
X60545806Y25275396D02*
X60623901Y25314443D01*
X60623901Y25314443D02*
X60662949Y25353491D01*
X60662949Y25353491D02*
X60701996Y25431586D01*
D13*
G04 #@! TO.C,M4*
X32999997Y44050000D02*
X32999997Y53150000D01*
X36100000Y44050000D02*
X35099998Y44050000D01*
X36100000Y44050000D02*
X36100000Y53150000D01*
D14*
G04 #@! TO.C,Q1*
X30410000Y34550000D02*
X30410000Y28540000D01*
X23590000Y32300000D02*
X23590000Y28540000D01*
X30410000Y28540000D02*
X29150000Y28540000D01*
X23590000Y28540000D02*
X24850000Y28540000D01*
D13*
G04 #@! TO.C,C8*
X113820000Y59700000D02*
X113820000Y60700000D01*
D14*
G04 #@! TO.C,D5*
X65650000Y30750000D02*
X64725000Y30750000D01*
X63640000Y31400000D02*
X63640000Y29725000D01*
X63640000Y31400000D02*
X63640000Y32050000D01*
X66760000Y31400000D02*
X66760000Y30750000D01*
X66760000Y31400000D02*
X66760000Y32050000D01*
X64700000Y32150000D02*
X63640000Y32150000D01*
X66750000Y32150000D02*
X65750000Y32150000D01*
G04 #@! TO.C,R22*
X14977064Y33890000D02*
X10622936Y33890000D01*
X14977064Y37310000D02*
X10622936Y37310000D01*
D15*
G04 #@! TO.C,R5*
X114421056Y55720840D02*
X114021057Y55720851D01*
X114420000Y54975005D02*
X114020000Y54975015D01*
D14*
G04 #@! TO.C,D6*
X60100000Y30887500D02*
X59175000Y30887500D01*
X58090000Y31537500D02*
X58090000Y29862500D01*
X58090000Y31537500D02*
X58090000Y32187500D01*
X61210000Y31537500D02*
X61210000Y30887500D01*
X61210000Y31537500D02*
X61210000Y32187500D01*
X59150000Y32287500D02*
X58090000Y32287500D01*
X61200000Y32287500D02*
X60200000Y32287500D01*
G04 #@! TO.C,R4*
X79877500Y80362742D02*
X79877500Y80837258D01*
X80922500Y80362742D02*
X80922500Y80837258D01*
D13*
G04 #@! TO.C,D7*
X72924998Y78874993D02*
X72924998Y77899996D01*
X73199993Y79199999D02*
X73199993Y77599997D01*
X73199993Y79199999D02*
X74174995Y79199999D01*
X73199993Y77599997D02*
X74174995Y77599997D01*
X75434995Y79199999D02*
X76349992Y79199999D01*
X75434995Y77599997D02*
X76349992Y77599997D01*
X76349992Y79199999D02*
X76649999Y78959994D01*
X76400000Y78424994D02*
X76825000Y78424994D01*
X76599994Y78650000D02*
X76599994Y78175000D01*
X76649999Y77840002D02*
X76349992Y77599997D01*
G04 #@! TO.C,C1*
X110220000Y69600000D02*
X110220000Y68600000D01*
G04 #@! TO.C,C5*
X110220000Y60600000D02*
X110220000Y59600000D01*
D15*
G04 #@! TO.C,R19*
X17029160Y37801056D02*
X17029149Y37401057D01*
X17774995Y37800000D02*
X17774985Y37400000D01*
D13*
G04 #@! TO.C,M6*
X61625000Y73824990D02*
X95425010Y73824990D01*
X61625000Y38025000D02*
X61625000Y73824990D01*
X61625000Y38025000D02*
X95425000Y38025000D01*
X95425010Y38025000D02*
X95425010Y73824990D01*
D14*
G04 #@! TO.C,R17*
X137322936Y54630000D02*
X141677064Y54630000D01*
X137322936Y51210000D02*
X141677064Y51210000D01*
D15*
G04 #@! TO.C,R8*
X38798944Y35229160D02*
X39198943Y35229149D01*
X38800000Y35974995D02*
X39200000Y35974985D01*
D13*
G04 #@! TO.C,C11*
X113820000Y66450000D02*
X113820000Y67450000D01*
D14*
G04 #@! TO.C,R23*
X14777064Y22690000D02*
X10422936Y22690000D01*
X14777064Y26110000D02*
X10422936Y26110000D01*
D13*
G04 #@! TO.C,M2*
X31700000Y59400000D02*
X17800000Y59400000D01*
X17800000Y59400000D02*
X17800000Y86900000D01*
X17800000Y86900000D02*
X31700000Y86900000D01*
X31700000Y86900000D02*
X31700000Y59400000D01*
D14*
G04 #@! TO.C,R16*
X137322936Y43430000D02*
X141677064Y43430000D01*
X137322936Y40010000D02*
X141677064Y40010000D01*
G04 #@! TO.C,Q4*
X119110000Y36300000D02*
X119110000Y30290000D01*
X112290000Y34050000D02*
X112290000Y30290000D01*
X119110000Y30290000D02*
X117850000Y30290000D01*
X112290000Y30290000D02*
X113550000Y30290000D01*
D13*
G04 #@! TO.C,C3*
X110220000Y65100000D02*
X110220000Y64100000D01*
D14*
G04 #@! TO.C,Q5*
X50010000Y34500000D02*
X50010000Y28490000D01*
X43190000Y32250000D02*
X43190000Y28490000D01*
X50010000Y28490000D02*
X48750000Y28490000D01*
X43190000Y28490000D02*
X44450000Y28490000D01*
D13*
G04 #@! TO.C,C2*
X110220000Y67350000D02*
X110220000Y66350000D01*
D15*
G04 #@! TO.C,R12*
X135070840Y28118944D02*
X135070851Y28518943D01*
X134325005Y28120000D02*
X134325015Y28520000D01*
D14*
G04 #@! TO.C,Q6*
X111710000Y36300000D02*
X111710000Y30290000D01*
X104890000Y34050000D02*
X104890000Y30290000D01*
X111710000Y30290000D02*
X110450000Y30290000D01*
X104890000Y30290000D02*
X106150000Y30290000D01*
G04 #@! TO.C,Q18*
X60050000Y26350000D02*
X59125000Y26350000D01*
X58040000Y27000000D02*
X58040000Y25325000D01*
X58040000Y27000000D02*
X58040000Y27650000D01*
X61160000Y27000000D02*
X61160000Y26350000D01*
X61160000Y27000000D02*
X61160000Y27650000D01*
X59100000Y27750000D02*
X58040000Y27750000D01*
X61150000Y27750000D02*
X60150000Y27750000D01*
G04 #@! TO.C,Q9*
X138730000Y50770000D02*
X138730000Y50500000D01*
X138730000Y50500000D02*
X135900000Y50500000D01*
X138730000Y44140000D02*
X137630000Y44140000D01*
X138730000Y43870000D02*
X138730000Y44140000D01*
X145150000Y50770000D02*
X138730000Y50770000D01*
X145150000Y43870000D02*
X138730000Y43870000D01*
G04 #@! TO.C,J3*
X85950000Y83630000D02*
X85950000Y90890000D01*
X85950000Y83630000D02*
X84450000Y83630000D01*
X77950000Y83630000D02*
X76450000Y83630000D01*
X76450000Y83630000D02*
X76450000Y90890000D01*
D15*
G04 #@! TO.C,R26*
X128379160Y61501056D02*
X128379149Y61101057D01*
X129124995Y61500000D02*
X129124985Y61100000D01*
G04 #@! TO.C,R13*
X135070840Y39518944D02*
X135070851Y39918943D01*
X134325005Y39520000D02*
X134325015Y39920000D01*
D14*
G04 #@! TO.C,D4*
X128100000Y73100000D02*
X128100000Y71100000D01*
X128100000Y73100000D02*
X132000000Y73100000D01*
X128100000Y71100000D02*
X132000000Y71100000D01*
D11*
X129800000Y72100000D02*
X130000000Y72100000D01*
X130000000Y72100000D02*
X130700000Y72450000D01*
X130000000Y72100000D02*
X130700000Y71750000D01*
X130000000Y71750000D02*
X130000000Y72450000D01*
X130700000Y72100000D02*
X131000000Y72100000D01*
X130700000Y71750000D02*
X130700000Y72450000D01*
D14*
G04 #@! TO.C,Q7*
X138605000Y28295000D02*
X138605000Y28025000D01*
X138605000Y28025000D02*
X135775000Y28025000D01*
X138605000Y21665000D02*
X137505000Y21665000D01*
X138605000Y21395000D02*
X138605000Y21665000D01*
X145025000Y28295000D02*
X138605000Y28295000D01*
X145025000Y21395000D02*
X138605000Y21395000D01*
D15*
G04 #@! TO.C,R25*
X98601056Y27020840D02*
X98201057Y27020851D01*
X98600000Y26275005D02*
X98200000Y26275015D01*
G04 #@! TO.C,R30*
X71701056Y78820840D02*
X71301057Y78820851D01*
X71700000Y78075005D02*
X71300000Y78075015D01*
D10*
G04 #@! TO.C,U2*
X115290000Y53675000D02*
X115290000Y50275000D01*
X108940000Y51775000D02*
X108590000Y51775000D01*
X108590000Y51775000D02*
X108590000Y50225000D01*
X115290000Y43975000D02*
X115290000Y45525000D01*
X114940000Y43975000D02*
X115290000Y43975000D01*
X108940000Y43975000D02*
X108590000Y43975000D01*
X108590000Y43975000D02*
X108590000Y45525000D01*
D15*
G04 #@! TO.C,R6*
X28798944Y35229160D02*
X29198943Y35229149D01*
X28800000Y35974995D02*
X29200000Y35974985D01*
D14*
G04 #@! TO.C,Q11*
X13495000Y37750000D02*
X13495000Y38020000D01*
X13495000Y38020000D02*
X16325000Y38020000D01*
X13495000Y44380000D02*
X14595000Y44380000D01*
X13495000Y44650000D02*
X13495000Y44380000D01*
X7075000Y37750000D02*
X13495000Y37750000D01*
X7075000Y44650000D02*
X13495000Y44650000D01*
G04 #@! TO.C,Q2*
X126510000Y36300000D02*
X126510000Y30290000D01*
X119690000Y34050000D02*
X119690000Y30290000D01*
X126510000Y30290000D02*
X125250000Y30290000D01*
X119690000Y30290000D02*
X120950000Y30290000D01*
G04 #@! TO.C,J2*
X14650000Y91270000D02*
X14650000Y92600000D01*
X15980000Y91270000D02*
X14650000Y91270000D01*
X17250000Y91270000D02*
X27470000Y91270000D01*
X17250000Y91270000D02*
X17250000Y93930000D01*
X27470000Y91270000D02*
X27470000Y93930000D01*
X17250000Y93930000D02*
X27470000Y93930000D01*
D15*
G04 #@! TO.C,R24*
X90201056Y26820840D02*
X89801057Y26820851D01*
X90200000Y26075005D02*
X89800000Y26075015D01*
D14*
G04 #@! TO.C,R1*
X56122500Y33462258D02*
X56122500Y32987742D01*
X55077500Y33462258D02*
X55077500Y32987742D01*
D13*
G04 #@! TO.C,C10*
X113820000Y64200000D02*
X113820000Y65200000D01*
D14*
G04 #@! TO.C,Q17*
X65450000Y26412500D02*
X64525000Y26412500D01*
X63440000Y27062500D02*
X63440000Y25387500D01*
X63440000Y27062500D02*
X63440000Y27712500D01*
X66560000Y27062500D02*
X66560000Y26412500D01*
X66560000Y27062500D02*
X66560000Y27712500D01*
X64500000Y27812500D02*
X63440000Y27812500D01*
X66550000Y27812500D02*
X65550000Y27812500D01*
D13*
G04 #@! TO.C,M1*
X132950000Y92275000D02*
X105450000Y92275000D01*
X105450000Y92275000D02*
X105450000Y78375000D01*
X105450000Y78375000D02*
X132950000Y78375000D01*
X132950000Y78375000D02*
X132950000Y92275000D01*
D15*
G04 #@! TO.C,R20*
X16829160Y26601056D02*
X16829149Y26201057D01*
X17574995Y26600000D02*
X17574985Y26200000D01*
D14*
G04 #@! TO.C,D1*
X93600000Y27100000D02*
X91600000Y27100000D01*
X93600000Y27100000D02*
X93600000Y23200000D01*
X91600000Y27100000D02*
X91600000Y23200000D01*
D11*
X92600000Y25400000D02*
X92600000Y25200000D01*
X92600000Y25200000D02*
X92950000Y24500000D01*
X92600000Y25200000D02*
X92250000Y24500000D01*
X92250000Y25200000D02*
X92950000Y25200000D01*
X92600000Y24500000D02*
X92600000Y24200000D01*
X92250000Y24500000D02*
X92950000Y24500000D01*
D14*
G04 #@! TO.C,R21*
X14977064Y45090000D02*
X10622936Y45090000D01*
X14977064Y48510000D02*
X10622936Y48510000D01*
G04 #@! TO.C,R3*
X81477500Y80362742D02*
X81477500Y80837258D01*
X82522500Y80362742D02*
X82522500Y80837258D01*
G04 #@! TO.C,J1*
X90190000Y91070000D02*
X90190000Y92400000D01*
X91520000Y91070000D02*
X90190000Y91070000D01*
X92790000Y91070000D02*
X103010000Y91070000D01*
X92790000Y91070000D02*
X92790000Y93730000D01*
X103010000Y91070000D02*
X103010000Y93730000D01*
X92790000Y93730000D02*
X103010000Y93730000D01*
G04 #@! TO.C,Q12*
X13670000Y26550000D02*
X13670000Y26820000D01*
X13670000Y26820000D02*
X16500000Y26820000D01*
X13670000Y33180000D02*
X14770000Y33180000D01*
X13670000Y33450000D02*
X13670000Y33180000D01*
X7250000Y26550000D02*
X13670000Y26550000D01*
X7250000Y33450000D02*
X13670000Y33450000D01*
G04 #@! TO.C,Q16*
X127500000Y68040000D02*
X121490000Y68040000D01*
X125250000Y74860000D02*
X121490000Y74860000D01*
X121490000Y68040000D02*
X121490000Y69300000D01*
X121490000Y74860000D02*
X121490000Y73600000D01*
G04 #@! TO.C,Q15*
X127500000Y59790000D02*
X121490000Y59790000D01*
X125250000Y66610000D02*
X121490000Y66610000D01*
X121490000Y59790000D02*
X121490000Y61050000D01*
X121490000Y66610000D02*
X121490000Y65350000D01*
D13*
G04 #@! TO.C,C9*
X113820000Y61950000D02*
X113820000Y62950000D01*
D15*
G04 #@! TO.C,R18*
X17029160Y49001056D02*
X17029149Y48601057D01*
X17774995Y49000000D02*
X17774985Y48600000D01*
D14*
G04 #@! TO.C,F3*
X114110000Y71202064D02*
X114110000Y69997936D01*
X112290000Y71202064D02*
X112290000Y69997936D01*
D13*
G04 #@! TO.C,M5*
X38925000Y58225000D02*
X38925000Y61425003D01*
X38925000Y46125000D02*
X38925000Y56525002D01*
X38925000Y44225000D02*
X38925000Y44525000D01*
X38925000Y44225000D02*
X54325000Y44225000D01*
X40425000Y64824998D02*
X55724999Y64825000D01*
X55724997Y58125002D02*
X55724997Y62925002D01*
X55724997Y51925000D02*
X55724997Y54625000D01*
X55724997Y49225002D02*
X55724997Y50325005D01*
X55724997Y45675000D02*
X55725002Y47225000D01*
X55724999Y64525002D02*
X55724999Y64825000D01*
D15*
G04 #@! TO.C,R14*
X135270840Y50718944D02*
X135270851Y51118943D01*
X134525005Y50720000D02*
X134525015Y51120000D01*
D14*
G04 #@! TO.C,Q3*
X40210000Y34500000D02*
X40210000Y28490000D01*
X33390000Y32250000D02*
X33390000Y28490000D01*
X40210000Y28490000D02*
X38950000Y28490000D01*
X33390000Y28490000D02*
X34650000Y28490000D01*
D15*
G04 #@! TO.C,R2*
X55091056Y31195840D02*
X54691057Y31195851D01*
X55090000Y30450005D02*
X54690000Y30450015D01*
D13*
G04 #@! TO.C,C13*
X113600000Y76549986D02*
X113600000Y75800001D01*
D15*
G04 #@! TO.C,R10*
X48598944Y35229160D02*
X48998943Y35229149D01*
X48600000Y35974995D02*
X49000000Y35974985D01*
G04 #@! TO.C,R9*
X117298944Y37029160D02*
X117698943Y37029149D01*
X117300000Y37774995D02*
X117700000Y37774985D01*
D13*
G04 #@! TO.C,C12*
X109430000Y56099986D02*
X109430000Y55350001D01*
D14*
G04 #@! TO.C,D3*
X128100000Y64900000D02*
X128100000Y62900000D01*
X128100000Y64900000D02*
X132000000Y64900000D01*
X128100000Y62900000D02*
X132000000Y62900000D01*
D11*
X129800000Y63900000D02*
X130000000Y63900000D01*
X130000000Y63900000D02*
X130700000Y64250000D01*
X130000000Y63900000D02*
X130700000Y63550000D01*
X130000000Y63550000D02*
X130000000Y64250000D01*
X130700000Y63900000D02*
X131000000Y63900000D01*
X130700000Y63550000D02*
X130700000Y64250000D01*
D14*
G04 #@! TO.C,F2*
X54090000Y25597936D02*
X54090000Y26802064D01*
X55910000Y25597936D02*
X55910000Y26802064D01*
G04 #@! TO.C,F1*
X34690000Y60197936D02*
X34690000Y61402064D01*
X36510000Y60197936D02*
X36510000Y61402064D01*
G04 #@! TO.C,R15*
X137122936Y32230000D02*
X141477064Y32230000D01*
X137122936Y28810000D02*
X141477064Y28810000D01*
G04 #@! TO.C,Q8*
X138605000Y39570000D02*
X138605000Y39300000D01*
X138605000Y39300000D02*
X135775000Y39300000D01*
X138605000Y32940000D02*
X137505000Y32940000D01*
X138605000Y32670000D02*
X138605000Y32940000D01*
X145025000Y39570000D02*
X138605000Y39570000D01*
X145025000Y32670000D02*
X138605000Y32670000D01*
D13*
G04 #@! TO.C,D8*
X72924998Y81674993D02*
X72924998Y80699996D01*
X73199993Y81999999D02*
X73199993Y80399997D01*
X73199993Y81999999D02*
X74174995Y81999999D01*
X73199993Y80399997D02*
X74174995Y80399997D01*
X75434995Y81999999D02*
X76349992Y81999999D01*
X75434995Y80399997D02*
X76349992Y80399997D01*
X76349992Y81999999D02*
X76649999Y81759994D01*
X76400000Y81224994D02*
X76825000Y81224994D01*
X76599994Y81450000D02*
X76599994Y80975000D01*
X76649999Y80640002D02*
X76349992Y80399997D01*
G04 #@! TO.C,C6*
X110220000Y58350000D02*
X110220000Y57350000D01*
G04 #@! TO.C,C7*
X113820000Y57450000D02*
X113820000Y58450000D01*
D15*
G04 #@! TO.C,R31*
X71701056Y81420840D02*
X71301057Y81420851D01*
X71700000Y80675005D02*
X71300000Y80675015D01*
D14*
G04 #@! TO.C,Q10*
X13570000Y48950000D02*
X13570000Y49220000D01*
X13570000Y49220000D02*
X16400000Y49220000D01*
X13570000Y55580000D02*
X14670000Y55580000D01*
X13570000Y55850000D02*
X13570000Y55580000D01*
X7150000Y48950000D02*
X13570000Y48950000D01*
X7150000Y55850000D02*
X13570000Y55850000D01*
G04 #@! TO.C,Q13*
X88590000Y27900000D02*
X88590000Y33910000D01*
X95410000Y30150000D02*
X95410000Y33910000D01*
X88590000Y33910000D02*
X89850000Y33910000D01*
X95410000Y33910000D02*
X94150000Y33910000D01*
G04 #@! TO.C,Q14*
X96840000Y27900000D02*
X96840000Y33910000D01*
X103660000Y30150000D02*
X103660000Y33910000D01*
X96840000Y33910000D02*
X98100000Y33910000D01*
X103660000Y33910000D02*
X102400000Y33910000D01*
D13*
G04 #@! TO.C,C4*
X110220000Y62850000D02*
X110220000Y61850000D01*
D15*
G04 #@! TO.C,R11*
X109898944Y37029160D02*
X110298943Y37029149D01*
X109900000Y37774995D02*
X110300000Y37774985D01*
G04 #@! TO.C,R7*
X124698944Y37029160D02*
X125098943Y37029149D01*
X124700000Y37774995D02*
X125100000Y37774985D01*
G04 #@! TO.C,R28*
X64798944Y24029160D02*
X65198943Y24029149D01*
X64800000Y24774995D02*
X65200000Y24774985D01*
D14*
G04 #@! TO.C,D2*
X102000000Y27300000D02*
X100000000Y27300000D01*
X102000000Y27300000D02*
X102000000Y23400000D01*
X100000000Y27300000D02*
X100000000Y23400000D01*
D11*
X101000000Y25600000D02*
X101000000Y25400000D01*
X101000000Y25400000D02*
X101350000Y24700000D01*
X101000000Y25400000D02*
X100650000Y24700000D01*
X100650000Y25400000D02*
X101350000Y25400000D01*
X101000000Y24700000D02*
X101000000Y24400000D01*
X100650000Y24700000D02*
X101350000Y24700000D01*
D15*
G04 #@! TO.C,R27*
X128379160Y69701056D02*
X128379149Y69301057D01*
X129124995Y69700000D02*
X129124985Y69300000D01*
D13*
G04 #@! TO.C,M3*
X27799997Y44050000D02*
X27799997Y53150000D01*
X30900000Y44050000D02*
X29899998Y44050000D01*
X30900000Y44050000D02*
X30900000Y53150000D01*
D15*
G04 #@! TO.C,R29*
X59398944Y23829160D02*
X59798943Y23829149D01*
X59400000Y24574995D02*
X59800000Y24574985D01*
G04 #@! TD*
M02*
