G04 #@! TF.GenerationSoftware,KiCad,Pcbnew,7.0.10-7.0.10~ubuntu22.04.1*
G04 #@! TF.CreationDate,2024-01-28T11:22:59+00:00*
G04 #@! TF.ProjectId,lewycustom,6c657779-6375-4737-946f-6d2e6b696361,rev?*
G04 #@! TF.SameCoordinates,Original*
G04 #@! TF.FileFunction,Legend,Bot*
G04 #@! TF.FilePolarity,Positive*
%FSLAX46Y46*%
G04 Gerber Fmt 4.6, Leading zero omitted, Abs format (unit mm)*
G04 Created by KiCad (PCBNEW 7.0.10-7.0.10~ubuntu22.04.1) date 2024-01-28 11:22:59*
%MOMM*%
%LPD*%
G01*
G04 APERTURE LIST*
%ADD10C,0.200000*%
G04 APERTURE END LIST*
D10*
G04 #@! TO.C,M4*
X32999997Y44050000D02*
X32999997Y53150000D01*
X36100000Y44050000D02*
X35099998Y44050000D01*
X36100000Y44050000D02*
X36100000Y53150000D01*
G04 #@! TO.C,M6*
X61625000Y73824990D02*
X95425010Y73824990D01*
X61625000Y38025000D02*
X61625000Y73824990D01*
X61625000Y38025000D02*
X95425010Y38025000D01*
X95425010Y38025000D02*
X95425010Y73824990D01*
G04 #@! TO.C,M2*
X31700000Y59400000D02*
X17800000Y59400000D01*
X17800000Y59400000D02*
X17800000Y86900000D01*
X17800000Y86900000D02*
X31700000Y86900000D01*
X31700000Y86900000D02*
X31700000Y59400000D01*
G04 #@! TO.C,M1*
X132950000Y92275000D02*
X105450000Y92275000D01*
X105450000Y92275000D02*
X105450000Y78375000D01*
X105450000Y78375000D02*
X132950000Y78375000D01*
X132950000Y78375000D02*
X132950000Y92275000D01*
G04 #@! TO.C,M5*
X38925000Y58225000D02*
X38925000Y61425003D01*
X38925000Y46125000D02*
X38925000Y56525002D01*
X38925000Y44225000D02*
X38925000Y44525000D01*
X38925000Y44225000D02*
X54325000Y44225000D01*
X40425000Y64824998D02*
X55724999Y64825000D01*
X55724997Y58125002D02*
X55724997Y62925002D01*
X55724997Y51925000D02*
X55724997Y54625000D01*
X55724997Y49225002D02*
X55724997Y50325005D01*
X55724997Y45675000D02*
X55725002Y47225000D01*
X55724999Y64525002D02*
X55724999Y64825000D01*
G04 #@! TO.C,M3*
X27799997Y44050000D02*
X27799997Y53150000D01*
X30900000Y44050000D02*
X29899998Y44050000D01*
X30900000Y44050000D02*
X30900000Y53150000D01*
G04 #@! TD*
M02*
