M48
; DRILL file {KiCad 7.0.10-7.0.10~ubuntu22.04.1} date Sun Jan 28 11:22:59 2024
; FORMAT={2:4/ absolute / inch / suppress leading zeros}
; #@! TF.CreationDate,2024-01-28T11:22:59+00:00
; #@! TF.GenerationSoftware,Kicad,Pcbnew,7.0.10-7.0.10~ubuntu22.04.1
; #@! TF.FileFunction,MixedPlating,1,4
FMAT,2
INCH,TZ
; #@! TA.AperFunction,Plated,PTH,ViaDrill
T1C0.0059
; #@! TA.AperFunction,Plated,PTH,ComponentDrill
T2C0.0118
; #@! TA.AperFunction,Plated,PTH,ViaDrill
T3C0.0157
; #@! TA.AperFunction,Plated,PTH,ComponentDrill
T4C0.0197
; #@! TA.AperFunction,Plated,PTH,ComponentDrill
T5C0.0300
; #@! TA.AperFunction,Plated,PTH,ViaDrill
T6C0.0315
; #@! TA.AperFunction,Plated,PTH,ViaDrill
T7C0.0394
; #@! TA.AperFunction,Plated,PTH,ComponentDrill
T8C0.0394
; #@! TA.AperFunction,Plated,PTH,ViaDrill
T9C0.0472
; #@! TA.AperFunction,NonPlated,NPTH,ComponentDrill
T10C0.0256
%
G90
G05
T1
X31890Y34803
X32283Y34724
T2
X7618Y23563
X8012Y23563
X8406Y23563
X8799Y23563
X9726Y34032
X10126Y34032
X11024Y34032
X11181Y20846
X11181Y17421
X11417Y34032
X11535Y17421
X11555Y20846
X11811Y34032
X11929Y20846
X13228Y20846
X13228Y17421
X13583Y17421
X13602Y20846
X13976Y20846
X21860Y19183
X21860Y18789
X24341Y28986
X24341Y27136
X24341Y26585
X24341Y24734
X24341Y24419
X24341Y23396
X24341Y23002
X24341Y22608
X24341Y22215
X24341Y21821
X24341Y21427
X24341Y21033
X24341Y20640
X24341Y16427
X24341Y16033
X24498Y15049
X25443Y15049
X25915Y15049
X26388Y15049
X26860Y15049
X27254Y28986
X27333Y15049
X27648Y28986
X27805Y15049
X28278Y15049
X28711Y28986
X28750Y15049
X29222Y15049
X29695Y15049
X30167Y15049
X30404Y28986
X30640Y15049
X30719Y28986
X31033Y28986
X31112Y15049
X31348Y28986
X31585Y15049
X31663Y28986
X31978Y28986
X32057Y15049
X32293Y28986
X32530Y15049
X32608Y28986
X32923Y28986
X33002Y15049
X33474Y15049
X33868Y28986
X33947Y15049
X34183Y28986
X34419Y15049
X34498Y28986
X34813Y28986
X34892Y15049
X35128Y28986
X35443Y28986
X35758Y28986
X36073Y28986
X36388Y28986
X36703Y28986
X37018Y28986
X37333Y28986
X37490Y23711
X37490Y17608
X37490Y26152
X37490Y25837
X37490Y25522
X37490Y25207
X37490Y24892
X37490Y24577
X37490Y24026
X37490Y23396
X37490Y23081
X37490Y22766
X37490Y22451
X37490Y22136
X37490Y21821
X37490Y21506
X37490Y21191
X37490Y20876
X37490Y20561
X37490Y20246
X37490Y19931
X37490Y19616
X37490Y19301
X41696Y35659
X41696Y35266
X41696Y34872
X41696Y33974
X41696Y33574
X52165Y32648
X52165Y32254
X52165Y31860
X52165Y31467
T3
X6687Y18416
X6697Y21639
X7203Y9981
X7274Y14283
X7402Y20787
X7480Y11339
X7618Y22913
X7893Y22233
X8268Y20787
X8268Y11654
X12113Y14095
X12594Y16555
X12732Y21314
X14488Y20157
X14546Y17018
X15591Y16491
X15993Y14339
X16076Y14951
X17072Y15843
X19764Y15276
X19785Y13410
X21881Y26271
X22057Y14715
X22283Y21449
X23150Y14961
X23300Y23396
X23350Y22563
X23457Y15664
X23641Y14656
X23692Y22897
X23780Y27323
X24567Y13228
X24855Y11024
X24855Y10396
X27411Y32017
X28268Y12913
X29022Y29698
X29222Y13140
X29362Y29984
X29843Y13232
X31417Y32441
X31871Y32688
X32194Y9625
X32205Y14160
X32273Y34104
X32577Y32680
X35211Y13263
X35326Y11995
X35536Y12534
X36693Y29685
X36942Y10379
X37660Y14084
X38266Y26152
X38322Y14121
X38322Y13620
X38484Y24340
X38605Y22144
X38605Y21750
X38605Y17608
X38657Y20246
X38733Y11991
X38848Y25837
X38903Y21191
X38976Y24804
X38983Y24400
X39585Y35192
X39641Y22721
X39843Y25433
X39941Y24026
X40172Y22399
X40334Y22992
X40787Y23622
X41920Y5919
X43680Y15402
X43683Y20094
X43974Y28346
X44007Y30172
X44326Y21477
X44458Y9860
X44549Y29282
X45401Y17514
X45556Y21415
X45645Y23622
X48571Y15128
X48898Y28504
X49184Y23976
X49186Y24488
X49856Y26689
X51099Y25051
X51811Y29685
X52889Y32254
X52981Y11937
X53046Y21116
X53073Y16458
X53381Y32648
X53497Y31442
X53755Y31836
T5
X8102Y7852
X8102Y5490
X8102Y3128
X9413Y7852
X9413Y5490
X9413Y3128
X10724Y7852
X10724Y5490
X10724Y3128
X12035Y7852
X12035Y5490
X12035Y3128
X13346Y7852
X13346Y5490
X13346Y3128
X14657Y7852
X14657Y5490
X14657Y3128
X15969Y7852
X15969Y5490
X15969Y3128
X17280Y7852
X17280Y5490
X17280Y3128
X18591Y7852
X18591Y5490
X18591Y3128
X19902Y7852
X19902Y5490
X19906Y3128
X21213Y7852
X21213Y5490
X21213Y3128
X22524Y7852
X22524Y5490
X22524Y3128
X23835Y7852
X23835Y5490
X23835Y3128
X25146Y7852
X25146Y5490
X25146Y3128
X26457Y7852
X26457Y5490
X26457Y3128
X33543Y7852
X33543Y5490
X33543Y3128
X34854Y7852
X34854Y5490
X34854Y3128
X36165Y7852
X36165Y5490
X36165Y3128
X37476Y7852
X37476Y5490
X37476Y3128
X38787Y7852
X38787Y5490
X38787Y3128
X40098Y7852
X40098Y5490
X40098Y3128
X41409Y7852
X41409Y5490
X41409Y3128
X42720Y7852
X42720Y5490
X42720Y3128
X44031Y7852
X44031Y5490
X44031Y3128
X45343Y7852
X45343Y5490
X45343Y3128
X46654Y7852
X46654Y5490
X46654Y3128
X47965Y7852
X47965Y5490
X47965Y3128
X49276Y7852
X49276Y5490
X49276Y3128
X50587Y7852
X50587Y5490
X50587Y3128
X51898Y7852
X51898Y5490
X51898Y3128
T6
X14016Y22853
X14488Y25276
X20866Y12283
X43385Y24096
X44300Y16038
X45035Y29506
X45428Y27244
X45905Y22271
T7
X4515Y17989
X55152Y12740
T8
X6291Y36457
X7291Y36457
X8291Y36457
X9291Y36457
X10291Y36457
X15581Y25266
X15581Y24537
X15581Y22589
X15581Y17844
X21683Y25089
X21683Y22569
X21683Y21821
X21683Y20128
X21683Y17667
X36031Y36378
X37031Y36378
X38031Y36378
X39031Y36378
X40031Y36378
T9
X8986Y20694
X53674Y33494
T10
X33386Y33323
T4
X30201Y36039G85X30201Y36276
G05
X30343Y33697G85X30343Y33933
G05
X33594Y33697G85X33594Y33933
G05
X33736Y36039G85X33736Y36276
G05
T10
X30610Y33323G85X30492Y33323
G05
M30
