G04 #@! TF.GenerationSoftware,KiCad,Pcbnew,7.0.10-7.0.10~ubuntu22.04.1*
G04 #@! TF.CreationDate,2024-02-03T13:19:02+00:00*
G04 #@! TF.ProjectId,lewycustom,6c657779-6375-4737-946f-6d2e6b696361,rev?*
G04 #@! TF.SameCoordinates,Original*
G04 #@! TF.FileFunction,Profile,NP*
%FSLAX46Y46*%
G04 Gerber Fmt 4.6, Leading zero omitted, Abs format (unit mm)*
G04 Created by KiCad (PCBNEW 7.0.10-7.0.10~ubuntu22.04.1) date 2024-02-03 13:19:02*
%MOMM*%
%LPD*%
G01*
G04 APERTURE LIST*
G04 #@! TA.AperFunction,Profile*
%ADD10C,0.100000*%
G04 #@! TD*
G04 APERTURE END LIST*
D10*
X148787096Y17070972D02*
X148800000Y17000000D01*
X3000000Y81200000D02*
X3000000Y28600000D01*
X1600000Y82600000D02*
X0Y82600000D01*
X150200000Y27600000D02*
X152400000Y27600000D01*
X132600000Y6000000D02*
G75*
G03*
X131800000Y5200000I0J-800000D01*
G01*
X20600000Y5200000D02*
X20600000Y2600000D01*
X151000000Y90000000D02*
G75*
G03*
X147000000Y90000000I-2000000J0D01*
G01*
X147000000Y90000000D02*
G75*
G03*
X151000000Y90000000I2000000J0D01*
G01*
X149400000Y28400000D02*
G75*
G03*
X150200000Y27600000I800000J0D01*
G01*
X151400000Y20600000D02*
G75*
G03*
X147400000Y20600000I-2000000J0D01*
G01*
X147400000Y20600000D02*
G75*
G03*
X151400000Y20600000I2000000J0D01*
G01*
X20600000Y2600000D02*
G75*
G03*
X23200000Y0I2600000J0D01*
G01*
X5400000Y90000000D02*
G75*
G03*
X1400000Y90000000I-2000000J0D01*
G01*
X1400000Y90000000D02*
G75*
G03*
X5400000Y90000000I2000000J0D01*
G01*
X152400000Y94600000D02*
X0Y94600000D01*
X148787096Y17070972D02*
G75*
G03*
X152400000Y21400000I-787096J4329028D01*
G01*
X0Y27600000D02*
X2000000Y27600000D01*
X3587324Y16951408D02*
X3600000Y17000000D01*
X3000000Y81200000D02*
G75*
G03*
X1600000Y82600000I-1400000J0D01*
G01*
X2Y21400000D02*
G75*
G03*
X3587324Y16951409I4799998J200000D01*
G01*
X3600000Y17000000D02*
X9600000Y6000000D01*
X150200000Y82600000D02*
G75*
G03*
X149400000Y81800000I0J-800000D01*
G01*
X9600000Y6000000D02*
X19800000Y6000000D01*
X20600000Y5200000D02*
G75*
G03*
X19800000Y6000000I-800000J0D01*
G01*
X0Y82600000D02*
X0Y94600000D01*
X132600000Y6000000D02*
X142800000Y6000000D01*
X131807680Y2600000D02*
X131800000Y5200000D01*
X152400000Y82600000D02*
X152400000Y94600000D01*
X152400000Y27600000D02*
X152400000Y21400000D01*
X149400000Y81800000D02*
X149400000Y28400000D01*
X150200000Y82600000D02*
X152400000Y82600000D01*
X0Y27600000D02*
X0Y21400000D01*
X2000000Y27600000D02*
G75*
G03*
X3000000Y28600000I0J1000000D01*
G01*
X129400000Y1D02*
X23200000Y0D01*
X5000000Y20400000D02*
G75*
G03*
X1000000Y20400000I-2000000J0D01*
G01*
X1000000Y20400000D02*
G75*
G03*
X5000000Y20400000I2000000J0D01*
G01*
X129400000Y1D02*
G75*
G03*
X131807680Y2600000I-200000J2599999D01*
G01*
X142800000Y6000000D02*
X148800000Y17000000D01*
M02*
