G04 #@! TF.GenerationSoftware,KiCad,Pcbnew,7.0.10-7.0.10~ubuntu22.04.1*
G04 #@! TF.CreationDate,2024-01-27T12:39:00+00:00*
G04 #@! TF.ProjectId,lewycustom,6c657779-6375-4737-946f-6d2e6b696361,rev?*
G04 #@! TF.SameCoordinates,Original*
G04 #@! TF.FileFunction,Soldermask,Bot*
G04 #@! TF.FilePolarity,Negative*
%FSLAX46Y46*%
G04 Gerber Fmt 4.6, Leading zero omitted, Abs format (unit mm)*
G04 Created by KiCad (PCBNEW 7.0.10-7.0.10~ubuntu22.04.1) date 2024-01-27 12:39:00*
%MOMM*%
%LPD*%
G01*
G04 APERTURE LIST*
%ADD10C,0.600000*%
%ADD11C,0.650000*%
%ADD12O,0.950000X0.650000*%
%ADD13O,0.800000X1.400000*%
%ADD14R,1.700000X1.700000*%
%ADD15O,1.700000X1.700000*%
%ADD16C,1.524000*%
%ADD17C,1.500000*%
G04 APERTURE END LIST*
D10*
G04 #@! TO.C,M4*
X59800000Y79100002D03*
X59800000Y80050002D03*
X59800000Y81000000D03*
X68500000Y80000002D03*
X68500000Y79100002D03*
G04 #@! TD*
D11*
G04 #@! TO.C,J3*
X84800000Y84640000D03*
D12*
X77600000Y84640000D03*
D13*
X85690000Y91840000D03*
X85330000Y85890000D03*
X77070000Y85890000D03*
X76710000Y91840000D03*
G04 #@! TD*
D14*
G04 #@! TO.C,J2*
X70160000Y91800000D03*
D15*
X67620000Y91800000D03*
X65080000Y91800000D03*
X62540000Y91800000D03*
X60000000Y91800000D03*
G04 #@! TD*
D16*
G04 #@! TO.C,U1*
X20580000Y7944000D03*
X23910000Y7944000D03*
X27240000Y7944000D03*
X30570000Y7944000D03*
X33900000Y7944000D03*
X37230000Y7944000D03*
X40560000Y7944000D03*
X43890000Y7944000D03*
X47220000Y7944000D03*
X50560000Y7944000D03*
X53880000Y7944000D03*
X57210000Y7944000D03*
X60540000Y7944000D03*
X63870000Y7944000D03*
X67200000Y7944000D03*
X20580000Y13944000D03*
X23910000Y13944000D03*
X27240000Y13944000D03*
X30570000Y13944000D03*
X33900000Y13944000D03*
X37230000Y13944000D03*
X40560000Y13944000D03*
X43890000Y13944000D03*
X47220000Y13944000D03*
X50550000Y13944000D03*
X53880000Y13944000D03*
X57210000Y13944000D03*
X60540000Y13944000D03*
X63870000Y13944000D03*
X67200000Y13944000D03*
X20580000Y19944000D03*
X23910000Y19944000D03*
X27240000Y19944000D03*
X30570000Y19944000D03*
X33900000Y19944000D03*
X37230000Y19944000D03*
X40560000Y19944000D03*
X43890000Y19944000D03*
X47220000Y19944000D03*
X50550000Y19944000D03*
X53880000Y19944000D03*
X57210000Y19944000D03*
X60540000Y19944000D03*
X63870000Y19944000D03*
X67200000Y19944000D03*
X85200000Y7944000D03*
X88530000Y7944000D03*
X91860000Y7944000D03*
X95190000Y7944000D03*
X98520000Y7944000D03*
X101850000Y7944000D03*
X105180000Y7944000D03*
X108510000Y7944000D03*
X111840000Y7944000D03*
X115170000Y7944000D03*
X118500000Y7944000D03*
X121830000Y7944000D03*
X125160000Y7944000D03*
X128490000Y7944000D03*
X131820000Y7944000D03*
X85200000Y13944000D03*
X88530000Y13944000D03*
X91860000Y13944000D03*
X95190000Y13944000D03*
X98520000Y13944000D03*
X101850000Y13944000D03*
X105180000Y13944000D03*
X108510000Y13944000D03*
X111840000Y13944000D03*
X115170000Y13944000D03*
X118500000Y13944000D03*
X121830000Y13944000D03*
X125160000Y13944000D03*
X128490000Y13944000D03*
X131820000Y13944000D03*
X85200000Y19944000D03*
X88530000Y19944000D03*
X91860000Y19944000D03*
X95190000Y19944000D03*
X98520000Y19944000D03*
X101850000Y19944000D03*
X105180000Y19944000D03*
X108510000Y19944000D03*
X111840000Y19944000D03*
X115170000Y19944000D03*
X118500000Y19944000D03*
X121830000Y19944000D03*
X125160000Y19944000D03*
X128490000Y19944000D03*
X131820000Y19944000D03*
G04 #@! TD*
D14*
G04 #@! TO.C,J1*
X91325000Y91000000D03*
D15*
X93865000Y91000000D03*
X96405000Y91000000D03*
X98945000Y91000000D03*
X101485000Y91000000D03*
G04 #@! TD*
D17*
G04 #@! TO.C,M5*
X53874995Y73324999D03*
X53874995Y66925002D03*
X53874995Y65024999D03*
X53874995Y60724999D03*
D10*
X54324994Y58325002D03*
X54324994Y57325001D03*
D17*
X53874995Y54474999D03*
X38374998Y73775001D03*
X38374998Y71925002D03*
X38374998Y66974999D03*
X38374998Y54925001D03*
G04 #@! TD*
D10*
G04 #@! TO.C,M3*
X101400000Y81499998D03*
X101400000Y80549998D03*
X101400000Y79600000D03*
X92700000Y80599998D03*
X92700000Y81499998D03*
G04 #@! TD*
M02*
