G04 #@! TF.GenerationSoftware,KiCad,Pcbnew,7.0.10-7.0.10~ubuntu22.04.1*
G04 #@! TF.CreationDate,2024-01-28T10:53:56+00:00*
G04 #@! TF.ProjectId,lewycustom,6c657779-6375-4737-946f-6d2e6b696361,rev?*
G04 #@! TF.SameCoordinates,Original*
G04 #@! TF.FileFunction,Copper,L1,Top*
G04 #@! TF.FilePolarity,Positive*
%FSLAX46Y46*%
G04 Gerber Fmt 4.6, Leading zero omitted, Abs format (unit mm)*
G04 Created by KiCad (PCBNEW 7.0.10-7.0.10~ubuntu22.04.1) date 2024-01-28 10:53:56*
%MOMM*%
%LPD*%
G01*
G04 APERTURE LIST*
G04 #@! TA.AperFunction,ComponentPad*
%ADD10C,0.600000*%
G04 #@! TD*
G04 #@! TA.AperFunction,SMDPad,CuDef*
%ADD11O,0.200000X1.225000*%
G04 #@! TD*
G04 #@! TA.AperFunction,SMDPad,CuDef*
%ADD12O,9.300000X0.200000*%
G04 #@! TD*
G04 #@! TA.AperFunction,SMDPad,CuDef*
%ADD13R,1.500000X2.000000*%
G04 #@! TD*
G04 #@! TA.AperFunction,SMDPad,CuDef*
%ADD14R,3.800000X2.000000*%
G04 #@! TD*
G04 #@! TA.AperFunction,SMDPad,CuDef*
%ADD15R,0.200000X3.700000*%
G04 #@! TD*
G04 #@! TA.AperFunction,SMDPad,CuDef*
%ADD16R,0.200000X0.400000*%
G04 #@! TD*
G04 #@! TA.AperFunction,SMDPad,CuDef*
%ADD17R,0.200000X1.600000*%
G04 #@! TD*
G04 #@! TA.AperFunction,SMDPad,CuDef*
%ADD18R,0.200000X9.700000*%
G04 #@! TD*
G04 #@! TA.AperFunction,SMDPad,CuDef*
%ADD19R,0.200000X2.300000*%
G04 #@! TD*
G04 #@! TA.AperFunction,SMDPad,CuDef*
%ADD20R,1.400000X0.200000*%
G04 #@! TD*
G04 #@! TA.AperFunction,SMDPad,CuDef*
%ADD21R,6.400000X0.200000*%
G04 #@! TD*
G04 #@! TA.AperFunction,SMDPad,CuDef*
%ADD22R,1.700000X0.200000*%
G04 #@! TD*
G04 #@! TA.AperFunction,SMDPad,CuDef*
%ADD23R,3.300000X0.200000*%
G04 #@! TD*
G04 #@! TA.AperFunction,SMDPad,CuDef*
%ADD24R,0.200000X7.000000*%
G04 #@! TD*
G04 #@! TA.AperFunction,SMDPad,CuDef*
%ADD25R,0.200000X3.300000*%
G04 #@! TD*
G04 #@! TA.AperFunction,SMDPad,CuDef*
%ADD26R,0.200000X6.300000*%
G04 #@! TD*
G04 #@! TA.AperFunction,ComponentPad*
%ADD27C,0.700000*%
G04 #@! TD*
G04 #@! TA.AperFunction,SMDPad,CuDef*
%ADD28C,3.000000*%
G04 #@! TD*
G04 #@! TA.AperFunction,SMDPad,CuDef*
%ADD29R,0.250000X3.000000*%
G04 #@! TD*
G04 #@! TA.AperFunction,SMDPad,CuDef*
%ADD30R,0.250000X1.100000*%
G04 #@! TD*
G04 #@! TA.AperFunction,SMDPad,CuDef*
%ADD31R,0.250000X0.980000*%
G04 #@! TD*
G04 #@! TA.AperFunction,SMDPad,CuDef*
%ADD32R,0.250000X1.450000*%
G04 #@! TD*
G04 #@! TA.AperFunction,SMDPad,CuDef*
%ADD33R,27.600000X0.250000*%
G04 #@! TD*
G04 #@! TA.AperFunction,SMDPad,CuDef*
%ADD34R,0.250000X1.950000*%
G04 #@! TD*
G04 #@! TA.AperFunction,SMDPad,CuDef*
%ADD35R,0.250000X0.950000*%
G04 #@! TD*
G04 #@! TA.AperFunction,SMDPad,CuDef*
%ADD36R,0.300000X0.700000*%
G04 #@! TD*
G04 #@! TA.AperFunction,ComponentPad*
%ADD37O,0.800000X1.400000*%
G04 #@! TD*
G04 #@! TA.AperFunction,SMDPad,CuDef*
%ADD38R,0.650000X2.000000*%
G04 #@! TD*
G04 #@! TA.AperFunction,SMDPad,CuDef*
%ADD39R,8.100000X4.500000*%
G04 #@! TD*
G04 #@! TA.AperFunction,ComponentPad*
%ADD40R,1.700000X1.700000*%
G04 #@! TD*
G04 #@! TA.AperFunction,ComponentPad*
%ADD41O,1.700000X1.700000*%
G04 #@! TD*
G04 #@! TA.AperFunction,ComponentPad*
%ADD42C,1.524000*%
G04 #@! TD*
G04 #@! TA.AperFunction,SMDPad,CuDef*
%ADD43R,2.000000X1.500000*%
G04 #@! TD*
G04 #@! TA.AperFunction,SMDPad,CuDef*
%ADD44R,2.000000X3.800000*%
G04 #@! TD*
G04 #@! TA.AperFunction,ComponentPad*
%ADD45C,1.500000*%
G04 #@! TD*
G04 #@! TA.AperFunction,SMDPad,CuDef*
%ADD46O,0.200000X3.300000*%
G04 #@! TD*
G04 #@! TA.AperFunction,SMDPad,CuDef*
%ADD47O,0.200000X10.200000*%
G04 #@! TD*
G04 #@! TA.AperFunction,SMDPad,CuDef*
%ADD48O,0.200000X0.300000*%
G04 #@! TD*
G04 #@! TA.AperFunction,SMDPad,CuDef*
%ADD49O,17.000000X0.200000*%
G04 #@! TD*
G04 #@! TA.AperFunction,SMDPad,CuDef*
%ADD50O,15.400000X0.200000*%
G04 #@! TD*
G04 #@! TA.AperFunction,SMDPad,CuDef*
%ADD51O,0.200000X4.800000*%
G04 #@! TD*
G04 #@! TA.AperFunction,SMDPad,CuDef*
%ADD52O,0.200000X2.600000*%
G04 #@! TD*
G04 #@! TA.AperFunction,SMDPad,CuDef*
%ADD53O,0.200000X1.000000*%
G04 #@! TD*
G04 #@! TA.AperFunction,SMDPad,CuDef*
%ADD54O,0.200000X1.500000*%
G04 #@! TD*
G04 APERTURE END LIST*
D10*
G04 #@! TO.P,M4,E1,V5A*
G04 #@! TO.N,+5VA*
X59800000Y79100002D03*
D11*
G04 #@! TO.P,M4,E2,GND*
G04 #@! TO.N,GND*
X68700000Y81075002D03*
D12*
X64150000Y78500002D03*
X64150000Y81600002D03*
D10*
X59800000Y80050002D03*
G04 #@! TO.P,M4,E3,OUT_KNOCK*
G04 #@! TO.N,Net-(M4-OUT_KNOCK)*
X59800000Y81000000D03*
G04 #@! TO.P,M4,W1,IN_KNOCK*
G04 #@! TO.N,/KNOCK2*
X68500000Y80000002D03*
G04 #@! TO.P,M4,W2,VREF*
G04 #@! TO.N,Net-(M3-VREF)*
X68500000Y79100002D03*
G04 #@! TD*
D13*
G04 #@! TO.P,Q1,1,G*
G04 #@! TO.N,/INJECTORS/IN1*
X25500000Y32400000D03*
G04 #@! TO.P,Q1,2,D*
G04 #@! TO.N,/OUT_INJ1*
X23200000Y32400000D03*
G04 #@! TO.P,Q1,3,S*
G04 #@! TO.N,GND*
X20900000Y32400000D03*
D14*
G04 #@! TO.P,Q1,4*
G04 #@! TO.N,N/C*
X23200000Y26100000D03*
G04 #@! TD*
G04 #@! TO.P,C8,1*
G04 #@! TO.N,GND*
G04 #@! TA.AperFunction,SMDPad,CuDef*
G36*
G01*
X114500000Y39625000D02*
X114500000Y38575000D01*
G75*
G02*
X114400000Y38475000I-100000J0D01*
G01*
X113600000Y38475000D01*
G75*
G02*
X113500000Y38575000I0J100000D01*
G01*
X113500000Y39625000D01*
G75*
G02*
X113600000Y39725000I100000J0D01*
G01*
X114400000Y39725000D01*
G75*
G02*
X114500000Y39625000I0J-100000D01*
G01*
G37*
G04 #@! TD.AperFunction*
G04 #@! TO.P,C8,2*
G04 #@! TO.N,/dbw/PWR*
G04 #@! TA.AperFunction,SMDPad,CuDef*
G36*
G01*
X112500000Y39625000D02*
X112500000Y38575000D01*
G75*
G02*
X112400000Y38475000I-100000J0D01*
G01*
X111600000Y38475000D01*
G75*
G02*
X111500000Y38575000I0J100000D01*
G01*
X111500000Y39625000D01*
G75*
G02*
X111600000Y39725000I100000J0D01*
G01*
X112400000Y39725000D01*
G75*
G02*
X112500000Y39625000I0J-100000D01*
G01*
G37*
G04 #@! TD.AperFunction*
G04 #@! TD*
G04 #@! TO.P,D5,1*
G04 #@! TO.N,/OUT_FAN*
G04 #@! TA.AperFunction,SMDPad,CuDef*
G36*
G01*
X50000000Y29925000D02*
X49700000Y29925000D01*
G75*
G02*
X49550000Y30075000I0J150000D01*
G01*
X49550000Y31250000D01*
G75*
G02*
X49700000Y31400000I150000J0D01*
G01*
X50000000Y31400000D01*
G75*
G02*
X50150000Y31250000I0J-150000D01*
G01*
X50150000Y30075000D01*
G75*
G02*
X50000000Y29925000I-150000J0D01*
G01*
G37*
G04 #@! TD.AperFunction*
G04 #@! TO.P,D5,2*
G04 #@! TO.N,GND*
G04 #@! TA.AperFunction,SMDPad,CuDef*
G36*
G01*
X50950000Y31800000D02*
X50650000Y31800000D01*
G75*
G02*
X50500000Y31950000I0J150000D01*
G01*
X50500000Y33125000D01*
G75*
G02*
X50650000Y33275000I150000J0D01*
G01*
X50950000Y33275000D01*
G75*
G02*
X51100000Y33125000I0J-150000D01*
G01*
X51100000Y31950000D01*
G75*
G02*
X50950000Y31800000I-150000J0D01*
G01*
G37*
G04 #@! TD.AperFunction*
G04 #@! TO.P,D5,3*
G04 #@! TO.N,unconnected-(D5-Pad3)*
G04 #@! TA.AperFunction,SMDPad,CuDef*
G36*
G01*
X51900000Y29925000D02*
X51600000Y29925000D01*
G75*
G02*
X51450000Y30075000I0J150000D01*
G01*
X51450000Y31250000D01*
G75*
G02*
X51600000Y31400000I150000J0D01*
G01*
X51900000Y31400000D01*
G75*
G02*
X52050000Y31250000I0J-150000D01*
G01*
X52050000Y30075000D01*
G75*
G02*
X51900000Y29925000I-150000J0D01*
G01*
G37*
G04 #@! TD.AperFunction*
G04 #@! TD*
G04 #@! TO.P,R22,1*
G04 #@! TO.N,/IGN/IN5*
G04 #@! TA.AperFunction,SMDPad,CuDef*
G36*
G01*
X14575000Y34625000D02*
X14575000Y31775000D01*
G75*
G02*
X14325000Y31525000I-250000J0D01*
G01*
X13600000Y31525000D01*
G75*
G02*
X13350000Y31775000I0J250000D01*
G01*
X13350000Y34625000D01*
G75*
G02*
X13600000Y34875000I250000J0D01*
G01*
X14325000Y34875000D01*
G75*
G02*
X14575000Y34625000I0J-250000D01*
G01*
G37*
G04 #@! TD.AperFunction*
G04 #@! TO.P,R22,2*
G04 #@! TO.N,/OUT_IGN5*
G04 #@! TA.AperFunction,SMDPad,CuDef*
G36*
G01*
X8650000Y34625000D02*
X8650000Y31775000D01*
G75*
G02*
X8400000Y31525000I-250000J0D01*
G01*
X7675000Y31525000D01*
G75*
G02*
X7425000Y31775000I0J250000D01*
G01*
X7425000Y34625000D01*
G75*
G02*
X7675000Y34875000I250000J0D01*
G01*
X8400000Y34875000D01*
G75*
G02*
X8650000Y34625000I0J-250000D01*
G01*
G37*
G04 #@! TD.AperFunction*
G04 #@! TD*
G04 #@! TO.P,R5,1*
G04 #@! TO.N,/DBW_DIS*
G04 #@! TA.AperFunction,SMDPad,CuDef*
G36*
G01*
X107850000Y61210000D02*
X107850000Y61990000D01*
G75*
G02*
X107920000Y62060000I70000J0D01*
G01*
X108480000Y62060000D01*
G75*
G02*
X108550000Y61990000I0J-70000D01*
G01*
X108550000Y61210000D01*
G75*
G02*
X108480000Y61140000I-70000J0D01*
G01*
X107920000Y61140000D01*
G75*
G02*
X107850000Y61210000I0J70000D01*
G01*
G37*
G04 #@! TD.AperFunction*
G04 #@! TO.P,R5,2*
G04 #@! TO.N,+3.3V*
G04 #@! TA.AperFunction,SMDPad,CuDef*
G36*
G01*
X109450000Y61210000D02*
X109450000Y61990000D01*
G75*
G02*
X109520000Y62060000I70000J0D01*
G01*
X110080000Y62060000D01*
G75*
G02*
X110150000Y61990000I0J-70000D01*
G01*
X110150000Y61210000D01*
G75*
G02*
X110080000Y61140000I-70000J0D01*
G01*
X109520000Y61140000D01*
G75*
G02*
X109450000Y61210000I0J70000D01*
G01*
G37*
G04 #@! TD.AperFunction*
G04 #@! TD*
G04 #@! TO.P,D6,1*
G04 #@! TO.N,/OUT_MR*
G04 #@! TA.AperFunction,SMDPad,CuDef*
G36*
G01*
X44450000Y30062500D02*
X44150000Y30062500D01*
G75*
G02*
X44000000Y30212500I0J150000D01*
G01*
X44000000Y31387500D01*
G75*
G02*
X44150000Y31537500I150000J0D01*
G01*
X44450000Y31537500D01*
G75*
G02*
X44600000Y31387500I0J-150000D01*
G01*
X44600000Y30212500D01*
G75*
G02*
X44450000Y30062500I-150000J0D01*
G01*
G37*
G04 #@! TD.AperFunction*
G04 #@! TO.P,D6,2*
G04 #@! TO.N,GND*
G04 #@! TA.AperFunction,SMDPad,CuDef*
G36*
G01*
X45400000Y31937500D02*
X45100000Y31937500D01*
G75*
G02*
X44950000Y32087500I0J150000D01*
G01*
X44950000Y33262500D01*
G75*
G02*
X45100000Y33412500I150000J0D01*
G01*
X45400000Y33412500D01*
G75*
G02*
X45550000Y33262500I0J-150000D01*
G01*
X45550000Y32087500D01*
G75*
G02*
X45400000Y31937500I-150000J0D01*
G01*
G37*
G04 #@! TD.AperFunction*
G04 #@! TO.P,D6,3*
G04 #@! TO.N,unconnected-(D6-Pad3)*
G04 #@! TA.AperFunction,SMDPad,CuDef*
G36*
G01*
X46350000Y30062500D02*
X46050000Y30062500D01*
G75*
G02*
X45900000Y30212500I0J150000D01*
G01*
X45900000Y31387500D01*
G75*
G02*
X46050000Y31537500I150000J0D01*
G01*
X46350000Y31537500D01*
G75*
G02*
X46500000Y31387500I0J-150000D01*
G01*
X46500000Y30212500D01*
G75*
G02*
X46350000Y30062500I-150000J0D01*
G01*
G37*
G04 #@! TD.AperFunction*
G04 #@! TD*
G04 #@! TO.P,R4,1*
G04 #@! TO.N,GND*
G04 #@! TA.AperFunction,SMDPad,CuDef*
G36*
G01*
X78615000Y81625000D02*
X79165000Y81625000D01*
G75*
G02*
X79365000Y81425000I0J-200000D01*
G01*
X79365000Y81025000D01*
G75*
G02*
X79165000Y80825000I-200000J0D01*
G01*
X78615000Y80825000D01*
G75*
G02*
X78415000Y81025000I0J200000D01*
G01*
X78415000Y81425000D01*
G75*
G02*
X78615000Y81625000I200000J0D01*
G01*
G37*
G04 #@! TD.AperFunction*
G04 #@! TO.P,R4,2*
G04 #@! TO.N,Net-(J3-CC2)*
G04 #@! TA.AperFunction,SMDPad,CuDef*
G36*
G01*
X78615000Y79975000D02*
X79165000Y79975000D01*
G75*
G02*
X79365000Y79775000I0J-200000D01*
G01*
X79365000Y79375000D01*
G75*
G02*
X79165000Y79175000I-200000J0D01*
G01*
X78615000Y79175000D01*
G75*
G02*
X78415000Y79375000I0J200000D01*
G01*
X78415000Y79775000D01*
G75*
G02*
X78615000Y79975000I200000J0D01*
G01*
G37*
G04 #@! TD.AperFunction*
G04 #@! TD*
G04 #@! TO.P,D7,1,K*
G04 #@! TO.N,Net-(D7-K)*
G04 #@! TA.AperFunction,SMDPad,CuDef*
G36*
G01*
X76200000Y78850000D02*
X76200000Y77950000D01*
G75*
G02*
X76100000Y77850000I-100000J0D01*
G01*
X75300000Y77850000D01*
G75*
G02*
X75200000Y77950000I0J100000D01*
G01*
X75200000Y78850000D01*
G75*
G02*
X75300000Y78950000I100000J0D01*
G01*
X76100000Y78950000D01*
G75*
G02*
X76200000Y78850000I0J-100000D01*
G01*
G37*
G04 #@! TD.AperFunction*
G04 #@! TO.P,D7,2,A*
G04 #@! TO.N,Net-(D7-A)*
G04 #@! TA.AperFunction,SMDPad,CuDef*
G36*
G01*
X74500000Y78850000D02*
X74500000Y77950000D01*
G75*
G02*
X74400000Y77850000I-100000J0D01*
G01*
X73600000Y77850000D01*
G75*
G02*
X73500000Y77950000I0J100000D01*
G01*
X73500000Y78850000D01*
G75*
G02*
X73600000Y78950000I100000J0D01*
G01*
X74400000Y78950000D01*
G75*
G02*
X74500000Y78850000I0J-100000D01*
G01*
G37*
G04 #@! TD.AperFunction*
G04 #@! TD*
G04 #@! TO.P,C1,1*
G04 #@! TO.N,GND*
G04 #@! TA.AperFunction,SMDPad,CuDef*
G36*
G01*
X114500000Y48375000D02*
X114500000Y47325000D01*
G75*
G02*
X114400000Y47225000I-100000J0D01*
G01*
X113600000Y47225000D01*
G75*
G02*
X113500000Y47325000I0J100000D01*
G01*
X113500000Y48375000D01*
G75*
G02*
X113600000Y48475000I100000J0D01*
G01*
X114400000Y48475000D01*
G75*
G02*
X114500000Y48375000I0J-100000D01*
G01*
G37*
G04 #@! TD.AperFunction*
G04 #@! TO.P,C1,2*
G04 #@! TO.N,/dbw/PWR*
G04 #@! TA.AperFunction,SMDPad,CuDef*
G36*
G01*
X112500000Y48375000D02*
X112500000Y47325000D01*
G75*
G02*
X112400000Y47225000I-100000J0D01*
G01*
X111600000Y47225000D01*
G75*
G02*
X111500000Y47325000I0J100000D01*
G01*
X111500000Y48375000D01*
G75*
G02*
X111600000Y48475000I100000J0D01*
G01*
X112400000Y48475000D01*
G75*
G02*
X112500000Y48375000I0J-100000D01*
G01*
G37*
G04 #@! TD.AperFunction*
G04 #@! TD*
G04 #@! TO.P,C5,1*
G04 #@! TO.N,GND*
G04 #@! TA.AperFunction,SMDPad,CuDef*
G36*
G01*
X114500000Y57375000D02*
X114500000Y56325000D01*
G75*
G02*
X114400000Y56225000I-100000J0D01*
G01*
X113600000Y56225000D01*
G75*
G02*
X113500000Y56325000I0J100000D01*
G01*
X113500000Y57375000D01*
G75*
G02*
X113600000Y57475000I100000J0D01*
G01*
X114400000Y57475000D01*
G75*
G02*
X114500000Y57375000I0J-100000D01*
G01*
G37*
G04 #@! TD.AperFunction*
G04 #@! TO.P,C5,2*
G04 #@! TO.N,/dbw/PWR*
G04 #@! TA.AperFunction,SMDPad,CuDef*
G36*
G01*
X112500000Y57375000D02*
X112500000Y56325000D01*
G75*
G02*
X112400000Y56225000I-100000J0D01*
G01*
X111600000Y56225000D01*
G75*
G02*
X111500000Y56325000I0J100000D01*
G01*
X111500000Y57375000D01*
G75*
G02*
X111600000Y57475000I100000J0D01*
G01*
X112400000Y57475000D01*
G75*
G02*
X112500000Y57375000I0J-100000D01*
G01*
G37*
G04 #@! TD.AperFunction*
G04 #@! TD*
G04 #@! TO.P,R19,1*
G04 #@! TO.N,Net-(Q11-G)*
G04 #@! TA.AperFunction,SMDPad,CuDef*
G36*
G01*
X15210000Y36350000D02*
X15990000Y36350000D01*
G75*
G02*
X16060000Y36280000I0J-70000D01*
G01*
X16060000Y35720000D01*
G75*
G02*
X15990000Y35650000I-70000J0D01*
G01*
X15210000Y35650000D01*
G75*
G02*
X15140000Y35720000I0J70000D01*
G01*
X15140000Y36280000D01*
G75*
G02*
X15210000Y36350000I70000J0D01*
G01*
G37*
G04 #@! TD.AperFunction*
G04 #@! TO.P,R19,2*
G04 #@! TO.N,/IGN/IN5*
G04 #@! TA.AperFunction,SMDPad,CuDef*
G36*
G01*
X15210000Y34750000D02*
X15990000Y34750000D01*
G75*
G02*
X16060000Y34680000I0J-70000D01*
G01*
X16060000Y34120000D01*
G75*
G02*
X15990000Y34050000I-70000J0D01*
G01*
X15210000Y34050000D01*
G75*
G02*
X15140000Y34120000I0J70000D01*
G01*
X15140000Y34680000D01*
G75*
G02*
X15210000Y34750000I70000J0D01*
G01*
G37*
G04 #@! TD.AperFunction*
G04 #@! TD*
D10*
G04 #@! TO.P,M6,E1,V5A_SWITCHABLE*
G04 #@! TO.N,+5VA*
X97999990Y42250010D03*
G04 #@! TO.P,M6,E2,GNDA*
G04 #@! TO.N,unconnected-(M6-GNDA-PadE2)*
X98000000Y46550010D03*
G04 #@! TO.P,M6,E3,I2C_SCL_(PB10)*
G04 #@! TO.N,unconnected-(M6-I2C_SCL_(PB10)-PadE3)*
X98000000Y47350000D03*
G04 #@! TO.P,M6,E4,I2C_SDA_(PB11)*
G04 #@! TO.N,unconnected-(M6-I2C_SDA_(PB11)-PadE4)*
X98000000Y48150010D03*
G04 #@! TO.P,M6,E5,IN_VIGN_(PA5)*
G04 #@! TO.N,/VIGN*
X98000000Y48950010D03*
G04 #@! TO.P,M6,E6,SPI2_CS_/_CAN2_RX_(PB12)*
G04 #@! TO.N,unconnected-(M6-SPI2_CS_{slash}_CAN2_RX_(PB12)-PadE6)*
X98000000Y49750010D03*
G04 #@! TO.P,M6,E7,SPI2_SCK_/_CAN2_TX_(PB13)*
G04 #@! TO.N,unconnected-(M6-SPI2_SCK_{slash}_CAN2_TX_(PB13)-PadE7)*
X98000000Y50550010D03*
G04 #@! TO.P,M6,E8,SPI2_MISO_(PB14)*
G04 #@! TO.N,/DBW_DIS*
X98000000Y51350010D03*
G04 #@! TO.P,M6,E9,SPI2_MOSI_(PB15)*
G04 #@! TO.N,unconnected-(M6-SPI2_MOSI_(PB15)-PadE9)*
X98000000Y52150010D03*
G04 #@! TO.P,M6,E10,OUT_INJ8_(PD12)*
G04 #@! TO.N,/Low Side/IN3*
X98000000Y52950010D03*
G04 #@! TO.P,M6,E11,OUT_INJ7_(PD15)*
G04 #@! TO.N,/Low Side/IN4*
X98000000Y53750010D03*
G04 #@! TO.P,M6,E12,OUT_INJ6_(PA8)*
G04 #@! TO.N,/INJECTORS/IN6*
X98000000Y54550010D03*
G04 #@! TO.P,M6,E13,OUT_INJ5_(PD2)*
G04 #@! TO.N,/INJECTORS/IN5*
X98000000Y55350010D03*
G04 #@! TO.P,M6,E14,OUT_INJ4_(PD10)*
G04 #@! TO.N,/INJECTORS/IN4*
X98000000Y56150010D03*
G04 #@! TO.P,M6,E15,OUT_INJ3_(PD11)*
G04 #@! TO.N,/INJECTORS/IN3*
X98000000Y56950010D03*
G04 #@! TO.P,M6,E16,OUT_INJ2_(PA9)*
G04 #@! TO.N,/INJECTORS/IN2*
X97999990Y57750000D03*
G04 #@! TO.P,M6,E17,OUT_INJ1_(PD3)*
G04 #@! TO.N,/INJECTORS/IN1*
X98000000Y58550010D03*
G04 #@! TO.P,M6,E18,OUT_PWM1_(PD13)*
G04 #@! TO.N,/Low Side/IN2*
X98000000Y59950010D03*
G04 #@! TO.P,M6,E19,OUT_PWM2_(PC6)*
G04 #@! TO.N,/Low Side/IN1*
X98000000Y60750000D03*
G04 #@! TO.P,M6,E20,OUT_PWM3_(PC7)*
G04 #@! TO.N,/DBW_PWM*
X98000000Y61550000D03*
G04 #@! TO.P,M6,E21,OUT_PWM4_(PC8)*
G04 #@! TO.N,/DBW_DIR*
X98000000Y62350000D03*
G04 #@! TO.P,M6,E22,OUT_PWM5_(PC9)*
G04 #@! TO.N,/ls2/IN2*
X98000000Y63150000D03*
G04 #@! TO.P,M6,E23,OUT_PWM6_(PD14)*
G04 #@! TO.N,/ls2/IN1*
X98000000Y63950010D03*
D15*
G04 #@! TO.P,M6,G,GND*
G04 #@! TO.N,GND*
X64399990Y68800000D03*
D16*
X64399990Y65750010D03*
D15*
X64399990Y62700000D03*
D17*
X64399990Y58250010D03*
D18*
X64399990Y44600010D03*
D19*
X64399990Y36600010D03*
D20*
X66200000Y35550000D03*
D21*
X68299990Y71350000D03*
D22*
X74349990Y71350000D03*
D23*
X77849990Y71350000D03*
D20*
X87599990Y71350000D03*
D21*
X95099990Y35550000D03*
D24*
X98200000Y67950020D03*
D16*
X98200000Y59250000D03*
D25*
X98200000Y44400000D03*
D26*
X98200000Y38600000D03*
D10*
G04 #@! TO.P,M6,N1,VBUS*
G04 #@! TO.N,/VBUS*
X97600000Y71150010D03*
G04 #@! TO.P,M6,N2,USBM_(PA11)*
G04 #@! TO.N,/USB-*
X96800000Y71150010D03*
G04 #@! TO.P,M6,N3,USBP_(PA12)*
G04 #@! TO.N,/USB+*
X96000000Y71150010D03*
G04 #@! TO.P,M6,N4,USBID_(PA10)*
G04 #@! TO.N,unconnected-(M6-USBID_(PA10)-PadN4)*
X95199990Y71150010D03*
G04 #@! TO.P,M6,N5,SWDIO_(PA13)*
G04 #@! TO.N,unconnected-(M6-SWDIO_(PA13)-PadN5)*
X94400000Y71150010D03*
G04 #@! TO.P,M6,N6,SWCLK_(PA14)*
G04 #@! TO.N,unconnected-(M6-SWCLK_(PA14)-PadN6)*
X93600000Y71150010D03*
G04 #@! TO.P,M6,N7,nReset*
G04 #@! TO.N,unconnected-(M6-nReset-PadN7)*
X92800000Y71150010D03*
G04 #@! TO.P,M6,N8,SWO_(PB3)*
G04 #@! TO.N,unconnected-(M6-SWO_(PB3)-PadN8)*
X91999990Y71150010D03*
G04 #@! TO.P,M6,N9,SPI3_CS_(PA15)*
G04 #@! TO.N,unconnected-(M6-SPI3_CS_(PA15)-PadN9)*
X91200000Y71150000D03*
G04 #@! TO.P,M6,N10,SPI3_SCK_(PC10)*
G04 #@! TO.N,unconnected-(M6-SPI3_SCK_(PC10)-PadN10)*
X90400000Y71150000D03*
G04 #@! TO.P,M6,N11,SPI3_MISO_(PC11)*
G04 #@! TO.N,unconnected-(M6-SPI3_MISO_(PC11)-PadN11)*
X89600000Y71150000D03*
G04 #@! TO.P,M6,N12,SPI3_MOSI_(PC12)*
G04 #@! TO.N,unconnected-(M6-SPI3_MOSI_(PC12)-PadN12)*
X88800000Y71150000D03*
G04 #@! TO.P,M6,N13,UART2_TX_(PD5)*
G04 #@! TO.N,unconnected-(M6-UART2_TX_(PD5)-PadN13)*
X86399990Y71150000D03*
G04 #@! TO.P,M6,N14,UART2_RX_(PD6)*
G04 #@! TO.N,unconnected-(M6-UART2_RX_(PD6)-PadN14)*
X85599990Y71150000D03*
G04 #@! TO.P,M6,N14a,LED_GREEN*
G04 #@! TO.N,Net-(D8-K)*
X84800000Y71150010D03*
G04 #@! TO.P,M6,N14b,LED_YELLOW*
G04 #@! TO.N,Net-(D7-K)*
X83999990Y71150010D03*
G04 #@! TO.P,M6,N15,V33_SWITCHABLE*
G04 #@! TO.N,+3.3VA*
X83199990Y71150010D03*
G04 #@! TO.P,M6,N16,BOOT0*
G04 #@! TO.N,unconnected-(M6-BOOT0-PadN16)*
X82399990Y71150010D03*
G04 #@! TO.P,M6,N17,VBAT*
G04 #@! TO.N,/VBAT*
X81599990Y71150010D03*
G04 #@! TO.P,M6,N18,UART8_RX_(PE0)*
G04 #@! TO.N,unconnected-(M6-UART8_RX_(PE0)-PadN18)*
X80799990Y71150000D03*
G04 #@! TO.P,M6,N19,UART8_TX_(PE1)*
G04 #@! TO.N,unconnected-(M6-UART8_TX_(PE1)-PadN19)*
X79999990Y71150000D03*
G04 #@! TO.P,M6,N20,OUT_PWR_EN_(PE10)*
G04 #@! TO.N,/PWR_EN*
X75699990Y71150000D03*
G04 #@! TO.P,M6,N21,V33*
G04 #@! TO.N,+3.3V*
X72999990Y71150000D03*
G04 #@! TO.P,M6,N22,VCC*
G04 #@! TO.N,+5V*
X72000000Y71150000D03*
G04 #@! TO.P,M6,N23,V33*
G04 #@! TO.N,unconnected-(M6-V33-PadN23)*
X64599990Y71150000D03*
G04 #@! TO.P,M6,S1,IN_D4_(PE15)*
G04 #@! TO.N,unconnected-(M6-IN_D4_(PE15)-PadS1)*
X91400010Y35750000D03*
G04 #@! TO.P,M6,S2,IN_D3_(PE14)*
G04 #@! TO.N,unconnected-(M6-IN_D3_(PE14)-PadS2)*
X90200000Y35750000D03*
G04 #@! TO.P,M6,S3,IN_D2_(PE13)*
G04 #@! TO.N,unconnected-(M6-IN_D2_(PE13)-PadS3)*
X89000000Y35750000D03*
G04 #@! TO.P,M6,S4,IN_D1_(PE12)*
G04 #@! TO.N,/CLUTCH*
X87800000Y35750000D03*
G04 #@! TO.P,M6,S5,VREF2*
G04 #@! TO.N,unconnected-(M6-VREF2-PadS5)*
X86600000Y35750000D03*
G04 #@! TO.P,M6,S6,IN_AUX4_(PC5)*
G04 #@! TO.N,/V_MAIN*
X85400000Y35750000D03*
G04 #@! TO.P,M6,S7,IN_AUX3_(PA7)*
G04 #@! TO.N,Net-(M3-OUT_KNOCK)*
X84200000Y35750000D03*
G04 #@! TO.P,M6,S8,IN_AUX2_(PC4/PE9)*
G04 #@! TO.N,/PPS2*
X83000000Y35750000D03*
G04 #@! TO.P,M6,S9,IN_AUX1_(PB0)*
G04 #@! TO.N,/TPS2*
X81800000Y35750000D03*
G04 #@! TO.P,M6,S10,IN_O2S2_(PA1)*
G04 #@! TO.N,unconnected-(M6-IN_O2S2_(PA1)-PadS10)*
X80600000Y35750000D03*
G04 #@! TO.P,M6,S11,IN_O2S_/_CAN_WAKEUP_(PA0)*
G04 #@! TO.N,unconnected-(M6-IN_O2S_{slash}_CAN_WAKEUP_(PA0)-PadS11)*
X79400000Y35750000D03*
G04 #@! TO.P,M6,S12,IN_MAP2_(PC1)*
G04 #@! TO.N,unconnected-(M6-IN_MAP2_(PC1)-PadS12)*
X78200000Y35750000D03*
G04 #@! TO.P,M6,S13,IN_MAP1_(PC0)*
G04 #@! TO.N,/MAP*
X77000000Y35750000D03*
G04 #@! TO.P,M6,S14,IN_CRANK_(PB1)*
G04 #@! TO.N,/CRANK*
X75800000Y35750000D03*
G04 #@! TO.P,M6,S15,IN_KNOCK_(PA2)*
G04 #@! TO.N,Net-(M4-OUT_KNOCK)*
X74600000Y35750000D03*
G04 #@! TO.P,M6,S16,IN_CAM_(PA6)*
G04 #@! TO.N,/CAM*
X73400000Y35750000D03*
G04 #@! TO.P,M6,S17,IN_VSS_(PE11)*
G04 #@! TO.N,unconnected-(M6-IN_VSS_(PE11)-PadS17)*
X72200000Y35750000D03*
G04 #@! TO.P,M6,S18,IN_TPS_(PA4)*
G04 #@! TO.N,/TPS1*
X70999990Y35750000D03*
G04 #@! TO.P,M6,S19,IN_PPS_(PA3)*
G04 #@! TO.N,/PPS1*
X69799990Y35750000D03*
G04 #@! TO.P,M6,S20,IN_IAT_(PC3)*
G04 #@! TO.N,/IAT*
X68599990Y35750000D03*
G04 #@! TO.P,M6,S21,IN_CLT_(PC2)*
G04 #@! TO.N,/CLT*
X67399990Y35750000D03*
G04 #@! TO.P,M6,S22,VREF1*
G04 #@! TO.N,Net-(M3-VREF)*
X64999990Y35750000D03*
G04 #@! TO.P,M6,W1,GNDA*
G04 #@! TO.N,GNDA*
X64599990Y38250010D03*
G04 #@! TO.P,M6,W2,V5A_SWITCHABLE*
G04 #@! TO.N,+5VA*
X64599990Y39250010D03*
G04 #@! TO.P,M6,W3,IGN8_(PE6)*
G04 #@! TO.N,unconnected-(M6-IGN8_(PE6)-PadW3)*
X64599990Y49950000D03*
G04 #@! TO.P,M6,W4,IGN7_(PB9)*
G04 #@! TO.N,unconnected-(M6-IGN7_(PB9)-PadW4)*
X64599990Y50950010D03*
G04 #@! TO.P,M6,W5,IGN6_(PB8)*
G04 #@! TO.N,/IGN/IN6*
X64599990Y51950000D03*
G04 #@! TO.P,M6,W6,IGN5_(PE2)*
G04 #@! TO.N,/IGN/IN5*
X64599990Y52950000D03*
G04 #@! TO.P,M6,W7,IGN4_(PE3)*
G04 #@! TO.N,/IGN/IN4*
X64599990Y53950000D03*
G04 #@! TO.P,M6,W8,IGN3_(PE4)*
G04 #@! TO.N,/IGN/IN3*
X64599990Y54950000D03*
G04 #@! TO.P,M6,W9,IGN2_(PE5)*
G04 #@! TO.N,/IGN/IN2*
X64599990Y55950000D03*
G04 #@! TO.P,M6,W10,IGN1_(PC13)*
G04 #@! TO.N,/IGN/IN1*
X64599990Y56950000D03*
G04 #@! TO.P,M6,W11,CANH*
G04 #@! TO.N,/CAN H*
X64599990Y59550000D03*
G04 #@! TO.P,M6,W12,CANL*
G04 #@! TO.N,/CAN L*
X64599990Y60350000D03*
G04 #@! TO.P,M6,W13,V33_REF*
G04 #@! TO.N,unconnected-(M6-V33_REF-PadW13)*
X64599990Y65050010D03*
G04 #@! TO.P,M6,W14,V5A_SWITCHABLE*
G04 #@! TO.N,unconnected-(M6-V5A_SWITCHABLE-PadW14)*
X64599990Y66450000D03*
G04 #@! TD*
G04 #@! TO.P,R17,1*
G04 #@! TO.N,/IGN/IN3*
G04 #@! TA.AperFunction,SMDPad,CuDef*
G36*
G01*
X14575000Y57025000D02*
X14575000Y54175000D01*
G75*
G02*
X14325000Y53925000I-250000J0D01*
G01*
X13600000Y53925000D01*
G75*
G02*
X13350000Y54175000I0J250000D01*
G01*
X13350000Y57025000D01*
G75*
G02*
X13600000Y57275000I250000J0D01*
G01*
X14325000Y57275000D01*
G75*
G02*
X14575000Y57025000I0J-250000D01*
G01*
G37*
G04 #@! TD.AperFunction*
G04 #@! TO.P,R17,2*
G04 #@! TO.N,/OUT_IGN3*
G04 #@! TA.AperFunction,SMDPad,CuDef*
G36*
G01*
X8650000Y57025000D02*
X8650000Y54175000D01*
G75*
G02*
X8400000Y53925000I-250000J0D01*
G01*
X7675000Y53925000D01*
G75*
G02*
X7425000Y54175000I0J250000D01*
G01*
X7425000Y57025000D01*
G75*
G02*
X7675000Y57275000I250000J0D01*
G01*
X8400000Y57275000D01*
G75*
G02*
X8650000Y57025000I0J-250000D01*
G01*
G37*
G04 #@! TD.AperFunction*
G04 #@! TD*
G04 #@! TO.P,R8,1*
G04 #@! TO.N,GND*
G04 #@! TA.AperFunction,SMDPad,CuDef*
G36*
G01*
X31650000Y34010000D02*
X31650000Y34790000D01*
G75*
G02*
X31720000Y34860000I70000J0D01*
G01*
X32280000Y34860000D01*
G75*
G02*
X32350000Y34790000I0J-70000D01*
G01*
X32350000Y34010000D01*
G75*
G02*
X32280000Y33940000I-70000J0D01*
G01*
X31720000Y33940000D01*
G75*
G02*
X31650000Y34010000I0J70000D01*
G01*
G37*
G04 #@! TD.AperFunction*
G04 #@! TO.P,R8,2*
G04 #@! TO.N,/INJECTORS/IN3*
G04 #@! TA.AperFunction,SMDPad,CuDef*
G36*
G01*
X33250000Y34010000D02*
X33250000Y34790000D01*
G75*
G02*
X33320000Y34860000I70000J0D01*
G01*
X33880000Y34860000D01*
G75*
G02*
X33950000Y34790000I0J-70000D01*
G01*
X33950000Y34010000D01*
G75*
G02*
X33880000Y33940000I-70000J0D01*
G01*
X33320000Y33940000D01*
G75*
G02*
X33250000Y34010000I0J70000D01*
G01*
G37*
G04 #@! TD.AperFunction*
G04 #@! TD*
G04 #@! TO.P,C11,1*
G04 #@! TO.N,GND*
G04 #@! TA.AperFunction,SMDPad,CuDef*
G36*
G01*
X114500000Y46375000D02*
X114500000Y45325000D01*
G75*
G02*
X114400000Y45225000I-100000J0D01*
G01*
X113600000Y45225000D01*
G75*
G02*
X113500000Y45325000I0J100000D01*
G01*
X113500000Y46375000D01*
G75*
G02*
X113600000Y46475000I100000J0D01*
G01*
X114400000Y46475000D01*
G75*
G02*
X114500000Y46375000I0J-100000D01*
G01*
G37*
G04 #@! TD.AperFunction*
G04 #@! TO.P,C11,2*
G04 #@! TO.N,/dbw/PWR*
G04 #@! TA.AperFunction,SMDPad,CuDef*
G36*
G01*
X112500000Y46375000D02*
X112500000Y45325000D01*
G75*
G02*
X112400000Y45225000I-100000J0D01*
G01*
X111600000Y45225000D01*
G75*
G02*
X111500000Y45325000I0J100000D01*
G01*
X111500000Y46375000D01*
G75*
G02*
X111600000Y46475000I100000J0D01*
G01*
X112400000Y46475000D01*
G75*
G02*
X112500000Y46375000I0J-100000D01*
G01*
G37*
G04 #@! TD.AperFunction*
G04 #@! TD*
G04 #@! TO.P,R23,1*
G04 #@! TO.N,/IGN/IN6*
G04 #@! TA.AperFunction,SMDPad,CuDef*
G36*
G01*
X14375000Y23425000D02*
X14375000Y20575000D01*
G75*
G02*
X14125000Y20325000I-250000J0D01*
G01*
X13400000Y20325000D01*
G75*
G02*
X13150000Y20575000I0J250000D01*
G01*
X13150000Y23425000D01*
G75*
G02*
X13400000Y23675000I250000J0D01*
G01*
X14125000Y23675000D01*
G75*
G02*
X14375000Y23425000I0J-250000D01*
G01*
G37*
G04 #@! TD.AperFunction*
G04 #@! TO.P,R23,2*
G04 #@! TO.N,/OUT_IGN6*
G04 #@! TA.AperFunction,SMDPad,CuDef*
G36*
G01*
X8450000Y23425000D02*
X8450000Y20575000D01*
G75*
G02*
X8200000Y20325000I-250000J0D01*
G01*
X7475000Y20325000D01*
G75*
G02*
X7225000Y20575000I0J250000D01*
G01*
X7225000Y23425000D01*
G75*
G02*
X7475000Y23675000I250000J0D01*
G01*
X8200000Y23675000D01*
G75*
G02*
X8450000Y23425000I0J-250000D01*
G01*
G37*
G04 #@! TD.AperFunction*
G04 #@! TD*
D27*
G04 #@! TO.P,M2,E1,LSU_Un*
G04 #@! TO.N,/WBO_Un_2*
X27050000Y90850000D03*
G04 #@! TO.P,M2,E2,LSU_Vm*
G04 #@! TO.N,/WBO_Vm_2*
X27050000Y87850000D03*
G04 #@! TO.P,M2,E3,LSU_Ip*
G04 #@! TO.N,/WBO_lp_2*
X27050000Y88850000D03*
G04 #@! TO.P,M2,E4,LSU_Rtrim*
G04 #@! TO.N,/WBO_Rtrim_2*
X27050000Y89850000D03*
D28*
G04 #@! TO.P,M2,E5,LSU_H+*
G04 #@! TO.N,/WBO_Heater_2*
X28300000Y85700000D03*
D29*
G04 #@! TO.P,M2,E6,LSU_H-*
G04 #@! TO.N,GND*
X26675000Y82200000D03*
D30*
G04 #@! TO.P,M2,G,GND*
X54025000Y79000000D03*
D31*
X54025000Y83340000D03*
X54025000Y86640000D03*
D32*
X54025000Y91725000D03*
D33*
X40350000Y78575000D03*
X40350000Y92325000D03*
D34*
X26675000Y79425000D03*
D35*
X26675000Y91975000D03*
G04 #@! TO.P,M2,J1,SEL1*
G04 #@! TO.N,unconnected-(M2-SEL1-PadJ1)*
G04 #@! TA.AperFunction,SMDPad,CuDef*
G36*
G01*
X44600000Y79600000D02*
X44600000Y80850000D01*
G75*
G02*
X44725000Y80975000I125000J0D01*
G01*
X44975000Y80975000D01*
G75*
G02*
X45100000Y80850000I0J-125000D01*
G01*
X45100000Y79600000D01*
G75*
G02*
X44975000Y79475000I-125000J0D01*
G01*
X44725000Y79475000D01*
G75*
G02*
X44600000Y79600000I0J125000D01*
G01*
G37*
G04 #@! TD.AperFunction*
G04 #@! TO.P,M2,J2,SEL2*
G04 #@! TO.N,Net-(M2-PULL_UP2)*
G04 #@! TA.AperFunction,SMDPad,CuDef*
G36*
G01*
X46275000Y82275000D02*
X46275000Y82525000D01*
G75*
G02*
X46400000Y82650000I125000J0D01*
G01*
X47650000Y82650000D01*
G75*
G02*
X47775000Y82525000I0J-125000D01*
G01*
X47775000Y82275000D01*
G75*
G02*
X47650000Y82150000I-125000J0D01*
G01*
X46400000Y82150000D01*
G75*
G02*
X46275000Y82275000I0J125000D01*
G01*
G37*
G04 #@! TD.AperFunction*
G04 #@! TO.P,M2,J_GND1,PULL_DOWN1*
G04 #@! TO.N,unconnected-(M2-PULL_DOWN1-PadJ_GND1)*
G04 #@! TA.AperFunction,SMDPad,CuDef*
G36*
G01*
X45400000Y79600000D02*
X45400000Y80850000D01*
G75*
G02*
X45525000Y80975000I125000J0D01*
G01*
X45775000Y80975000D01*
G75*
G02*
X45900000Y80850000I0J-125000D01*
G01*
X45900000Y79600000D01*
G75*
G02*
X45775000Y79475000I-125000J0D01*
G01*
X45525000Y79475000D01*
G75*
G02*
X45400000Y79600000I0J125000D01*
G01*
G37*
G04 #@! TD.AperFunction*
G04 #@! TO.P,M2,J_GND2,PULL_DOWN2*
G04 #@! TO.N,unconnected-(M2-PULL_DOWN2-PadJ_GND2)*
G04 #@! TA.AperFunction,SMDPad,CuDef*
G36*
G01*
X45725000Y82150000D02*
X45475000Y82150000D01*
G75*
G02*
X45350000Y82275000I0J125000D01*
G01*
X45350000Y82525000D01*
G75*
G02*
X45475000Y82650000I125000J0D01*
G01*
X45725000Y82650000D01*
G75*
G02*
X45850000Y82525000I0J-125000D01*
G01*
X45850000Y82275000D01*
G75*
G02*
X45725000Y82150000I-125000J0D01*
G01*
G37*
G04 #@! TD.AperFunction*
G04 #@! TO.P,M2,J_VCC1,PULL_UP1*
G04 #@! TO.N,unconnected-(M2-PULL_UP1-PadJ_VCC1)*
G04 #@! TA.AperFunction,SMDPad,CuDef*
G36*
G01*
X44600000Y81475000D02*
X44600000Y81725000D01*
G75*
G02*
X44725000Y81850000I125000J0D01*
G01*
X44975000Y81850000D01*
G75*
G02*
X45100000Y81725000I0J-125000D01*
G01*
X45100000Y81475000D01*
G75*
G02*
X44975000Y81350000I-125000J0D01*
G01*
X44725000Y81350000D01*
G75*
G02*
X44600000Y81475000I0J125000D01*
G01*
G37*
G04 #@! TD.AperFunction*
G04 #@! TO.P,M2,J_VCC2,PULL_UP2*
G04 #@! TO.N,Net-(M2-PULL_UP2)*
G04 #@! TA.AperFunction,SMDPad,CuDef*
G36*
G01*
X46275000Y81475000D02*
X46275000Y81725000D01*
G75*
G02*
X46400000Y81850000I125000J0D01*
G01*
X47650000Y81850000D01*
G75*
G02*
X47775000Y81725000I0J-125000D01*
G01*
X47775000Y81475000D01*
G75*
G02*
X47650000Y81350000I-125000J0D01*
G01*
X46400000Y81350000D01*
G75*
G02*
X46275000Y81475000I0J125000D01*
G01*
G37*
G04 #@! TD.AperFunction*
D27*
G04 #@! TO.P,M2,W1,V5_IN*
G04 #@! TO.N,+5VA*
X53641200Y81200000D03*
G04 #@! TO.P,M2,W2,CAN_VIO*
G04 #@! TO.N,unconnected-(M2-CAN_VIO-PadW2)*
X53641200Y82200000D03*
G04 #@! TO.P,M2,W3,CANL*
G04 #@! TO.N,/CAN L*
X53641200Y85496000D03*
G04 #@! TO.P,M2,W4,CANH*
G04 #@! TO.N,/CAN H*
X53641200Y84480000D03*
G04 #@! TO.P,M2,W5,nReset*
G04 #@! TO.N,Net-(J2-Pin_4)*
G04 #@! TA.AperFunction,SMDPad,CuDef*
G36*
G01*
X54150000Y87500000D02*
X54150000Y87500000D01*
G75*
G02*
X54025000Y87375000I-125000J0D01*
G01*
X53775000Y87375000D01*
G75*
G02*
X53650000Y87500000I0J125000D01*
G01*
X53650000Y87500000D01*
G75*
G02*
X53775000Y87625000I125000J0D01*
G01*
X54025000Y87625000D01*
G75*
G02*
X54150000Y87500000I0J-125000D01*
G01*
G37*
G04 #@! TD.AperFunction*
G04 #@! TO.P,M2,W6,SWDIO*
G04 #@! TO.N,Net-(J2-Pin_3)*
G04 #@! TA.AperFunction,SMDPad,CuDef*
G36*
G01*
X54150000Y88000000D02*
X54150000Y88000000D01*
G75*
G02*
X54025000Y87875000I-125000J0D01*
G01*
X53775000Y87875000D01*
G75*
G02*
X53650000Y88000000I0J125000D01*
G01*
X53650000Y88000000D01*
G75*
G02*
X53775000Y88125000I125000J0D01*
G01*
X54025000Y88125000D01*
G75*
G02*
X54150000Y88000000I0J-125000D01*
G01*
G37*
G04 #@! TD.AperFunction*
G04 #@! TO.P,M2,W7,SWCLK*
G04 #@! TO.N,Net-(J2-Pin_2)*
G04 #@! TA.AperFunction,SMDPad,CuDef*
G36*
G01*
X54150000Y88500000D02*
X54150000Y88500000D01*
G75*
G02*
X54025000Y88375000I-125000J0D01*
G01*
X53775000Y88375000D01*
G75*
G02*
X53650000Y88500000I0J125000D01*
G01*
X53650000Y88500000D01*
G75*
G02*
X53775000Y88625000I125000J0D01*
G01*
X54025000Y88625000D01*
G75*
G02*
X54150000Y88500000I0J-125000D01*
G01*
G37*
G04 #@! TD.AperFunction*
G04 #@! TO.P,M2,W8,V33_OUT*
G04 #@! TO.N,Net-(J2-Pin_1)*
G04 #@! TA.AperFunction,SMDPad,CuDef*
G36*
G01*
X54150000Y90600000D02*
X54150000Y90600000D01*
G75*
G02*
X54025000Y90475000I-125000J0D01*
G01*
X53775000Y90475000D01*
G75*
G02*
X53650000Y90600000I0J125000D01*
G01*
X53650000Y90600000D01*
G75*
G02*
X53775000Y90725000I125000J0D01*
G01*
X54025000Y90725000D01*
G75*
G02*
X54150000Y90600000I0J-125000D01*
G01*
G37*
G04 #@! TD.AperFunction*
G04 #@! TO.P,M2,W9,VDDA*
G04 #@! TO.N,unconnected-(M2-VDDA-PadW9)*
X53641200Y80200000D03*
G04 #@! TD*
G04 #@! TO.P,R16,1*
G04 #@! TO.N,/IGN/IN2*
G04 #@! TA.AperFunction,SMDPad,CuDef*
G36*
G01*
X14575000Y68225000D02*
X14575000Y65375000D01*
G75*
G02*
X14325000Y65125000I-250000J0D01*
G01*
X13600000Y65125000D01*
G75*
G02*
X13350000Y65375000I0J250000D01*
G01*
X13350000Y68225000D01*
G75*
G02*
X13600000Y68475000I250000J0D01*
G01*
X14325000Y68475000D01*
G75*
G02*
X14575000Y68225000I0J-250000D01*
G01*
G37*
G04 #@! TD.AperFunction*
G04 #@! TO.P,R16,2*
G04 #@! TO.N,/OUT_IGN2*
G04 #@! TA.AperFunction,SMDPad,CuDef*
G36*
G01*
X8650000Y68225000D02*
X8650000Y65375000D01*
G75*
G02*
X8400000Y65125000I-250000J0D01*
G01*
X7675000Y65125000D01*
G75*
G02*
X7425000Y65375000I0J250000D01*
G01*
X7425000Y68225000D01*
G75*
G02*
X7675000Y68475000I250000J0D01*
G01*
X8400000Y68475000D01*
G75*
G02*
X8650000Y68225000I0J-250000D01*
G01*
G37*
G04 #@! TD.AperFunction*
G04 #@! TD*
D13*
G04 #@! TO.P,Q4,1,G*
G04 #@! TO.N,/INJECTORS/IN4*
X28300000Y37850000D03*
G04 #@! TO.P,Q4,2,D*
G04 #@! TO.N,/OUT_INJ4*
X30600000Y37850000D03*
G04 #@! TO.P,Q4,3,S*
G04 #@! TO.N,GND*
X32900000Y37850000D03*
D14*
G04 #@! TO.P,Q4,4*
G04 #@! TO.N,N/C*
X30600000Y44150000D03*
G04 #@! TD*
G04 #@! TO.P,C3,1*
G04 #@! TO.N,GND*
G04 #@! TA.AperFunction,SMDPad,CuDef*
G36*
G01*
X114500000Y52875000D02*
X114500000Y51825000D01*
G75*
G02*
X114400000Y51725000I-100000J0D01*
G01*
X113600000Y51725000D01*
G75*
G02*
X113500000Y51825000I0J100000D01*
G01*
X113500000Y52875000D01*
G75*
G02*
X113600000Y52975000I100000J0D01*
G01*
X114400000Y52975000D01*
G75*
G02*
X114500000Y52875000I0J-100000D01*
G01*
G37*
G04 #@! TD.AperFunction*
G04 #@! TO.P,C3,2*
G04 #@! TO.N,/dbw/PWR*
G04 #@! TA.AperFunction,SMDPad,CuDef*
G36*
G01*
X112500000Y52875000D02*
X112500000Y51825000D01*
G75*
G02*
X112400000Y51725000I-100000J0D01*
G01*
X111600000Y51725000D01*
G75*
G02*
X111500000Y51825000I0J100000D01*
G01*
X111500000Y52875000D01*
G75*
G02*
X111600000Y52975000I100000J0D01*
G01*
X112400000Y52975000D01*
G75*
G02*
X112500000Y52875000I0J-100000D01*
G01*
G37*
G04 #@! TD.AperFunction*
G04 #@! TD*
D13*
G04 #@! TO.P,Q5,1,G*
G04 #@! TO.N,/INJECTORS/IN5*
X40300000Y32350000D03*
G04 #@! TO.P,Q5,2,D*
G04 #@! TO.N,/OUT_INJ5*
X38000000Y32350000D03*
G04 #@! TO.P,Q5,3,S*
G04 #@! TO.N,GND*
X35700000Y32350000D03*
D14*
G04 #@! TO.P,Q5,4*
G04 #@! TO.N,N/C*
X38000000Y26050000D03*
G04 #@! TD*
G04 #@! TO.P,C2,1*
G04 #@! TO.N,GND*
G04 #@! TA.AperFunction,SMDPad,CuDef*
G36*
G01*
X114500000Y50625000D02*
X114500000Y49575000D01*
G75*
G02*
X114400000Y49475000I-100000J0D01*
G01*
X113600000Y49475000D01*
G75*
G02*
X113500000Y49575000I0J100000D01*
G01*
X113500000Y50625000D01*
G75*
G02*
X113600000Y50725000I100000J0D01*
G01*
X114400000Y50725000D01*
G75*
G02*
X114500000Y50625000I0J-100000D01*
G01*
G37*
G04 #@! TD.AperFunction*
G04 #@! TO.P,C2,2*
G04 #@! TO.N,/dbw/PWR*
G04 #@! TA.AperFunction,SMDPad,CuDef*
G36*
G01*
X112500000Y50625000D02*
X112500000Y49575000D01*
G75*
G02*
X112400000Y49475000I-100000J0D01*
G01*
X111600000Y49475000D01*
G75*
G02*
X111500000Y49575000I0J100000D01*
G01*
X111500000Y50625000D01*
G75*
G02*
X111600000Y50725000I100000J0D01*
G01*
X112400000Y50725000D01*
G75*
G02*
X112500000Y50625000I0J-100000D01*
G01*
G37*
G04 #@! TD.AperFunction*
G04 #@! TD*
G04 #@! TO.P,R12,1*
G04 #@! TO.N,Net-(Q7-G)*
G04 #@! TA.AperFunction,SMDPad,CuDef*
G36*
G01*
X15410000Y81350000D02*
X16190000Y81350000D01*
G75*
G02*
X16260000Y81280000I0J-70000D01*
G01*
X16260000Y80720000D01*
G75*
G02*
X16190000Y80650000I-70000J0D01*
G01*
X15410000Y80650000D01*
G75*
G02*
X15340000Y80720000I0J70000D01*
G01*
X15340000Y81280000D01*
G75*
G02*
X15410000Y81350000I70000J0D01*
G01*
G37*
G04 #@! TD.AperFunction*
G04 #@! TO.P,R12,2*
G04 #@! TO.N,/IGN/IN1*
G04 #@! TA.AperFunction,SMDPad,CuDef*
G36*
G01*
X15410000Y79750000D02*
X16190000Y79750000D01*
G75*
G02*
X16260000Y79680000I0J-70000D01*
G01*
X16260000Y79120000D01*
G75*
G02*
X16190000Y79050000I-70000J0D01*
G01*
X15410000Y79050000D01*
G75*
G02*
X15340000Y79120000I0J70000D01*
G01*
X15340000Y79680000D01*
G75*
G02*
X15410000Y79750000I70000J0D01*
G01*
G37*
G04 #@! TD.AperFunction*
G04 #@! TD*
D13*
G04 #@! TO.P,Q6,1,G*
G04 #@! TO.N,/INJECTORS/IN6*
X35700000Y37850000D03*
G04 #@! TO.P,Q6,2,D*
G04 #@! TO.N,/OUT_INJ6*
X38000000Y37850000D03*
G04 #@! TO.P,Q6,3,S*
G04 #@! TO.N,GND*
X40300000Y37850000D03*
D14*
G04 #@! TO.P,Q6,4*
G04 #@! TO.N,N/C*
X38000000Y44150000D03*
G04 #@! TD*
G04 #@! TO.P,Q18,1,G*
G04 #@! TO.N,/ls2/IN2*
G04 #@! TA.AperFunction,SMDPad,CuDef*
G36*
G01*
X44400000Y25525000D02*
X44100000Y25525000D01*
G75*
G02*
X43950000Y25675000I0J150000D01*
G01*
X43950000Y26850000D01*
G75*
G02*
X44100000Y27000000I150000J0D01*
G01*
X44400000Y27000000D01*
G75*
G02*
X44550000Y26850000I0J-150000D01*
G01*
X44550000Y25675000D01*
G75*
G02*
X44400000Y25525000I-150000J0D01*
G01*
G37*
G04 #@! TD.AperFunction*
G04 #@! TO.P,Q18,2,D*
G04 #@! TO.N,/OUT_MR*
G04 #@! TA.AperFunction,SMDPad,CuDef*
G36*
G01*
X45350000Y27400000D02*
X45050000Y27400000D01*
G75*
G02*
X44900000Y27550000I0J150000D01*
G01*
X44900000Y28725000D01*
G75*
G02*
X45050000Y28875000I150000J0D01*
G01*
X45350000Y28875000D01*
G75*
G02*
X45500000Y28725000I0J-150000D01*
G01*
X45500000Y27550000D01*
G75*
G02*
X45350000Y27400000I-150000J0D01*
G01*
G37*
G04 #@! TD.AperFunction*
G04 #@! TO.P,Q18,3,S*
G04 #@! TO.N,GND*
G04 #@! TA.AperFunction,SMDPad,CuDef*
G36*
G01*
X46300000Y25525000D02*
X46000000Y25525000D01*
G75*
G02*
X45850000Y25675000I0J150000D01*
G01*
X45850000Y26850000D01*
G75*
G02*
X46000000Y27000000I150000J0D01*
G01*
X46300000Y27000000D01*
G75*
G02*
X46450000Y26850000I0J-150000D01*
G01*
X46450000Y25675000D01*
G75*
G02*
X46300000Y25525000I-150000J0D01*
G01*
G37*
G04 #@! TD.AperFunction*
G04 #@! TD*
G04 #@! TO.P,Q9,1,G*
G04 #@! TO.N,Net-(Q9-G)*
G04 #@! TA.AperFunction,SMDPad,CuDef*
G36*
G01*
X14600000Y59270000D02*
X14600000Y58570000D01*
G75*
G02*
X14350000Y58320000I-250000J0D01*
G01*
X12650000Y58320000D01*
G75*
G02*
X12400000Y58570000I0J250000D01*
G01*
X12400000Y59270000D01*
G75*
G02*
X12650000Y59520000I250000J0D01*
G01*
X14350000Y59520000D01*
G75*
G02*
X14600000Y59270000I0J-250000D01*
G01*
G37*
G04 #@! TD.AperFunction*
G04 #@! TO.P,Q9,2,C*
G04 #@! TO.N,/OUT_IGN3*
G04 #@! TA.AperFunction,SMDPad,CuDef*
G36*
G01*
X10400000Y60800000D02*
X10400000Y58550000D01*
G75*
G02*
X10150000Y58300000I-250000J0D01*
G01*
X7600000Y58300000D01*
G75*
G02*
X7350000Y58550000I0J250000D01*
G01*
X7350000Y60800000D01*
G75*
G02*
X7600000Y61050000I250000J0D01*
G01*
X10150000Y61050000D01*
G75*
G02*
X10400000Y60800000I0J-250000D01*
G01*
G37*
G04 #@! TD.AperFunction*
G04 #@! TA.AperFunction,SMDPad,CuDef*
G36*
G01*
X10400000Y63850000D02*
X10400000Y61600000D01*
G75*
G02*
X10150000Y61350000I-250000J0D01*
G01*
X7600000Y61350000D01*
G75*
G02*
X7350000Y61600000I0J250000D01*
G01*
X7350000Y63850000D01*
G75*
G02*
X7600000Y64100000I250000J0D01*
G01*
X10150000Y64100000D01*
G75*
G02*
X10400000Y63850000I0J-250000D01*
G01*
G37*
G04 #@! TD.AperFunction*
G04 #@! TA.AperFunction,SMDPad,CuDef*
G36*
G01*
X10400000Y63850003D02*
X10400000Y58549997D01*
G75*
G02*
X10150003Y58300000I-249997J0D01*
G01*
X4249997Y58300000D01*
G75*
G02*
X4000000Y58549997I0J249997D01*
G01*
X4000000Y63850003D01*
G75*
G02*
X4249997Y64100000I249997J0D01*
G01*
X10150003Y64100000D01*
G75*
G02*
X10400000Y63850003I0J-249997D01*
G01*
G37*
G04 #@! TD.AperFunction*
G04 #@! TA.AperFunction,SMDPad,CuDef*
G36*
G01*
X7050000Y60800000D02*
X7050000Y58550000D01*
G75*
G02*
X6800000Y58300000I-250000J0D01*
G01*
X4250000Y58300000D01*
G75*
G02*
X4000000Y58550000I0J250000D01*
G01*
X4000000Y60800000D01*
G75*
G02*
X4250000Y61050000I250000J0D01*
G01*
X6800000Y61050000D01*
G75*
G02*
X7050000Y60800000I0J-250000D01*
G01*
G37*
G04 #@! TD.AperFunction*
G04 #@! TA.AperFunction,SMDPad,CuDef*
G36*
G01*
X7050000Y63850000D02*
X7050000Y61600000D01*
G75*
G02*
X6800000Y61350000I-250000J0D01*
G01*
X4250000Y61350000D01*
G75*
G02*
X4000000Y61600000I0J250000D01*
G01*
X4000000Y63850000D01*
G75*
G02*
X4250000Y64100000I250000J0D01*
G01*
X6800000Y64100000D01*
G75*
G02*
X7050000Y63850000I0J-250000D01*
G01*
G37*
G04 #@! TD.AperFunction*
G04 #@! TO.P,Q9,3,E*
G04 #@! TO.N,GND*
G04 #@! TA.AperFunction,SMDPad,CuDef*
G36*
G01*
X14600000Y63830000D02*
X14600000Y63130000D01*
G75*
G02*
X14350000Y62880000I-250000J0D01*
G01*
X12650000Y62880000D01*
G75*
G02*
X12400000Y63130000I0J250000D01*
G01*
X12400000Y63830000D01*
G75*
G02*
X12650000Y64080000I250000J0D01*
G01*
X14350000Y64080000D01*
G75*
G02*
X14600000Y63830000I0J-250000D01*
G01*
G37*
G04 #@! TD.AperFunction*
G04 #@! TD*
D36*
G04 #@! TO.P,J3,A1,GND*
G04 #@! TO.N,GND*
X83950000Y83980000D03*
G04 #@! TO.P,J3,A2*
G04 #@! TO.N,N/C*
X83450000Y83980000D03*
G04 #@! TO.P,J3,A3*
X82950000Y83980000D03*
G04 #@! TO.P,J3,A4,VBUS*
G04 #@! TO.N,/VBUS*
X82450000Y83980000D03*
G04 #@! TO.P,J3,A5,CC1*
G04 #@! TO.N,Net-(J3-CC1)*
X81950000Y83980000D03*
G04 #@! TO.P,J3,A6,D+*
G04 #@! TO.N,/USB+*
X81450000Y83980000D03*
G04 #@! TO.P,J3,A7,D-*
G04 #@! TO.N,/USB-*
X80950000Y83980000D03*
G04 #@! TO.P,J3,A8,SBU1*
G04 #@! TO.N,unconnected-(J3-SBU1-PadA8)*
X80450000Y83980000D03*
G04 #@! TO.P,J3,A9,VBUS*
G04 #@! TO.N,/VBUS*
X79950000Y83980000D03*
G04 #@! TO.P,J3,A10*
G04 #@! TO.N,N/C*
X79450000Y83980000D03*
G04 #@! TO.P,J3,A11*
X78950000Y83980000D03*
G04 #@! TO.P,J3,A12,GND*
G04 #@! TO.N,GND*
X78450000Y83980000D03*
G04 #@! TO.P,J3,B1,GND*
X78700000Y85680000D03*
G04 #@! TO.P,J3,B2*
G04 #@! TO.N,N/C*
X79200000Y85680000D03*
G04 #@! TO.P,J3,B3*
X79700000Y85680000D03*
G04 #@! TO.P,J3,B4,VBUS*
G04 #@! TO.N,/VBUS*
X80200000Y85680000D03*
G04 #@! TO.P,J3,B5,CC2*
G04 #@! TO.N,Net-(J3-CC2)*
X80700000Y85680000D03*
G04 #@! TO.P,J3,B6,D+*
G04 #@! TO.N,/USB+*
X81200000Y85680000D03*
G04 #@! TO.P,J3,B7,D-*
G04 #@! TO.N,/USB-*
X81700000Y85680000D03*
G04 #@! TO.P,J3,B8,SBU2*
G04 #@! TO.N,unconnected-(J3-SBU2-PadB8)*
X82200000Y85680000D03*
G04 #@! TO.P,J3,B9,VBUS*
G04 #@! TO.N,/VBUS*
X82700000Y85680000D03*
G04 #@! TO.P,J3,B10*
G04 #@! TO.N,N/C*
X83200000Y85680000D03*
G04 #@! TO.P,J3,B11*
X83700000Y85680000D03*
G04 #@! TO.P,J3,B12,GND*
G04 #@! TO.N,GND*
X84200000Y85680000D03*
D37*
G04 #@! TO.P,J3,S1,SHIELD*
X85690000Y91840000D03*
X85330000Y85890000D03*
X77070000Y85890000D03*
X76710000Y91840000D03*
G04 #@! TD*
G04 #@! TO.P,R26,1*
G04 #@! TO.N,GND*
G04 #@! TA.AperFunction,SMDPad,CuDef*
G36*
G01*
X128410000Y61950000D02*
X129190000Y61950000D01*
G75*
G02*
X129260000Y61880000I0J-70000D01*
G01*
X129260000Y61320000D01*
G75*
G02*
X129190000Y61250000I-70000J0D01*
G01*
X128410000Y61250000D01*
G75*
G02*
X128340000Y61320000I0J70000D01*
G01*
X128340000Y61880000D01*
G75*
G02*
X128410000Y61950000I70000J0D01*
G01*
G37*
G04 #@! TD.AperFunction*
G04 #@! TO.P,R26,2*
G04 #@! TO.N,/Low Side/IN3*
G04 #@! TA.AperFunction,SMDPad,CuDef*
G36*
G01*
X128410000Y60350000D02*
X129190000Y60350000D01*
G75*
G02*
X129260000Y60280000I0J-70000D01*
G01*
X129260000Y59720000D01*
G75*
G02*
X129190000Y59650000I-70000J0D01*
G01*
X128410000Y59650000D01*
G75*
G02*
X128340000Y59720000I0J70000D01*
G01*
X128340000Y60280000D01*
G75*
G02*
X128410000Y60350000I70000J0D01*
G01*
G37*
G04 #@! TD.AperFunction*
G04 #@! TD*
G04 #@! TO.P,R13,1*
G04 #@! TO.N,Net-(Q8-G)*
G04 #@! TA.AperFunction,SMDPad,CuDef*
G36*
G01*
X15410000Y69950000D02*
X16190000Y69950000D01*
G75*
G02*
X16260000Y69880000I0J-70000D01*
G01*
X16260000Y69320000D01*
G75*
G02*
X16190000Y69250000I-70000J0D01*
G01*
X15410000Y69250000D01*
G75*
G02*
X15340000Y69320000I0J70000D01*
G01*
X15340000Y69880000D01*
G75*
G02*
X15410000Y69950000I70000J0D01*
G01*
G37*
G04 #@! TD.AperFunction*
G04 #@! TO.P,R13,2*
G04 #@! TO.N,/IGN/IN2*
G04 #@! TA.AperFunction,SMDPad,CuDef*
G36*
G01*
X15410000Y68350000D02*
X16190000Y68350000D01*
G75*
G02*
X16260000Y68280000I0J-70000D01*
G01*
X16260000Y67720000D01*
G75*
G02*
X16190000Y67650000I-70000J0D01*
G01*
X15410000Y67650000D01*
G75*
G02*
X15340000Y67720000I0J70000D01*
G01*
X15340000Y68280000D01*
G75*
G02*
X15410000Y68350000I70000J0D01*
G01*
G37*
G04 #@! TD.AperFunction*
G04 #@! TD*
G04 #@! TO.P,D4,1,K*
G04 #@! TO.N,+12V_RAW*
G04 #@! TA.AperFunction,SMDPad,CuDef*
G36*
G01*
X128300000Y71090000D02*
X128300000Y72110000D01*
G75*
G02*
X128390000Y72200000I90000J0D01*
G01*
X129110000Y72200000D01*
G75*
G02*
X129200000Y72110000I0J-90000D01*
G01*
X129200000Y71090000D01*
G75*
G02*
X129110000Y71000000I-90000J0D01*
G01*
X128390000Y71000000D01*
G75*
G02*
X128300000Y71090000I0J90000D01*
G01*
G37*
G04 #@! TD.AperFunction*
G04 #@! TO.P,D4,2,A*
G04 #@! TO.N,/OUT_RPM*
G04 #@! TA.AperFunction,SMDPad,CuDef*
G36*
G01*
X131600000Y71090000D02*
X131600000Y72110000D01*
G75*
G02*
X131690000Y72200000I90000J0D01*
G01*
X132410000Y72200000D01*
G75*
G02*
X132500000Y72110000I0J-90000D01*
G01*
X132500000Y71090000D01*
G75*
G02*
X132410000Y71000000I-90000J0D01*
G01*
X131690000Y71000000D01*
G75*
G02*
X131600000Y71090000I0J90000D01*
G01*
G37*
G04 #@! TD.AperFunction*
G04 #@! TD*
G04 #@! TO.P,Q7,1,G*
G04 #@! TO.N,Net-(Q7-G)*
G04 #@! TA.AperFunction,SMDPad,CuDef*
G36*
G01*
X14725000Y81745000D02*
X14725000Y81045000D01*
G75*
G02*
X14475000Y80795000I-250000J0D01*
G01*
X12775000Y80795000D01*
G75*
G02*
X12525000Y81045000I0J250000D01*
G01*
X12525000Y81745000D01*
G75*
G02*
X12775000Y81995000I250000J0D01*
G01*
X14475000Y81995000D01*
G75*
G02*
X14725000Y81745000I0J-250000D01*
G01*
G37*
G04 #@! TD.AperFunction*
G04 #@! TO.P,Q7,2,C*
G04 #@! TO.N,/OUT_IGN1*
G04 #@! TA.AperFunction,SMDPad,CuDef*
G36*
G01*
X10525000Y83275000D02*
X10525000Y81025000D01*
G75*
G02*
X10275000Y80775000I-250000J0D01*
G01*
X7725000Y80775000D01*
G75*
G02*
X7475000Y81025000I0J250000D01*
G01*
X7475000Y83275000D01*
G75*
G02*
X7725000Y83525000I250000J0D01*
G01*
X10275000Y83525000D01*
G75*
G02*
X10525000Y83275000I0J-250000D01*
G01*
G37*
G04 #@! TD.AperFunction*
G04 #@! TA.AperFunction,SMDPad,CuDef*
G36*
G01*
X10525000Y86325000D02*
X10525000Y84075000D01*
G75*
G02*
X10275000Y83825000I-250000J0D01*
G01*
X7725000Y83825000D01*
G75*
G02*
X7475000Y84075000I0J250000D01*
G01*
X7475000Y86325000D01*
G75*
G02*
X7725000Y86575000I250000J0D01*
G01*
X10275000Y86575000D01*
G75*
G02*
X10525000Y86325000I0J-250000D01*
G01*
G37*
G04 #@! TD.AperFunction*
G04 #@! TA.AperFunction,SMDPad,CuDef*
G36*
G01*
X10525000Y86325003D02*
X10525000Y81024997D01*
G75*
G02*
X10275003Y80775000I-249997J0D01*
G01*
X4374997Y80775000D01*
G75*
G02*
X4125000Y81024997I0J249997D01*
G01*
X4125000Y86325003D01*
G75*
G02*
X4374997Y86575000I249997J0D01*
G01*
X10275003Y86575000D01*
G75*
G02*
X10525000Y86325003I0J-249997D01*
G01*
G37*
G04 #@! TD.AperFunction*
G04 #@! TA.AperFunction,SMDPad,CuDef*
G36*
G01*
X7175000Y83275000D02*
X7175000Y81025000D01*
G75*
G02*
X6925000Y80775000I-250000J0D01*
G01*
X4375000Y80775000D01*
G75*
G02*
X4125000Y81025000I0J250000D01*
G01*
X4125000Y83275000D01*
G75*
G02*
X4375000Y83525000I250000J0D01*
G01*
X6925000Y83525000D01*
G75*
G02*
X7175000Y83275000I0J-250000D01*
G01*
G37*
G04 #@! TD.AperFunction*
G04 #@! TA.AperFunction,SMDPad,CuDef*
G36*
G01*
X7175000Y86325000D02*
X7175000Y84075000D01*
G75*
G02*
X6925000Y83825000I-250000J0D01*
G01*
X4375000Y83825000D01*
G75*
G02*
X4125000Y84075000I0J250000D01*
G01*
X4125000Y86325000D01*
G75*
G02*
X4375000Y86575000I250000J0D01*
G01*
X6925000Y86575000D01*
G75*
G02*
X7175000Y86325000I0J-250000D01*
G01*
G37*
G04 #@! TD.AperFunction*
G04 #@! TO.P,Q7,3,E*
G04 #@! TO.N,GND*
G04 #@! TA.AperFunction,SMDPad,CuDef*
G36*
G01*
X14725000Y86305000D02*
X14725000Y85605000D01*
G75*
G02*
X14475000Y85355000I-250000J0D01*
G01*
X12775000Y85355000D01*
G75*
G02*
X12525000Y85605000I0J250000D01*
G01*
X12525000Y86305000D01*
G75*
G02*
X12775000Y86555000I250000J0D01*
G01*
X14475000Y86555000D01*
G75*
G02*
X14725000Y86305000I0J-250000D01*
G01*
G37*
G04 #@! TD.AperFunction*
G04 #@! TD*
G04 #@! TO.P,R25,1*
G04 #@! TO.N,GND*
G04 #@! TA.AperFunction,SMDPad,CuDef*
G36*
G01*
X128410000Y53750000D02*
X129190000Y53750000D01*
G75*
G02*
X129260000Y53680000I0J-70000D01*
G01*
X129260000Y53120000D01*
G75*
G02*
X129190000Y53050000I-70000J0D01*
G01*
X128410000Y53050000D01*
G75*
G02*
X128340000Y53120000I0J70000D01*
G01*
X128340000Y53680000D01*
G75*
G02*
X128410000Y53750000I70000J0D01*
G01*
G37*
G04 #@! TD.AperFunction*
G04 #@! TO.P,R25,2*
G04 #@! TO.N,/Low Side/IN2*
G04 #@! TA.AperFunction,SMDPad,CuDef*
G36*
G01*
X128410000Y52150000D02*
X129190000Y52150000D01*
G75*
G02*
X129260000Y52080000I0J-70000D01*
G01*
X129260000Y51520000D01*
G75*
G02*
X129190000Y51450000I-70000J0D01*
G01*
X128410000Y51450000D01*
G75*
G02*
X128340000Y51520000I0J70000D01*
G01*
X128340000Y52080000D01*
G75*
G02*
X128410000Y52150000I70000J0D01*
G01*
G37*
G04 #@! TD.AperFunction*
G04 #@! TD*
G04 #@! TO.P,R30,1*
G04 #@! TO.N,Net-(D7-A)*
G04 #@! TA.AperFunction,SMDPad,CuDef*
G36*
G01*
X72650001Y78840002D02*
X72650001Y78060002D01*
G75*
G02*
X72580001Y77990002I-70000J0D01*
G01*
X72020001Y77990002D01*
G75*
G02*
X71950001Y78060002I0J70000D01*
G01*
X71950001Y78840002D01*
G75*
G02*
X72020001Y78910002I70000J0D01*
G01*
X72580001Y78910002D01*
G75*
G02*
X72650001Y78840002I0J-70000D01*
G01*
G37*
G04 #@! TD.AperFunction*
G04 #@! TO.P,R30,2*
G04 #@! TO.N,+3.3V*
G04 #@! TA.AperFunction,SMDPad,CuDef*
G36*
G01*
X71050001Y78840002D02*
X71050001Y78060002D01*
G75*
G02*
X70980001Y77990002I-70000J0D01*
G01*
X70420001Y77990002D01*
G75*
G02*
X70350001Y78060002I0J70000D01*
G01*
X70350001Y78840002D01*
G75*
G02*
X70420001Y78910002I70000J0D01*
G01*
X70980001Y78910002D01*
G75*
G02*
X71050001Y78840002I0J-70000D01*
G01*
G37*
G04 #@! TD.AperFunction*
G04 #@! TD*
D38*
G04 #@! TO.P,U2,1,DIR*
G04 #@! TO.N,/DBW_DIR*
X108780000Y64275000D03*
G04 #@! TO.P,U2,2,VSO*
G04 #@! TO.N,+3.3V*
X109780000Y64275000D03*
G04 #@! TO.P,U2,3,SO*
G04 #@! TO.N,unconnected-(U2-SO-Pad3)*
X110780000Y64275000D03*
G04 #@! TO.P,U2,4,VS*
G04 #@! TO.N,/dbw/PWR*
X111780000Y64275000D03*
G04 #@! TO.P,U2,5,OUT1*
G04 #@! TO.N,/OUT_DBW -*
X112780000Y64275000D03*
G04 #@! TO.P,U2,6,GND*
G04 #@! TO.N,GND*
X113780000Y64275000D03*
G04 #@! TO.P,U2,7,OUT2*
G04 #@! TO.N,/OUT_DBW+*
X113780000Y73875000D03*
G04 #@! TO.P,U2,8,SI*
G04 #@! TO.N,GND*
X112780000Y73875000D03*
G04 #@! TO.P,U2,9,CSN*
X111780000Y73875000D03*
G04 #@! TO.P,U2,10,SCK*
X110780000Y73875000D03*
G04 #@! TO.P,U2,11,DIS*
G04 #@! TO.N,/DBW_DIS*
X109780000Y73875000D03*
G04 #@! TO.P,U2,12,PWM*
G04 #@! TO.N,/DBW_PWM*
X108780000Y73875000D03*
D39*
G04 #@! TO.P,U2,13,GND*
G04 #@! TO.N,GND*
X111280000Y69075000D03*
G04 #@! TD*
G04 #@! TO.P,R6,1*
G04 #@! TO.N,GND*
G04 #@! TA.AperFunction,SMDPad,CuDef*
G36*
G01*
X24050000Y34010000D02*
X24050000Y34790000D01*
G75*
G02*
X24120000Y34860000I70000J0D01*
G01*
X24680000Y34860000D01*
G75*
G02*
X24750000Y34790000I0J-70000D01*
G01*
X24750000Y34010000D01*
G75*
G02*
X24680000Y33940000I-70000J0D01*
G01*
X24120000Y33940000D01*
G75*
G02*
X24050000Y34010000I0J70000D01*
G01*
G37*
G04 #@! TD.AperFunction*
G04 #@! TO.P,R6,2*
G04 #@! TO.N,/INJECTORS/IN1*
G04 #@! TA.AperFunction,SMDPad,CuDef*
G36*
G01*
X25650000Y34010000D02*
X25650000Y34790000D01*
G75*
G02*
X25720000Y34860000I70000J0D01*
G01*
X26280000Y34860000D01*
G75*
G02*
X26350000Y34790000I0J-70000D01*
G01*
X26350000Y34010000D01*
G75*
G02*
X26280000Y33940000I-70000J0D01*
G01*
X25720000Y33940000D01*
G75*
G02*
X25650000Y34010000I0J70000D01*
G01*
G37*
G04 #@! TD.AperFunction*
G04 #@! TD*
G04 #@! TO.P,Q11,1,G*
G04 #@! TO.N,Net-(Q11-G)*
G04 #@! TA.AperFunction,SMDPad,CuDef*
G36*
G01*
X14525000Y36870000D02*
X14525000Y36170000D01*
G75*
G02*
X14275000Y35920000I-250000J0D01*
G01*
X12575000Y35920000D01*
G75*
G02*
X12325000Y36170000I0J250000D01*
G01*
X12325000Y36870000D01*
G75*
G02*
X12575000Y37120000I250000J0D01*
G01*
X14275000Y37120000D01*
G75*
G02*
X14525000Y36870000I0J-250000D01*
G01*
G37*
G04 #@! TD.AperFunction*
G04 #@! TO.P,Q11,2,C*
G04 #@! TO.N,/OUT_IGN5*
G04 #@! TA.AperFunction,SMDPad,CuDef*
G36*
G01*
X10325000Y38400000D02*
X10325000Y36150000D01*
G75*
G02*
X10075000Y35900000I-250000J0D01*
G01*
X7525000Y35900000D01*
G75*
G02*
X7275000Y36150000I0J250000D01*
G01*
X7275000Y38400000D01*
G75*
G02*
X7525000Y38650000I250000J0D01*
G01*
X10075000Y38650000D01*
G75*
G02*
X10325000Y38400000I0J-250000D01*
G01*
G37*
G04 #@! TD.AperFunction*
G04 #@! TA.AperFunction,SMDPad,CuDef*
G36*
G01*
X10325000Y41450000D02*
X10325000Y39200000D01*
G75*
G02*
X10075000Y38950000I-250000J0D01*
G01*
X7525000Y38950000D01*
G75*
G02*
X7275000Y39200000I0J250000D01*
G01*
X7275000Y41450000D01*
G75*
G02*
X7525000Y41700000I250000J0D01*
G01*
X10075000Y41700000D01*
G75*
G02*
X10325000Y41450000I0J-250000D01*
G01*
G37*
G04 #@! TD.AperFunction*
G04 #@! TA.AperFunction,SMDPad,CuDef*
G36*
G01*
X10325000Y41450003D02*
X10325000Y36149997D01*
G75*
G02*
X10075003Y35900000I-249997J0D01*
G01*
X4174997Y35900000D01*
G75*
G02*
X3925000Y36149997I0J249997D01*
G01*
X3925000Y41450003D01*
G75*
G02*
X4174997Y41700000I249997J0D01*
G01*
X10075003Y41700000D01*
G75*
G02*
X10325000Y41450003I0J-249997D01*
G01*
G37*
G04 #@! TD.AperFunction*
G04 #@! TA.AperFunction,SMDPad,CuDef*
G36*
G01*
X6975000Y38400000D02*
X6975000Y36150000D01*
G75*
G02*
X6725000Y35900000I-250000J0D01*
G01*
X4175000Y35900000D01*
G75*
G02*
X3925000Y36150000I0J250000D01*
G01*
X3925000Y38400000D01*
G75*
G02*
X4175000Y38650000I250000J0D01*
G01*
X6725000Y38650000D01*
G75*
G02*
X6975000Y38400000I0J-250000D01*
G01*
G37*
G04 #@! TD.AperFunction*
G04 #@! TA.AperFunction,SMDPad,CuDef*
G36*
G01*
X6975000Y41450000D02*
X6975000Y39200000D01*
G75*
G02*
X6725000Y38950000I-250000J0D01*
G01*
X4175000Y38950000D01*
G75*
G02*
X3925000Y39200000I0J250000D01*
G01*
X3925000Y41450000D01*
G75*
G02*
X4175000Y41700000I250000J0D01*
G01*
X6725000Y41700000D01*
G75*
G02*
X6975000Y41450000I0J-250000D01*
G01*
G37*
G04 #@! TD.AperFunction*
G04 #@! TO.P,Q11,3,E*
G04 #@! TO.N,GND*
G04 #@! TA.AperFunction,SMDPad,CuDef*
G36*
G01*
X14525000Y41430000D02*
X14525000Y40730000D01*
G75*
G02*
X14275000Y40480000I-250000J0D01*
G01*
X12575000Y40480000D01*
G75*
G02*
X12325000Y40730000I0J250000D01*
G01*
X12325000Y41430000D01*
G75*
G02*
X12575000Y41680000I250000J0D01*
G01*
X14275000Y41680000D01*
G75*
G02*
X14525000Y41430000I0J-250000D01*
G01*
G37*
G04 #@! TD.AperFunction*
G04 #@! TD*
D13*
G04 #@! TO.P,Q2,1,G*
G04 #@! TO.N,/INJECTORS/IN2*
X20900000Y37850000D03*
G04 #@! TO.P,Q2,2,D*
G04 #@! TO.N,/OUT_INJ2*
X23200000Y37850000D03*
G04 #@! TO.P,Q2,3,S*
G04 #@! TO.N,GND*
X25500000Y37850000D03*
D14*
G04 #@! TO.P,Q2,4*
G04 #@! TO.N,N/C*
X23200000Y44150000D03*
G04 #@! TD*
D40*
G04 #@! TO.P,J2,1,Pin_1*
G04 #@! TO.N,Net-(J2-Pin_1)*
X70160000Y91800000D03*
D41*
G04 #@! TO.P,J2,2,Pin_2*
G04 #@! TO.N,Net-(J2-Pin_2)*
X67620000Y91800000D03*
G04 #@! TO.P,J2,3,Pin_3*
G04 #@! TO.N,Net-(J2-Pin_3)*
X65080000Y91800000D03*
G04 #@! TO.P,J2,4,Pin_4*
G04 #@! TO.N,Net-(J2-Pin_4)*
X62540000Y91800000D03*
G04 #@! TO.P,J2,5,Pin_5*
G04 #@! TO.N,GND*
X60000000Y91800000D03*
G04 #@! TD*
G04 #@! TO.P,R24,1*
G04 #@! TO.N,GND*
G04 #@! TA.AperFunction,SMDPad,CuDef*
G36*
G01*
X128610000Y45350000D02*
X129390000Y45350000D01*
G75*
G02*
X129460000Y45280000I0J-70000D01*
G01*
X129460000Y44720000D01*
G75*
G02*
X129390000Y44650000I-70000J0D01*
G01*
X128610000Y44650000D01*
G75*
G02*
X128540000Y44720000I0J70000D01*
G01*
X128540000Y45280000D01*
G75*
G02*
X128610000Y45350000I70000J0D01*
G01*
G37*
G04 #@! TD.AperFunction*
G04 #@! TO.P,R24,2*
G04 #@! TO.N,/Low Side/IN1*
G04 #@! TA.AperFunction,SMDPad,CuDef*
G36*
G01*
X128610000Y43750000D02*
X129390000Y43750000D01*
G75*
G02*
X129460000Y43680000I0J-70000D01*
G01*
X129460000Y43120000D01*
G75*
G02*
X129390000Y43050000I-70000J0D01*
G01*
X128610000Y43050000D01*
G75*
G02*
X128540000Y43120000I0J70000D01*
G01*
X128540000Y43680000D01*
G75*
G02*
X128610000Y43750000I70000J0D01*
G01*
G37*
G04 #@! TD.AperFunction*
G04 #@! TD*
G04 #@! TO.P,R1,1*
G04 #@! TO.N,+12V*
G04 #@! TA.AperFunction,SMDPad,CuDef*
G36*
G01*
X83635000Y81625000D02*
X84185000Y81625000D01*
G75*
G02*
X84385000Y81425000I0J-200000D01*
G01*
X84385000Y81025000D01*
G75*
G02*
X84185000Y80825000I-200000J0D01*
G01*
X83635000Y80825000D01*
G75*
G02*
X83435000Y81025000I0J200000D01*
G01*
X83435000Y81425000D01*
G75*
G02*
X83635000Y81625000I200000J0D01*
G01*
G37*
G04 #@! TD.AperFunction*
G04 #@! TO.P,R1,2*
G04 #@! TO.N,Net-(R1-Pad2)*
G04 #@! TA.AperFunction,SMDPad,CuDef*
G36*
G01*
X83635000Y79975000D02*
X84185000Y79975000D01*
G75*
G02*
X84385000Y79775000I0J-200000D01*
G01*
X84385000Y79375000D01*
G75*
G02*
X84185000Y79175000I-200000J0D01*
G01*
X83635000Y79175000D01*
G75*
G02*
X83435000Y79375000I0J200000D01*
G01*
X83435000Y79775000D01*
G75*
G02*
X83635000Y79975000I200000J0D01*
G01*
G37*
G04 #@! TD.AperFunction*
G04 #@! TD*
G04 #@! TO.P,C10,1*
G04 #@! TO.N,GND*
G04 #@! TA.AperFunction,SMDPad,CuDef*
G36*
G01*
X114500000Y44125000D02*
X114500000Y43075000D01*
G75*
G02*
X114400000Y42975000I-100000J0D01*
G01*
X113600000Y42975000D01*
G75*
G02*
X113500000Y43075000I0J100000D01*
G01*
X113500000Y44125000D01*
G75*
G02*
X113600000Y44225000I100000J0D01*
G01*
X114400000Y44225000D01*
G75*
G02*
X114500000Y44125000I0J-100000D01*
G01*
G37*
G04 #@! TD.AperFunction*
G04 #@! TO.P,C10,2*
G04 #@! TO.N,/dbw/PWR*
G04 #@! TA.AperFunction,SMDPad,CuDef*
G36*
G01*
X112500000Y44125000D02*
X112500000Y43075000D01*
G75*
G02*
X112400000Y42975000I-100000J0D01*
G01*
X111600000Y42975000D01*
G75*
G02*
X111500000Y43075000I0J100000D01*
G01*
X111500000Y44125000D01*
G75*
G02*
X111600000Y44225000I100000J0D01*
G01*
X112400000Y44225000D01*
G75*
G02*
X112500000Y44125000I0J-100000D01*
G01*
G37*
G04 #@! TD.AperFunction*
G04 #@! TD*
G04 #@! TO.P,Q17,1,G*
G04 #@! TO.N,/ls2/IN1*
G04 #@! TA.AperFunction,SMDPad,CuDef*
G36*
G01*
X49800000Y25587500D02*
X49500000Y25587500D01*
G75*
G02*
X49350000Y25737500I0J150000D01*
G01*
X49350000Y26912500D01*
G75*
G02*
X49500000Y27062500I150000J0D01*
G01*
X49800000Y27062500D01*
G75*
G02*
X49950000Y26912500I0J-150000D01*
G01*
X49950000Y25737500D01*
G75*
G02*
X49800000Y25587500I-150000J0D01*
G01*
G37*
G04 #@! TD.AperFunction*
G04 #@! TO.P,Q17,2,D*
G04 #@! TO.N,/OUT_FAN*
G04 #@! TA.AperFunction,SMDPad,CuDef*
G36*
G01*
X50750000Y27462500D02*
X50450000Y27462500D01*
G75*
G02*
X50300000Y27612500I0J150000D01*
G01*
X50300000Y28787500D01*
G75*
G02*
X50450000Y28937500I150000J0D01*
G01*
X50750000Y28937500D01*
G75*
G02*
X50900000Y28787500I0J-150000D01*
G01*
X50900000Y27612500D01*
G75*
G02*
X50750000Y27462500I-150000J0D01*
G01*
G37*
G04 #@! TD.AperFunction*
G04 #@! TO.P,Q17,3,S*
G04 #@! TO.N,GND*
G04 #@! TA.AperFunction,SMDPad,CuDef*
G36*
G01*
X51700000Y25587500D02*
X51400000Y25587500D01*
G75*
G02*
X51250000Y25737500I0J150000D01*
G01*
X51250000Y26912500D01*
G75*
G02*
X51400000Y27062500I150000J0D01*
G01*
X51700000Y27062500D01*
G75*
G02*
X51850000Y26912500I0J-150000D01*
G01*
X51850000Y25737500D01*
G75*
G02*
X51700000Y25587500I-150000J0D01*
G01*
G37*
G04 #@! TD.AperFunction*
G04 #@! TD*
D27*
G04 #@! TO.P,M1,E1,LSU_Un*
G04 #@! TO.N,/WBO_Un_1*
X132500000Y79925000D03*
G04 #@! TO.P,M1,E2,LSU_Vm*
G04 #@! TO.N,/WBO_Vm_1*
X132500000Y82925000D03*
G04 #@! TO.P,M1,E3,LSU_Ip*
G04 #@! TO.N,/WBO_lp_1*
X132500000Y81925000D03*
G04 #@! TO.P,M1,E4,LSU_Rtrim*
G04 #@! TO.N,/WBO_Rtrim_1*
X132500000Y80925000D03*
D28*
G04 #@! TO.P,M1,E5,LSU_H+*
G04 #@! TO.N,/WBO_Heater_1*
X131250000Y85075000D03*
D29*
G04 #@! TO.P,M1,E6,LSU_H-*
G04 #@! TO.N,GND*
X132875000Y88575000D03*
D30*
G04 #@! TO.P,M1,G,GND*
X105525000Y91775000D03*
D31*
X105525000Y87435000D03*
X105525000Y84135000D03*
D32*
X105525000Y79050000D03*
D33*
X119200000Y92200000D03*
X119200000Y78450000D03*
D34*
X132875000Y91350000D03*
D35*
X132875000Y78800000D03*
G04 #@! TO.P,M1,J1,SEL1*
G04 #@! TO.N,Net-(M1-PULL_DOWN1)*
G04 #@! TA.AperFunction,SMDPad,CuDef*
G36*
G01*
X114950000Y91175000D02*
X114950000Y89925000D01*
G75*
G02*
X114825000Y89800000I-125000J0D01*
G01*
X114575000Y89800000D01*
G75*
G02*
X114450000Y89925000I0J125000D01*
G01*
X114450000Y91175000D01*
G75*
G02*
X114575000Y91300000I125000J0D01*
G01*
X114825000Y91300000D01*
G75*
G02*
X114950000Y91175000I0J-125000D01*
G01*
G37*
G04 #@! TD.AperFunction*
G04 #@! TO.P,M1,J2,SEL2*
G04 #@! TO.N,unconnected-(M1-SEL2-PadJ2)*
G04 #@! TA.AperFunction,SMDPad,CuDef*
G36*
G01*
X113275000Y88500000D02*
X113275000Y88250000D01*
G75*
G02*
X113150000Y88125000I-125000J0D01*
G01*
X111900000Y88125000D01*
G75*
G02*
X111775000Y88250000I0J125000D01*
G01*
X111775000Y88500000D01*
G75*
G02*
X111900000Y88625000I125000J0D01*
G01*
X113150000Y88625000D01*
G75*
G02*
X113275000Y88500000I0J-125000D01*
G01*
G37*
G04 #@! TD.AperFunction*
G04 #@! TO.P,M1,J_GND1,PULL_DOWN1*
G04 #@! TO.N,Net-(M1-PULL_DOWN1)*
G04 #@! TA.AperFunction,SMDPad,CuDef*
G36*
G01*
X114150000Y91175000D02*
X114150000Y89925000D01*
G75*
G02*
X114025000Y89800000I-125000J0D01*
G01*
X113775000Y89800000D01*
G75*
G02*
X113650000Y89925000I0J125000D01*
G01*
X113650000Y91175000D01*
G75*
G02*
X113775000Y91300000I125000J0D01*
G01*
X114025000Y91300000D01*
G75*
G02*
X114150000Y91175000I0J-125000D01*
G01*
G37*
G04 #@! TD.AperFunction*
G04 #@! TO.P,M1,J_GND2,PULL_DOWN2*
G04 #@! TO.N,unconnected-(M1-PULL_DOWN2-PadJ_GND2)*
G04 #@! TA.AperFunction,SMDPad,CuDef*
G36*
G01*
X113825000Y88625000D02*
X114075000Y88625000D01*
G75*
G02*
X114200000Y88500000I0J-125000D01*
G01*
X114200000Y88250000D01*
G75*
G02*
X114075000Y88125000I-125000J0D01*
G01*
X113825000Y88125000D01*
G75*
G02*
X113700000Y88250000I0J125000D01*
G01*
X113700000Y88500000D01*
G75*
G02*
X113825000Y88625000I125000J0D01*
G01*
G37*
G04 #@! TD.AperFunction*
G04 #@! TO.P,M1,J_VCC1,PULL_UP1*
G04 #@! TO.N,unconnected-(M1-PULL_UP1-PadJ_VCC1)*
G04 #@! TA.AperFunction,SMDPad,CuDef*
G36*
G01*
X114950000Y89300000D02*
X114950000Y89050000D01*
G75*
G02*
X114825000Y88925000I-125000J0D01*
G01*
X114575000Y88925000D01*
G75*
G02*
X114450000Y89050000I0J125000D01*
G01*
X114450000Y89300000D01*
G75*
G02*
X114575000Y89425000I125000J0D01*
G01*
X114825000Y89425000D01*
G75*
G02*
X114950000Y89300000I0J-125000D01*
G01*
G37*
G04 #@! TD.AperFunction*
G04 #@! TO.P,M1,J_VCC2,PULL_UP2*
G04 #@! TO.N,unconnected-(M1-PULL_UP2-PadJ_VCC2)*
G04 #@! TA.AperFunction,SMDPad,CuDef*
G36*
G01*
X113275000Y89300000D02*
X113275000Y89050000D01*
G75*
G02*
X113150000Y88925000I-125000J0D01*
G01*
X111900000Y88925000D01*
G75*
G02*
X111775000Y89050000I0J125000D01*
G01*
X111775000Y89300000D01*
G75*
G02*
X111900000Y89425000I125000J0D01*
G01*
X113150000Y89425000D01*
G75*
G02*
X113275000Y89300000I0J-125000D01*
G01*
G37*
G04 #@! TD.AperFunction*
D27*
G04 #@! TO.P,M1,W1,V5_IN*
G04 #@! TO.N,+5VA*
X105908800Y89575000D03*
G04 #@! TO.P,M1,W2,CAN_VIO*
G04 #@! TO.N,unconnected-(M1-CAN_VIO-PadW2)*
X105908800Y88575000D03*
G04 #@! TO.P,M1,W3,CANL*
G04 #@! TO.N,/CAN L*
X105908800Y85279000D03*
G04 #@! TO.P,M1,W4,CANH*
G04 #@! TO.N,/CAN H*
X105908800Y86295000D03*
G04 #@! TO.P,M1,W5,nReset*
G04 #@! TO.N,Net-(J1-Pin_4)*
G04 #@! TA.AperFunction,SMDPad,CuDef*
G36*
G01*
X105400000Y83275000D02*
X105400000Y83275000D01*
G75*
G02*
X105525000Y83400000I125000J0D01*
G01*
X105775000Y83400000D01*
G75*
G02*
X105900000Y83275000I0J-125000D01*
G01*
X105900000Y83275000D01*
G75*
G02*
X105775000Y83150000I-125000J0D01*
G01*
X105525000Y83150000D01*
G75*
G02*
X105400000Y83275000I0J125000D01*
G01*
G37*
G04 #@! TD.AperFunction*
G04 #@! TO.P,M1,W6,SWDIO*
G04 #@! TO.N,Net-(J1-Pin_3)*
G04 #@! TA.AperFunction,SMDPad,CuDef*
G36*
G01*
X105400000Y82775000D02*
X105400000Y82775000D01*
G75*
G02*
X105525000Y82900000I125000J0D01*
G01*
X105775000Y82900000D01*
G75*
G02*
X105900000Y82775000I0J-125000D01*
G01*
X105900000Y82775000D01*
G75*
G02*
X105775000Y82650000I-125000J0D01*
G01*
X105525000Y82650000D01*
G75*
G02*
X105400000Y82775000I0J125000D01*
G01*
G37*
G04 #@! TD.AperFunction*
G04 #@! TO.P,M1,W7,SWCLK*
G04 #@! TO.N,Net-(J1-Pin_2)*
G04 #@! TA.AperFunction,SMDPad,CuDef*
G36*
G01*
X105400000Y82275000D02*
X105400000Y82275000D01*
G75*
G02*
X105525000Y82400000I125000J0D01*
G01*
X105775000Y82400000D01*
G75*
G02*
X105900000Y82275000I0J-125000D01*
G01*
X105900000Y82275000D01*
G75*
G02*
X105775000Y82150000I-125000J0D01*
G01*
X105525000Y82150000D01*
G75*
G02*
X105400000Y82275000I0J125000D01*
G01*
G37*
G04 #@! TD.AperFunction*
G04 #@! TO.P,M1,W8,V33_OUT*
G04 #@! TO.N,Net-(J1-Pin_1)*
G04 #@! TA.AperFunction,SMDPad,CuDef*
G36*
G01*
X105400000Y80175000D02*
X105400000Y80175000D01*
G75*
G02*
X105525000Y80300000I125000J0D01*
G01*
X105775000Y80300000D01*
G75*
G02*
X105900000Y80175000I0J-125000D01*
G01*
X105900000Y80175000D01*
G75*
G02*
X105775000Y80050000I-125000J0D01*
G01*
X105525000Y80050000D01*
G75*
G02*
X105400000Y80175000I0J125000D01*
G01*
G37*
G04 #@! TD.AperFunction*
G04 #@! TO.P,M1,W9,VDDA*
G04 #@! TO.N,unconnected-(M1-VDDA-PadW9)*
X105908800Y90575000D03*
G04 #@! TD*
G04 #@! TO.P,R20,1*
G04 #@! TO.N,Net-(Q12-G)*
G04 #@! TA.AperFunction,SMDPad,CuDef*
G36*
G01*
X15010000Y25150000D02*
X15790000Y25150000D01*
G75*
G02*
X15860000Y25080000I0J-70000D01*
G01*
X15860000Y24520000D01*
G75*
G02*
X15790000Y24450000I-70000J0D01*
G01*
X15010000Y24450000D01*
G75*
G02*
X14940000Y24520000I0J70000D01*
G01*
X14940000Y25080000D01*
G75*
G02*
X15010000Y25150000I70000J0D01*
G01*
G37*
G04 #@! TD.AperFunction*
G04 #@! TO.P,R20,2*
G04 #@! TO.N,/IGN/IN6*
G04 #@! TA.AperFunction,SMDPad,CuDef*
G36*
G01*
X15010000Y23550000D02*
X15790000Y23550000D01*
G75*
G02*
X15860000Y23480000I0J-70000D01*
G01*
X15860000Y22920000D01*
G75*
G02*
X15790000Y22850000I-70000J0D01*
G01*
X15010000Y22850000D01*
G75*
G02*
X14940000Y22920000I0J70000D01*
G01*
X14940000Y23480000D01*
G75*
G02*
X15010000Y23550000I70000J0D01*
G01*
G37*
G04 #@! TD.AperFunction*
G04 #@! TD*
G04 #@! TO.P,D1,1,K*
G04 #@! TO.N,+12V_RAW*
G04 #@! TA.AperFunction,SMDPad,CuDef*
G36*
G01*
X128500000Y46290000D02*
X128500000Y47310000D01*
G75*
G02*
X128590000Y47400000I90000J0D01*
G01*
X129310000Y47400000D01*
G75*
G02*
X129400000Y47310000I0J-90000D01*
G01*
X129400000Y46290000D01*
G75*
G02*
X129310000Y46200000I-90000J0D01*
G01*
X128590000Y46200000D01*
G75*
G02*
X128500000Y46290000I0J90000D01*
G01*
G37*
G04 #@! TD.AperFunction*
G04 #@! TO.P,D1,2,A*
G04 #@! TO.N,/OUT_PR*
G04 #@! TA.AperFunction,SMDPad,CuDef*
G36*
G01*
X131800000Y46290000D02*
X131800000Y47310000D01*
G75*
G02*
X131890000Y47400000I90000J0D01*
G01*
X132610000Y47400000D01*
G75*
G02*
X132700000Y47310000I0J-90000D01*
G01*
X132700000Y46290000D01*
G75*
G02*
X132610000Y46200000I-90000J0D01*
G01*
X131890000Y46200000D01*
G75*
G02*
X131800000Y46290000I0J90000D01*
G01*
G37*
G04 #@! TD.AperFunction*
G04 #@! TD*
G04 #@! TO.P,R21,1*
G04 #@! TO.N,/IGN/IN4*
G04 #@! TA.AperFunction,SMDPad,CuDef*
G36*
G01*
X14575000Y45825000D02*
X14575000Y42975000D01*
G75*
G02*
X14325000Y42725000I-250000J0D01*
G01*
X13600000Y42725000D01*
G75*
G02*
X13350000Y42975000I0J250000D01*
G01*
X13350000Y45825000D01*
G75*
G02*
X13600000Y46075000I250000J0D01*
G01*
X14325000Y46075000D01*
G75*
G02*
X14575000Y45825000I0J-250000D01*
G01*
G37*
G04 #@! TD.AperFunction*
G04 #@! TO.P,R21,2*
G04 #@! TO.N,/OUT_IGN4*
G04 #@! TA.AperFunction,SMDPad,CuDef*
G36*
G01*
X8650000Y45825000D02*
X8650000Y42975000D01*
G75*
G02*
X8400000Y42725000I-250000J0D01*
G01*
X7675000Y42725000D01*
G75*
G02*
X7425000Y42975000I0J250000D01*
G01*
X7425000Y45825000D01*
G75*
G02*
X7675000Y46075000I250000J0D01*
G01*
X8400000Y46075000D01*
G75*
G02*
X8650000Y45825000I0J-250000D01*
G01*
G37*
G04 #@! TD.AperFunction*
G04 #@! TD*
G04 #@! TO.P,R3,1*
G04 #@! TO.N,GND*
G04 #@! TA.AperFunction,SMDPad,CuDef*
G36*
G01*
X81125000Y81625000D02*
X81675000Y81625000D01*
G75*
G02*
X81875000Y81425000I0J-200000D01*
G01*
X81875000Y81025000D01*
G75*
G02*
X81675000Y80825000I-200000J0D01*
G01*
X81125000Y80825000D01*
G75*
G02*
X80925000Y81025000I0J200000D01*
G01*
X80925000Y81425000D01*
G75*
G02*
X81125000Y81625000I200000J0D01*
G01*
G37*
G04 #@! TD.AperFunction*
G04 #@! TO.P,R3,2*
G04 #@! TO.N,Net-(J3-CC1)*
G04 #@! TA.AperFunction,SMDPad,CuDef*
G36*
G01*
X81125000Y79975000D02*
X81675000Y79975000D01*
G75*
G02*
X81875000Y79775000I0J-200000D01*
G01*
X81875000Y79375000D01*
G75*
G02*
X81675000Y79175000I-200000J0D01*
G01*
X81125000Y79175000D01*
G75*
G02*
X80925000Y79375000I0J200000D01*
G01*
X80925000Y79775000D01*
G75*
G02*
X81125000Y79975000I200000J0D01*
G01*
G37*
G04 #@! TD.AperFunction*
G04 #@! TD*
D42*
G04 #@! TO.P,U1,1,1*
G04 #@! TO.N,GND*
X20580000Y7944000D03*
G04 #@! TO.P,U1,2,2*
X23910000Y7944000D03*
G04 #@! TO.P,U1,3,3*
G04 #@! TO.N,/OUT_IGN1*
X27240000Y7944000D03*
G04 #@! TO.P,U1,4,4*
G04 #@! TO.N,/OUT_IGN2*
X30570000Y7944000D03*
G04 #@! TO.P,U1,5,5*
G04 #@! TO.N,/OUT_IGN3*
X33900000Y7944000D03*
G04 #@! TO.P,U1,6,6*
G04 #@! TO.N,/OUT_IGN4*
X37230000Y7944000D03*
G04 #@! TO.P,U1,7,7*
G04 #@! TO.N,/OUT_IGN5*
X40560000Y7944000D03*
G04 #@! TO.P,U1,8,8*
G04 #@! TO.N,/OUT_IGN6*
X43890000Y7944000D03*
G04 #@! TO.P,U1,9,9*
G04 #@! TO.N,/OUT_INJ1*
X47220000Y7944000D03*
G04 #@! TO.P,U1,10*
G04 #@! TO.N,N/C*
X50560000Y7944000D03*
G04 #@! TO.P,U1,11,10*
G04 #@! TO.N,/OUT_INJ2*
X53880000Y7944000D03*
G04 #@! TO.P,U1,12,12*
G04 #@! TO.N,/OUT_INJ4*
X57210000Y7944000D03*
G04 #@! TO.P,U1,13,13*
G04 #@! TO.N,/OUT_INJ5*
X60540000Y7944000D03*
G04 #@! TO.P,U1,14,14*
G04 #@! TO.N,/OUT_INJ6*
X63870000Y7944000D03*
G04 #@! TO.P,U1,15,15*
G04 #@! TO.N,/OUT_MR*
X67200000Y7944000D03*
G04 #@! TO.P,U1,16,16*
G04 #@! TO.N,Net-(F1-Pad1)*
X20580000Y13944000D03*
G04 #@! TO.P,U1,17,17*
G04 #@! TO.N,unconnected-(U1-Pad17)*
X23910000Y13944000D03*
G04 #@! TO.P,U1,18,18*
G04 #@! TO.N,/OUT_CE*
X27240000Y13944000D03*
G04 #@! TO.P,U1,19,19*
G04 #@! TO.N,/OUT_PR*
X30570000Y13944000D03*
G04 #@! TO.P,U1,20*
G04 #@! TO.N,N/C*
X33900000Y13944000D03*
G04 #@! TO.P,U1,21,21*
G04 #@! TO.N,/OUT_DBW -*
X37230000Y13944000D03*
G04 #@! TO.P,U1,22,22*
G04 #@! TO.N,/OUT_RPM*
X40560000Y13944000D03*
G04 #@! TO.P,U1,23,23*
G04 #@! TO.N,/OUT_VLM*
X43890000Y13944000D03*
G04 #@! TO.P,U1,24,24*
G04 #@! TO.N,/OUT_FAN*
X47220000Y13944000D03*
G04 #@! TO.P,U1,25,25*
G04 #@! TO.N,/WBO_lp_1*
X50550000Y13944000D03*
G04 #@! TO.P,U1,26,26*
G04 #@! TO.N,/WBO_Vm_1*
X53880000Y13944000D03*
G04 #@! TO.P,U1,27,27*
G04 #@! TO.N,/WBO_Heater_1*
X57210000Y13944000D03*
G04 #@! TO.P,U1,28,28*
G04 #@! TO.N,+12V*
X60540000Y13944000D03*
G04 #@! TO.P,U1,29,20*
G04 #@! TO.N,/OUT_DBW+*
X63870000Y13944000D03*
G04 #@! TO.P,U1,30,30*
G04 #@! TO.N,/WBO_Un_1*
X67200000Y13944000D03*
G04 #@! TO.P,U1,31,31*
G04 #@! TO.N,/WBO_lp_2*
X20580000Y19944000D03*
G04 #@! TO.P,U1,32,32*
G04 #@! TO.N,/WBO_Vm_2*
X23910000Y19944000D03*
G04 #@! TO.P,U1,33,33*
G04 #@! TO.N,/WBO_Heater_2*
X27240000Y19944000D03*
G04 #@! TO.P,U1,34,34*
G04 #@! TO.N,+12V*
X30570000Y19944000D03*
G04 #@! TO.P,U1,35,35*
G04 #@! TO.N,/WBO_Rtrim_2*
X33900000Y19944000D03*
G04 #@! TO.P,U1,36,36*
G04 #@! TO.N,/WBO_Un_2*
X37230000Y19944000D03*
G04 #@! TO.P,U1,37,37*
G04 #@! TO.N,unconnected-(U1-Pad37)*
X40560000Y19944000D03*
G04 #@! TO.P,U1,38,38*
G04 #@! TO.N,unconnected-(U1-Pad38)*
X43890000Y19944000D03*
G04 #@! TO.P,U1,39,39*
G04 #@! TO.N,Net-(F2-Pad1)*
X47220000Y19944000D03*
G04 #@! TO.P,U1,40,40*
G04 #@! TO.N,unconnected-(U1-Pad40)*
X50550000Y19944000D03*
G04 #@! TO.P,U1,41,41*
G04 #@! TO.N,unconnected-(U1-Pad41)*
X53880000Y19944000D03*
G04 #@! TO.P,U1,42,42*
G04 #@! TO.N,unconnected-(U1-Pad42)*
X57210000Y19944000D03*
G04 #@! TO.P,U1,43,43*
G04 #@! TO.N,unconnected-(U1-Pad43)*
X60540000Y19944000D03*
G04 #@! TO.P,U1,44,44*
G04 #@! TO.N,unconnected-(U1-Pad44)*
X63870000Y19944000D03*
G04 #@! TO.P,U1,45,45*
G04 #@! TO.N,unconnected-(U1-Pad45)*
X67200000Y19944000D03*
G04 #@! TO.P,U1,46,46*
G04 #@! TO.N,/TPS1*
X85200000Y7944000D03*
G04 #@! TO.P,U1,47,47*
G04 #@! TO.N,/TPS2*
X88530000Y7944000D03*
G04 #@! TO.P,U1,48,48*
G04 #@! TO.N,+5VP*
X91860000Y7944000D03*
G04 #@! TO.P,U1,49,49*
G04 #@! TO.N,GNDA*
X95190000Y7944000D03*
G04 #@! TO.P,U1,50,50*
G04 #@! TO.N,/PPS1*
X98520000Y7944000D03*
G04 #@! TO.P,U1,51,51*
G04 #@! TO.N,/PPS2*
X101850000Y7944000D03*
G04 #@! TO.P,U1,52,52*
G04 #@! TO.N,+5VP*
X105180000Y7944000D03*
G04 #@! TO.P,U1,53,53*
G04 #@! TO.N,GNDA*
X108510000Y7944000D03*
G04 #@! TO.P,U1,54,54*
G04 #@! TO.N,/CRANK*
X111840000Y7944000D03*
G04 #@! TO.P,U1,55,55*
G04 #@! TO.N,/CAM*
X115170000Y7944000D03*
G04 #@! TO.P,U1,56,56*
G04 #@! TO.N,/MAP*
X118500000Y7944000D03*
G04 #@! TO.P,U1,57,57*
G04 #@! TO.N,+5VP*
X121830000Y7944000D03*
G04 #@! TO.P,U1,58,58*
G04 #@! TO.N,GNDA*
X125160000Y7944000D03*
G04 #@! TO.P,U1,59,59*
G04 #@! TO.N,/IAT*
X128490000Y7944000D03*
G04 #@! TO.P,U1,60,60*
G04 #@! TO.N,GND*
X131820000Y7944000D03*
G04 #@! TO.P,U1,61,61*
G04 #@! TO.N,/CLT*
X85200000Y13944000D03*
G04 #@! TO.P,U1,62,62*
G04 #@! TO.N,GND*
X88530000Y13944000D03*
G04 #@! TO.P,U1,63,63*
G04 #@! TO.N,unconnected-(U1-Pad63)*
X91860000Y13944000D03*
G04 #@! TO.P,U1,64,64*
G04 #@! TO.N,GND*
X95190000Y13944000D03*
G04 #@! TO.P,U1,65,65*
G04 #@! TO.N,unconnected-(U1-Pad65)*
X98520000Y13944000D03*
G04 #@! TO.P,U1,66,66*
G04 #@! TO.N,GND*
X101850000Y13944000D03*
G04 #@! TO.P,U1,67,67*
G04 #@! TO.N,unconnected-(U1-Pad67)*
X105180000Y13944000D03*
G04 #@! TO.P,U1,68,68*
G04 #@! TO.N,GNDA*
X108510000Y13944000D03*
G04 #@! TO.P,U1,69,69*
G04 #@! TO.N,unconnected-(U1-Pad69)*
X111840000Y13944000D03*
G04 #@! TO.P,U1,70,70*
G04 #@! TO.N,GNDA*
X115170000Y13944000D03*
G04 #@! TO.P,U1,71,71*
G04 #@! TO.N,/CLUTCH*
X118500000Y13944000D03*
G04 #@! TO.P,U1,72,72*
G04 #@! TO.N,unconnected-(U1-Pad72)*
X121830000Y13944000D03*
G04 #@! TO.P,U1,73,73*
G04 #@! TO.N,unconnected-(U1-Pad73)*
X125160000Y13944000D03*
G04 #@! TO.P,U1,74,74*
G04 #@! TO.N,unconnected-(U1-Pad74)*
X128490000Y13944000D03*
G04 #@! TO.P,U1,75,75*
G04 #@! TO.N,unconnected-(U1-Pad75)*
X131820000Y13944000D03*
G04 #@! TO.P,U1,76,76*
G04 #@! TO.N,unconnected-(U1-Pad76)*
X85200000Y19944000D03*
G04 #@! TO.P,U1,77,77*
G04 #@! TO.N,unconnected-(U1-Pad77)*
X88530000Y19944000D03*
G04 #@! TO.P,U1,78,78*
G04 #@! TO.N,unconnected-(U1-Pad78)*
X91860000Y19944000D03*
G04 #@! TO.P,U1,79,79*
G04 #@! TO.N,unconnected-(U1-Pad79)*
X95190000Y19944000D03*
G04 #@! TO.P,U1,80,80*
G04 #@! TO.N,unconnected-(U1-Pad80)*
X98520000Y19944000D03*
G04 #@! TO.P,U1,81,81*
G04 #@! TO.N,unconnected-(U1-Pad81)*
X101850000Y19944000D03*
G04 #@! TO.P,U1,82,82*
G04 #@! TO.N,unconnected-(U1-Pad82)*
X105180000Y19944000D03*
G04 #@! TO.P,U1,83,83*
G04 #@! TO.N,unconnected-(U1-Pad83)*
X108510000Y19944000D03*
G04 #@! TO.P,U1,84,84*
G04 #@! TO.N,unconnected-(U1-Pad84)*
X111840000Y19944000D03*
G04 #@! TO.P,U1,85,85*
G04 #@! TO.N,unconnected-(U1-Pad85)*
X115170000Y19944000D03*
G04 #@! TO.P,U1,86,86*
G04 #@! TO.N,unconnected-(U1-Pad86)*
X118500000Y19944000D03*
G04 #@! TO.P,U1,87,87*
G04 #@! TO.N,unconnected-(U1-Pad87)*
X121830000Y19944000D03*
G04 #@! TO.P,U1,88,88*
G04 #@! TO.N,unconnected-(U1-Pad88)*
X125160000Y19944000D03*
G04 #@! TO.P,U1,89,89*
G04 #@! TO.N,unconnected-(U1-Pad89)*
X128490000Y19944000D03*
G04 #@! TO.P,U1,90,90*
G04 #@! TO.N,unconnected-(U1-Pad90)*
X131820000Y19944000D03*
G04 #@! TD*
D40*
G04 #@! TO.P,J1,1,Pin_1*
G04 #@! TO.N,Net-(J1-Pin_1)*
X91325000Y91000000D03*
D41*
G04 #@! TO.P,J1,2,Pin_2*
G04 #@! TO.N,Net-(J1-Pin_2)*
X93865000Y91000000D03*
G04 #@! TO.P,J1,3,Pin_3*
G04 #@! TO.N,Net-(J1-Pin_3)*
X96405000Y91000000D03*
G04 #@! TO.P,J1,4,Pin_4*
G04 #@! TO.N,Net-(J1-Pin_4)*
X98945000Y91000000D03*
G04 #@! TO.P,J1,5,Pin_5*
G04 #@! TO.N,GND*
X101485000Y91000000D03*
G04 #@! TD*
G04 #@! TO.P,Q12,1,G*
G04 #@! TO.N,Net-(Q12-G)*
G04 #@! TA.AperFunction,SMDPad,CuDef*
G36*
G01*
X14700000Y25670000D02*
X14700000Y24970000D01*
G75*
G02*
X14450000Y24720000I-250000J0D01*
G01*
X12750000Y24720000D01*
G75*
G02*
X12500000Y24970000I0J250000D01*
G01*
X12500000Y25670000D01*
G75*
G02*
X12750000Y25920000I250000J0D01*
G01*
X14450000Y25920000D01*
G75*
G02*
X14700000Y25670000I0J-250000D01*
G01*
G37*
G04 #@! TD.AperFunction*
G04 #@! TO.P,Q12,2,C*
G04 #@! TO.N,/OUT_IGN6*
G04 #@! TA.AperFunction,SMDPad,CuDef*
G36*
G01*
X10500000Y27200000D02*
X10500000Y24950000D01*
G75*
G02*
X10250000Y24700000I-250000J0D01*
G01*
X7700000Y24700000D01*
G75*
G02*
X7450000Y24950000I0J250000D01*
G01*
X7450000Y27200000D01*
G75*
G02*
X7700000Y27450000I250000J0D01*
G01*
X10250000Y27450000D01*
G75*
G02*
X10500000Y27200000I0J-250000D01*
G01*
G37*
G04 #@! TD.AperFunction*
G04 #@! TA.AperFunction,SMDPad,CuDef*
G36*
G01*
X10500000Y30250000D02*
X10500000Y28000000D01*
G75*
G02*
X10250000Y27750000I-250000J0D01*
G01*
X7700000Y27750000D01*
G75*
G02*
X7450000Y28000000I0J250000D01*
G01*
X7450000Y30250000D01*
G75*
G02*
X7700000Y30500000I250000J0D01*
G01*
X10250000Y30500000D01*
G75*
G02*
X10500000Y30250000I0J-250000D01*
G01*
G37*
G04 #@! TD.AperFunction*
G04 #@! TA.AperFunction,SMDPad,CuDef*
G36*
G01*
X10500000Y30250003D02*
X10500000Y24949997D01*
G75*
G02*
X10250003Y24700000I-249997J0D01*
G01*
X4349997Y24700000D01*
G75*
G02*
X4100000Y24949997I0J249997D01*
G01*
X4100000Y30250003D01*
G75*
G02*
X4349997Y30500000I249997J0D01*
G01*
X10250003Y30500000D01*
G75*
G02*
X10500000Y30250003I0J-249997D01*
G01*
G37*
G04 #@! TD.AperFunction*
G04 #@! TA.AperFunction,SMDPad,CuDef*
G36*
G01*
X7150000Y27200000D02*
X7150000Y24950000D01*
G75*
G02*
X6900000Y24700000I-250000J0D01*
G01*
X4350000Y24700000D01*
G75*
G02*
X4100000Y24950000I0J250000D01*
G01*
X4100000Y27200000D01*
G75*
G02*
X4350000Y27450000I250000J0D01*
G01*
X6900000Y27450000D01*
G75*
G02*
X7150000Y27200000I0J-250000D01*
G01*
G37*
G04 #@! TD.AperFunction*
G04 #@! TA.AperFunction,SMDPad,CuDef*
G36*
G01*
X7150000Y30250000D02*
X7150000Y28000000D01*
G75*
G02*
X6900000Y27750000I-250000J0D01*
G01*
X4350000Y27750000D01*
G75*
G02*
X4100000Y28000000I0J250000D01*
G01*
X4100000Y30250000D01*
G75*
G02*
X4350000Y30500000I250000J0D01*
G01*
X6900000Y30500000D01*
G75*
G02*
X7150000Y30250000I0J-250000D01*
G01*
G37*
G04 #@! TD.AperFunction*
G04 #@! TO.P,Q12,3,E*
G04 #@! TO.N,GND*
G04 #@! TA.AperFunction,SMDPad,CuDef*
G36*
G01*
X14700000Y30230000D02*
X14700000Y29530000D01*
G75*
G02*
X14450000Y29280000I-250000J0D01*
G01*
X12750000Y29280000D01*
G75*
G02*
X12500000Y29530000I0J250000D01*
G01*
X12500000Y30230000D01*
G75*
G02*
X12750000Y30480000I250000J0D01*
G01*
X14450000Y30480000D01*
G75*
G02*
X14700000Y30230000I0J-250000D01*
G01*
G37*
G04 #@! TD.AperFunction*
G04 #@! TD*
D43*
G04 #@! TO.P,Q16,1,G*
G04 #@! TO.N,/Low Side/IN4*
X126600000Y68650000D03*
G04 #@! TO.P,Q16,2,D*
G04 #@! TO.N,/OUT_RPM*
X126600000Y70950000D03*
G04 #@! TO.P,Q16,3,S*
G04 #@! TO.N,GND*
X126600000Y73250000D03*
D44*
G04 #@! TO.P,Q16,4*
G04 #@! TO.N,N/C*
X120300000Y70950000D03*
G04 #@! TD*
D43*
G04 #@! TO.P,Q15,1,G*
G04 #@! TO.N,/Low Side/IN3*
X126600000Y60400000D03*
G04 #@! TO.P,Q15,2,D*
G04 #@! TO.N,/OUT_CE*
X126600000Y62700000D03*
G04 #@! TO.P,Q15,3,S*
G04 #@! TO.N,GND*
X126600000Y65000000D03*
D44*
G04 #@! TO.P,Q15,4*
G04 #@! TO.N,N/C*
X120300000Y62700000D03*
G04 #@! TD*
G04 #@! TO.P,C9,1*
G04 #@! TO.N,GND*
G04 #@! TA.AperFunction,SMDPad,CuDef*
G36*
G01*
X114500000Y41875000D02*
X114500000Y40825000D01*
G75*
G02*
X114400000Y40725000I-100000J0D01*
G01*
X113600000Y40725000D01*
G75*
G02*
X113500000Y40825000I0J100000D01*
G01*
X113500000Y41875000D01*
G75*
G02*
X113600000Y41975000I100000J0D01*
G01*
X114400000Y41975000D01*
G75*
G02*
X114500000Y41875000I0J-100000D01*
G01*
G37*
G04 #@! TD.AperFunction*
G04 #@! TO.P,C9,2*
G04 #@! TO.N,/dbw/PWR*
G04 #@! TA.AperFunction,SMDPad,CuDef*
G36*
G01*
X112500000Y41875000D02*
X112500000Y40825000D01*
G75*
G02*
X112400000Y40725000I-100000J0D01*
G01*
X111600000Y40725000D01*
G75*
G02*
X111500000Y40825000I0J100000D01*
G01*
X111500000Y41875000D01*
G75*
G02*
X111600000Y41975000I100000J0D01*
G01*
X112400000Y41975000D01*
G75*
G02*
X112500000Y41875000I0J-100000D01*
G01*
G37*
G04 #@! TD.AperFunction*
G04 #@! TD*
G04 #@! TO.P,R18,1*
G04 #@! TO.N,Net-(Q10-G)*
G04 #@! TA.AperFunction,SMDPad,CuDef*
G36*
G01*
X15210000Y47550000D02*
X15990000Y47550000D01*
G75*
G02*
X16060000Y47480000I0J-70000D01*
G01*
X16060000Y46920000D01*
G75*
G02*
X15990000Y46850000I-70000J0D01*
G01*
X15210000Y46850000D01*
G75*
G02*
X15140000Y46920000I0J70000D01*
G01*
X15140000Y47480000D01*
G75*
G02*
X15210000Y47550000I70000J0D01*
G01*
G37*
G04 #@! TD.AperFunction*
G04 #@! TO.P,R18,2*
G04 #@! TO.N,/IGN/IN4*
G04 #@! TA.AperFunction,SMDPad,CuDef*
G36*
G01*
X15210000Y45950000D02*
X15990000Y45950000D01*
G75*
G02*
X16060000Y45880000I0J-70000D01*
G01*
X16060000Y45320000D01*
G75*
G02*
X15990000Y45250000I-70000J0D01*
G01*
X15210000Y45250000D01*
G75*
G02*
X15140000Y45320000I0J70000D01*
G01*
X15140000Y45880000D01*
G75*
G02*
X15210000Y45950000I70000J0D01*
G01*
G37*
G04 #@! TD.AperFunction*
G04 #@! TD*
G04 #@! TO.P,F3,1*
G04 #@! TO.N,+12V*
G04 #@! TA.AperFunction,SMDPad,CuDef*
G36*
G01*
X85775000Y80775000D02*
X85775000Y82025000D01*
G75*
G02*
X86025000Y82275000I250000J0D01*
G01*
X86775000Y82275000D01*
G75*
G02*
X87025000Y82025000I0J-250000D01*
G01*
X87025000Y80775000D01*
G75*
G02*
X86775000Y80525000I-250000J0D01*
G01*
X86025000Y80525000D01*
G75*
G02*
X85775000Y80775000I0J250000D01*
G01*
G37*
G04 #@! TD.AperFunction*
G04 #@! TO.P,F3,2*
G04 #@! TO.N,/dbw/PWR*
G04 #@! TA.AperFunction,SMDPad,CuDef*
G36*
G01*
X88575000Y80775000D02*
X88575000Y82025000D01*
G75*
G02*
X88825000Y82275000I250000J0D01*
G01*
X89575000Y82275000D01*
G75*
G02*
X89825000Y82025000I0J-250000D01*
G01*
X89825000Y80775000D01*
G75*
G02*
X89575000Y80525000I-250000J0D01*
G01*
X88825000Y80525000D01*
G75*
G02*
X88575000Y80775000I0J250000D01*
G01*
G37*
G04 #@! TD.AperFunction*
G04 #@! TD*
D45*
G04 #@! TO.P,M5,E1,VBAT*
G04 #@! TO.N,/VBAT*
X53874995Y73324999D03*
G04 #@! TO.P,M5,E2,V12*
G04 #@! TO.N,unconnected-(M5-V12-PadE2)*
X53874995Y66925002D03*
G04 #@! TO.P,M5,E3,VIGN*
G04 #@! TO.N,/VIGN*
X53874995Y65024999D03*
G04 #@! TO.P,M5,E4,V5*
G04 #@! TO.N,+5V*
X53874995Y60724999D03*
D10*
G04 #@! TO.P,M5,E5,EN_5VP*
G04 #@! TO.N,/PWR_EN*
X54324994Y58325002D03*
G04 #@! TO.P,M5,E6,PG_5VP*
G04 #@! TO.N,unconnected-(M5-PG_5VP-PadE6)*
X54324994Y57325001D03*
D46*
G04 #@! TO.P,M5,S1,GND*
G04 #@! TO.N,GND*
X37724999Y69474999D03*
D47*
X37724999Y60975001D03*
D48*
X37724999Y53874999D03*
D49*
X46124997Y53824999D03*
D50*
X46924998Y74424999D03*
D45*
X53874995Y54474999D03*
D48*
X54524996Y74374999D03*
D51*
X54524996Y70175001D03*
D52*
X54524996Y62824999D03*
D53*
X54524996Y59325002D03*
D54*
X54524996Y56025001D03*
D45*
G04 #@! TO.P,M5,V1,V12_PERM*
G04 #@! TO.N,+12V*
X38374998Y73775001D03*
G04 #@! TO.P,M5,V2,IN_VIGN*
G04 #@! TO.N,Net-(M5-IN_VIGN)*
X38374998Y71925002D03*
G04 #@! TO.P,M5,V3,V12_RAW*
G04 #@! TO.N,+12V*
X38374998Y66974999D03*
G04 #@! TO.P,M5,V4,5VP*
G04 #@! TO.N,+5VP*
X38374998Y54925001D03*
G04 #@! TD*
G04 #@! TO.P,R14,1*
G04 #@! TO.N,Net-(Q9-G)*
G04 #@! TA.AperFunction,SMDPad,CuDef*
G36*
G01*
X15210000Y58750000D02*
X15990000Y58750000D01*
G75*
G02*
X16060000Y58680000I0J-70000D01*
G01*
X16060000Y58120000D01*
G75*
G02*
X15990000Y58050000I-70000J0D01*
G01*
X15210000Y58050000D01*
G75*
G02*
X15140000Y58120000I0J70000D01*
G01*
X15140000Y58680000D01*
G75*
G02*
X15210000Y58750000I70000J0D01*
G01*
G37*
G04 #@! TD.AperFunction*
G04 #@! TO.P,R14,2*
G04 #@! TO.N,/IGN/IN3*
G04 #@! TA.AperFunction,SMDPad,CuDef*
G36*
G01*
X15210000Y57150000D02*
X15990000Y57150000D01*
G75*
G02*
X16060000Y57080000I0J-70000D01*
G01*
X16060000Y56520000D01*
G75*
G02*
X15990000Y56450000I-70000J0D01*
G01*
X15210000Y56450000D01*
G75*
G02*
X15140000Y56520000I0J70000D01*
G01*
X15140000Y57080000D01*
G75*
G02*
X15210000Y57150000I70000J0D01*
G01*
G37*
G04 #@! TD.AperFunction*
G04 #@! TD*
D13*
G04 #@! TO.P,Q3,1,G*
G04 #@! TO.N,/INJECTORS/IN3*
X32900000Y32350000D03*
G04 #@! TO.P,Q3,2,D*
G04 #@! TO.N,/OUT_INJ3*
X30600000Y32350000D03*
G04 #@! TO.P,Q3,3,S*
G04 #@! TO.N,GND*
X28300000Y32350000D03*
D14*
G04 #@! TO.P,Q3,4*
G04 #@! TO.N,N/C*
X30600000Y26050000D03*
G04 #@! TD*
G04 #@! TO.P,R2,1*
G04 #@! TO.N,Net-(R1-Pad2)*
G04 #@! TA.AperFunction,SMDPad,CuDef*
G36*
G01*
X84350000Y78390000D02*
X84350000Y77610000D01*
G75*
G02*
X84280000Y77540000I-70000J0D01*
G01*
X83720000Y77540000D01*
G75*
G02*
X83650000Y77610000I0J70000D01*
G01*
X83650000Y78390000D01*
G75*
G02*
X83720000Y78460000I70000J0D01*
G01*
X84280000Y78460000D01*
G75*
G02*
X84350000Y78390000I0J-70000D01*
G01*
G37*
G04 #@! TD.AperFunction*
G04 #@! TO.P,R2,2*
G04 #@! TO.N,GND*
G04 #@! TA.AperFunction,SMDPad,CuDef*
G36*
G01*
X82750000Y78390000D02*
X82750000Y77610000D01*
G75*
G02*
X82680000Y77540000I-70000J0D01*
G01*
X82120000Y77540000D01*
G75*
G02*
X82050000Y77610000I0J70000D01*
G01*
X82050000Y78390000D01*
G75*
G02*
X82120000Y78460000I70000J0D01*
G01*
X82680000Y78460000D01*
G75*
G02*
X82750000Y78390000I0J-70000D01*
G01*
G37*
G04 #@! TD.AperFunction*
G04 #@! TD*
G04 #@! TO.P,C13,1*
G04 #@! TO.N,GND*
G04 #@! TA.AperFunction,SMDPad,CuDef*
G36*
G01*
X112384999Y75860000D02*
X112384999Y76540000D01*
G75*
G02*
X112469999Y76625000I85000J0D01*
G01*
X113149999Y76625000D01*
G75*
G02*
X113234999Y76540000I0J-85000D01*
G01*
X113234999Y75860000D01*
G75*
G02*
X113149999Y75775000I-85000J0D01*
G01*
X112469999Y75775000D01*
G75*
G02*
X112384999Y75860000I0J85000D01*
G01*
G37*
G04 #@! TD.AperFunction*
G04 #@! TO.P,C13,2*
G04 #@! TO.N,/OUT_DBW+*
G04 #@! TA.AperFunction,SMDPad,CuDef*
G36*
G01*
X113965001Y75860000D02*
X113965001Y76540000D01*
G75*
G02*
X114050001Y76625000I85000J0D01*
G01*
X114730001Y76625000D01*
G75*
G02*
X114815001Y76540000I0J-85000D01*
G01*
X114815001Y75860000D01*
G75*
G02*
X114730001Y75775000I-85000J0D01*
G01*
X114050001Y75775000D01*
G75*
G02*
X113965001Y75860000I0J85000D01*
G01*
G37*
G04 #@! TD.AperFunction*
G04 #@! TD*
G04 #@! TO.P,R10,1*
G04 #@! TO.N,GND*
G04 #@! TA.AperFunction,SMDPad,CuDef*
G36*
G01*
X39050000Y34010000D02*
X39050000Y34790000D01*
G75*
G02*
X39120000Y34860000I70000J0D01*
G01*
X39680000Y34860000D01*
G75*
G02*
X39750000Y34790000I0J-70000D01*
G01*
X39750000Y34010000D01*
G75*
G02*
X39680000Y33940000I-70000J0D01*
G01*
X39120000Y33940000D01*
G75*
G02*
X39050000Y34010000I0J70000D01*
G01*
G37*
G04 #@! TD.AperFunction*
G04 #@! TO.P,R10,2*
G04 #@! TO.N,/INJECTORS/IN5*
G04 #@! TA.AperFunction,SMDPad,CuDef*
G36*
G01*
X40650000Y34010000D02*
X40650000Y34790000D01*
G75*
G02*
X40720000Y34860000I70000J0D01*
G01*
X41280000Y34860000D01*
G75*
G02*
X41350000Y34790000I0J-70000D01*
G01*
X41350000Y34010000D01*
G75*
G02*
X41280000Y33940000I-70000J0D01*
G01*
X40720000Y33940000D01*
G75*
G02*
X40650000Y34010000I0J70000D01*
G01*
G37*
G04 #@! TD.AperFunction*
G04 #@! TD*
G04 #@! TO.P,R9,1*
G04 #@! TO.N,GND*
G04 #@! TA.AperFunction,SMDPad,CuDef*
G36*
G01*
X29950000Y36190000D02*
X29950000Y35410000D01*
G75*
G02*
X29880000Y35340000I-70000J0D01*
G01*
X29320000Y35340000D01*
G75*
G02*
X29250000Y35410000I0J70000D01*
G01*
X29250000Y36190000D01*
G75*
G02*
X29320000Y36260000I70000J0D01*
G01*
X29880000Y36260000D01*
G75*
G02*
X29950000Y36190000I0J-70000D01*
G01*
G37*
G04 #@! TD.AperFunction*
G04 #@! TO.P,R9,2*
G04 #@! TO.N,/INJECTORS/IN4*
G04 #@! TA.AperFunction,SMDPad,CuDef*
G36*
G01*
X28350000Y36190000D02*
X28350000Y35410000D01*
G75*
G02*
X28280000Y35340000I-70000J0D01*
G01*
X27720000Y35340000D01*
G75*
G02*
X27650000Y35410000I0J70000D01*
G01*
X27650000Y36190000D01*
G75*
G02*
X27720000Y36260000I70000J0D01*
G01*
X28280000Y36260000D01*
G75*
G02*
X28350000Y36190000I0J-70000D01*
G01*
G37*
G04 #@! TD.AperFunction*
G04 #@! TD*
G04 #@! TO.P,C12,1*
G04 #@! TO.N,GND*
G04 #@! TA.AperFunction,SMDPad,CuDef*
G36*
G01*
X115005002Y61540000D02*
X115005002Y60860000D01*
G75*
G02*
X114920002Y60775000I-85000J0D01*
G01*
X114240002Y60775000D01*
G75*
G02*
X114155002Y60860000I0J85000D01*
G01*
X114155002Y61540000D01*
G75*
G02*
X114240002Y61625000I85000J0D01*
G01*
X114920002Y61625000D01*
G75*
G02*
X115005002Y61540000I0J-85000D01*
G01*
G37*
G04 #@! TD.AperFunction*
G04 #@! TO.P,C12,2*
G04 #@! TO.N,/OUT_DBW -*
G04 #@! TA.AperFunction,SMDPad,CuDef*
G36*
G01*
X113425000Y61540000D02*
X113425000Y60860000D01*
G75*
G02*
X113340000Y60775000I-85000J0D01*
G01*
X112660000Y60775000D01*
G75*
G02*
X112575000Y60860000I0J85000D01*
G01*
X112575000Y61540000D01*
G75*
G02*
X112660000Y61625000I85000J0D01*
G01*
X113340000Y61625000D01*
G75*
G02*
X113425000Y61540000I0J-85000D01*
G01*
G37*
G04 #@! TD.AperFunction*
G04 #@! TD*
G04 #@! TO.P,D3,1,K*
G04 #@! TO.N,+12V_RAW*
G04 #@! TA.AperFunction,SMDPad,CuDef*
G36*
G01*
X128300000Y62890000D02*
X128300000Y63910000D01*
G75*
G02*
X128390000Y64000000I90000J0D01*
G01*
X129110000Y64000000D01*
G75*
G02*
X129200000Y63910000I0J-90000D01*
G01*
X129200000Y62890000D01*
G75*
G02*
X129110000Y62800000I-90000J0D01*
G01*
X128390000Y62800000D01*
G75*
G02*
X128300000Y62890000I0J90000D01*
G01*
G37*
G04 #@! TD.AperFunction*
G04 #@! TO.P,D3,2,A*
G04 #@! TO.N,/OUT_CE*
G04 #@! TA.AperFunction,SMDPad,CuDef*
G36*
G01*
X131600000Y62890000D02*
X131600000Y63910000D01*
G75*
G02*
X131690000Y64000000I90000J0D01*
G01*
X132410000Y64000000D01*
G75*
G02*
X132500000Y63910000I0J-90000D01*
G01*
X132500000Y62890000D01*
G75*
G02*
X132410000Y62800000I-90000J0D01*
G01*
X131690000Y62800000D01*
G75*
G02*
X131600000Y62890000I0J90000D01*
G01*
G37*
G04 #@! TD.AperFunction*
G04 #@! TD*
G04 #@! TO.P,F2,1*
G04 #@! TO.N,Net-(F2-Pad1)*
G04 #@! TA.AperFunction,SMDPad,CuDef*
G36*
G01*
X89825000Y78425000D02*
X89825000Y77175000D01*
G75*
G02*
X89575000Y76925000I-250000J0D01*
G01*
X88825000Y76925000D01*
G75*
G02*
X88575000Y77175000I0J250000D01*
G01*
X88575000Y78425000D01*
G75*
G02*
X88825000Y78675000I250000J0D01*
G01*
X89575000Y78675000D01*
G75*
G02*
X89825000Y78425000I0J-250000D01*
G01*
G37*
G04 #@! TD.AperFunction*
G04 #@! TO.P,F2,2*
G04 #@! TO.N,+12V*
G04 #@! TA.AperFunction,SMDPad,CuDef*
G36*
G01*
X87025000Y78425000D02*
X87025000Y77175000D01*
G75*
G02*
X86775000Y76925000I-250000J0D01*
G01*
X86025000Y76925000D01*
G75*
G02*
X85775000Y77175000I0J250000D01*
G01*
X85775000Y78425000D01*
G75*
G02*
X86025000Y78675000I250000J0D01*
G01*
X86775000Y78675000D01*
G75*
G02*
X87025000Y78425000I0J-250000D01*
G01*
G37*
G04 #@! TD.AperFunction*
G04 #@! TD*
G04 #@! TO.P,F1,1*
G04 #@! TO.N,Net-(F1-Pad1)*
G04 #@! TA.AperFunction,SMDPad,CuDef*
G36*
G01*
X31375000Y71375000D02*
X31375000Y72625000D01*
G75*
G02*
X31625000Y72875000I250000J0D01*
G01*
X32375000Y72875000D01*
G75*
G02*
X32625000Y72625000I0J-250000D01*
G01*
X32625000Y71375000D01*
G75*
G02*
X32375000Y71125000I-250000J0D01*
G01*
X31625000Y71125000D01*
G75*
G02*
X31375000Y71375000I0J250000D01*
G01*
G37*
G04 #@! TD.AperFunction*
G04 #@! TO.P,F1,2*
G04 #@! TO.N,Net-(M5-IN_VIGN)*
G04 #@! TA.AperFunction,SMDPad,CuDef*
G36*
G01*
X34175000Y71375000D02*
X34175000Y72625000D01*
G75*
G02*
X34425000Y72875000I250000J0D01*
G01*
X35175000Y72875000D01*
G75*
G02*
X35425000Y72625000I0J-250000D01*
G01*
X35425000Y71375000D01*
G75*
G02*
X35175000Y71125000I-250000J0D01*
G01*
X34425000Y71125000D01*
G75*
G02*
X34175000Y71375000I0J250000D01*
G01*
G37*
G04 #@! TD.AperFunction*
G04 #@! TD*
G04 #@! TO.P,R15,1*
G04 #@! TO.N,/IGN/IN1*
G04 #@! TA.AperFunction,SMDPad,CuDef*
G36*
G01*
X14775000Y79425000D02*
X14775000Y76575000D01*
G75*
G02*
X14525000Y76325000I-250000J0D01*
G01*
X13800000Y76325000D01*
G75*
G02*
X13550000Y76575000I0J250000D01*
G01*
X13550000Y79425000D01*
G75*
G02*
X13800000Y79675000I250000J0D01*
G01*
X14525000Y79675000D01*
G75*
G02*
X14775000Y79425000I0J-250000D01*
G01*
G37*
G04 #@! TD.AperFunction*
G04 #@! TO.P,R15,2*
G04 #@! TO.N,/OUT_IGN1*
G04 #@! TA.AperFunction,SMDPad,CuDef*
G36*
G01*
X8850000Y79425000D02*
X8850000Y76575000D01*
G75*
G02*
X8600000Y76325000I-250000J0D01*
G01*
X7875000Y76325000D01*
G75*
G02*
X7625000Y76575000I0J250000D01*
G01*
X7625000Y79425000D01*
G75*
G02*
X7875000Y79675000I250000J0D01*
G01*
X8600000Y79675000D01*
G75*
G02*
X8850000Y79425000I0J-250000D01*
G01*
G37*
G04 #@! TD.AperFunction*
G04 #@! TD*
G04 #@! TO.P,Q8,1,G*
G04 #@! TO.N,Net-(Q8-G)*
G04 #@! TA.AperFunction,SMDPad,CuDef*
G36*
G01*
X14725000Y70470000D02*
X14725000Y69770000D01*
G75*
G02*
X14475000Y69520000I-250000J0D01*
G01*
X12775000Y69520000D01*
G75*
G02*
X12525000Y69770000I0J250000D01*
G01*
X12525000Y70470000D01*
G75*
G02*
X12775000Y70720000I250000J0D01*
G01*
X14475000Y70720000D01*
G75*
G02*
X14725000Y70470000I0J-250000D01*
G01*
G37*
G04 #@! TD.AperFunction*
G04 #@! TO.P,Q8,2,C*
G04 #@! TO.N,/OUT_IGN2*
G04 #@! TA.AperFunction,SMDPad,CuDef*
G36*
G01*
X10525000Y72000000D02*
X10525000Y69750000D01*
G75*
G02*
X10275000Y69500000I-250000J0D01*
G01*
X7725000Y69500000D01*
G75*
G02*
X7475000Y69750000I0J250000D01*
G01*
X7475000Y72000000D01*
G75*
G02*
X7725000Y72250000I250000J0D01*
G01*
X10275000Y72250000D01*
G75*
G02*
X10525000Y72000000I0J-250000D01*
G01*
G37*
G04 #@! TD.AperFunction*
G04 #@! TA.AperFunction,SMDPad,CuDef*
G36*
G01*
X10525000Y75050000D02*
X10525000Y72800000D01*
G75*
G02*
X10275000Y72550000I-250000J0D01*
G01*
X7725000Y72550000D01*
G75*
G02*
X7475000Y72800000I0J250000D01*
G01*
X7475000Y75050000D01*
G75*
G02*
X7725000Y75300000I250000J0D01*
G01*
X10275000Y75300000D01*
G75*
G02*
X10525000Y75050000I0J-250000D01*
G01*
G37*
G04 #@! TD.AperFunction*
G04 #@! TA.AperFunction,SMDPad,CuDef*
G36*
G01*
X10525000Y75050003D02*
X10525000Y69749997D01*
G75*
G02*
X10275003Y69500000I-249997J0D01*
G01*
X4374997Y69500000D01*
G75*
G02*
X4125000Y69749997I0J249997D01*
G01*
X4125000Y75050003D01*
G75*
G02*
X4374997Y75300000I249997J0D01*
G01*
X10275003Y75300000D01*
G75*
G02*
X10525000Y75050003I0J-249997D01*
G01*
G37*
G04 #@! TD.AperFunction*
G04 #@! TA.AperFunction,SMDPad,CuDef*
G36*
G01*
X7175000Y72000000D02*
X7175000Y69750000D01*
G75*
G02*
X6925000Y69500000I-250000J0D01*
G01*
X4375000Y69500000D01*
G75*
G02*
X4125000Y69750000I0J250000D01*
G01*
X4125000Y72000000D01*
G75*
G02*
X4375000Y72250000I250000J0D01*
G01*
X6925000Y72250000D01*
G75*
G02*
X7175000Y72000000I0J-250000D01*
G01*
G37*
G04 #@! TD.AperFunction*
G04 #@! TA.AperFunction,SMDPad,CuDef*
G36*
G01*
X7175000Y75050000D02*
X7175000Y72800000D01*
G75*
G02*
X6925000Y72550000I-250000J0D01*
G01*
X4375000Y72550000D01*
G75*
G02*
X4125000Y72800000I0J250000D01*
G01*
X4125000Y75050000D01*
G75*
G02*
X4375000Y75300000I250000J0D01*
G01*
X6925000Y75300000D01*
G75*
G02*
X7175000Y75050000I0J-250000D01*
G01*
G37*
G04 #@! TD.AperFunction*
G04 #@! TO.P,Q8,3,E*
G04 #@! TO.N,GND*
G04 #@! TA.AperFunction,SMDPad,CuDef*
G36*
G01*
X14725000Y75030000D02*
X14725000Y74330000D01*
G75*
G02*
X14475000Y74080000I-250000J0D01*
G01*
X12775000Y74080000D01*
G75*
G02*
X12525000Y74330000I0J250000D01*
G01*
X12525000Y75030000D01*
G75*
G02*
X12775000Y75280000I250000J0D01*
G01*
X14475000Y75280000D01*
G75*
G02*
X14725000Y75030000I0J-250000D01*
G01*
G37*
G04 #@! TD.AperFunction*
G04 #@! TD*
G04 #@! TO.P,D8,1,K*
G04 #@! TO.N,Net-(D8-K)*
G04 #@! TA.AperFunction,SMDPad,CuDef*
G36*
G01*
X76200000Y81650000D02*
X76200000Y80750000D01*
G75*
G02*
X76100000Y80650000I-100000J0D01*
G01*
X75300000Y80650000D01*
G75*
G02*
X75200000Y80750000I0J100000D01*
G01*
X75200000Y81650000D01*
G75*
G02*
X75300000Y81750000I100000J0D01*
G01*
X76100000Y81750000D01*
G75*
G02*
X76200000Y81650000I0J-100000D01*
G01*
G37*
G04 #@! TD.AperFunction*
G04 #@! TO.P,D8,2,A*
G04 #@! TO.N,Net-(D8-A)*
G04 #@! TA.AperFunction,SMDPad,CuDef*
G36*
G01*
X74500000Y81650000D02*
X74500000Y80750000D01*
G75*
G02*
X74400000Y80650000I-100000J0D01*
G01*
X73600000Y80650000D01*
G75*
G02*
X73500000Y80750000I0J100000D01*
G01*
X73500000Y81650000D01*
G75*
G02*
X73600000Y81750000I100000J0D01*
G01*
X74400000Y81750000D01*
G75*
G02*
X74500000Y81650000I0J-100000D01*
G01*
G37*
G04 #@! TD.AperFunction*
G04 #@! TD*
G04 #@! TO.P,C6,1*
G04 #@! TO.N,GND*
G04 #@! TA.AperFunction,SMDPad,CuDef*
G36*
G01*
X114500000Y59625000D02*
X114500000Y58575000D01*
G75*
G02*
X114400000Y58475000I-100000J0D01*
G01*
X113600000Y58475000D01*
G75*
G02*
X113500000Y58575000I0J100000D01*
G01*
X113500000Y59625000D01*
G75*
G02*
X113600000Y59725000I100000J0D01*
G01*
X114400000Y59725000D01*
G75*
G02*
X114500000Y59625000I0J-100000D01*
G01*
G37*
G04 #@! TD.AperFunction*
G04 #@! TO.P,C6,2*
G04 #@! TO.N,/dbw/PWR*
G04 #@! TA.AperFunction,SMDPad,CuDef*
G36*
G01*
X112500000Y59625000D02*
X112500000Y58575000D01*
G75*
G02*
X112400000Y58475000I-100000J0D01*
G01*
X111600000Y58475000D01*
G75*
G02*
X111500000Y58575000I0J100000D01*
G01*
X111500000Y59625000D01*
G75*
G02*
X111600000Y59725000I100000J0D01*
G01*
X112400000Y59725000D01*
G75*
G02*
X112500000Y59625000I0J-100000D01*
G01*
G37*
G04 #@! TD.AperFunction*
G04 #@! TD*
G04 #@! TO.P,C7,1*
G04 #@! TO.N,GND*
G04 #@! TA.AperFunction,SMDPad,CuDef*
G36*
G01*
X114500000Y37375000D02*
X114500000Y36325000D01*
G75*
G02*
X114400000Y36225000I-100000J0D01*
G01*
X113600000Y36225000D01*
G75*
G02*
X113500000Y36325000I0J100000D01*
G01*
X113500000Y37375000D01*
G75*
G02*
X113600000Y37475000I100000J0D01*
G01*
X114400000Y37475000D01*
G75*
G02*
X114500000Y37375000I0J-100000D01*
G01*
G37*
G04 #@! TD.AperFunction*
G04 #@! TO.P,C7,2*
G04 #@! TO.N,/dbw/PWR*
G04 #@! TA.AperFunction,SMDPad,CuDef*
G36*
G01*
X112500000Y37375000D02*
X112500000Y36325000D01*
G75*
G02*
X112400000Y36225000I-100000J0D01*
G01*
X111600000Y36225000D01*
G75*
G02*
X111500000Y36325000I0J100000D01*
G01*
X111500000Y37375000D01*
G75*
G02*
X111600000Y37475000I100000J0D01*
G01*
X112400000Y37475000D01*
G75*
G02*
X112500000Y37375000I0J-100000D01*
G01*
G37*
G04 #@! TD.AperFunction*
G04 #@! TD*
G04 #@! TO.P,R31,1*
G04 #@! TO.N,Net-(D8-A)*
G04 #@! TA.AperFunction,SMDPad,CuDef*
G36*
G01*
X72650001Y81440002D02*
X72650001Y80660002D01*
G75*
G02*
X72580001Y80590002I-70000J0D01*
G01*
X72020001Y80590002D01*
G75*
G02*
X71950001Y80660002I0J70000D01*
G01*
X71950001Y81440002D01*
G75*
G02*
X72020001Y81510002I70000J0D01*
G01*
X72580001Y81510002D01*
G75*
G02*
X72650001Y81440002I0J-70000D01*
G01*
G37*
G04 #@! TD.AperFunction*
G04 #@! TO.P,R31,2*
G04 #@! TO.N,+3.3V*
G04 #@! TA.AperFunction,SMDPad,CuDef*
G36*
G01*
X71050001Y81440002D02*
X71050001Y80660002D01*
G75*
G02*
X70980001Y80590002I-70000J0D01*
G01*
X70420001Y80590002D01*
G75*
G02*
X70350001Y80660002I0J70000D01*
G01*
X70350001Y81440002D01*
G75*
G02*
X70420001Y81510002I70000J0D01*
G01*
X70980001Y81510002D01*
G75*
G02*
X71050001Y81440002I0J-70000D01*
G01*
G37*
G04 #@! TD.AperFunction*
G04 #@! TD*
G04 #@! TO.P,Q10,1,G*
G04 #@! TO.N,Net-(Q10-G)*
G04 #@! TA.AperFunction,SMDPad,CuDef*
G36*
G01*
X14600000Y48070000D02*
X14600000Y47370000D01*
G75*
G02*
X14350000Y47120000I-250000J0D01*
G01*
X12650000Y47120000D01*
G75*
G02*
X12400000Y47370000I0J250000D01*
G01*
X12400000Y48070000D01*
G75*
G02*
X12650000Y48320000I250000J0D01*
G01*
X14350000Y48320000D01*
G75*
G02*
X14600000Y48070000I0J-250000D01*
G01*
G37*
G04 #@! TD.AperFunction*
G04 #@! TO.P,Q10,2,C*
G04 #@! TO.N,/OUT_IGN4*
G04 #@! TA.AperFunction,SMDPad,CuDef*
G36*
G01*
X10400000Y49600000D02*
X10400000Y47350000D01*
G75*
G02*
X10150000Y47100000I-250000J0D01*
G01*
X7600000Y47100000D01*
G75*
G02*
X7350000Y47350000I0J250000D01*
G01*
X7350000Y49600000D01*
G75*
G02*
X7600000Y49850000I250000J0D01*
G01*
X10150000Y49850000D01*
G75*
G02*
X10400000Y49600000I0J-250000D01*
G01*
G37*
G04 #@! TD.AperFunction*
G04 #@! TA.AperFunction,SMDPad,CuDef*
G36*
G01*
X10400000Y52650000D02*
X10400000Y50400000D01*
G75*
G02*
X10150000Y50150000I-250000J0D01*
G01*
X7600000Y50150000D01*
G75*
G02*
X7350000Y50400000I0J250000D01*
G01*
X7350000Y52650000D01*
G75*
G02*
X7600000Y52900000I250000J0D01*
G01*
X10150000Y52900000D01*
G75*
G02*
X10400000Y52650000I0J-250000D01*
G01*
G37*
G04 #@! TD.AperFunction*
G04 #@! TA.AperFunction,SMDPad,CuDef*
G36*
G01*
X10400000Y52650003D02*
X10400000Y47349997D01*
G75*
G02*
X10150003Y47100000I-249997J0D01*
G01*
X4249997Y47100000D01*
G75*
G02*
X4000000Y47349997I0J249997D01*
G01*
X4000000Y52650003D01*
G75*
G02*
X4249997Y52900000I249997J0D01*
G01*
X10150003Y52900000D01*
G75*
G02*
X10400000Y52650003I0J-249997D01*
G01*
G37*
G04 #@! TD.AperFunction*
G04 #@! TA.AperFunction,SMDPad,CuDef*
G36*
G01*
X7050000Y49600000D02*
X7050000Y47350000D01*
G75*
G02*
X6800000Y47100000I-250000J0D01*
G01*
X4250000Y47100000D01*
G75*
G02*
X4000000Y47350000I0J250000D01*
G01*
X4000000Y49600000D01*
G75*
G02*
X4250000Y49850000I250000J0D01*
G01*
X6800000Y49850000D01*
G75*
G02*
X7050000Y49600000I0J-250000D01*
G01*
G37*
G04 #@! TD.AperFunction*
G04 #@! TA.AperFunction,SMDPad,CuDef*
G36*
G01*
X7050000Y52650000D02*
X7050000Y50400000D01*
G75*
G02*
X6800000Y50150000I-250000J0D01*
G01*
X4250000Y50150000D01*
G75*
G02*
X4000000Y50400000I0J250000D01*
G01*
X4000000Y52650000D01*
G75*
G02*
X4250000Y52900000I250000J0D01*
G01*
X6800000Y52900000D01*
G75*
G02*
X7050000Y52650000I0J-250000D01*
G01*
G37*
G04 #@! TD.AperFunction*
G04 #@! TO.P,Q10,3,E*
G04 #@! TO.N,GND*
G04 #@! TA.AperFunction,SMDPad,CuDef*
G36*
G01*
X14600000Y52630000D02*
X14600000Y51930000D01*
G75*
G02*
X14350000Y51680000I-250000J0D01*
G01*
X12650000Y51680000D01*
G75*
G02*
X12400000Y51930000I0J250000D01*
G01*
X12400000Y52630000D01*
G75*
G02*
X12650000Y52880000I250000J0D01*
G01*
X14350000Y52880000D01*
G75*
G02*
X14600000Y52630000I0J-250000D01*
G01*
G37*
G04 #@! TD.AperFunction*
G04 #@! TD*
D43*
G04 #@! TO.P,Q13,1,G*
G04 #@! TO.N,/Low Side/IN1*
X126600000Y43900000D03*
G04 #@! TO.P,Q13,2,D*
G04 #@! TO.N,/OUT_PR*
X126600000Y46200000D03*
G04 #@! TO.P,Q13,3,S*
G04 #@! TO.N,GND*
X126600000Y48500000D03*
D44*
G04 #@! TO.P,Q13,4*
G04 #@! TO.N,N/C*
X120300000Y46200000D03*
G04 #@! TD*
D43*
G04 #@! TO.P,Q14,1,G*
G04 #@! TO.N,/Low Side/IN2*
X126600000Y52150000D03*
G04 #@! TO.P,Q14,2,D*
G04 #@! TO.N,/OUT_VLM*
X126600000Y54450000D03*
G04 #@! TO.P,Q14,3,S*
G04 #@! TO.N,GND*
X126600000Y56750000D03*
D44*
G04 #@! TO.P,Q14,4*
G04 #@! TO.N,N/C*
X120300000Y54450000D03*
G04 #@! TD*
G04 #@! TO.P,C4,1*
G04 #@! TO.N,GND*
G04 #@! TA.AperFunction,SMDPad,CuDef*
G36*
G01*
X114500000Y55125000D02*
X114500000Y54075000D01*
G75*
G02*
X114400000Y53975000I-100000J0D01*
G01*
X113600000Y53975000D01*
G75*
G02*
X113500000Y54075000I0J100000D01*
G01*
X113500000Y55125000D01*
G75*
G02*
X113600000Y55225000I100000J0D01*
G01*
X114400000Y55225000D01*
G75*
G02*
X114500000Y55125000I0J-100000D01*
G01*
G37*
G04 #@! TD.AperFunction*
G04 #@! TO.P,C4,2*
G04 #@! TO.N,/dbw/PWR*
G04 #@! TA.AperFunction,SMDPad,CuDef*
G36*
G01*
X112500000Y55125000D02*
X112500000Y54075000D01*
G75*
G02*
X112400000Y53975000I-100000J0D01*
G01*
X111600000Y53975000D01*
G75*
G02*
X111500000Y54075000I0J100000D01*
G01*
X111500000Y55125000D01*
G75*
G02*
X111600000Y55225000I100000J0D01*
G01*
X112400000Y55225000D01*
G75*
G02*
X112500000Y55125000I0J-100000D01*
G01*
G37*
G04 #@! TD.AperFunction*
G04 #@! TD*
G04 #@! TO.P,R11,1*
G04 #@! TO.N,GND*
G04 #@! TA.AperFunction,SMDPad,CuDef*
G36*
G01*
X37350000Y36190000D02*
X37350000Y35410000D01*
G75*
G02*
X37280000Y35340000I-70000J0D01*
G01*
X36720000Y35340000D01*
G75*
G02*
X36650000Y35410000I0J70000D01*
G01*
X36650000Y36190000D01*
G75*
G02*
X36720000Y36260000I70000J0D01*
G01*
X37280000Y36260000D01*
G75*
G02*
X37350000Y36190000I0J-70000D01*
G01*
G37*
G04 #@! TD.AperFunction*
G04 #@! TO.P,R11,2*
G04 #@! TO.N,/INJECTORS/IN6*
G04 #@! TA.AperFunction,SMDPad,CuDef*
G36*
G01*
X35750000Y36190000D02*
X35750000Y35410000D01*
G75*
G02*
X35680000Y35340000I-70000J0D01*
G01*
X35120000Y35340000D01*
G75*
G02*
X35050000Y35410000I0J70000D01*
G01*
X35050000Y36190000D01*
G75*
G02*
X35120000Y36260000I70000J0D01*
G01*
X35680000Y36260000D01*
G75*
G02*
X35750000Y36190000I0J-70000D01*
G01*
G37*
G04 #@! TD.AperFunction*
G04 #@! TD*
G04 #@! TO.P,R7,1*
G04 #@! TO.N,GND*
G04 #@! TA.AperFunction,SMDPad,CuDef*
G36*
G01*
X22550000Y36190000D02*
X22550000Y35410000D01*
G75*
G02*
X22480000Y35340000I-70000J0D01*
G01*
X21920000Y35340000D01*
G75*
G02*
X21850000Y35410000I0J70000D01*
G01*
X21850000Y36190000D01*
G75*
G02*
X21920000Y36260000I70000J0D01*
G01*
X22480000Y36260000D01*
G75*
G02*
X22550000Y36190000I0J-70000D01*
G01*
G37*
G04 #@! TD.AperFunction*
G04 #@! TO.P,R7,2*
G04 #@! TO.N,/INJECTORS/IN2*
G04 #@! TA.AperFunction,SMDPad,CuDef*
G36*
G01*
X20950000Y36190000D02*
X20950000Y35410000D01*
G75*
G02*
X20880000Y35340000I-70000J0D01*
G01*
X20320000Y35340000D01*
G75*
G02*
X20250000Y35410000I0J70000D01*
G01*
X20250000Y36190000D01*
G75*
G02*
X20320000Y36260000I70000J0D01*
G01*
X20880000Y36260000D01*
G75*
G02*
X20950000Y36190000I0J-70000D01*
G01*
G37*
G04 #@! TD.AperFunction*
G04 #@! TD*
G04 #@! TO.P,R28,1*
G04 #@! TO.N,/ls2/IN1*
G04 #@! TA.AperFunction,SMDPad,CuDef*
G36*
G01*
X49450000Y24210000D02*
X49450000Y24990000D01*
G75*
G02*
X49520000Y25060000I70000J0D01*
G01*
X50080000Y25060000D01*
G75*
G02*
X50150000Y24990000I0J-70000D01*
G01*
X50150000Y24210000D01*
G75*
G02*
X50080000Y24140000I-70000J0D01*
G01*
X49520000Y24140000D01*
G75*
G02*
X49450000Y24210000I0J70000D01*
G01*
G37*
G04 #@! TD.AperFunction*
G04 #@! TO.P,R28,2*
G04 #@! TO.N,GND*
G04 #@! TA.AperFunction,SMDPad,CuDef*
G36*
G01*
X51050000Y24210000D02*
X51050000Y24990000D01*
G75*
G02*
X51120000Y25060000I70000J0D01*
G01*
X51680000Y25060000D01*
G75*
G02*
X51750000Y24990000I0J-70000D01*
G01*
X51750000Y24210000D01*
G75*
G02*
X51680000Y24140000I-70000J0D01*
G01*
X51120000Y24140000D01*
G75*
G02*
X51050000Y24210000I0J70000D01*
G01*
G37*
G04 #@! TD.AperFunction*
G04 #@! TD*
G04 #@! TO.P,D2,1,K*
G04 #@! TO.N,+12V_RAW*
G04 #@! TA.AperFunction,SMDPad,CuDef*
G36*
G01*
X128300000Y54690000D02*
X128300000Y55710000D01*
G75*
G02*
X128390000Y55800000I90000J0D01*
G01*
X129110000Y55800000D01*
G75*
G02*
X129200000Y55710000I0J-90000D01*
G01*
X129200000Y54690000D01*
G75*
G02*
X129110000Y54600000I-90000J0D01*
G01*
X128390000Y54600000D01*
G75*
G02*
X128300000Y54690000I0J90000D01*
G01*
G37*
G04 #@! TD.AperFunction*
G04 #@! TO.P,D2,2,A*
G04 #@! TO.N,/OUT_VLM*
G04 #@! TA.AperFunction,SMDPad,CuDef*
G36*
G01*
X131600000Y54690000D02*
X131600000Y55710000D01*
G75*
G02*
X131690000Y55800000I90000J0D01*
G01*
X132410000Y55800000D01*
G75*
G02*
X132500000Y55710000I0J-90000D01*
G01*
X132500000Y54690000D01*
G75*
G02*
X132410000Y54600000I-90000J0D01*
G01*
X131690000Y54600000D01*
G75*
G02*
X131600000Y54690000I0J90000D01*
G01*
G37*
G04 #@! TD.AperFunction*
G04 #@! TD*
G04 #@! TO.P,R27,1*
G04 #@! TO.N,GND*
G04 #@! TA.AperFunction,SMDPad,CuDef*
G36*
G01*
X128410000Y70150000D02*
X129190000Y70150000D01*
G75*
G02*
X129260000Y70080000I0J-70000D01*
G01*
X129260000Y69520000D01*
G75*
G02*
X129190000Y69450000I-70000J0D01*
G01*
X128410000Y69450000D01*
G75*
G02*
X128340000Y69520000I0J70000D01*
G01*
X128340000Y70080000D01*
G75*
G02*
X128410000Y70150000I70000J0D01*
G01*
G37*
G04 #@! TD.AperFunction*
G04 #@! TO.P,R27,2*
G04 #@! TO.N,/Low Side/IN4*
G04 #@! TA.AperFunction,SMDPad,CuDef*
G36*
G01*
X128410000Y68550000D02*
X129190000Y68550000D01*
G75*
G02*
X129260000Y68480000I0J-70000D01*
G01*
X129260000Y67920000D01*
G75*
G02*
X129190000Y67850000I-70000J0D01*
G01*
X128410000Y67850000D01*
G75*
G02*
X128340000Y67920000I0J70000D01*
G01*
X128340000Y68480000D01*
G75*
G02*
X128410000Y68550000I70000J0D01*
G01*
G37*
G04 #@! TD.AperFunction*
G04 #@! TD*
D10*
G04 #@! TO.P,M3,E1,V5A*
G04 #@! TO.N,+5VA*
X101400000Y81499998D03*
D11*
G04 #@! TO.P,M3,E2,GND*
G04 #@! TO.N,GND*
X92500000Y79524998D03*
D12*
X97050000Y82099998D03*
X97050000Y78999998D03*
D10*
X101400000Y80549998D03*
G04 #@! TO.P,M3,E3,OUT_KNOCK*
G04 #@! TO.N,Net-(M3-OUT_KNOCK)*
X101400000Y79600000D03*
G04 #@! TO.P,M3,W1,IN_KNOCK*
G04 #@! TO.N,/KNOCK1*
X92700000Y80599998D03*
G04 #@! TO.P,M3,W2,VREF*
G04 #@! TO.N,Net-(M3-VREF)*
X92700000Y81499998D03*
G04 #@! TD*
G04 #@! TO.P,R29,1*
G04 #@! TO.N,/ls2/IN2*
G04 #@! TA.AperFunction,SMDPad,CuDef*
G36*
G01*
X44050000Y24010000D02*
X44050000Y24790000D01*
G75*
G02*
X44120000Y24860000I70000J0D01*
G01*
X44680000Y24860000D01*
G75*
G02*
X44750000Y24790000I0J-70000D01*
G01*
X44750000Y24010000D01*
G75*
G02*
X44680000Y23940000I-70000J0D01*
G01*
X44120000Y23940000D01*
G75*
G02*
X44050000Y24010000I0J70000D01*
G01*
G37*
G04 #@! TD.AperFunction*
G04 #@! TO.P,R29,2*
G04 #@! TO.N,GND*
G04 #@! TA.AperFunction,SMDPad,CuDef*
G36*
G01*
X45650000Y24010000D02*
X45650000Y24790000D01*
G75*
G02*
X45720000Y24860000I70000J0D01*
G01*
X46280000Y24860000D01*
G75*
G02*
X46350000Y24790000I0J-70000D01*
G01*
X46350000Y24010000D01*
G75*
G02*
X46280000Y23940000I-70000J0D01*
G01*
X45720000Y23940000D01*
G75*
G02*
X45650000Y24010000I0J70000D01*
G01*
G37*
G04 #@! TD.AperFunction*
G04 #@! TD*
M02*
