G75*
G70*
%OFA0B0*%
%FSLAX25Y25*%
%IPPOS*%
%LPD*%
%AMOC8*
5,1,8,0,0,1.08239X$1,22.5*
%
%AMM10*
21,1,0.025200,0.019680,0.000000,0.000000,0.000000*
21,1,0.015750,0.029130,0.000000,0.000000,0.000000*
1,1,0.009450,0.007870,-0.009840*
1,1,0.009450,-0.007870,-0.009840*
1,1,0.009450,-0.007870,0.009840*
1,1,0.009450,0.007870,0.009840*
%
%AMM100*
21,1,0.038980,0.026770,-0.000000,0.000000,0.000000*
21,1,0.026770,0.038980,-0.000000,0.000000,0.000000*
1,1,0.012210,0.013390,-0.013390*
1,1,0.012210,-0.013390,-0.013390*
1,1,0.012210,-0.013390,0.013390*
1,1,0.012210,0.013390,0.013390*
%
%AMM101*
21,1,0.025200,0.019680,-0.000000,0.000000,90.000000*
21,1,0.015750,0.029130,-0.000000,0.000000,90.000000*
1,1,0.009450,0.009840,0.007870*
1,1,0.009450,0.009840,-0.007870*
1,1,0.009450,-0.009840,-0.007870*
1,1,0.009450,-0.009840,0.007870*
%
%AMM26*
21,1,0.041340,0.026770,0.000000,0.000000,0.000000*
21,1,0.029130,0.038980,0.000000,0.000000,0.000000*
1,1,0.012210,0.014570,-0.013390*
1,1,0.012210,-0.014570,-0.013390*
1,1,0.012210,-0.014570,0.013390*
1,1,0.012210,0.014570,0.013390*
%
%AMM27*
21,1,0.076380,0.036220,0.000000,0.000000,90.000000*
21,1,0.061810,0.050790,0.000000,0.000000,90.000000*
1,1,0.014570,0.018110,0.030910*
1,1,0.014570,0.018110,-0.030910*
1,1,0.014570,-0.018110,-0.030910*
1,1,0.014570,-0.018110,0.030910*
%
%AMM30*
21,1,0.029130,0.018900,0.000000,0.000000,90.000000*
21,1,0.018900,0.029130,0.000000,0.000000,90.000000*
1,1,0.010240,0.009450,0.009450*
1,1,0.010240,0.009450,-0.009450*
1,1,0.010240,-0.009450,-0.009450*
1,1,0.010240,-0.009450,0.009450*
%
%AMM34*
21,1,0.111810,0.050390,0.000000,0.000000,90.000000*
21,1,0.093700,0.068500,0.000000,0.000000,90.000000*
1,1,0.018110,0.025200,0.046850*
1,1,0.018110,0.025200,-0.046850*
1,1,0.018110,-0.025200,-0.046850*
1,1,0.018110,-0.025200,0.046850*
%
%AMM35*
21,1,0.127560,0.075590,0.000000,0.000000,180.000000*
21,1,0.103150,0.100000,0.000000,0.000000,180.000000*
1,1,0.024410,-0.051580,0.037800*
1,1,0.024410,0.051580,0.037800*
1,1,0.024410,0.051580,-0.037800*
1,1,0.024410,-0.051580,-0.037800*
%
%AMM36*
21,1,0.123620,0.083460,0.000000,0.000000,0.000000*
21,1,0.097240,0.109840,0.000000,0.000000,0.000000*
1,1,0.026380,0.048620,-0.041730*
1,1,0.026380,-0.048620,-0.041730*
1,1,0.026380,-0.048620,0.041730*
1,1,0.026380,0.048620,0.041730*
%
%AMM53*
21,1,0.029530,0.026380,0.000000,0.000000,270.000000*
21,1,0.020470,0.035430,0.000000,0.000000,270.000000*
1,1,0.009060,-0.013190,-0.010240*
1,1,0.009060,-0.013190,0.010240*
1,1,0.009060,0.013190,0.010240*
1,1,0.009060,0.013190,-0.010240*
%
%AMM54*
21,1,0.021650,0.027950,0.000000,0.000000,270.000000*
21,1,0.014170,0.035430,0.000000,0.000000,270.000000*
1,1,0.007480,-0.013980,-0.007090*
1,1,0.007480,-0.013980,0.007090*
1,1,0.007480,0.013980,0.007090*
1,1,0.007480,0.013980,-0.007090*
%
%AMM57*
21,1,0.031500,0.018900,0.000000,0.000000,90.000000*
21,1,0.022840,0.027560,0.000000,0.000000,90.000000*
1,1,0.008660,0.009450,0.011420*
1,1,0.008660,0.009450,-0.011420*
1,1,0.008660,-0.009450,-0.011420*
1,1,0.008660,-0.009450,0.011420*
%
%AMM59*
21,1,0.031500,0.018900,0.000000,0.000000,180.000000*
21,1,0.022840,0.027560,0.000000,0.000000,180.000000*
1,1,0.008660,-0.011420,0.009450*
1,1,0.008660,0.011420,0.009450*
1,1,0.008660,0.011420,-0.009450*
1,1,0.008660,-0.011420,-0.009450*
%
%AMM61*
21,1,0.039370,0.030320,0.000000,0.000000,270.000000*
21,1,0.028350,0.041340,0.000000,0.000000,270.000000*
1,1,0.011020,-0.015160,-0.014170*
1,1,0.011020,-0.015160,0.014170*
1,1,0.011020,0.015160,0.014170*
1,1,0.011020,0.015160,-0.014170*
%
%AMM64*
21,1,0.031500,0.030710,0.000000,0.000000,0.000000*
21,1,0.022050,0.040160,0.000000,0.000000,0.000000*
1,1,0.009450,0.011020,-0.015350*
1,1,0.009450,-0.011020,-0.015350*
1,1,0.009450,-0.011020,0.015350*
1,1,0.009450,0.011020,0.015350*
%
%AMM7*
21,1,0.029130,0.018900,0.000000,0.000000,180.000000*
21,1,0.018900,0.029130,0.000000,0.000000,180.000000*
1,1,0.010240,-0.009450,0.009450*
1,1,0.010240,0.009450,0.009450*
1,1,0.010240,0.009450,-0.009450*
1,1,0.010240,-0.009450,-0.009450*
%
%AMM79*
21,1,0.037400,0.026770,0.000000,0.000000,90.000000*
21,1,0.026770,0.037400,0.000000,0.000000,90.000000*
1,1,0.010630,0.013390,0.013390*
1,1,0.010630,0.013390,-0.013390*
1,1,0.010630,-0.013390,-0.013390*
1,1,0.010630,-0.013390,0.013390*
%
%AMM8*
21,1,0.025200,0.019680,0.000000,0.000000,270.000000*
21,1,0.015750,0.029130,0.000000,0.000000,270.000000*
1,1,0.009450,-0.009840,-0.007870*
1,1,0.009450,-0.009840,0.007870*
1,1,0.009450,0.009840,0.007870*
1,1,0.009450,0.009840,-0.007870*
%
%AMM80*
21,1,0.029530,0.026380,0.000000,0.000000,0.000000*
21,1,0.020470,0.035430,0.000000,0.000000,0.000000*
1,1,0.009060,0.010240,-0.013190*
1,1,0.009060,-0.010240,-0.013190*
1,1,0.009060,-0.010240,0.013190*
1,1,0.009060,0.010240,0.013190*
%
%AMM81*
21,1,0.021650,0.027950,0.000000,0.000000,0.000000*
21,1,0.014170,0.035430,0.000000,0.000000,0.000000*
1,1,0.007480,0.007090,-0.013980*
1,1,0.007480,-0.007090,-0.013980*
1,1,0.007480,-0.007090,0.013980*
1,1,0.007480,0.007090,0.013980*
%
%AMM82*
21,1,0.037400,0.026770,0.000000,0.000000,0.000000*
21,1,0.026770,0.037400,0.000000,0.000000,0.000000*
1,1,0.010630,0.013390,-0.013390*
1,1,0.010630,-0.013390,-0.013390*
1,1,0.010630,-0.013390,0.013390*
1,1,0.010630,0.013390,0.013390*
%
%AMM83*
21,1,0.082680,0.045670,0.000000,0.000000,180.000000*
21,1,0.067320,0.061020,0.000000,0.000000,180.000000*
1,1,0.015350,-0.033660,0.022840*
1,1,0.015350,0.033660,0.022840*
1,1,0.015350,0.033660,-0.022840*
1,1,0.015350,-0.033660,-0.022840*
%
%AMM84*
21,1,0.062990,0.020470,0.000000,0.000000,180.000000*
21,1,0.053940,0.029530,0.000000,0.000000,180.000000*
1,1,0.009060,-0.026970,0.010240*
1,1,0.009060,0.026970,0.010240*
1,1,0.009060,0.026970,-0.010240*
1,1,0.009060,-0.026970,-0.010240*
%
%AMM85*
21,1,0.039370,0.030320,0.000000,0.000000,180.000000*
21,1,0.028350,0.041340,0.000000,0.000000,180.000000*
1,1,0.011020,-0.014170,0.015160*
1,1,0.011020,0.014170,0.015160*
1,1,0.011020,0.014170,-0.015160*
1,1,0.011020,-0.014170,-0.015160*
%
%AMM86*
21,1,0.016540,0.028980,0.000000,0.000000,180.000000*
21,1,0.010080,0.035430,0.000000,0.000000,180.000000*
1,1,0.006460,-0.005040,0.014490*
1,1,0.006460,0.005040,0.014490*
1,1,0.006460,0.005040,-0.014490*
1,1,0.006460,-0.005040,-0.014490*
%
%AMM87*
21,1,0.074800,0.036220,0.000000,0.000000,0.000000*
21,1,0.061810,0.049210,0.000000,0.000000,0.000000*
1,1,0.012990,0.030910,-0.018110*
1,1,0.012990,-0.030910,-0.018110*
1,1,0.012990,-0.030910,0.018110*
1,1,0.012990,0.030910,0.018110*
%
%AMM88*
21,1,0.039760,0.026770,0.000000,0.000000,0.000000*
21,1,0.029130,0.037400,0.000000,0.000000,0.000000*
1,1,0.010630,0.014570,-0.013390*
1,1,0.010630,-0.014570,-0.013390*
1,1,0.010630,-0.014570,0.013390*
1,1,0.010630,0.014570,0.013390*
%
%AMM89*
21,1,0.031500,0.049610,0.000000,0.000000,0.000000*
21,1,0.022050,0.059060,0.000000,0.000000,0.000000*
1,1,0.009450,0.011020,-0.024800*
1,1,0.009450,-0.011020,-0.024800*
1,1,0.009450,-0.011020,0.024800*
1,1,0.009450,0.011020,0.024800*
%
%AMM9*
21,1,0.038980,0.026770,0.000000,0.000000,270.000000*
21,1,0.026770,0.038980,0.000000,0.000000,270.000000*
1,1,0.012210,-0.013390,-0.013390*
1,1,0.012210,-0.013390,0.013390*
1,1,0.012210,0.013390,0.013390*
1,1,0.012210,0.013390,-0.013390*
%
%AMM90*
21,1,0.074800,0.036220,0.000000,0.000000,90.000000*
21,1,0.061810,0.049210,0.000000,0.000000,90.000000*
1,1,0.012990,0.018110,0.030910*
1,1,0.012990,0.018110,-0.030910*
1,1,0.012990,-0.018110,-0.030910*
1,1,0.012990,-0.018110,0.030910*
%
%AMM91*
21,1,0.031500,0.030710,0.000000,0.000000,90.000000*
21,1,0.022050,0.040160,0.000000,0.000000,90.000000*
1,1,0.009450,0.015350,0.011020*
1,1,0.009450,0.015350,-0.011020*
1,1,0.009450,-0.015350,-0.011020*
1,1,0.009450,-0.015350,0.011020*
%
%AMM98*
21,1,0.029130,0.018900,-0.000000,0.000000,270.000000*
21,1,0.018900,0.029130,-0.000000,0.000000,270.000000*
1,1,0.010240,-0.009450,-0.009450*
1,1,0.010240,-0.009450,0.009450*
1,1,0.010240,0.009450,0.009450*
1,1,0.010240,0.009450,-0.009450*
%
%AMM99*
21,1,0.025200,0.019680,-0.000000,0.000000,0.000000*
21,1,0.015750,0.029130,-0.000000,0.000000,0.000000*
1,1,0.009450,0.007870,-0.009840*
1,1,0.009450,-0.007870,-0.009840*
1,1,0.009450,-0.007870,0.009840*
1,1,0.009450,0.007870,0.009840*
%
%ADD10C,0.02362*%
%ADD102C,0.02913*%
%ADD107M7*%
%ADD108M8*%
%ADD109M9*%
%ADD110M10*%
%ADD128M26*%
%ADD129M27*%
%ADD132M30*%
%ADD133C,0.06457*%
%ADD139M34*%
%ADD140O,0.02520X0.09213*%
%ADD141M35*%
%ADD142M36*%
%ADD169M53*%
%ADD170M54*%
%ADD177M57*%
%ADD181M59*%
%ADD183M61*%
%ADD187M64*%
%ADD193C,0.04294*%
%ADD212M79*%
%ADD213M80*%
%ADD214M81*%
%ADD215M82*%
%ADD216M83*%
%ADD217M84*%
%ADD218M85*%
%ADD219R,0.01772X0.01870*%
%ADD220M86*%
%ADD221O,0.05354X0.01378*%
%ADD222M87*%
%ADD223M88*%
%ADD224R,0.09843X0.07087*%
%ADD225R,0.01870X0.01772*%
%ADD226M89*%
%ADD227R,0.04331X0.04724*%
%ADD228M90*%
%ADD229M91*%
%ADD233R,0.07874X0.07500*%
%ADD234O,0.07874X0.07500*%
%ADD236R,0.01772X0.05709*%
%ADD237R,0.02559X0.04803*%
%ADD244M98*%
%ADD245M99*%
%ADD246M100*%
%ADD247M101*%
%ADD37O,0.03150X0.05512*%
%ADD40R,0.06693X0.06693*%
%ADD41O,0.06693X0.06693*%
%ADD49C,0.06000*%
%ADD52C,0.05906*%
%ADD64C,0.04724*%
%ADD68C,0.02559*%
%ADD69O,0.03740X0.02559*%
%ADD82C,0.05118*%
%ADD86R,0.07500X0.07874*%
%ADD87O,0.07500X0.07874*%
%ADD90C,0.03900*%
%ADD93R,0.05709X0.01772*%
%ADD94R,0.04803X0.02559*%
X0000000Y0000000D02*
%LPD*%
G01*
D10*
X0132283Y0208465D03*
X0136024Y0208465D03*
X0139764Y0208465D03*
X0135827Y0174213D03*
X0132283Y0174213D03*
D68*
X0333858Y0333228D03*
D69*
X0305512Y0333228D03*
D37*
X0337362Y0361575D03*
X0335945Y0338150D03*
X0303425Y0338150D03*
X0302008Y0361575D03*
D40*
X0062913Y0364567D03*
D41*
X0072913Y0364567D03*
X0082913Y0364567D03*
X0092913Y0364567D03*
X0102913Y0364567D03*
D49*
X0081024Y0031276D03*
X0094134Y0031276D03*
X0107244Y0031276D03*
X0120354Y0031276D03*
X0133465Y0031276D03*
X0146575Y0031276D03*
X0159685Y0031276D03*
X0172795Y0031276D03*
X0185906Y0031276D03*
X0199055Y0031276D03*
X0212126Y0031276D03*
X0225236Y0031276D03*
X0238346Y0031276D03*
X0251457Y0031276D03*
X0264567Y0031276D03*
X0081024Y0054898D03*
X0094134Y0054898D03*
X0107244Y0054898D03*
X0120354Y0054898D03*
X0133465Y0054898D03*
X0146575Y0054898D03*
X0159685Y0054898D03*
X0172795Y0054898D03*
X0185906Y0054898D03*
X0199016Y0054898D03*
X0212126Y0054898D03*
X0225236Y0054898D03*
X0238346Y0054898D03*
X0251457Y0054898D03*
X0264567Y0054898D03*
X0081024Y0078520D03*
X0094134Y0078520D03*
X0107244Y0078520D03*
X0120354Y0078520D03*
X0133465Y0078520D03*
X0146575Y0078520D03*
X0159685Y0078520D03*
X0172795Y0078520D03*
X0185906Y0078520D03*
X0199016Y0078520D03*
X0212126Y0078520D03*
X0225236Y0078520D03*
X0238346Y0078520D03*
X0251457Y0078520D03*
X0264567Y0078520D03*
X0335433Y0031276D03*
X0348543Y0031276D03*
X0361654Y0031276D03*
X0374764Y0031276D03*
X0387874Y0031276D03*
X0400984Y0031276D03*
X0414094Y0031276D03*
X0427205Y0031276D03*
X0440315Y0031276D03*
X0453425Y0031276D03*
X0466535Y0031276D03*
X0479646Y0031276D03*
X0492756Y0031276D03*
X0505866Y0031276D03*
X0518976Y0031276D03*
X0335433Y0054898D03*
X0348543Y0054898D03*
X0361654Y0054898D03*
X0374764Y0054898D03*
X0387874Y0054898D03*
X0400984Y0054898D03*
X0414094Y0054898D03*
X0427205Y0054898D03*
X0440315Y0054898D03*
X0453425Y0054898D03*
X0466535Y0054898D03*
X0479646Y0054898D03*
X0492756Y0054898D03*
X0505866Y0054898D03*
X0518976Y0054898D03*
X0335433Y0078520D03*
X0348543Y0078520D03*
X0361654Y0078520D03*
X0374764Y0078520D03*
X0387874Y0078520D03*
X0400984Y0078520D03*
X0414094Y0078520D03*
X0427205Y0078520D03*
X0440315Y0078520D03*
X0453425Y0078520D03*
X0466535Y0078520D03*
X0479646Y0078520D03*
X0492756Y0078520D03*
X0505866Y0078520D03*
X0518976Y0078520D03*
D40*
X0360315Y0363780D03*
D41*
X0370315Y0363780D03*
X0380315Y0363780D03*
X0390315Y0363780D03*
X0400315Y0363780D03*
D52*
X0216831Y0250886D03*
X0216831Y0225689D03*
X0216831Y0218209D03*
X0216831Y0201280D03*
D10*
X0218602Y0191831D03*
X0218602Y0187894D03*
D52*
X0216831Y0176673D03*
X0155807Y0252657D03*
X0155807Y0245374D03*
X0155807Y0225886D03*
X0155807Y0178445D03*
D10*
X0111811Y0208465D03*
X0115551Y0208465D03*
X0119291Y0208465D03*
X0115354Y0174213D03*
X0111811Y0174213D03*
X0414764Y0308169D02*
%LPD*%
G01*
D82*
X0505945Y0319783D03*
X0498071Y0331594D03*
X0490197Y0319783D03*
D90*
X0418937Y0318996D03*
X0438937Y0314996D03*
X0438937Y0322996D03*
D86*
X0508425Y0357874D03*
D87*
X0498425Y0357874D03*
X0488425Y0357874D03*
G36*
G01*
X0494469Y0315528D02*
X0494469Y0316886D01*
G75*
G02*
X0495049Y0317467I0000581J0000000D01*
G01*
X0496211Y0317467D01*
G75*
G02*
X0496792Y0316886I0000000J-000581D01*
G01*
X0496792Y0315528D01*
G75*
G02*
X0496211Y0314947I-000581J0000000D01*
G01*
X0495049Y0314947D01*
G75*
G02*
X0494469Y0315528I0000000J0000581D01*
G01*
G37*
G36*
G01*
X0498288Y0315528D02*
X0498288Y0316886D01*
G75*
G02*
X0498868Y0317467I0000581J0000000D01*
G01*
X0500030Y0317467D01*
G75*
G02*
X0500610Y0316886I0000000J-000581D01*
G01*
X0500610Y0315528D01*
G75*
G02*
X0500030Y0314947I-000581J0000000D01*
G01*
X0498868Y0314947D01*
G75*
G02*
X0498288Y0315528I0000000J0000581D01*
G01*
G37*
G36*
G01*
X0508937Y0330817D02*
X0508937Y0332175D01*
G75*
G02*
X0509518Y0332756I0000581J0000000D01*
G01*
X0510679Y0332756D01*
G75*
G02*
X0511260Y0332175I0000000J-000581D01*
G01*
X0511260Y0330817D01*
G75*
G02*
X0510679Y0330236I-000581J0000000D01*
G01*
X0509518Y0330236D01*
G75*
G02*
X0508937Y0330817I0000000J0000581D01*
G01*
G37*
G36*
G01*
X0512756Y0330817D02*
X0512756Y0332175D01*
G75*
G02*
X0513337Y0332756I0000581J0000000D01*
G01*
X0514498Y0332756D01*
G75*
G02*
X0515079Y0332175I0000000J-000581D01*
G01*
X0515079Y0330817D01*
G75*
G02*
X0514498Y0330236I-000581J0000000D01*
G01*
X0513337Y0330236D01*
G75*
G02*
X0512756Y0330817I0000000J0000581D01*
G01*
G37*
G36*
G01*
X0459055Y0357013D02*
X0459055Y0354995D01*
G75*
G02*
X0458194Y0354134I-000861J0000000D01*
G01*
X0456472Y0354134D01*
G75*
G02*
X0455610Y0354995I0000000J0000861D01*
G01*
X0455610Y0357013D01*
G75*
G02*
X0456472Y0357874I0000861J0000000D01*
G01*
X0458194Y0357874D01*
G75*
G02*
X0459055Y0357013I0000000J-000861D01*
G01*
G37*
G36*
G01*
X0452855Y0357013D02*
X0452855Y0354995D01*
G75*
G02*
X0451993Y0354134I-000861J0000000D01*
G01*
X0450271Y0354134D01*
G75*
G02*
X0449410Y0354995I0000000J0000861D01*
G01*
X0449410Y0357013D01*
G75*
G02*
X0450271Y0357874I0000861J0000000D01*
G01*
X0451993Y0357874D01*
G75*
G02*
X0452855Y0357013I0000000J-000861D01*
G01*
G37*
G36*
G01*
X0500610Y0312687D02*
X0500610Y0311328D01*
G75*
G02*
X0500030Y0310748I-000581J0000000D01*
G01*
X0498868Y0310748D01*
G75*
G02*
X0498288Y0311328I0000000J0000581D01*
G01*
X0498288Y0312687D01*
G75*
G02*
X0498868Y0313267I0000581J0000000D01*
G01*
X0500030Y0313267D01*
G75*
G02*
X0500610Y0312687I0000000J-000581D01*
G01*
G37*
G36*
G01*
X0496792Y0312687D02*
X0496792Y0311328D01*
G75*
G02*
X0496211Y0310748I-000581J0000000D01*
G01*
X0495049Y0310748D01*
G75*
G02*
X0494469Y0311328I0000000J0000581D01*
G01*
X0494469Y0312687D01*
G75*
G02*
X0495049Y0313267I0000581J0000000D01*
G01*
X0496211Y0313267D01*
G75*
G02*
X0496792Y0312687I0000000J-000581D01*
G01*
G37*
G36*
G01*
X0440909Y0351683D02*
X0440909Y0353041D01*
G75*
G02*
X0441489Y0353622I0000581J0000000D01*
G01*
X0442651Y0353622D01*
G75*
G02*
X0443231Y0353041I0000000J-000581D01*
G01*
X0443231Y0351683D01*
G75*
G02*
X0442651Y0351102I-000581J0000000D01*
G01*
X0441489Y0351102D01*
G75*
G02*
X0440909Y0351683I0000000J0000581D01*
G01*
G37*
G36*
G01*
X0444727Y0351683D02*
X0444727Y0353041D01*
G75*
G02*
X0445308Y0353622I0000581J0000000D01*
G01*
X0446470Y0353622D01*
G75*
G02*
X0447050Y0353041I0000000J-000581D01*
G01*
X0447050Y0351683D01*
G75*
G02*
X0446470Y0351102I-000581J0000000D01*
G01*
X0445308Y0351102D01*
G75*
G02*
X0444727Y0351683I0000000J0000581D01*
G01*
G37*
G36*
G01*
X0448996Y0349813D02*
X0448996Y0351171D01*
G75*
G02*
X0449577Y0351752I0000581J0000000D01*
G01*
X0450738Y0351752D01*
G75*
G02*
X0451319Y0351171I0000000J-000581D01*
G01*
X0451319Y0349813D01*
G75*
G02*
X0450738Y0349232I-000581J0000000D01*
G01*
X0449577Y0349232D01*
G75*
G02*
X0448996Y0349813I0000000J0000581D01*
G01*
G37*
G36*
G01*
X0452815Y0349813D02*
X0452815Y0351171D01*
G75*
G02*
X0453396Y0351752I0000581J0000000D01*
G01*
X0454557Y0351752D01*
G75*
G02*
X0455138Y0351171I0000000J-000581D01*
G01*
X0455138Y0349813D01*
G75*
G02*
X0454557Y0349232I-000581J0000000D01*
G01*
X0453396Y0349232D01*
G75*
G02*
X0452815Y0349813I0000000J0000581D01*
G01*
G37*
G36*
G01*
X0420384Y0357145D02*
X0421742Y0357145D01*
G75*
G02*
X0422323Y0356565I0000000J-000581D01*
G01*
X0422323Y0355403D01*
G75*
G02*
X0421742Y0354823I-000581J0000000D01*
G01*
X0420384Y0354823D01*
G75*
G02*
X0419803Y0355403I0000000J0000581D01*
G01*
X0419803Y0356565D01*
G75*
G02*
X0420384Y0357145I0000581J0000000D01*
G01*
G37*
G36*
G01*
X0420384Y0353326D02*
X0421742Y0353326D01*
G75*
G02*
X0422323Y0352746I0000000J-000581D01*
G01*
X0422323Y0351584D01*
G75*
G02*
X0421742Y0351004I-000581J0000000D01*
G01*
X0420384Y0351004D01*
G75*
G02*
X0419803Y0351584I0000000J0000581D01*
G01*
X0419803Y0352746D01*
G75*
G02*
X0420384Y0353326I0000581J0000000D01*
G01*
G37*
G36*
G01*
X0469902Y0339557D02*
X0469902Y0338199D01*
G75*
G02*
X0469321Y0337618I-000581J0000000D01*
G01*
X0468160Y0337618D01*
G75*
G02*
X0467579Y0338199I0000000J0000581D01*
G01*
X0467579Y0339557D01*
G75*
G02*
X0468160Y0340138I0000581J0000000D01*
G01*
X0469321Y0340138D01*
G75*
G02*
X0469902Y0339557I0000000J-000581D01*
G01*
G37*
G36*
G01*
X0466083Y0339557D02*
X0466083Y0338199D01*
G75*
G02*
X0465502Y0337618I-000581J0000000D01*
G01*
X0464341Y0337618D01*
G75*
G02*
X0463760Y0338199I0000000J0000581D01*
G01*
X0463760Y0339557D01*
G75*
G02*
X0464341Y0340138I0000581J0000000D01*
G01*
X0465502Y0340138D01*
G75*
G02*
X0466083Y0339557I0000000J-000581D01*
G01*
G37*
G36*
G01*
X0463760Y0334262D02*
X0463760Y0335620D01*
G75*
G02*
X0464341Y0336200I0000581J0000000D01*
G01*
X0465502Y0336200D01*
G75*
G02*
X0466083Y0335620I0000000J-000581D01*
G01*
X0466083Y0334262D01*
G75*
G02*
X0465502Y0333681I-000581J0000000D01*
G01*
X0464341Y0333681D01*
G75*
G02*
X0463760Y0334262I0000000J0000581D01*
G01*
G37*
G36*
G01*
X0467579Y0334262D02*
X0467579Y0335620D01*
G75*
G02*
X0468160Y0336200I0000581J0000000D01*
G01*
X0469321Y0336200D01*
G75*
G02*
X0469902Y0335620I0000000J-000581D01*
G01*
X0469902Y0334262D01*
G75*
G02*
X0469321Y0333681I-000581J0000000D01*
G01*
X0468160Y0333681D01*
G75*
G02*
X0467579Y0334262I0000000J0000581D01*
G01*
G37*
G36*
G01*
X0511240Y0336702D02*
X0511240Y0335344D01*
G75*
G02*
X0510660Y0334763I-000581J0000000D01*
G01*
X0509498Y0334763D01*
G75*
G02*
X0508918Y0335344I0000000J0000581D01*
G01*
X0508918Y0336702D01*
G75*
G02*
X0509498Y0337283I0000581J0000000D01*
G01*
X0510660Y0337283D01*
G75*
G02*
X0511240Y0336702I0000000J-000581D01*
G01*
G37*
G36*
G01*
X0507421Y0336702D02*
X0507421Y0335344D01*
G75*
G02*
X0506841Y0334763I-000581J0000000D01*
G01*
X0505679Y0334763D01*
G75*
G02*
X0505099Y0335344I0000000J0000581D01*
G01*
X0505099Y0336702D01*
G75*
G02*
X0505679Y0337283I0000581J0000000D01*
G01*
X0506841Y0337283D01*
G75*
G02*
X0507421Y0336702I0000000J-000581D01*
G01*
G37*
D93*
X0456890Y0313287D03*
X0456890Y0315846D03*
X0456890Y0318405D03*
X0456890Y0320964D03*
X0456890Y0323523D03*
X0456890Y0326082D03*
X0456890Y0328641D03*
X0480118Y0328641D03*
X0480118Y0326082D03*
X0480118Y0323523D03*
X0480118Y0320964D03*
X0480118Y0318405D03*
X0480118Y0315846D03*
X0480118Y0313287D03*
G36*
G01*
X0447067Y0356781D02*
X0447067Y0355423D01*
G75*
G02*
X0446486Y0354842I-000581J0000000D01*
G01*
X0445325Y0354842D01*
G75*
G02*
X0444744Y0355423I0000000J0000581D01*
G01*
X0444744Y0356781D01*
G75*
G02*
X0445325Y0357362I0000581J0000000D01*
G01*
X0446486Y0357362D01*
G75*
G02*
X0447067Y0356781I0000000J-000581D01*
G01*
G37*
G36*
G01*
X0443248Y0356781D02*
X0443248Y0355423D01*
G75*
G02*
X0442668Y0354842I-000581J0000000D01*
G01*
X0441506Y0354842D01*
G75*
G02*
X0440925Y0355423I0000000J0000581D01*
G01*
X0440925Y0356781D01*
G75*
G02*
X0441506Y0357362I0000581J0000000D01*
G01*
X0442668Y0357362D01*
G75*
G02*
X0443248Y0356781I0000000J-000581D01*
G01*
G37*
G36*
G01*
X0440925Y0359163D02*
X0440925Y0360521D01*
G75*
G02*
X0441506Y0361102I0000581J0000000D01*
G01*
X0442668Y0361102D01*
G75*
G02*
X0443248Y0360521I0000000J-000581D01*
G01*
X0443248Y0359163D01*
G75*
G02*
X0442668Y0358582I-000581J0000000D01*
G01*
X0441506Y0358582D01*
G75*
G02*
X0440925Y0359163I0000000J0000581D01*
G01*
G37*
G36*
G01*
X0444744Y0359163D02*
X0444744Y0360521D01*
G75*
G02*
X0445325Y0361102I0000581J0000000D01*
G01*
X0446486Y0361102D01*
G75*
G02*
X0447067Y0360521I0000000J-000581D01*
G01*
X0447067Y0359163D01*
G75*
G02*
X0446486Y0358582I-000581J0000000D01*
G01*
X0445325Y0358582D01*
G75*
G02*
X0444744Y0359163I0000000J0000581D01*
G01*
G37*
G36*
G01*
X0501162Y0349714D02*
X0501162Y0351073D01*
G75*
G02*
X0501742Y0351653I0000581J0000000D01*
G01*
X0502904Y0351653D01*
G75*
G02*
X0503484Y0351073I0000000J-000581D01*
G01*
X0503484Y0349714D01*
G75*
G02*
X0502904Y0349134I-000581J0000000D01*
G01*
X0501742Y0349134D01*
G75*
G02*
X0501162Y0349714I0000000J0000581D01*
G01*
G37*
G36*
G01*
X0504981Y0349714D02*
X0504981Y0351073D01*
G75*
G02*
X0505561Y0351653I0000581J0000000D01*
G01*
X0506723Y0351653D01*
G75*
G02*
X0507303Y0351073I0000000J-000581D01*
G01*
X0507303Y0349714D01*
G75*
G02*
X0506723Y0349134I-000581J0000000D01*
G01*
X0505561Y0349134D01*
G75*
G02*
X0504981Y0349714I0000000J0000581D01*
G01*
G37*
G36*
G01*
X0494469Y0320416D02*
X0494469Y0321775D01*
G75*
G02*
X0495049Y0322355I0000581J0000000D01*
G01*
X0496211Y0322355D01*
G75*
G02*
X0496792Y0321775I0000000J-000581D01*
G01*
X0496792Y0320416D01*
G75*
G02*
X0496211Y0319836I-000581J0000000D01*
G01*
X0495049Y0319836D01*
G75*
G02*
X0494469Y0320416I0000000J0000581D01*
G01*
G37*
G36*
G01*
X0498288Y0320416D02*
X0498288Y0321775D01*
G75*
G02*
X0498868Y0322355I0000581J0000000D01*
G01*
X0500030Y0322355D01*
G75*
G02*
X0500610Y0321775I0000000J-000581D01*
G01*
X0500610Y0320416D01*
G75*
G02*
X0500030Y0319836I-000581J0000000D01*
G01*
X0498868Y0319836D01*
G75*
G02*
X0498288Y0320416I0000000J0000581D01*
G01*
G37*
G36*
G01*
X0466654Y0343494D02*
X0466654Y0342136D01*
G75*
G02*
X0466073Y0341555I-000581J0000000D01*
G01*
X0464912Y0341555D01*
G75*
G02*
X0464331Y0342136I0000000J0000581D01*
G01*
X0464331Y0343494D01*
G75*
G02*
X0464912Y0344075I0000581J0000000D01*
G01*
X0466073Y0344075D01*
G75*
G02*
X0466654Y0343494I0000000J-000581D01*
G01*
G37*
G36*
G01*
X0462835Y0343494D02*
X0462835Y0342136D01*
G75*
G02*
X0462254Y0341555I-000581J0000000D01*
G01*
X0461093Y0341555D01*
G75*
G02*
X0460512Y0342136I0000000J0000581D01*
G01*
X0460512Y0343494D01*
G75*
G02*
X0461093Y0344075I0000581J0000000D01*
G01*
X0462254Y0344075D01*
G75*
G02*
X0462835Y0343494I0000000J-000581D01*
G01*
G37*
G36*
G01*
X0514981Y0351073D02*
X0514981Y0349714D01*
G75*
G02*
X0514400Y0349134I-000581J0000000D01*
G01*
X0513238Y0349134D01*
G75*
G02*
X0512658Y0349714I0000000J0000581D01*
G01*
X0512658Y0351073D01*
G75*
G02*
X0513238Y0351653I0000581J0000000D01*
G01*
X0514400Y0351653D01*
G75*
G02*
X0514981Y0351073I0000000J-000581D01*
G01*
G37*
G36*
G01*
X0511162Y0351073D02*
X0511162Y0349714D01*
G75*
G02*
X0510581Y0349134I-000581J0000000D01*
G01*
X0509420Y0349134D01*
G75*
G02*
X0508839Y0349714I0000000J0000581D01*
G01*
X0508839Y0351073D01*
G75*
G02*
X0509420Y0351653I0000581J0000000D01*
G01*
X0510581Y0351653D01*
G75*
G02*
X0511162Y0351073I0000000J-000581D01*
G01*
G37*
G36*
G01*
X0462520Y0335620D02*
X0462520Y0334262D01*
G75*
G02*
X0461939Y0333681I-000581J0000000D01*
G01*
X0460778Y0333681D01*
G75*
G02*
X0460197Y0334262I0000000J0000581D01*
G01*
X0460197Y0335620D01*
G75*
G02*
X0460778Y0336200I0000581J0000000D01*
G01*
X0461939Y0336200D01*
G75*
G02*
X0462520Y0335620I0000000J-000581D01*
G01*
G37*
G36*
G01*
X0458701Y0335620D02*
X0458701Y0334262D01*
G75*
G02*
X0458120Y0333681I-000581J0000000D01*
G01*
X0456959Y0333681D01*
G75*
G02*
X0456378Y0334262I0000000J0000581D01*
G01*
X0456378Y0335620D01*
G75*
G02*
X0456959Y0336200I0000581J0000000D01*
G01*
X0458120Y0336200D01*
G75*
G02*
X0458701Y0335620I0000000J-000581D01*
G01*
G37*
G36*
G01*
X0451270Y0311004D02*
X0449912Y0311004D01*
G75*
G02*
X0449331Y0311584I0000000J0000581D01*
G01*
X0449331Y0312746D01*
G75*
G02*
X0449912Y0313326I0000581J0000000D01*
G01*
X0451270Y0313326D01*
G75*
G02*
X0451851Y0312746I0000000J-000581D01*
G01*
X0451851Y0311584D01*
G75*
G02*
X0451270Y0311004I-000581J0000000D01*
G01*
G37*
G36*
G01*
X0451270Y0314823D02*
X0449912Y0314823D01*
G75*
G02*
X0449331Y0315403I0000000J0000581D01*
G01*
X0449331Y0316565D01*
G75*
G02*
X0449912Y0317145I0000581J0000000D01*
G01*
X0451270Y0317145D01*
G75*
G02*
X0451851Y0316565I0000000J-000581D01*
G01*
X0451851Y0315403D01*
G75*
G02*
X0451270Y0314823I-000581J0000000D01*
G01*
G37*
G36*
G01*
X0477382Y0339557D02*
X0477382Y0338199D01*
G75*
G02*
X0476801Y0337618I-000581J0000000D01*
G01*
X0475640Y0337618D01*
G75*
G02*
X0475059Y0338199I0000000J0000581D01*
G01*
X0475059Y0339557D01*
G75*
G02*
X0475640Y0340138I0000581J0000000D01*
G01*
X0476801Y0340138D01*
G75*
G02*
X0477382Y0339557I0000000J-000581D01*
G01*
G37*
G36*
G01*
X0473563Y0339557D02*
X0473563Y0338199D01*
G75*
G02*
X0472983Y0337618I-000581J0000000D01*
G01*
X0471821Y0337618D01*
G75*
G02*
X0471240Y0338199I0000000J0000581D01*
G01*
X0471240Y0339557D01*
G75*
G02*
X0471821Y0340138I0000581J0000000D01*
G01*
X0472983Y0340138D01*
G75*
G02*
X0473563Y0339557I0000000J-000581D01*
G01*
G37*
G36*
G01*
X0478721Y0338199D02*
X0478721Y0339557D01*
G75*
G02*
X0479301Y0340138I0000581J0000000D01*
G01*
X0480463Y0340138D01*
G75*
G02*
X0481044Y0339557I0000000J-000581D01*
G01*
X0481044Y0338199D01*
G75*
G02*
X0480463Y0337618I-000581J0000000D01*
G01*
X0479301Y0337618D01*
G75*
G02*
X0478721Y0338199I0000000J0000581D01*
G01*
G37*
G36*
G01*
X0482540Y0338199D02*
X0482540Y0339557D01*
G75*
G02*
X0483120Y0340138I0000581J0000000D01*
G01*
X0484282Y0340138D01*
G75*
G02*
X0484862Y0339557I0000000J-000581D01*
G01*
X0484862Y0338199D01*
G75*
G02*
X0484282Y0337618I-000581J0000000D01*
G01*
X0483120Y0337618D01*
G75*
G02*
X0482540Y0338199I0000000J0000581D01*
G01*
G37*
G36*
G01*
X0447530Y0311004D02*
X0446171Y0311004D01*
G75*
G02*
X0445591Y0311584I0000000J0000581D01*
G01*
X0445591Y0312746D01*
G75*
G02*
X0446171Y0313326I0000581J0000000D01*
G01*
X0447530Y0313326D01*
G75*
G02*
X0448110Y0312746I0000000J-000581D01*
G01*
X0448110Y0311584D01*
G75*
G02*
X0447530Y0311004I-000581J0000000D01*
G01*
G37*
G36*
G01*
X0447530Y0314823D02*
X0446171Y0314823D01*
G75*
G02*
X0445591Y0315403I0000000J0000581D01*
G01*
X0445591Y0316565D01*
G75*
G02*
X0446171Y0317145I0000581J0000000D01*
G01*
X0447530Y0317145D01*
G75*
G02*
X0448110Y0316565I0000000J-000581D01*
G01*
X0448110Y0315403D01*
G75*
G02*
X0447530Y0314823I-000581J0000000D01*
G01*
G37*
D94*
X0436851Y0359842D03*
X0436851Y0356102D03*
X0436851Y0352362D03*
X0426536Y0352362D03*
X0426536Y0359842D03*
G36*
G01*
X0471339Y0342136D02*
X0471339Y0343494D01*
G75*
G02*
X0471920Y0344075I0000581J0000000D01*
G01*
X0473081Y0344075D01*
G75*
G02*
X0473662Y0343494I0000000J-000581D01*
G01*
X0473662Y0342136D01*
G75*
G02*
X0473081Y0341555I-000581J0000000D01*
G01*
X0471920Y0341555D01*
G75*
G02*
X0471339Y0342136I0000000J0000581D01*
G01*
G37*
G36*
G01*
X0475158Y0342136D02*
X0475158Y0343494D01*
G75*
G02*
X0475738Y0344075I0000581J0000000D01*
G01*
X0476900Y0344075D01*
G75*
G02*
X0477481Y0343494I0000000J-000581D01*
G01*
X0477481Y0342136D01*
G75*
G02*
X0476900Y0341555I-000581J0000000D01*
G01*
X0475738Y0341555D01*
G75*
G02*
X0475158Y0342136I0000000J0000581D01*
G01*
G37*
G36*
G01*
X0458750Y0346240D02*
X0457392Y0346240D01*
G75*
G02*
X0456811Y0346821I0000000J0000581D01*
G01*
X0456811Y0347982D01*
G75*
G02*
X0457392Y0348563I0000581J0000000D01*
G01*
X0458750Y0348563D01*
G75*
G02*
X0459331Y0347982I0000000J-000581D01*
G01*
X0459331Y0346821D01*
G75*
G02*
X0458750Y0346240I-000581J0000000D01*
G01*
G37*
G36*
G01*
X0458750Y0350059D02*
X0457392Y0350059D01*
G75*
G02*
X0456811Y0350639I0000000J0000581D01*
G01*
X0456811Y0351801D01*
G75*
G02*
X0457392Y0352382I0000581J0000000D01*
G01*
X0458750Y0352382D01*
G75*
G02*
X0459331Y0351801I0000000J-000581D01*
G01*
X0459331Y0350639D01*
G75*
G02*
X0458750Y0350059I-000581J0000000D01*
G01*
G37*
G36*
G01*
X0449912Y0325807D02*
X0451270Y0325807D01*
G75*
G02*
X0451851Y0325226I0000000J-000581D01*
G01*
X0451851Y0324065D01*
G75*
G02*
X0451270Y0323484I-000581J0000000D01*
G01*
X0449912Y0323484D01*
G75*
G02*
X0449331Y0324065I0000000J0000581D01*
G01*
X0449331Y0325226D01*
G75*
G02*
X0449912Y0325807I0000581J0000000D01*
G01*
G37*
G36*
G01*
X0449912Y0321988D02*
X0451270Y0321988D01*
G75*
G02*
X0451851Y0321407I0000000J-000581D01*
G01*
X0451851Y0320246D01*
G75*
G02*
X0451270Y0319665I-000581J0000000D01*
G01*
X0449912Y0319665D01*
G75*
G02*
X0449331Y0320246I0000000J0000581D01*
G01*
X0449331Y0321407D01*
G75*
G02*
X0449912Y0321988I0000581J0000000D01*
G01*
G37*
G36*
G01*
X0493032Y0326762D02*
X0493032Y0325403D01*
G75*
G02*
X0492451Y0324823I-000581J0000000D01*
G01*
X0491290Y0324823D01*
G75*
G02*
X0490709Y0325403I0000000J0000581D01*
G01*
X0490709Y0326762D01*
G75*
G02*
X0491290Y0327342I0000581J0000000D01*
G01*
X0492451Y0327342D01*
G75*
G02*
X0493032Y0326762I0000000J-000581D01*
G01*
G37*
G36*
G01*
X0489213Y0326762D02*
X0489213Y0325403D01*
G75*
G02*
X0488632Y0324823I-000581J0000000D01*
G01*
X0487471Y0324823D01*
G75*
G02*
X0486890Y0325403I0000000J0000581D01*
G01*
X0486890Y0326762D01*
G75*
G02*
X0487471Y0327342I0000581J0000000D01*
G01*
X0488632Y0327342D01*
G75*
G02*
X0489213Y0326762I0000000J-000581D01*
G01*
G37*
G36*
G01*
X0500610Y0326762D02*
X0500610Y0325403D01*
G75*
G02*
X0500030Y0324823I-000581J0000000D01*
G01*
X0498868Y0324823D01*
G75*
G02*
X0498288Y0325403I0000000J0000581D01*
G01*
X0498288Y0326762D01*
G75*
G02*
X0498868Y0327342I0000581J0000000D01*
G01*
X0500030Y0327342D01*
G75*
G02*
X0500610Y0326762I0000000J-000581D01*
G01*
G37*
G36*
G01*
X0496792Y0326762D02*
X0496792Y0325403D01*
G75*
G02*
X0496211Y0324823I-000581J0000000D01*
G01*
X0495049Y0324823D01*
G75*
G02*
X0494469Y0325403I0000000J0000581D01*
G01*
X0494469Y0326762D01*
G75*
G02*
X0495049Y0327342I0000581J0000000D01*
G01*
X0496211Y0327342D01*
G75*
G02*
X0496792Y0326762I0000000J-000581D01*
G01*
G37*
G36*
G01*
X0446171Y0325807D02*
X0447530Y0325807D01*
G75*
G02*
X0448110Y0325226I0000000J-000581D01*
G01*
X0448110Y0324065D01*
G75*
G02*
X0447530Y0323484I-000581J0000000D01*
G01*
X0446171Y0323484D01*
G75*
G02*
X0445591Y0324065I0000000J0000581D01*
G01*
X0445591Y0325226D01*
G75*
G02*
X0446171Y0325807I0000581J0000000D01*
G01*
G37*
G36*
G01*
X0446171Y0321988D02*
X0447530Y0321988D01*
G75*
G02*
X0448110Y0321407I0000000J-000581D01*
G01*
X0448110Y0320246D01*
G75*
G02*
X0447530Y0319665I-000581J0000000D01*
G01*
X0446171Y0319665D01*
G75*
G02*
X0445591Y0320246I0000000J0000581D01*
G01*
X0445591Y0321407D01*
G75*
G02*
X0446171Y0321988I0000581J0000000D01*
G01*
G37*
G36*
G01*
X0480532Y0335620D02*
X0480532Y0334262D01*
G75*
G02*
X0479951Y0333681I-000581J0000000D01*
G01*
X0478790Y0333681D01*
G75*
G02*
X0478209Y0334262I0000000J0000581D01*
G01*
X0478209Y0335620D01*
G75*
G02*
X0478790Y0336200I0000581J0000000D01*
G01*
X0479951Y0336200D01*
G75*
G02*
X0480532Y0335620I0000000J-000581D01*
G01*
G37*
G36*
G01*
X0476713Y0335620D02*
X0476713Y0334262D01*
G75*
G02*
X0476132Y0333681I-000581J0000000D01*
G01*
X0474971Y0333681D01*
G75*
G02*
X0474390Y0334262I0000000J0000581D01*
G01*
X0474390Y0335620D01*
G75*
G02*
X0474971Y0336200I0000581J0000000D01*
G01*
X0476132Y0336200D01*
G75*
G02*
X0476713Y0335620I0000000J-000581D01*
G01*
G37*
G36*
G01*
X0442431Y0325807D02*
X0443790Y0325807D01*
G75*
G02*
X0444370Y0325226I0000000J-000581D01*
G01*
X0444370Y0324065D01*
G75*
G02*
X0443790Y0323484I-000581J0000000D01*
G01*
X0442431Y0323484D01*
G75*
G02*
X0441851Y0324065I0000000J0000581D01*
G01*
X0441851Y0325226D01*
G75*
G02*
X0442431Y0325807I0000581J0000000D01*
G01*
G37*
G36*
G01*
X0442431Y0321988D02*
X0443790Y0321988D01*
G75*
G02*
X0444370Y0321407I0000000J-000581D01*
G01*
X0444370Y0320246D01*
G75*
G02*
X0443790Y0319665I-000581J0000000D01*
G01*
X0442431Y0319665D01*
G75*
G02*
X0441851Y0320246I0000000J0000581D01*
G01*
X0441851Y0321407D01*
G75*
G02*
X0442431Y0321988I0000581J0000000D01*
G01*
G37*
G36*
G01*
X0442431Y0317145D02*
X0443790Y0317145D01*
G75*
G02*
X0444370Y0316565I0000000J-000581D01*
G01*
X0444370Y0315403D01*
G75*
G02*
X0443790Y0314823I-000581J0000000D01*
G01*
X0442431Y0314823D01*
G75*
G02*
X0441851Y0315403I0000000J0000581D01*
G01*
X0441851Y0316565D01*
G75*
G02*
X0442431Y0317145I0000581J0000000D01*
G01*
G37*
G36*
G01*
X0442431Y0313326D02*
X0443790Y0313326D01*
G75*
G02*
X0444370Y0312746I0000000J-000581D01*
G01*
X0444370Y0311584D01*
G75*
G02*
X0443790Y0311004I-000581J0000000D01*
G01*
X0442431Y0311004D01*
G75*
G02*
X0441851Y0311584I0000000J0000581D01*
G01*
X0441851Y0312746D01*
G75*
G02*
X0442431Y0313326I0000581J0000000D01*
G01*
G37*
G36*
G01*
X0427618Y0322952D02*
X0427618Y0324291D01*
G75*
G02*
X0428169Y0324842I0000551J0000000D01*
G01*
X0429272Y0324842D01*
G75*
G02*
X0429823Y0324291I0000000J-000551D01*
G01*
X0429823Y0322952D01*
G75*
G02*
X0429272Y0322401I-000551J0000000D01*
G01*
X0428169Y0322401D01*
G75*
G02*
X0427618Y0322952I0000000J0000551D01*
G01*
G37*
G36*
G01*
X0431398Y0322952D02*
X0431398Y0324291D01*
G75*
G02*
X0431949Y0324842I0000551J0000000D01*
G01*
X0433051Y0324842D01*
G75*
G02*
X0433602Y0324291I0000000J-000551D01*
G01*
X0433602Y0322952D01*
G75*
G02*
X0433051Y0322401I-000551J0000000D01*
G01*
X0431949Y0322401D01*
G75*
G02*
X0431398Y0322952I0000000J0000551D01*
G01*
G37*
G36*
G01*
X0482559Y0349212D02*
X0482559Y0347756D01*
G75*
G02*
X0482028Y0347224I-000531J0000000D01*
G01*
X0480965Y0347224D01*
G75*
G02*
X0480433Y0347756I0000000J0000531D01*
G01*
X0480433Y0349212D01*
G75*
G02*
X0480965Y0349744I0000531J0000000D01*
G01*
X0482028Y0349744D01*
G75*
G02*
X0482559Y0349212I0000000J-000531D01*
G01*
G37*
G36*
G01*
X0478544Y0349212D02*
X0478544Y0347756D01*
G75*
G02*
X0478012Y0347224I-000531J0000000D01*
G01*
X0476949Y0347224D01*
G75*
G02*
X0476418Y0347756I0000000J0000531D01*
G01*
X0476418Y0349212D01*
G75*
G02*
X0476949Y0349744I0000531J0000000D01*
G01*
X0478012Y0349744D01*
G75*
G02*
X0478544Y0349212I0000000J-000531D01*
G01*
G37*
G36*
G01*
X0421831Y0334679D02*
X0420374Y0334679D01*
G75*
G02*
X0419843Y0335211I0000000J0000531D01*
G01*
X0419843Y0336274D01*
G75*
G02*
X0420374Y0336805I0000531J0000000D01*
G01*
X0421831Y0336805D01*
G75*
G02*
X0422362Y0336274I0000000J-000531D01*
G01*
X0422362Y0335211D01*
G75*
G02*
X0421831Y0334679I-000531J0000000D01*
G01*
G37*
G36*
G01*
X0421831Y0338695D02*
X0420374Y0338695D01*
G75*
G02*
X0419843Y0339227I0000000J0000531D01*
G01*
X0419843Y0340290D01*
G75*
G02*
X0420374Y0340821I0000531J0000000D01*
G01*
X0421831Y0340821D01*
G75*
G02*
X0422362Y0340290I0000000J-000531D01*
G01*
X0422362Y0339227D01*
G75*
G02*
X0421831Y0338695I-000531J0000000D01*
G01*
G37*
G36*
G01*
X0422441Y0310728D02*
X0422441Y0311909D01*
G75*
G02*
X0423032Y0312500I0000591J0000000D01*
G01*
X0427658Y0312500D01*
G75*
G02*
X0428248Y0311909I0000000J-000591D01*
G01*
X0428248Y0310728D01*
G75*
G02*
X0427658Y0310138I-000591J0000000D01*
G01*
X0423032Y0310138D01*
G75*
G02*
X0422441Y0310728I0000000J0000591D01*
G01*
G37*
G36*
G01*
X0422441Y0318208D02*
X0422441Y0319389D01*
G75*
G02*
X0423032Y0319980I0000591J0000000D01*
G01*
X0427658Y0319980D01*
G75*
G02*
X0428248Y0319389I0000000J-000591D01*
G01*
X0428248Y0318208D01*
G75*
G02*
X0427658Y0317618I-000591J0000000D01*
G01*
X0423032Y0317618D01*
G75*
G02*
X0422441Y0318208I0000000J0000591D01*
G01*
G37*
G36*
G01*
X0429823Y0314468D02*
X0429823Y0315649D01*
G75*
G02*
X0430414Y0316240I0000591J0000000D01*
G01*
X0435040Y0316240D01*
G75*
G02*
X0435630Y0315649I0000000J-000591D01*
G01*
X0435630Y0314468D01*
G75*
G02*
X0435040Y0313878I-000591J0000000D01*
G01*
X0430414Y0313878D01*
G75*
G02*
X0429823Y0314468I0000000J0000591D01*
G01*
G37*
G36*
G01*
X0420394Y0348660D02*
X0421733Y0348660D01*
G75*
G02*
X0422284Y0348108I0000000J-000551D01*
G01*
X0422284Y0347006D01*
G75*
G02*
X0421733Y0346455I-000551J0000000D01*
G01*
X0420394Y0346455D01*
G75*
G02*
X0419843Y0347006I0000000J0000551D01*
G01*
X0419843Y0348108D01*
G75*
G02*
X0420394Y0348660I0000551J0000000D01*
G01*
G37*
G36*
G01*
X0420394Y0344880D02*
X0421733Y0344880D01*
G75*
G02*
X0422284Y0344329I0000000J-000551D01*
G01*
X0422284Y0343227D01*
G75*
G02*
X0421733Y0342675I-000551J0000000D01*
G01*
X0420394Y0342675D01*
G75*
G02*
X0419843Y0343227I0000000J0000551D01*
G01*
X0419843Y0344329D01*
G75*
G02*
X0420394Y0344880I0000551J0000000D01*
G01*
G37*
G36*
G01*
X0451181Y0345589D02*
X0451181Y0344408D01*
G75*
G02*
X0450591Y0343817I-000591J0000000D01*
G01*
X0444882Y0343817D01*
G75*
G02*
X0444292Y0344408I0000000J0000591D01*
G01*
X0444292Y0345589D01*
G75*
G02*
X0444882Y0346179I0000591J0000000D01*
G01*
X0450591Y0346179D01*
G75*
G02*
X0451181Y0345589I0000000J-000591D01*
G01*
G37*
G36*
G01*
X0451181Y0340589D02*
X0451181Y0339408D01*
G75*
G02*
X0450591Y0338817I-000591J0000000D01*
G01*
X0444882Y0338817D01*
G75*
G02*
X0444292Y0339408I0000000J0000591D01*
G01*
X0444292Y0340589D01*
G75*
G02*
X0444882Y0341179I0000591J0000000D01*
G01*
X0450591Y0341179D01*
G75*
G02*
X0451181Y0340589I0000000J-000591D01*
G01*
G37*
G36*
G01*
X0451181Y0335589D02*
X0451181Y0334408D01*
G75*
G02*
X0450591Y0333817I-000591J0000000D01*
G01*
X0444882Y0333817D01*
G75*
G02*
X0444292Y0334408I0000000J0000591D01*
G01*
X0444292Y0335589D01*
G75*
G02*
X0444882Y0336179I0000591J0000000D01*
G01*
X0450591Y0336179D01*
G75*
G02*
X0451181Y0335589I0000000J-000591D01*
G01*
G37*
G36*
G01*
X0451181Y0330589D02*
X0451181Y0329408D01*
G75*
G02*
X0450591Y0328817I-000591J0000000D01*
G01*
X0444882Y0328817D01*
G75*
G02*
X0444292Y0329408I0000000J0000591D01*
G01*
X0444292Y0330589D01*
G75*
G02*
X0444882Y0331179I0000591J0000000D01*
G01*
X0450591Y0331179D01*
G75*
G02*
X0451181Y0330589I0000000J-000591D01*
G01*
G37*
G36*
G01*
X0430906Y0330589D02*
X0430906Y0329408D01*
G75*
G02*
X0430315Y0328817I-000591J0000000D01*
G01*
X0424607Y0328817D01*
G75*
G02*
X0424016Y0329408I0000000J0000591D01*
G01*
X0424016Y0330589D01*
G75*
G02*
X0424607Y0331179I0000591J0000000D01*
G01*
X0430315Y0331179D01*
G75*
G02*
X0430906Y0330589I0000000J-000591D01*
G01*
G37*
G36*
G01*
X0430906Y0335589D02*
X0430906Y0334408D01*
G75*
G02*
X0430315Y0333817I-000591J0000000D01*
G01*
X0424607Y0333817D01*
G75*
G02*
X0424016Y0334408I0000000J0000591D01*
G01*
X0424016Y0335589D01*
G75*
G02*
X0424607Y0336179I0000591J0000000D01*
G01*
X0430315Y0336179D01*
G75*
G02*
X0430906Y0335589I0000000J-000591D01*
G01*
G37*
G36*
G01*
X0430906Y0340589D02*
X0430906Y0339408D01*
G75*
G02*
X0430315Y0338817I-000591J0000000D01*
G01*
X0424607Y0338817D01*
G75*
G02*
X0424016Y0339408I0000000J0000591D01*
G01*
X0424016Y0340589D01*
G75*
G02*
X0424607Y0341179I0000591J0000000D01*
G01*
X0430315Y0341179D01*
G75*
G02*
X0430906Y0340589I0000000J-000591D01*
G01*
G37*
G36*
G01*
X0430906Y0345589D02*
X0430906Y0344408D01*
G75*
G02*
X0430315Y0343817I-000591J0000000D01*
G01*
X0424607Y0343817D01*
G75*
G02*
X0424016Y0344408I0000000J0000591D01*
G01*
X0424016Y0345589D01*
G75*
G02*
X0424607Y0346179I0000591J0000000D01*
G01*
X0430315Y0346179D01*
G75*
G02*
X0430906Y0345589I0000000J-000591D01*
G01*
G37*
X0069685Y0342520D02*
%LPD*%
G01*
D82*
X0081299Y0251339D03*
X0093110Y0259213D03*
X0081299Y0267087D03*
D90*
X0080512Y0338347D03*
X0076512Y0318347D03*
X0084512Y0318347D03*
D233*
X0119390Y0248859D03*
D234*
X0119390Y0258859D03*
X0119390Y0268859D03*
G36*
G01*
X0077044Y0262815D02*
X0078402Y0262815D01*
G75*
G02*
X0078983Y0262235I0000000J-000581D01*
G01*
X0078983Y0261073D01*
G75*
G02*
X0078402Y0260492I-000581J0000000D01*
G01*
X0077044Y0260492D01*
G75*
G02*
X0076463Y0261073I0000000J0000581D01*
G01*
X0076463Y0262235D01*
G75*
G02*
X0077044Y0262815I0000581J0000000D01*
G01*
G37*
G36*
G01*
X0077044Y0258996D02*
X0078402Y0258996D01*
G75*
G02*
X0078983Y0258416I0000000J-000581D01*
G01*
X0078983Y0257254D01*
G75*
G02*
X0078402Y0256674I-000581J0000000D01*
G01*
X0077044Y0256674D01*
G75*
G02*
X0076463Y0257254I0000000J0000581D01*
G01*
X0076463Y0258416D01*
G75*
G02*
X0077044Y0258996I0000581J0000000D01*
G01*
G37*
G36*
G01*
X0092333Y0248347D02*
X0093691Y0248347D01*
G75*
G02*
X0094272Y0247766I0000000J-000581D01*
G01*
X0094272Y0246605D01*
G75*
G02*
X0093691Y0246024I-000581J0000000D01*
G01*
X0092333Y0246024D01*
G75*
G02*
X0091752Y0246605I0000000J0000581D01*
G01*
X0091752Y0247766D01*
G75*
G02*
X0092333Y0248347I0000581J0000000D01*
G01*
G37*
G36*
G01*
X0092333Y0244528D02*
X0093691Y0244528D01*
G75*
G02*
X0094272Y0243947I0000000J-000581D01*
G01*
X0094272Y0242786D01*
G75*
G02*
X0093691Y0242205I-000581J0000000D01*
G01*
X0092333Y0242205D01*
G75*
G02*
X0091752Y0242786I0000000J0000581D01*
G01*
X0091752Y0243947D01*
G75*
G02*
X0092333Y0244528I0000581J0000000D01*
G01*
G37*
G36*
G01*
X0118529Y0298229D02*
X0116511Y0298229D01*
G75*
G02*
X0115650Y0299090I0000000J0000861D01*
G01*
X0115650Y0300812D01*
G75*
G02*
X0116511Y0301674I0000861J0000000D01*
G01*
X0118529Y0301674D01*
G75*
G02*
X0119390Y0300812I0000000J-000861D01*
G01*
X0119390Y0299090D01*
G75*
G02*
X0118529Y0298229I-000861J0000000D01*
G01*
G37*
G36*
G01*
X0118529Y0304429D02*
X0116511Y0304429D01*
G75*
G02*
X0115650Y0305291I0000000J0000861D01*
G01*
X0115650Y0307013D01*
G75*
G02*
X0116511Y0307874I0000861J0000000D01*
G01*
X0118529Y0307874D01*
G75*
G02*
X0119390Y0307013I0000000J-000861D01*
G01*
X0119390Y0305291D01*
G75*
G02*
X0118529Y0304429I-000861J0000000D01*
G01*
G37*
G36*
G01*
X0074203Y0256674D02*
X0072844Y0256674D01*
G75*
G02*
X0072264Y0257254I0000000J0000581D01*
G01*
X0072264Y0258416D01*
G75*
G02*
X0072844Y0258996I0000581J0000000D01*
G01*
X0074203Y0258996D01*
G75*
G02*
X0074783Y0258416I0000000J-000581D01*
G01*
X0074783Y0257254D01*
G75*
G02*
X0074203Y0256674I-000581J0000000D01*
G01*
G37*
G36*
G01*
X0074203Y0260492D02*
X0072844Y0260492D01*
G75*
G02*
X0072264Y0261073I0000000J0000581D01*
G01*
X0072264Y0262235D01*
G75*
G02*
X0072844Y0262815I0000581J0000000D01*
G01*
X0074203Y0262815D01*
G75*
G02*
X0074783Y0262235I0000000J-000581D01*
G01*
X0074783Y0261073D01*
G75*
G02*
X0074203Y0260492I-000581J0000000D01*
G01*
G37*
G36*
G01*
X0113199Y0316375D02*
X0114557Y0316375D01*
G75*
G02*
X0115138Y0315795I0000000J-000581D01*
G01*
X0115138Y0314633D01*
G75*
G02*
X0114557Y0314053I-000581J0000000D01*
G01*
X0113199Y0314053D01*
G75*
G02*
X0112618Y0314633I0000000J0000581D01*
G01*
X0112618Y0315795D01*
G75*
G02*
X0113199Y0316375I0000581J0000000D01*
G01*
G37*
G36*
G01*
X0113199Y0312557D02*
X0114557Y0312557D01*
G75*
G02*
X0115138Y0311976I0000000J-000581D01*
G01*
X0115138Y0310814D01*
G75*
G02*
X0114557Y0310234I-000581J0000000D01*
G01*
X0113199Y0310234D01*
G75*
G02*
X0112618Y0310814I0000000J0000581D01*
G01*
X0112618Y0311976D01*
G75*
G02*
X0113199Y0312557I0000581J0000000D01*
G01*
G37*
G36*
G01*
X0111329Y0308288D02*
X0112687Y0308288D01*
G75*
G02*
X0113268Y0307707I0000000J-000581D01*
G01*
X0113268Y0306546D01*
G75*
G02*
X0112687Y0305965I-000581J0000000D01*
G01*
X0111329Y0305965D01*
G75*
G02*
X0110748Y0306546I0000000J0000581D01*
G01*
X0110748Y0307707D01*
G75*
G02*
X0111329Y0308288I0000581J0000000D01*
G01*
G37*
G36*
G01*
X0111329Y0304469D02*
X0112687Y0304469D01*
G75*
G02*
X0113268Y0303888I0000000J-000581D01*
G01*
X0113268Y0302727D01*
G75*
G02*
X0112687Y0302146I-000581J0000000D01*
G01*
X0111329Y0302146D01*
G75*
G02*
X0110748Y0302727I0000000J0000581D01*
G01*
X0110748Y0303888D01*
G75*
G02*
X0111329Y0304469I0000581J0000000D01*
G01*
G37*
G36*
G01*
X0118661Y0336900D02*
X0118661Y0335542D01*
G75*
G02*
X0118081Y0334961I-000581J0000000D01*
G01*
X0116919Y0334961D01*
G75*
G02*
X0116339Y0335542I0000000J0000581D01*
G01*
X0116339Y0336900D01*
G75*
G02*
X0116919Y0337481I0000581J0000000D01*
G01*
X0118081Y0337481D01*
G75*
G02*
X0118661Y0336900I0000000J-000581D01*
G01*
G37*
G36*
G01*
X0114842Y0336900D02*
X0114842Y0335542D01*
G75*
G02*
X0114262Y0334961I-000581J0000000D01*
G01*
X0113100Y0334961D01*
G75*
G02*
X0112520Y0335542I0000000J0000581D01*
G01*
X0112520Y0336900D01*
G75*
G02*
X0113100Y0337481I0000581J0000000D01*
G01*
X0114262Y0337481D01*
G75*
G02*
X0114842Y0336900I0000000J-000581D01*
G01*
G37*
G36*
G01*
X0101073Y0287382D02*
X0099715Y0287382D01*
G75*
G02*
X0099134Y0287963I0000000J0000581D01*
G01*
X0099134Y0289124D01*
G75*
G02*
X0099715Y0289705I0000581J0000000D01*
G01*
X0101073Y0289705D01*
G75*
G02*
X0101654Y0289124I0000000J-000581D01*
G01*
X0101654Y0287963D01*
G75*
G02*
X0101073Y0287382I-000581J0000000D01*
G01*
G37*
G36*
G01*
X0101073Y0291201D02*
X0099715Y0291201D01*
G75*
G02*
X0099134Y0291782I0000000J0000581D01*
G01*
X0099134Y0292943D01*
G75*
G02*
X0099715Y0293524I0000581J0000000D01*
G01*
X0101073Y0293524D01*
G75*
G02*
X0101654Y0292943I0000000J-000581D01*
G01*
X0101654Y0291782D01*
G75*
G02*
X0101073Y0291201I-000581J0000000D01*
G01*
G37*
G36*
G01*
X0095778Y0293524D02*
X0097136Y0293524D01*
G75*
G02*
X0097716Y0292943I0000000J-000581D01*
G01*
X0097716Y0291782D01*
G75*
G02*
X0097136Y0291201I-000581J0000000D01*
G01*
X0095778Y0291201D01*
G75*
G02*
X0095197Y0291782I0000000J0000581D01*
G01*
X0095197Y0292943D01*
G75*
G02*
X0095778Y0293524I0000581J0000000D01*
G01*
G37*
G36*
G01*
X0095778Y0289705D02*
X0097136Y0289705D01*
G75*
G02*
X0097716Y0289124I0000000J-000581D01*
G01*
X0097716Y0287963D01*
G75*
G02*
X0097136Y0287382I-000581J0000000D01*
G01*
X0095778Y0287382D01*
G75*
G02*
X0095197Y0287963I0000000J0000581D01*
G01*
X0095197Y0289124D01*
G75*
G02*
X0095778Y0289705I0000581J0000000D01*
G01*
G37*
G36*
G01*
X0098218Y0246044D02*
X0096860Y0246044D01*
G75*
G02*
X0096279Y0246624I0000000J0000581D01*
G01*
X0096279Y0247786D01*
G75*
G02*
X0096860Y0248366I0000581J0000000D01*
G01*
X0098218Y0248366D01*
G75*
G02*
X0098799Y0247786I0000000J-000581D01*
G01*
X0098799Y0246624D01*
G75*
G02*
X0098218Y0246044I-000581J0000000D01*
G01*
G37*
G36*
G01*
X0098218Y0249863D02*
X0096860Y0249863D01*
G75*
G02*
X0096279Y0250443I0000000J0000581D01*
G01*
X0096279Y0251605D01*
G75*
G02*
X0096860Y0252185I0000581J0000000D01*
G01*
X0098218Y0252185D01*
G75*
G02*
X0098799Y0251605I0000000J-000581D01*
G01*
X0098799Y0250443D01*
G75*
G02*
X0098218Y0249863I-000581J0000000D01*
G01*
G37*
D236*
X0074803Y0300394D03*
X0077362Y0300394D03*
X0079921Y0300394D03*
X0082480Y0300394D03*
X0085039Y0300394D03*
X0087598Y0300394D03*
X0090157Y0300394D03*
X0090157Y0277166D03*
X0087598Y0277166D03*
X0085039Y0277166D03*
X0082480Y0277166D03*
X0079921Y0277166D03*
X0077362Y0277166D03*
X0074803Y0277166D03*
G36*
G01*
X0118297Y0310217D02*
X0116939Y0310217D01*
G75*
G02*
X0116358Y0310798I0000000J0000581D01*
G01*
X0116358Y0311959D01*
G75*
G02*
X0116939Y0312540I0000581J0000000D01*
G01*
X0118297Y0312540D01*
G75*
G02*
X0118878Y0311959I0000000J-000581D01*
G01*
X0118878Y0310798D01*
G75*
G02*
X0118297Y0310217I-000581J0000000D01*
G01*
G37*
G36*
G01*
X0118297Y0314036D02*
X0116939Y0314036D01*
G75*
G02*
X0116358Y0314616I0000000J0000581D01*
G01*
X0116358Y0315778D01*
G75*
G02*
X0116939Y0316359I0000581J0000000D01*
G01*
X0118297Y0316359D01*
G75*
G02*
X0118878Y0315778I0000000J-000581D01*
G01*
X0118878Y0314616D01*
G75*
G02*
X0118297Y0314036I-000581J0000000D01*
G01*
G37*
G36*
G01*
X0120679Y0316359D02*
X0122037Y0316359D01*
G75*
G02*
X0122618Y0315778I0000000J-000581D01*
G01*
X0122618Y0314616D01*
G75*
G02*
X0122037Y0314036I-000581J0000000D01*
G01*
X0120679Y0314036D01*
G75*
G02*
X0120098Y0314616I0000000J0000581D01*
G01*
X0120098Y0315778D01*
G75*
G02*
X0120679Y0316359I0000581J0000000D01*
G01*
G37*
G36*
G01*
X0120679Y0312540D02*
X0122037Y0312540D01*
G75*
G02*
X0122618Y0311959I0000000J-000581D01*
G01*
X0122618Y0310798D01*
G75*
G02*
X0122037Y0310217I-000581J0000000D01*
G01*
X0120679Y0310217D01*
G75*
G02*
X0120098Y0310798I0000000J0000581D01*
G01*
X0120098Y0311959D01*
G75*
G02*
X0120679Y0312540I0000581J0000000D01*
G01*
G37*
G36*
G01*
X0111230Y0256122D02*
X0112589Y0256122D01*
G75*
G02*
X0113169Y0255542I0000000J-000581D01*
G01*
X0113169Y0254380D01*
G75*
G02*
X0112589Y0253800I-000581J0000000D01*
G01*
X0111230Y0253800D01*
G75*
G02*
X0110650Y0254380I0000000J0000581D01*
G01*
X0110650Y0255542D01*
G75*
G02*
X0111230Y0256122I0000581J0000000D01*
G01*
G37*
G36*
G01*
X0111230Y0252303D02*
X0112589Y0252303D01*
G75*
G02*
X0113169Y0251723I0000000J-000581D01*
G01*
X0113169Y0250561D01*
G75*
G02*
X0112589Y0249981I-000581J0000000D01*
G01*
X0111230Y0249981D01*
G75*
G02*
X0110650Y0250561I0000000J0000581D01*
G01*
X0110650Y0251723D01*
G75*
G02*
X0111230Y0252303I0000581J0000000D01*
G01*
G37*
G36*
G01*
X0081932Y0262815D02*
X0083291Y0262815D01*
G75*
G02*
X0083871Y0262235I0000000J-000581D01*
G01*
X0083871Y0261073D01*
G75*
G02*
X0083291Y0260492I-000581J0000000D01*
G01*
X0081932Y0260492D01*
G75*
G02*
X0081352Y0261073I0000000J0000581D01*
G01*
X0081352Y0262235D01*
G75*
G02*
X0081932Y0262815I0000581J0000000D01*
G01*
G37*
G36*
G01*
X0081932Y0258996D02*
X0083291Y0258996D01*
G75*
G02*
X0083871Y0258416I0000000J-000581D01*
G01*
X0083871Y0257254D01*
G75*
G02*
X0083291Y0256674I-000581J0000000D01*
G01*
X0081932Y0256674D01*
G75*
G02*
X0081352Y0257254I0000000J0000581D01*
G01*
X0081352Y0258416D01*
G75*
G02*
X0081932Y0258996I0000581J0000000D01*
G01*
G37*
G36*
G01*
X0105010Y0290630D02*
X0103652Y0290630D01*
G75*
G02*
X0103071Y0291211I0000000J0000581D01*
G01*
X0103071Y0292372D01*
G75*
G02*
X0103652Y0292953I0000581J0000000D01*
G01*
X0105010Y0292953D01*
G75*
G02*
X0105591Y0292372I0000000J-000581D01*
G01*
X0105591Y0291211D01*
G75*
G02*
X0105010Y0290630I-000581J0000000D01*
G01*
G37*
G36*
G01*
X0105010Y0294449D02*
X0103652Y0294449D01*
G75*
G02*
X0103071Y0295030I0000000J0000581D01*
G01*
X0103071Y0296191D01*
G75*
G02*
X0103652Y0296772I0000581J0000000D01*
G01*
X0105010Y0296772D01*
G75*
G02*
X0105591Y0296191I0000000J-000581D01*
G01*
X0105591Y0295030D01*
G75*
G02*
X0105010Y0294449I-000581J0000000D01*
G01*
G37*
G36*
G01*
X0112589Y0242303D02*
X0111230Y0242303D01*
G75*
G02*
X0110650Y0242884I0000000J0000581D01*
G01*
X0110650Y0244046D01*
G75*
G02*
X0111230Y0244626I0000581J0000000D01*
G01*
X0112589Y0244626D01*
G75*
G02*
X0113169Y0244046I0000000J-000581D01*
G01*
X0113169Y0242884D01*
G75*
G02*
X0112589Y0242303I-000581J0000000D01*
G01*
G37*
G36*
G01*
X0112589Y0246122D02*
X0111230Y0246122D01*
G75*
G02*
X0110650Y0246703I0000000J0000581D01*
G01*
X0110650Y0247864D01*
G75*
G02*
X0111230Y0248445I0000581J0000000D01*
G01*
X0112589Y0248445D01*
G75*
G02*
X0113169Y0247864I0000000J-000581D01*
G01*
X0113169Y0246703D01*
G75*
G02*
X0112589Y0246122I-000581J0000000D01*
G01*
G37*
G36*
G01*
X0097136Y0294764D02*
X0095778Y0294764D01*
G75*
G02*
X0095197Y0295345I0000000J0000581D01*
G01*
X0095197Y0296506D01*
G75*
G02*
X0095778Y0297087I0000581J0000000D01*
G01*
X0097136Y0297087D01*
G75*
G02*
X0097716Y0296506I0000000J-000581D01*
G01*
X0097716Y0295345D01*
G75*
G02*
X0097136Y0294764I-000581J0000000D01*
G01*
G37*
G36*
G01*
X0097136Y0298583D02*
X0095778Y0298583D01*
G75*
G02*
X0095197Y0299164I0000000J0000581D01*
G01*
X0095197Y0300325D01*
G75*
G02*
X0095778Y0300906I0000581J0000000D01*
G01*
X0097136Y0300906D01*
G75*
G02*
X0097716Y0300325I0000000J-000581D01*
G01*
X0097716Y0299164D01*
G75*
G02*
X0097136Y0298583I-000581J0000000D01*
G01*
G37*
G36*
G01*
X0072520Y0306014D02*
X0072520Y0307372D01*
G75*
G02*
X0073100Y0307953I0000581J0000000D01*
G01*
X0074262Y0307953D01*
G75*
G02*
X0074842Y0307372I0000000J-000581D01*
G01*
X0074842Y0306014D01*
G75*
G02*
X0074262Y0305433I-000581J0000000D01*
G01*
X0073100Y0305433D01*
G75*
G02*
X0072520Y0306014I0000000J0000581D01*
G01*
G37*
G36*
G01*
X0076339Y0306014D02*
X0076339Y0307372D01*
G75*
G02*
X0076919Y0307953I0000581J0000000D01*
G01*
X0078081Y0307953D01*
G75*
G02*
X0078661Y0307372I0000000J-000581D01*
G01*
X0078661Y0306014D01*
G75*
G02*
X0078081Y0305433I-000581J0000000D01*
G01*
X0076919Y0305433D01*
G75*
G02*
X0076339Y0306014I0000000J0000581D01*
G01*
G37*
G36*
G01*
X0101073Y0279902D02*
X0099715Y0279902D01*
G75*
G02*
X0099134Y0280483I0000000J0000581D01*
G01*
X0099134Y0281644D01*
G75*
G02*
X0099715Y0282225I0000581J0000000D01*
G01*
X0101073Y0282225D01*
G75*
G02*
X0101654Y0281644I0000000J-000581D01*
G01*
X0101654Y0280483D01*
G75*
G02*
X0101073Y0279902I-000581J0000000D01*
G01*
G37*
G36*
G01*
X0101073Y0283721D02*
X0099715Y0283721D01*
G75*
G02*
X0099134Y0284301I0000000J0000581D01*
G01*
X0099134Y0285463D01*
G75*
G02*
X0099715Y0286044I0000581J0000000D01*
G01*
X0101073Y0286044D01*
G75*
G02*
X0101654Y0285463I0000000J-000581D01*
G01*
X0101654Y0284301D01*
G75*
G02*
X0101073Y0283721I-000581J0000000D01*
G01*
G37*
G36*
G01*
X0099715Y0278563D02*
X0101073Y0278563D01*
G75*
G02*
X0101654Y0277983I0000000J-000581D01*
G01*
X0101654Y0276821D01*
G75*
G02*
X0101073Y0276240I-000581J0000000D01*
G01*
X0099715Y0276240D01*
G75*
G02*
X0099134Y0276821I0000000J0000581D01*
G01*
X0099134Y0277983D01*
G75*
G02*
X0099715Y0278563I0000581J0000000D01*
G01*
G37*
G36*
G01*
X0099715Y0274744D02*
X0101073Y0274744D01*
G75*
G02*
X0101654Y0274164I0000000J-000581D01*
G01*
X0101654Y0273002D01*
G75*
G02*
X0101073Y0272422I-000581J0000000D01*
G01*
X0099715Y0272422D01*
G75*
G02*
X0099134Y0273002I0000000J0000581D01*
G01*
X0099134Y0274164D01*
G75*
G02*
X0099715Y0274744I0000581J0000000D01*
G01*
G37*
G36*
G01*
X0072520Y0309754D02*
X0072520Y0311113D01*
G75*
G02*
X0073100Y0311693I0000581J0000000D01*
G01*
X0074262Y0311693D01*
G75*
G02*
X0074842Y0311113I0000000J-000581D01*
G01*
X0074842Y0309754D01*
G75*
G02*
X0074262Y0309174I-000581J0000000D01*
G01*
X0073100Y0309174D01*
G75*
G02*
X0072520Y0309754I0000000J0000581D01*
G01*
G37*
G36*
G01*
X0076339Y0309754D02*
X0076339Y0311113D01*
G75*
G02*
X0076919Y0311693I0000581J0000000D01*
G01*
X0078081Y0311693D01*
G75*
G02*
X0078661Y0311113I0000000J-000581D01*
G01*
X0078661Y0309754D01*
G75*
G02*
X0078081Y0309174I-000581J0000000D01*
G01*
X0076919Y0309174D01*
G75*
G02*
X0076339Y0309754I0000000J0000581D01*
G01*
G37*
D237*
X0121358Y0320433D03*
X0117618Y0320433D03*
X0113878Y0320433D03*
X0113878Y0330748D03*
X0121358Y0330748D03*
G36*
G01*
X0103652Y0285945D02*
X0105010Y0285945D01*
G75*
G02*
X0105591Y0285364I0000000J-000581D01*
G01*
X0105591Y0284203D01*
G75*
G02*
X0105010Y0283622I-000581J0000000D01*
G01*
X0103652Y0283622D01*
G75*
G02*
X0103071Y0284203I0000000J0000581D01*
G01*
X0103071Y0285364D01*
G75*
G02*
X0103652Y0285945I0000581J0000000D01*
G01*
G37*
G36*
G01*
X0103652Y0282126D02*
X0105010Y0282126D01*
G75*
G02*
X0105591Y0281546I0000000J-000581D01*
G01*
X0105591Y0280384D01*
G75*
G02*
X0105010Y0279803I-000581J0000000D01*
G01*
X0103652Y0279803D01*
G75*
G02*
X0103071Y0280384I0000000J0000581D01*
G01*
X0103071Y0281546D01*
G75*
G02*
X0103652Y0282126I0000581J0000000D01*
G01*
G37*
G36*
G01*
X0107756Y0298534D02*
X0107756Y0299892D01*
G75*
G02*
X0108337Y0300473I0000581J0000000D01*
G01*
X0109498Y0300473D01*
G75*
G02*
X0110079Y0299892I0000000J-000581D01*
G01*
X0110079Y0298534D01*
G75*
G02*
X0109498Y0297953I-000581J0000000D01*
G01*
X0108337Y0297953D01*
G75*
G02*
X0107756Y0298534I0000000J0000581D01*
G01*
G37*
G36*
G01*
X0111575Y0298534D02*
X0111575Y0299892D01*
G75*
G02*
X0112155Y0300473I0000581J0000000D01*
G01*
X0113317Y0300473D01*
G75*
G02*
X0113898Y0299892I0000000J-000581D01*
G01*
X0113898Y0298534D01*
G75*
G02*
X0113317Y0297953I-000581J0000000D01*
G01*
X0112155Y0297953D01*
G75*
G02*
X0111575Y0298534I0000000J0000581D01*
G01*
G37*
G36*
G01*
X0087323Y0307372D02*
X0087323Y0306014D01*
G75*
G02*
X0086742Y0305433I-000581J0000000D01*
G01*
X0085581Y0305433D01*
G75*
G02*
X0085000Y0306014I0000000J0000581D01*
G01*
X0085000Y0307372D01*
G75*
G02*
X0085581Y0307953I0000581J0000000D01*
G01*
X0086742Y0307953D01*
G75*
G02*
X0087323Y0307372I0000000J-000581D01*
G01*
G37*
G36*
G01*
X0083504Y0307372D02*
X0083504Y0306014D01*
G75*
G02*
X0082923Y0305433I-000581J0000000D01*
G01*
X0081762Y0305433D01*
G75*
G02*
X0081181Y0306014I0000000J0000581D01*
G01*
X0081181Y0307372D01*
G75*
G02*
X0081762Y0307953I0000581J0000000D01*
G01*
X0082923Y0307953D01*
G75*
G02*
X0083504Y0307372I0000000J-000581D01*
G01*
G37*
G36*
G01*
X0088278Y0264252D02*
X0086919Y0264252D01*
G75*
G02*
X0086339Y0264833I0000000J0000581D01*
G01*
X0086339Y0265994D01*
G75*
G02*
X0086919Y0266575I0000581J0000000D01*
G01*
X0088278Y0266575D01*
G75*
G02*
X0088858Y0265994I0000000J-000581D01*
G01*
X0088858Y0264833D01*
G75*
G02*
X0088278Y0264252I-000581J0000000D01*
G01*
G37*
G36*
G01*
X0088278Y0268071D02*
X0086919Y0268071D01*
G75*
G02*
X0086339Y0268652I0000000J0000581D01*
G01*
X0086339Y0269813D01*
G75*
G02*
X0086919Y0270394I0000581J0000000D01*
G01*
X0088278Y0270394D01*
G75*
G02*
X0088858Y0269813I0000000J-000581D01*
G01*
X0088858Y0268652D01*
G75*
G02*
X0088278Y0268071I-000581J0000000D01*
G01*
G37*
G36*
G01*
X0088278Y0256674D02*
X0086919Y0256674D01*
G75*
G02*
X0086339Y0257254I0000000J0000581D01*
G01*
X0086339Y0258416D01*
G75*
G02*
X0086919Y0258996I0000581J0000000D01*
G01*
X0088278Y0258996D01*
G75*
G02*
X0088858Y0258416I0000000J-000581D01*
G01*
X0088858Y0257254D01*
G75*
G02*
X0088278Y0256674I-000581J0000000D01*
G01*
G37*
G36*
G01*
X0088278Y0260492D02*
X0086919Y0260492D01*
G75*
G02*
X0086339Y0261073I0000000J0000581D01*
G01*
X0086339Y0262235D01*
G75*
G02*
X0086919Y0262815I0000581J0000000D01*
G01*
X0088278Y0262815D01*
G75*
G02*
X0088858Y0262235I0000000J-000581D01*
G01*
X0088858Y0261073D01*
G75*
G02*
X0088278Y0260492I-000581J0000000D01*
G01*
G37*
G36*
G01*
X0087323Y0311113D02*
X0087323Y0309754D01*
G75*
G02*
X0086742Y0309174I-000581J0000000D01*
G01*
X0085581Y0309174D01*
G75*
G02*
X0085000Y0309754I0000000J0000581D01*
G01*
X0085000Y0311113D01*
G75*
G02*
X0085581Y0311693I0000581J0000000D01*
G01*
X0086742Y0311693D01*
G75*
G02*
X0087323Y0311113I0000000J-000581D01*
G01*
G37*
G36*
G01*
X0083504Y0311113D02*
X0083504Y0309754D01*
G75*
G02*
X0082923Y0309174I-000581J0000000D01*
G01*
X0081762Y0309174D01*
G75*
G02*
X0081181Y0309754I0000000J0000581D01*
G01*
X0081181Y0311113D01*
G75*
G02*
X0081762Y0311693I0000581J0000000D01*
G01*
X0082923Y0311693D01*
G75*
G02*
X0083504Y0311113I0000000J-000581D01*
G01*
G37*
G36*
G01*
X0097136Y0276752D02*
X0095778Y0276752D01*
G75*
G02*
X0095197Y0277333I0000000J0000581D01*
G01*
X0095197Y0278494D01*
G75*
G02*
X0095778Y0279075I0000581J0000000D01*
G01*
X0097136Y0279075D01*
G75*
G02*
X0097716Y0278494I0000000J-000581D01*
G01*
X0097716Y0277333D01*
G75*
G02*
X0097136Y0276752I-000581J0000000D01*
G01*
G37*
G36*
G01*
X0097136Y0280571D02*
X0095778Y0280571D01*
G75*
G02*
X0095197Y0281152I0000000J0000581D01*
G01*
X0095197Y0282313D01*
G75*
G02*
X0095778Y0282894I0000581J0000000D01*
G01*
X0097136Y0282894D01*
G75*
G02*
X0097716Y0282313I0000000J-000581D01*
G01*
X0097716Y0281152D01*
G75*
G02*
X0097136Y0280571I-000581J0000000D01*
G01*
G37*
G36*
G01*
X0087323Y0314853D02*
X0087323Y0313494D01*
G75*
G02*
X0086742Y0312914I-000581J0000000D01*
G01*
X0085581Y0312914D01*
G75*
G02*
X0085000Y0313494I0000000J0000581D01*
G01*
X0085000Y0314853D01*
G75*
G02*
X0085581Y0315433I0000581J0000000D01*
G01*
X0086742Y0315433D01*
G75*
G02*
X0087323Y0314853I0000000J-000581D01*
G01*
G37*
G36*
G01*
X0083504Y0314853D02*
X0083504Y0313494D01*
G75*
G02*
X0082923Y0312914I-000581J0000000D01*
G01*
X0081762Y0312914D01*
G75*
G02*
X0081181Y0313494I0000000J0000581D01*
G01*
X0081181Y0314853D01*
G75*
G02*
X0081762Y0315433I0000581J0000000D01*
G01*
X0082923Y0315433D01*
G75*
G02*
X0083504Y0314853I0000000J-000581D01*
G01*
G37*
G36*
G01*
X0078661Y0314853D02*
X0078661Y0313494D01*
G75*
G02*
X0078081Y0312914I-000581J0000000D01*
G01*
X0076919Y0312914D01*
G75*
G02*
X0076339Y0313494I0000000J0000581D01*
G01*
X0076339Y0314853D01*
G75*
G02*
X0076919Y0315433I0000581J0000000D01*
G01*
X0078081Y0315433D01*
G75*
G02*
X0078661Y0314853I0000000J-000581D01*
G01*
G37*
G36*
G01*
X0074842Y0314853D02*
X0074842Y0313494D01*
G75*
G02*
X0074262Y0312914I-000581J0000000D01*
G01*
X0073100Y0312914D01*
G75*
G02*
X0072520Y0313494I0000000J0000581D01*
G01*
X0072520Y0314853D01*
G75*
G02*
X0073100Y0315433I0000581J0000000D01*
G01*
X0074262Y0315433D01*
G75*
G02*
X0074842Y0314853I0000000J-000581D01*
G01*
G37*
G36*
G01*
X0084468Y0329666D02*
X0085807Y0329666D01*
G75*
G02*
X0086358Y0329115I0000000J-000551D01*
G01*
X0086358Y0328012D01*
G75*
G02*
X0085807Y0327461I-000551J0000000D01*
G01*
X0084468Y0327461D01*
G75*
G02*
X0083917Y0328012I0000000J0000551D01*
G01*
X0083917Y0329115D01*
G75*
G02*
X0084468Y0329666I0000551J0000000D01*
G01*
G37*
G36*
G01*
X0084468Y0325886D02*
X0085807Y0325886D01*
G75*
G02*
X0086358Y0325335I0000000J-000551D01*
G01*
X0086358Y0324233D01*
G75*
G02*
X0085807Y0323682I-000551J0000000D01*
G01*
X0084468Y0323682D01*
G75*
G02*
X0083917Y0324233I0000000J0000551D01*
G01*
X0083917Y0325335D01*
G75*
G02*
X0084468Y0325886I0000551J0000000D01*
G01*
G37*
G36*
G01*
X0110728Y0274725D02*
X0109272Y0274725D01*
G75*
G02*
X0108740Y0275256I0000000J0000531D01*
G01*
X0108740Y0276319D01*
G75*
G02*
X0109272Y0276851I0000531J0000000D01*
G01*
X0110728Y0276851D01*
G75*
G02*
X0111260Y0276319I0000000J-000531D01*
G01*
X0111260Y0275256D01*
G75*
G02*
X0110728Y0274725I-000531J0000000D01*
G01*
G37*
G36*
G01*
X0110728Y0278740D02*
X0109272Y0278740D01*
G75*
G02*
X0108740Y0279272I0000000J0000531D01*
G01*
X0108740Y0280335D01*
G75*
G02*
X0109272Y0280866I0000531J0000000D01*
G01*
X0110728Y0280866D01*
G75*
G02*
X0111260Y0280335I0000000J-000531D01*
G01*
X0111260Y0279272D01*
G75*
G02*
X0110728Y0278740I-000531J0000000D01*
G01*
G37*
G36*
G01*
X0096195Y0335453D02*
X0096195Y0336910D01*
G75*
G02*
X0096727Y0337441I0000531J0000000D01*
G01*
X0097790Y0337441D01*
G75*
G02*
X0098321Y0336910I0000000J-000531D01*
G01*
X0098321Y0335453D01*
G75*
G02*
X0097790Y0334922I-000531J0000000D01*
G01*
X0096727Y0334922D01*
G75*
G02*
X0096195Y0335453I0000000J0000531D01*
G01*
G37*
G36*
G01*
X0100211Y0335453D02*
X0100211Y0336910D01*
G75*
G02*
X0100743Y0337441I0000531J0000000D01*
G01*
X0101806Y0337441D01*
G75*
G02*
X0102337Y0336910I0000000J-000531D01*
G01*
X0102337Y0335453D01*
G75*
G02*
X0101806Y0334922I-000531J0000000D01*
G01*
X0100743Y0334922D01*
G75*
G02*
X0100211Y0335453I0000000J0000531D01*
G01*
G37*
G36*
G01*
X0072244Y0334843D02*
X0073425Y0334843D01*
G75*
G02*
X0074016Y0334252I0000000J-000591D01*
G01*
X0074016Y0329626D01*
G75*
G02*
X0073425Y0329036I-000591J0000000D01*
G01*
X0072244Y0329036D01*
G75*
G02*
X0071654Y0329626I0000000J0000591D01*
G01*
X0071654Y0334252D01*
G75*
G02*
X0072244Y0334843I0000591J0000000D01*
G01*
G37*
G36*
G01*
X0079724Y0334843D02*
X0080905Y0334843D01*
G75*
G02*
X0081496Y0334252I0000000J-000591D01*
G01*
X0081496Y0329626D01*
G75*
G02*
X0080905Y0329036I-000591J0000000D01*
G01*
X0079724Y0329036D01*
G75*
G02*
X0079134Y0329626I0000000J0000591D01*
G01*
X0079134Y0334252D01*
G75*
G02*
X0079724Y0334843I0000591J0000000D01*
G01*
G37*
G36*
G01*
X0075984Y0327461D02*
X0077165Y0327461D01*
G75*
G02*
X0077756Y0326870I0000000J-000591D01*
G01*
X0077756Y0322244D01*
G75*
G02*
X0077165Y0321654I-000591J0000000D01*
G01*
X0075984Y0321654D01*
G75*
G02*
X0075394Y0322244I0000000J0000591D01*
G01*
X0075394Y0326870D01*
G75*
G02*
X0075984Y0327461I0000591J0000000D01*
G01*
G37*
G36*
G01*
X0110176Y0336890D02*
X0110176Y0335551D01*
G75*
G02*
X0109624Y0335000I-000551J0000000D01*
G01*
X0108522Y0335000D01*
G75*
G02*
X0107971Y0335551I0000000J0000551D01*
G01*
X0107971Y0336890D01*
G75*
G02*
X0108522Y0337441I0000551J0000000D01*
G01*
X0109624Y0337441D01*
G75*
G02*
X0110176Y0336890I0000000J-000551D01*
G01*
G37*
G36*
G01*
X0106396Y0336890D02*
X0106396Y0335551D01*
G75*
G02*
X0105845Y0335000I-000551J0000000D01*
G01*
X0104743Y0335000D01*
G75*
G02*
X0104191Y0335551I0000000J0000551D01*
G01*
X0104191Y0336890D01*
G75*
G02*
X0104743Y0337441I0000551J0000000D01*
G01*
X0105845Y0337441D01*
G75*
G02*
X0106396Y0336890I0000000J-000551D01*
G01*
G37*
G36*
G01*
X0107105Y0306103D02*
X0105924Y0306103D01*
G75*
G02*
X0105333Y0306693I0000000J0000591D01*
G01*
X0105333Y0312402D01*
G75*
G02*
X0105924Y0312992I0000591J0000000D01*
G01*
X0107105Y0312992D01*
G75*
G02*
X0107695Y0312402I0000000J-000591D01*
G01*
X0107695Y0306693D01*
G75*
G02*
X0107105Y0306103I-000591J0000000D01*
G01*
G37*
G36*
G01*
X0102105Y0306103D02*
X0100924Y0306103D01*
G75*
G02*
X0100333Y0306693I0000000J0000591D01*
G01*
X0100333Y0312402D01*
G75*
G02*
X0100924Y0312992I0000591J0000000D01*
G01*
X0102105Y0312992D01*
G75*
G02*
X0102695Y0312402I0000000J-000591D01*
G01*
X0102695Y0306693D01*
G75*
G02*
X0102105Y0306103I-000591J0000000D01*
G01*
G37*
G36*
G01*
X0097105Y0306103D02*
X0095924Y0306103D01*
G75*
G02*
X0095333Y0306693I0000000J0000591D01*
G01*
X0095333Y0312402D01*
G75*
G02*
X0095924Y0312992I0000591J0000000D01*
G01*
X0097105Y0312992D01*
G75*
G02*
X0097695Y0312402I0000000J-000591D01*
G01*
X0097695Y0306693D01*
G75*
G02*
X0097105Y0306103I-000591J0000000D01*
G01*
G37*
G36*
G01*
X0092105Y0306103D02*
X0090924Y0306103D01*
G75*
G02*
X0090333Y0306693I0000000J0000591D01*
G01*
X0090333Y0312402D01*
G75*
G02*
X0090924Y0312992I0000591J0000000D01*
G01*
X0092105Y0312992D01*
G75*
G02*
X0092695Y0312402I0000000J-000591D01*
G01*
X0092695Y0306693D01*
G75*
G02*
X0092105Y0306103I-000591J0000000D01*
G01*
G37*
G36*
G01*
X0092105Y0326378D02*
X0090924Y0326378D01*
G75*
G02*
X0090333Y0326969I0000000J0000591D01*
G01*
X0090333Y0332677D01*
G75*
G02*
X0090924Y0333268I0000591J0000000D01*
G01*
X0092105Y0333268D01*
G75*
G02*
X0092695Y0332677I0000000J-000591D01*
G01*
X0092695Y0326969D01*
G75*
G02*
X0092105Y0326378I-000591J0000000D01*
G01*
G37*
G36*
G01*
X0097105Y0326378D02*
X0095924Y0326378D01*
G75*
G02*
X0095333Y0326969I0000000J0000591D01*
G01*
X0095333Y0332677D01*
G75*
G02*
X0095924Y0333268I0000591J0000000D01*
G01*
X0097105Y0333268D01*
G75*
G02*
X0097695Y0332677I0000000J-000591D01*
G01*
X0097695Y0326969D01*
G75*
G02*
X0097105Y0326378I-000591J0000000D01*
G01*
G37*
G36*
G01*
X0102105Y0326378D02*
X0100924Y0326378D01*
G75*
G02*
X0100333Y0326969I0000000J0000591D01*
G01*
X0100333Y0332677D01*
G75*
G02*
X0100924Y0333268I0000591J0000000D01*
G01*
X0102105Y0333268D01*
G75*
G02*
X0102695Y0332677I0000000J-000591D01*
G01*
X0102695Y0326969D01*
G75*
G02*
X0102105Y0326378I-000591J0000000D01*
G01*
G37*
G36*
G01*
X0107105Y0326378D02*
X0105924Y0326378D01*
G75*
G02*
X0105333Y0326969I0000000J0000591D01*
G01*
X0105333Y0332677D01*
G75*
G02*
X0105924Y0333268I0000591J0000000D01*
G01*
X0107105Y0333268D01*
G75*
G02*
X0107695Y0332677I0000000J-000591D01*
G01*
X0107695Y0326969D01*
G75*
G02*
X0107105Y0326378I-000591J0000000D01*
G01*
G37*
X0122047Y0173031D02*
G01*
G75*
D102*
X0111811Y0208464D02*
D03*
X0115551Y0208464D02*
D03*
X0119291Y0208464D02*
D03*
X0115354Y0174212D02*
D03*
X0111811Y0174212D02*
D03*
D244*
X0111811Y0200984D02*
D03*
X0111811Y0204921D02*
D03*
X0111811Y0189861D02*
D03*
X0111811Y0185924D02*
D03*
X0111811Y0181495D02*
D03*
X0111811Y0177558D02*
D03*
X0119094Y0200984D02*
D03*
X0119094Y0204921D02*
D03*
D245*
X0119291Y0197599D02*
D03*
X0115748Y0197599D02*
D03*
D246*
X0112578Y0193714D02*
D03*
X0118799Y0193714D02*
D03*
D247*
X0115748Y0181102D02*
D03*
X0115748Y0177559D02*
D03*
X0119291Y0189468D02*
D03*
X0119291Y0185925D02*
D03*
X0115690Y0204330D02*
D03*
X0115690Y0200787D02*
D03*
X0119291Y0177559D02*
D03*
X0119291Y0181102D02*
D03*
X0142520Y0173031D02*
G01*
G75*
D102*
X0132284Y0208464D02*
D03*
X0136024Y0208464D02*
D03*
X0139764Y0208464D02*
D03*
X0135827Y0174212D02*
D03*
X0132284Y0174212D02*
D03*
D244*
X0132284Y0200984D02*
D03*
X0132284Y0204921D02*
D03*
X0132284Y0189861D02*
D03*
X0132284Y0185924D02*
D03*
X0132284Y0181495D02*
D03*
X0132284Y0177558D02*
D03*
X0139567Y0200984D02*
D03*
X0139567Y0204921D02*
D03*
D245*
X0139764Y0197599D02*
D03*
X0136221Y0197599D02*
D03*
D246*
X0133051Y0193714D02*
D03*
X0139272Y0193714D02*
D03*
D247*
X0136221Y0181102D02*
D03*
X0136221Y0177559D02*
D03*
X0139764Y0189468D02*
D03*
X0139764Y0185925D02*
D03*
X0136163Y0204330D02*
D03*
X0136163Y0200787D02*
D03*
X0139764Y0177559D02*
D03*
X0139764Y0181102D02*
D03*
X0152854Y0173720D02*
G01*
G75*
D128*
X0182769Y0250098D02*
D03*
X0169777Y0250098D02*
D03*
D129*
X0202629Y0250492D02*
D03*
X0191212Y0250492D02*
D03*
X0202629Y0242460D02*
D03*
X0191212Y0242460D02*
D03*
D132*
X0165256Y0228444D02*
D03*
X0165256Y0232381D02*
D03*
X0161909Y0243011D02*
D03*
X0170571Y0243011D02*
D03*
X0161122Y0237763D02*
D03*
X0169783Y0237763D02*
D03*
D110*
X0173009Y0185137D02*
D03*
X0169465Y0185137D02*
D03*
X0182400Y0221870D02*
D03*
X0185944Y0221870D02*
D03*
X0174403Y0236975D02*
D03*
X0177946Y0236975D02*
D03*
X0181627Y0185137D02*
D03*
X0178084Y0185137D02*
D03*
X0161122Y0189074D02*
D03*
X0164665Y0189074D02*
D03*
D108*
X0186607Y0238550D02*
D03*
X0186607Y0242094D02*
D03*
X0165840Y0250952D02*
D03*
X0165840Y0247408D02*
D03*
X0214604Y0192635D02*
D03*
X0214604Y0196179D02*
D03*
D102*
X0218602Y0191830D02*
D03*
X0218602Y0187893D02*
D03*
D133*
X0155807Y0245373D02*
D03*
X0155807Y0178444D02*
D03*
X0155807Y0225885D02*
D03*
X0216830Y0225688D02*
D03*
X0216830Y0250885D02*
D03*
X0216830Y0201279D02*
D03*
X0216830Y0218208D02*
D03*
X0216830Y0176673D02*
D03*
X0155807Y0252657D02*
D03*
D139*
X0202067Y0230019D02*
D03*
X0191043Y0230019D02*
D03*
D109*
X0169389Y0225696D02*
D03*
X0169389Y0231916D02*
D03*
X0183483Y0225696D02*
D03*
X0183483Y0231916D02*
D03*
X0178792Y0225696D02*
D03*
X0178792Y0231916D02*
D03*
X0174100Y0225696D02*
D03*
X0174100Y0231916D02*
D03*
X0182302Y0237940D02*
D03*
X0182302Y0244161D02*
D03*
D107*
X0172812Y0189074D02*
D03*
X0168875Y0189074D02*
D03*
X0177493Y0189074D02*
D03*
X0181430Y0189074D02*
D03*
X0174206Y0243011D02*
D03*
X0178143Y0243011D02*
D03*
X0197139Y0221397D02*
D03*
X0201076Y0221397D02*
D03*
X0204915Y0183956D02*
D03*
X0200977Y0183956D02*
D03*
D140*
X0177926Y0195834D02*
D03*
X0172926Y0195834D02*
D03*
X0167926Y0195834D02*
D03*
X0162926Y0195834D02*
D03*
X0177926Y0218471D02*
D03*
X0172926Y0218471D02*
D03*
X0167926Y0218471D02*
D03*
X0162926Y0218471D02*
D03*
X0200993Y0190551D02*
D03*
X0195993Y0190551D02*
D03*
X0190993Y0190551D02*
D03*
X0185993Y0190551D02*
D03*
X0200993Y0213976D02*
D03*
X0195993Y0213976D02*
D03*
X0190993Y0213976D02*
D03*
X0185993Y0213976D02*
D03*
D141*
X0170426Y0207152D02*
D03*
D142*
X0193493Y0202263D02*
D03*
X0242224Y0149311D02*
G01*
G75*
D169*
X0294193Y0234350D02*
D03*
X0294193Y0209055D02*
D03*
X0294193Y0224311D02*
D03*
X0294193Y0219095D02*
D03*
X0287106Y0249606D02*
D03*
X0294193Y0249606D02*
D03*
X0294193Y0239567D02*
D03*
X0287106Y0239567D02*
D03*
X0287106Y0209055D02*
D03*
X0287106Y0219095D02*
D03*
X0287106Y0224311D02*
D03*
X0287106Y0234350D02*
D03*
D170*
X0294193Y0230905D02*
D03*
X0294193Y0215650D02*
D03*
X0294193Y0227756D02*
D03*
X0294193Y0212500D02*
D03*
X0294193Y0243012D02*
D03*
X0294193Y0246161D02*
D03*
X0287106Y0246161D02*
D03*
X0287106Y0243012D02*
D03*
X0287106Y0215650D02*
D03*
X0287106Y0212500D02*
D03*
X0287106Y0230905D02*
D03*
X0287106Y0227756D02*
D03*
D177*
X0296161Y0287500D02*
D03*
X0292224Y0287500D02*
D03*
X0290649Y0283957D02*
D03*
X0286712Y0283957D02*
D03*
X0298523Y0266634D02*
D03*
X0294586Y0266634D02*
D03*
X0327176Y0208932D02*
D03*
X0323239Y0208932D02*
D03*
X0318980Y0208932D02*
D03*
X0315043Y0208932D02*
D03*
X0275658Y0241399D02*
D03*
X0271721Y0241399D02*
D03*
X0275658Y0237676D02*
D03*
X0271721Y0237676D02*
D03*
X0273242Y0274508D02*
D03*
X0277179Y0274508D02*
D03*
X0361876Y0285441D02*
D03*
X0326128Y0285202D02*
D03*
X0341043Y0208932D02*
D03*
X0308759Y0263090D02*
D03*
X0308759Y0258760D02*
D03*
X0305329Y0254541D02*
D03*
X0294052Y0254596D02*
D03*
X0314468Y0224936D02*
D03*
X0305679Y0224936D02*
D03*
X0301742Y0216451D02*
D03*
X0366659Y0186585D02*
D03*
X0341043Y0204429D02*
D03*
X0300098Y0287500D02*
D03*
X0286712Y0254505D02*
D03*
X0265059Y0255903D02*
D03*
X0250994Y0255903D02*
D03*
X0265059Y0251673D02*
D03*
X0250994Y0251673D02*
D03*
X0290697Y0204765D02*
D03*
X0246161Y0202854D02*
D03*
X0312696Y0263090D02*
D03*
X0301742Y0224936D02*
D03*
X0310531Y0224936D02*
D03*
X0310531Y0220448D02*
D03*
X0314468Y0220448D02*
D03*
X0368602Y0200492D02*
D03*
X0364665Y0200492D02*
D03*
X0362722Y0186585D02*
D03*
X0277277Y0257409D02*
D03*
X0273340Y0257409D02*
D03*
X0247056Y0255903D02*
D03*
X0290649Y0254505D02*
D03*
X0305679Y0216451D02*
D03*
X0297989Y0254596D02*
D03*
X0301392Y0254541D02*
D03*
X0261122Y0251673D02*
D03*
X0286760Y0204765D02*
D03*
X0250098Y0202854D02*
D03*
X0322191Y0285202D02*
D03*
X0296161Y0287500D02*
D03*
X0269389Y0262476D02*
D03*
X0265452Y0262476D02*
D03*
X0261122Y0255903D02*
D03*
X0344980Y0204429D02*
D03*
X0344980Y0208932D02*
D03*
X0312696Y0258760D02*
D03*
X0357939Y0285441D02*
D03*
X0348623Y0285441D02*
D03*
X0352560Y0285441D02*
D03*
X0254931Y0251673D02*
D03*
X0246161Y0206791D02*
D03*
X0250098Y0206791D02*
D03*
X0246161Y0219193D02*
D03*
X0250098Y0219193D02*
D03*
X0246161Y0223327D02*
D03*
X0250098Y0223327D02*
D03*
X0246161Y0231595D02*
D03*
X0250098Y0231595D02*
D03*
X0246161Y0227461D02*
D03*
X0250098Y0227461D02*
D03*
X0246161Y0235728D02*
D03*
X0250098Y0235728D02*
D03*
X0246161Y0215059D02*
D03*
X0250098Y0215059D02*
D03*
X0246161Y0210925D02*
D03*
X0250098Y0210925D02*
D03*
D181*
X0301151Y0238287D02*
D03*
X0301151Y0242520D02*
D03*
X0346555Y0154429D02*
D03*
X0341830Y0154429D02*
D03*
X0337106Y0154429D02*
D03*
X0332382Y0154429D02*
D03*
X0262303Y0282776D02*
D03*
X0266437Y0282776D02*
D03*
X0357617Y0190555D02*
D03*
X0357617Y0194492D02*
D03*
X0246688Y0281594D02*
D03*
X0246688Y0277658D02*
D03*
X0301151Y0246457D02*
D03*
X0301151Y0234350D02*
D03*
X0353445Y0190059D02*
D03*
X0353445Y0193996D02*
D03*
X0328672Y0162283D02*
D03*
X0328672Y0166220D02*
D03*
X0332382Y0166220D02*
D03*
X0332382Y0162283D02*
D03*
X0332382Y0176870D02*
D03*
X0332382Y0172933D02*
D03*
X0332382Y0158366D02*
D03*
X0337106Y0158366D02*
D03*
X0346555Y0158366D02*
D03*
X0341830Y0158366D02*
D03*
X0247723Y0191560D02*
D03*
X0247723Y0195497D02*
D03*
X0297933Y0194587D02*
D03*
X0297933Y0190650D02*
D03*
X0297933Y0184350D02*
D03*
X0297933Y0180413D02*
D03*
X0269980Y0194587D02*
D03*
X0269980Y0190650D02*
D03*
X0293405Y0169193D02*
D03*
X0293405Y0173130D02*
D03*
X0264075Y0169193D02*
D03*
X0264075Y0173130D02*
D03*
X0251279Y0169193D02*
D03*
X0251279Y0173130D02*
D03*
X0268171Y0162283D02*
D03*
X0268171Y0158346D02*
D03*
X0246555Y0161909D02*
D03*
X0246555Y0165846D02*
D03*
X0246752Y0158760D02*
D03*
X0246752Y0154823D02*
D03*
X0246688Y0270068D02*
D03*
X0246688Y0274005D02*
D03*
X0262303Y0286713D02*
D03*
X0266437Y0286713D02*
D03*
X0270177Y0173130D02*
D03*
X0270177Y0169193D02*
D03*
X0274507Y0173130D02*
D03*
X0274507Y0169193D02*
D03*
X0282972Y0173130D02*
D03*
X0282972Y0169193D02*
D03*
X0287138Y0158346D02*
D03*
X0287138Y0162283D02*
D03*
X0325885Y0190650D02*
D03*
X0325885Y0194587D02*
D03*
X0255610Y0173130D02*
D03*
X0255610Y0169193D02*
D03*
X0305981Y0158346D02*
D03*
X0305981Y0162283D02*
D03*
X0301870Y0173130D02*
D03*
X0301870Y0169193D02*
D03*
X0289075Y0173130D02*
D03*
X0289075Y0169193D02*
D03*
X0324961Y0158346D02*
D03*
X0324961Y0162283D02*
D03*
X0320768Y0173130D02*
D03*
X0320768Y0169193D02*
D03*
X0312303Y0173130D02*
D03*
X0312303Y0169193D02*
D03*
X0307972Y0173130D02*
D03*
X0307972Y0169193D02*
D03*
X0325749Y0176870D02*
D03*
X0325749Y0172933D02*
D03*
D183*
X0281781Y0279567D02*
D03*
X0274041Y0270092D02*
D03*
X0255708Y0246722D02*
D03*
D187*
X0329429Y0278150D02*
D03*
X0323129Y0278150D02*
D03*
X0292815Y0279528D02*
D03*
X0286515Y0279528D02*
D03*
X0292815Y0274902D02*
D03*
X0286515Y0274902D02*
D03*
D183*
X0264960Y0242981D02*
D03*
X0274041Y0262612D02*
D03*
X0283293Y0266352D02*
D03*
X0281781Y0287047D02*
D03*
X0272529Y0283307D02*
D03*
X0255708Y0239241D02*
D03*
D64*
X0320137Y0203445D02*
D03*
X0334350Y0203445D02*
D03*
X0304350Y0203445D02*
D03*
D193*
X0357342Y0281004D02*
D03*
X0337342Y0277004D02*
D03*
X0337342Y0285004D02*
D03*
D52*
X0246555Y0286713D02*
D03*
D212*
X0290255Y0269705D02*
D03*
X0290255Y0263484D02*
D03*
D213*
X0319685Y0198917D02*
D03*
X0319685Y0191831D02*
D03*
X0309645Y0191831D02*
D03*
X0309645Y0198917D02*
D03*
X0291732Y0191831D02*
D03*
X0263779Y0191831D02*
D03*
X0281693Y0187894D02*
D03*
X0336811Y0162697D02*
D03*
X0336811Y0169783D02*
D03*
X0346850Y0169783D02*
D03*
X0346850Y0162697D02*
D03*
X0253740Y0180807D02*
D03*
X0253740Y0187894D02*
D03*
X0263779Y0187894D02*
D03*
X0263779Y0180807D02*
D03*
X0263779Y0198917D02*
D03*
X0253740Y0191831D02*
D03*
X0253740Y0198917D02*
D03*
X0281693Y0180807D02*
D03*
X0291732Y0187894D02*
D03*
X0291732Y0180807D02*
D03*
X0291732Y0198917D02*
D03*
X0281693Y0191831D02*
D03*
X0281693Y0198917D02*
D03*
X0282677Y0156988D02*
D03*
X0282677Y0164075D02*
D03*
X0272637Y0164075D02*
D03*
X0272637Y0156988D02*
D03*
X0263779Y0156988D02*
D03*
X0263779Y0164075D02*
D03*
X0253740Y0164075D02*
D03*
X0253740Y0156988D02*
D03*
X0301575Y0156988D02*
D03*
X0301575Y0164075D02*
D03*
X0291535Y0164075D02*
D03*
X0291535Y0156988D02*
D03*
X0320472Y0156988D02*
D03*
X0320472Y0164075D02*
D03*
X0310433Y0164075D02*
D03*
X0310433Y0156988D02*
D03*
X0319685Y0180807D02*
D03*
X0319685Y0187894D02*
D03*
X0309645Y0187894D02*
D03*
X0309645Y0180807D02*
D03*
X0347244Y0180807D02*
D03*
X0347244Y0187894D02*
D03*
X0337204Y0187894D02*
D03*
X0337204Y0180807D02*
D03*
X0337204Y0198917D02*
D03*
X0337204Y0191831D02*
D03*
X0347244Y0191831D02*
D03*
X0347244Y0198917D02*
D03*
D214*
X0313090Y0191831D02*
D03*
X0316240Y0191831D02*
D03*
X0316240Y0198917D02*
D03*
X0313090Y0198917D02*
D03*
X0288287Y0191831D02*
D03*
X0260334Y0191831D02*
D03*
X0285137Y0187894D02*
D03*
X0343405Y0169783D02*
D03*
X0340256Y0169783D02*
D03*
X0340256Y0162697D02*
D03*
X0343405Y0162697D02*
D03*
X0260334Y0187894D02*
D03*
X0257185Y0187894D02*
D03*
X0257185Y0180807D02*
D03*
X0260334Y0180807D02*
D03*
X0257185Y0191831D02*
D03*
X0260334Y0198917D02*
D03*
X0257185Y0198917D02*
D03*
X0288287Y0187894D02*
D03*
X0285137Y0180807D02*
D03*
X0288287Y0180807D02*
D03*
X0285138Y0191831D02*
D03*
X0288287Y0198917D02*
D03*
X0285138Y0198917D02*
D03*
X0279232Y0156988D02*
D03*
X0276082Y0156988D02*
D03*
X0276082Y0164075D02*
D03*
X0279232Y0164075D02*
D03*
X0260335Y0156988D02*
D03*
X0257185Y0156988D02*
D03*
X0257185Y0164075D02*
D03*
X0260335Y0164075D02*
D03*
X0298130Y0156988D02*
D03*
X0294980Y0156988D02*
D03*
X0294980Y0164075D02*
D03*
X0298130Y0164075D02*
D03*
X0317027Y0156988D02*
D03*
X0313878Y0156988D02*
D03*
X0313878Y0164075D02*
D03*
X0317027Y0164075D02*
D03*
X0316240Y0180807D02*
D03*
X0313090Y0180807D02*
D03*
X0313090Y0187894D02*
D03*
X0316240Y0187894D02*
D03*
X0343799Y0180807D02*
D03*
X0340649Y0180807D02*
D03*
X0340649Y0187894D02*
D03*
X0343799Y0187894D02*
D03*
X0340649Y0198917D02*
D03*
X0343799Y0198917D02*
D03*
X0343799Y0191831D02*
D03*
X0340649Y0191831D02*
D03*
D215*
X0352027Y0276181D02*
D03*
X0352027Y0281171D02*
D03*
X0345807Y0281171D02*
D03*
X0345807Y0276181D02*
D03*
D216*
X0364665Y0269291D02*
D03*
X0331988Y0269291D02*
D03*
X0364665Y0215158D02*
D03*
X0331988Y0215158D02*
D03*
D217*
X0354429Y0251260D02*
D03*
X0354429Y0259921D02*
D03*
X0354429Y0255591D02*
D03*
X0354429Y0246929D02*
D03*
X0354429Y0242598D02*
D03*
X0354429Y0238268D02*
D03*
X0354429Y0233937D02*
D03*
X0354429Y0229606D02*
D03*
D218*
X0372736Y0170650D02*
D03*
X0359532Y0170650D02*
D03*
X0365255Y0162618D02*
D03*
X0352052Y0162618D02*
D03*
X0368996Y0179902D02*
D03*
X0355792Y0179902D02*
D03*
X0355792Y0153366D02*
D03*
X0267618Y0268287D02*
D03*
X0263878Y0277539D02*
D03*
X0368996Y0153366D02*
D03*
D219*
X0366659Y0196423D02*
D03*
X0362722Y0196423D02*
D03*
X0366659Y0190419D02*
D03*
X0364691Y0190419D02*
D03*
X0364691Y0196423D02*
D03*
X0362722Y0190419D02*
D03*
D220*
X0276094Y0253071D02*
D03*
X0270976Y0253071D02*
D03*
X0273535Y0253071D02*
D03*
X0276094Y0245590D02*
D03*
X0270976Y0245590D02*
D03*
D221*
X0279311Y0233563D02*
D03*
X0256319Y0231004D02*
D03*
X0256319Y0233563D02*
D03*
X0279311Y0210532D02*
D03*
X0256319Y0207973D02*
D03*
X0256319Y0205413D02*
D03*
X0256319Y0210532D02*
D03*
X0256319Y0213091D02*
D03*
X0256319Y0215650D02*
D03*
X0256319Y0218209D02*
D03*
X0256319Y0220768D02*
D03*
X0256319Y0223327D02*
D03*
X0256319Y0225886D02*
D03*
X0256319Y0228445D02*
D03*
X0279311Y0205413D02*
D03*
X0279311Y0207973D02*
D03*
X0279311Y0213091D02*
D03*
X0279311Y0215650D02*
D03*
X0279311Y0218209D02*
D03*
X0279311Y0220768D02*
D03*
X0279311Y0223327D02*
D03*
X0279311Y0225886D02*
D03*
X0279311Y0228445D02*
D03*
X0279311Y0231004D02*
D03*
D222*
X0253248Y0271150D02*
D03*
X0253248Y0282568D02*
D03*
D223*
X0311338Y0273285D02*
D03*
X0298346Y0273285D02*
D03*
X0247261Y0262085D02*
D03*
X0260253Y0262085D02*
D03*
D224*
X0310113Y0247880D02*
D03*
X0310113Y0233313D02*
D03*
D225*
X0361689Y0192437D02*
D03*
X0361689Y0194405D02*
D03*
X0367693Y0194405D02*
D03*
X0367693Y0192437D02*
D03*
D226*
X0296702Y0260403D02*
D03*
X0302607Y0260403D02*
D03*
D218*
X0365255Y0170650D02*
D03*
X0352052Y0170650D02*
D03*
X0359532Y0162618D02*
D03*
X0260137Y0268287D02*
D03*
X0372736Y0162618D02*
D03*
D227*
X0299505Y0209744D02*
D03*
X0306198Y0209744D02*
D03*
D228*
X0315866Y0283281D02*
D03*
X0304449Y0283281D02*
D03*
D229*
X0246949Y0248917D02*
D03*
X0246949Y0242618D02*
D03*
M02*
