M48
INCH,TZ
T01C0.005900
T02C0.013750
T03C0.019700
T04C0.025600
T05C0.030750
T06C0.039200
T07C0.045250
%
T01
X31890Y34803
X32283Y34724
T02
X7618Y23563
X8012Y23563
X8406Y23563
X8799Y23563
X9726Y34032
X10126Y34032
X11024Y34032
X11181Y20846
X11181Y17421
X11417Y34032
X11535Y17421
X11555Y20846
X11811Y34032
X11929Y20846
X13228Y20846
X13228Y17421
X13583Y17421
X13602Y20846
X13976Y20846
X21860Y19183
X21860Y18789
X24341Y28986
X24341Y27136
X24341Y26585
X24341Y24734
X24341Y24419
X24341Y23396
X24341Y23002
X24341Y22608
X24341Y22215
X24341Y21821
X24341Y21427
X24341Y21033
X24341Y20640
X24341Y16427
X24341Y16033
X24498Y15049
X25443Y15049
X25915Y15049
X26388Y15049
X26860Y15049
X27254Y28986
X27333Y15049
X27648Y28986
X27805Y15049
X28278Y15049
X28711Y28986
X28750Y15049
X29222Y15049
X29695Y15049
X30167Y15049
X30404Y28986
X30640Y15049
X30719Y28986
X31033Y28986
X31112Y15049
X31348Y28986
X31585Y15049
X31663Y28986
X31978Y28986
X32057Y15049
X32293Y28986
X32530Y15049
X32608Y28986
X32923Y28986
X33002Y15049
X33474Y15049
X33868Y28986
X33947Y15049
X34183Y28986
X34419Y15049
X34498Y28986
X34813Y28986
X34892Y15049
X35128Y28986
X35443Y28986
X35758Y28986
X36073Y28986
X36388Y28986
X36703Y28986
X37018Y28986
X37333Y28986
X37490Y23711
X37490Y17608
X37490Y26152
X37490Y25837
X37490Y25522
X37490Y25207
X37490Y24892
X37490Y24577
X37490Y24026
X37490Y23396
X37490Y23081
X37490Y22766
X37490Y22451
X37490Y22136
X37490Y21821
X37490Y21506
X37490Y21191
X37490Y20876
X37490Y20561
X37490Y20246
X37490Y19931
X37490Y19616
X37490Y19301
X41696Y35659
X41696Y35266
X41696Y34872
X41696Y33974
X41696Y33574
X52165Y32648
X52165Y32254
X52165Y31860
X52165Y31467
X6687Y18416
X6697Y21639
X7203Y9981
X7274Y14283
X7402Y20787
X7480Y11339
X7618Y22913
X7893Y22233
X8268Y20787
X8268Y11654
X12113Y14095
X12594Y16555
X12732Y21314
X14488Y20157
X14546Y17018
X15591Y16491
X15993Y14339
X16076Y14951
X17072Y15843
X19764Y15276
X19785Y13410
X21881Y26271
X22057Y14715
X22283Y21449
X23150Y14961
X23300Y23396
X23350Y22563
X23457Y15664
X23641Y14656
X23692Y22897
X23780Y27323
X24567Y13228
X24855Y11024
X24855Y10396
X27411Y32017
X28268Y12913
X29022Y29698
X29222Y13140
X29362Y29984
X29843Y13232
X31417Y32441
X31871Y32688
X32194Y9625
X32205Y14160
X32273Y34104
X32577Y32680
X35211Y13263
X35326Y11995
X35536Y12534
X36693Y29685
X36942Y10379
X37660Y14084
X38266Y26152
X38322Y14121
X38322Y13620
X38484Y24340
X38605Y22144
X38605Y21750
X38605Y17608
X38657Y20246
X38733Y11991
X38848Y25837
X38903Y21191
X38976Y24804
X38983Y24400
X39585Y35192
X39641Y22721
X39843Y25433
X39941Y24026
X40172Y22399
X40334Y22992
X40787Y23622
X41920Y5919
X43680Y15402
X43683Y20094
X43974Y28346
X44007Y30172
X44326Y21477
X44458Y9860
X44549Y29282
X45401Y17514
X45556Y21415
X45645Y23622
X48571Y15128
X48898Y28504
X49184Y23976
X49186Y24488
X49856Y26689
X51099Y25051
X51811Y29685
X52889Y32254
X52981Y11937
X53046Y21116
X53073Y16458
X53381Y32648
X53497Y31442
X53755Y31836
X41633Y33199
X41708Y36129
X41752Y34459
X41752Y31093
X41985Y31283
X42041Y32563
X42041Y32874
X42195Y35897
X42423Y34306
X42515Y35004
X42578Y32376
X42715Y31443
X43007Y31171
X43110Y36211
X43156Y35574
X43198Y35197
X43273Y33890
X43277Y32653
X43553Y31132
X43634Y33218
X43759Y31929
X43819Y33878
X43828Y34925
X43937Y33168
X44035Y31093
X44832Y36216
X45000Y31900
X45290Y33705
X45520Y34644
X45521Y33144
X45522Y33937
X45728Y34180
X45748Y30994
X45806Y33839
X46113Y35216
X46321Y33081
X46410Y35165
X46535Y31024
X46551Y34518
X46720Y35171
X46738Y31738
X46811Y33120
X46870Y34120
X47023Y34795
X47027Y31821
X47328Y32554
X47346Y35520
X47354Y35821
X47726Y31014
X47933Y35652
X47958Y36237
X47967Y35353
X48224Y36018
X48362Y34376
X48408Y33529
X48478Y33016
X48478Y32116
X48478Y31815
X48478Y31514
X48478Y31213
X48482Y32608
X48858Y34144
X49114Y33927
X51189Y30972
X51406Y32721
X51446Y35974
X51594Y35561
X51693Y32628
X51732Y34980
X51732Y34705
X51732Y34429
X51909Y35541
X51929Y30965
X52037Y34980
X52037Y34705
X52234Y35955
X41696Y35660
X41696Y35266
X41696Y34872
X41696Y33974
X41696Y33574
X52165Y32648
X52165Y32254
X52165Y31860
X52165Y31467
X9350Y34095
X12280Y34020
X10610Y33976
X7244Y33976
X7434Y33743
X8714Y33687
X9025Y33687
X12048Y33533
X10457Y33305
X11155Y33213
X8527Y33150
X7594Y33013
X7322Y32721
X12362Y32618
X11725Y32572
X11348Y32530
X10041Y32455
X8804Y32451
X7283Y32175
X9369Y32094
X8080Y31969
X10029Y31909
X11076Y31900
X9319Y31791
X7244Y31693
X12367Y30896
X8051Y30728
X9856Y30438
X10795Y30208
X9295Y30207
X10088Y30206
X10331Y30000
X7145Y29980
X9990Y29922
X11367Y29615
X9232Y29407
X11316Y29318
X7175Y29193
X10669Y29177
X11322Y29008
X7889Y28990
X9271Y28917
X10271Y28858
X10946Y28705
X7972Y28701
X8705Y28400
X11671Y28382
X11972Y28374
X7165Y28002
X11803Y27795
X12388Y27770
X11504Y27761
X12169Y27504
X10527Y27366
X9680Y27320
X9167Y27250
X8267Y27250
X7966Y27250
X7665Y27250
X7364Y27250
X8759Y27246
X10295Y26870
X10078Y26614
X7123Y24539
X8872Y24322
X12125Y24282
X11712Y24134
X8779Y24035
X11131Y23996
X10856Y23996
X10580Y23996
X11692Y23819
X7116Y23799
X11131Y23691
X10856Y23691
X12106Y23494
X11811Y34032
X11417Y34032
X11023Y34032
X10125Y34032
X9725Y34032
X8799Y23563
X8405Y23563
X8011Y23563
X7618Y23563
X12076Y17427
X11823Y17579
X11536Y17421
X11181Y17421
X11515Y18423
X11620Y18697
X11407Y18940
X11920Y18390
X11180Y19869
X11181Y20846
X11555Y20846
X11929Y20846
X14123Y17427
X13870Y17579
X13583Y17421
X13228Y17421
X13562Y18423
X13667Y18697
X13454Y18940
X13967Y18390
X13227Y19869
X13228Y20846
X13602Y20846
X13976Y20846
X16378Y17555
X16106Y18191
X16320Y18576
X15679Y19005
X15639Y19341
X15836Y19931
X16112Y20187
X16230Y20718
X15836Y21014
X15639Y20522
X15639Y21703
X15639Y23278
X16112Y23258
X17223Y23550
X18270Y23525
X18592Y23237
X19645Y23162
X20757Y23278
X21545Y23278
X21072Y22274
X20427Y22268
X20487Y21022
X20954Y21112
X21122Y20632
X21545Y20915
X21123Y19747
X21819Y19575
X21860Y19183
X21860Y18789
X21178Y18883
X20868Y18394
X21255Y18077
X20858Y17647
X20469Y18026
X20394Y18750
X20442Y19183
X19126Y18198
X19126Y17569
X18207Y17555
X17352Y17555
X17575Y18197
X18159Y19222
X18552Y20669
X17805Y20718
X18238Y21228
X18827Y22226
X19773Y24183
X20705Y24250
X20757Y24655
X21545Y24459
X21151Y23868
X18677Y25008
X18719Y25414
X17890Y24998
X17625Y24595
X16188Y24672
X16597Y24037
X15757Y23804
X24498Y15049
X24974Y15080
X25206Y15270
X25442Y15049
X25679Y15250
X25915Y15049
X26151Y15250
X26387Y15049
X26624Y15250
X26860Y15049
X27096Y15250
X27332Y15049
X27568Y15250
X27805Y15049
X28041Y15250
X28277Y15049
X28513Y15250
X28750Y15049
X28986Y15250
X29222Y15049
X29458Y15250
X29694Y15049
X29931Y15250
X30167Y15049
X30403Y15250
X30639Y15049
X30876Y15250
X31112Y15049
X31348Y15250
X31584Y15049
X31820Y15250
X32057Y15049
X32293Y15250
X32529Y15049
X32765Y15250
X33002Y15049
X33238Y15250
X33474Y15049
X33710Y15250
X33946Y15049
X34183Y15250
X34419Y15049
X34655Y15250
X34891Y15049
X35206Y15207
X35199Y15742
X34772Y15936
X34321Y15946
X33879Y15953
X33406Y15951
X32901Y16998
X32591Y16998
X32344Y16525
X31746Y16728
X31450Y16737
X31607Y17008
X31724Y17690
X31469Y17958
X31372Y18499
X31811Y18499
X32271Y18379
X32271Y18711
X32271Y19006
X32265Y19297
X32595Y19981
X33140Y19977
X33002Y20561
X32372Y20482
X32302Y21314
X32287Y21700
X31939Y21506
X31705Y21306
X31448Y21739
X30755Y22040
X30157Y22057
X29810Y21761
X29035Y21936
X29053Y21381
X29043Y20834
X28335Y20961
X28380Y21760
X28354Y22525
X28332Y23335
X29035Y23375
X29035Y23090
X29035Y22805
X29035Y23676
X29823Y23992
X29810Y24277
X29778Y24575
X29828Y25057
X30232Y25108
X30862Y25586
X31239Y25574
X32175Y25718
X32500Y25118
X32708Y25321
X32690Y24794
X33048Y24747
X32497Y24563
X32291Y23420
X32068Y23191
X32022Y22508
X31731Y22497
X32218Y22289
X32887Y22289
X33753Y22100
X33947Y21886
X34151Y21682
X34353Y21480
X34350Y22293
X33903Y22758
X33890Y23459
X34266Y23361
X34143Y23829
X33941Y24366
X34181Y24592
X34375Y24990
X34183Y25246
X34082Y25629
X34042Y25935
X34340Y25837
X34844Y25635
X34900Y25334
X34844Y24772
X34991Y24527
X34734Y24144
X34716Y23653
X35944Y23261
X36254Y22947
X36072Y22726
X36037Y22206
X37490Y22136
X37490Y22451
X37490Y22766
X37490Y23081
X37490Y23396
X37490Y23711
X37490Y24025
X37351Y24303
X37490Y24577
X37490Y24892
X37490Y25207
X37490Y25522
X37490Y25837
X37490Y26151
X37133Y26239
X37350Y26483
X37041Y27185
X37037Y28120
X36664Y28164
X36662Y27879
X36289Y28120
X36387Y28986
X36072Y28986
X35757Y28986
X35442Y28986
X35128Y28986
X34813Y28986
X34498Y28986
X34183Y28986
X33868Y28986
X33277Y28789
X32923Y28986
X32608Y28986
X32293Y28986
X31978Y28986
X31663Y28986
X31348Y28986
X31033Y28986
X30718Y28986
X30403Y28986
X29891Y28947
X29985Y28292
X29587Y28256
X29242Y28301
X28963Y27999
X29021Y28754
X28710Y28986
X27647Y28986
X27253Y28986
X26892Y28962
X26900Y28499
X26670Y28054
X26589Y27181
X26149Y27404
X27335Y27716
X27798Y28035
X27755Y27184
X28198Y27136
X28683Y26708
X28691Y26423
X28759Y26063
X28762Y25767
X28032Y25866
X28041Y25482
X28032Y25157
X28371Y24829
X28032Y24449
X28048Y24097
X28028Y23802
X28345Y24120
X27350Y24548
X27347Y24992
X26171Y24848
X26191Y24327
X26190Y23938
X27015Y23473
X27315Y23512
X27338Y23059
X27338Y22772
X27338Y22485
X27338Y22069
X27338Y21783
X27356Y21359
X27356Y21051
X27356Y20762
X27580Y20022
X27860Y19927
X28172Y19532
X27874Y19212
X27874Y18646
X27867Y18360
X27958Y17699
X27755Y16954
X27923Y16722
X27623Y16687
X26998Y16523
X26702Y16523
X26076Y16728
X25790Y16728
X25954Y17011
X26058Y17687
X25899Y17956
X25719Y18533
X26195Y18533
X26681Y18379
X26681Y18711
X26681Y19006
X26674Y19297
X25911Y19519
X25915Y19896
X25112Y19904
X25139Y19570
X24844Y20002
X24365Y20045
X24340Y20640
X24340Y21033
X24340Y21427
X24340Y21821
X24340Y22214
X24340Y22608
X24340Y23002
X24340Y23396
X24379Y24025
X24340Y24419
X24340Y24734
X24340Y25108
X24468Y25591
X24379Y25955
X24340Y26585
X24624Y26695
X24340Y27136
X24361Y28298
X24340Y28986
X25364Y25718
X25490Y25423
X26359Y25908
X28351Y26200
X29228Y26648
X29360Y27037
X29698Y26966
X30121Y26644
X30561Y26545
X31302Y26623
X31830Y27559
X31970Y27838
X32041Y28145
X32303Y27455
X33134Y27484
X33326Y27809
X34070Y27463
X33996Y26615
X34290Y26615
X34581Y26615
X35767Y26673
X35797Y27136
X35522Y27667
X35496Y28571
X34386Y28698
X36702Y28986
X37017Y28986
X37332Y28986
X36138Y26082
X35982Y25843
X36210Y25551
X36427Y25124
X35986Y25126
X35888Y24442
X36404Y24153
X36680Y24707
X36691Y23498
X37490Y21821
X37490Y21506
X37490Y21191
X37490Y20876
X37490Y20561
X37490Y20246
X37490Y19931
X37490Y19616
X37490Y19301
X36971Y18687
X37411Y18081
X37490Y17608
X36919Y17010
X36919Y16691
X36919Y16373
X36919Y16055
X36919Y15736
X36555Y15410
X37273Y15367
X35677Y16198
X35810Y16777
X35246Y17687
X35013Y18391
X35027Y18711
X35022Y18999
X35021Y19297
X34234Y19519
X34225Y19932
X33715Y19547
X33425Y19331
X33425Y18758
X33462Y18372
X34066Y18506
X34566Y18499
X34226Y17953
X34347Y17287
X34030Y17287
X33684Y17287
X34694Y17276
X32883Y17687
X30667Y18372
X30669Y18771
X30669Y19210
X30751Y19594
X31478Y19572
X31427Y19854
X30285Y19986
X29961Y19994
X29939Y20486
X29529Y20206
X29458Y19377
X29481Y19006
X29468Y18711
X29458Y18211
X29163Y18474
X28494Y18519
X28694Y17977
X28623Y17101
X28854Y16521
X29564Y16728
X29856Y16728
X29714Y17018
X29837Y17687
X30483Y16567
X30811Y16516
X28816Y19525
X28617Y19931
X27004Y19981
X26470Y20600
X26470Y21361
X26470Y22122
X26471Y22884
X30154Y22831
X29950Y23156
X30112Y24044
X29033Y25144
X29832Y27767
X30276Y27671
X30369Y27401
X30572Y27764
X33078Y26422
X33136Y26139
X34709Y20606
X35088Y20955
X36175Y20810
X36126Y20081
X35814Y20113
X35351Y19981
X36886Y20288
X30564Y21343
X25078Y18799
X25116Y18334
X24834Y18012
X24343Y17973
X24941Y17421
X24675Y17109
X24340Y16427
X24340Y16033
X24360Y15448
X24931Y15640
X25128Y16523
X24468Y19331
T03
X30201Y36039G85X30201Y36276
X30343Y33697G85X30343Y33933
X33594Y33697G85X33594Y33933
X33736Y36039G85X33736Y36276
T04
X33386Y33323
X30610Y33323G85X30492Y33323
T05
X8102Y7852
X8102Y5490
X8102Y3128
X9413Y7852
X9413Y5490
X9413Y3128
X10724Y7852
X10724Y5490
X10724Y3128
X12035Y7852
X12035Y5490
X12035Y3128
X13346Y7852
X13346Y5490
X13346Y3128
X14657Y7852
X14657Y5490
X14657Y3128
X15969Y7852
X15969Y5490
X15969Y3128
X17280Y7852
X17280Y5490
X17280Y3128
X18591Y7852
X18591Y5490
X18591Y3128
X19902Y7852
X19902Y5490
X19906Y3128
X21213Y7852
X21213Y5490
X21213Y3128
X22524Y7852
X22524Y5490
X22524Y3128
X23835Y7852
X23835Y5490
X23835Y3128
X25146Y7852
X25146Y5490
X25146Y3128
X26457Y7852
X26457Y5490
X26457Y3128
X33543Y7852
X33543Y5490
X33543Y3128
X34854Y7852
X34854Y5490
X34854Y3128
X36165Y7852
X36165Y5490
X36165Y3128
X37476Y7852
X37476Y5490
X37476Y3128
X38787Y7852
X38787Y5490
X38787Y3128
X40098Y7852
X40098Y5490
X40098Y3128
X41409Y7852
X41409Y5490
X41409Y3128
X42720Y7852
X42720Y5490
X42720Y3128
X44031Y7852
X44031Y5490
X44031Y3128
X45343Y7852
X45343Y5490
X45343Y3128
X46654Y7852
X46654Y5490
X46654Y3128
X47965Y7852
X47965Y5490
X47965Y3128
X49276Y7852
X49276Y5490
X49276Y3128
X50587Y7852
X50587Y5490
X50587Y3128
X51898Y7852
X51898Y5490
X51898Y3128
X14016Y22853
X14488Y25276
X20866Y12283
X43385Y24096
X44300Y16038
X45035Y29506
X45428Y27244
X45905Y22271
X30435Y20344
X32013Y20344
X33435Y20344
T06
X4515Y17989
X55152Y12740
X6291Y36457
X7291Y36457
X8291Y36457
X9291Y36457
X10291Y36457
X15581Y25266
X15581Y24537
X15581Y22589
X15581Y17844
X21683Y25089
X21683Y22569
X21683Y21821
X21683Y20128
X21683Y17667
X36031Y36378
X37031Y36378
X38031Y36378
X39031Y36378
X40031Y36378
X49019Y31978
X49807Y33160
X50594Y31978
X41893Y31900
X43893Y32300
X43893Y31500
X8129Y26709
X9311Y25921
X8129Y25134
X8051Y33835
X8451Y31835
X7651Y31835
X15580Y17844
X15580Y22589
X21683Y22569
X21683Y21821
X21683Y20128
X21683Y17667
X21683Y25089
X15580Y25266
X15580Y24537
X24655Y28671
X33734Y27700
X33734Y28500
X35734Y28100
T07
X8986Y20694
X53674Y33494
X48842Y35787
X49842Y35787
X50842Y35787
X11938Y26886
X11938Y25886
X11938Y24886
M30
